<svg width="806" height="425" viewBox="0 0 806 425" fill="none" xmlns="http://www.w3.org/2000/svg">
<path d="M341.56 15.6603H343.176V4.5498H341.56V15.6603Z" fill="#FBC130"/>
<path d="M335.66 17.9683L330.107 8.34771L331.513 7.53728L337.066 17.1594L335.66 17.9683Z" fill="#FBC130"/>
<path d="M331.716 22.9177L322.09 17.3622L322.887 15.9603L332.514 21.5144L331.716 22.9177Z" fill="#FBC130"/>
<path d="M319.64 29.1792H330.756V27.5601H319.64V29.1792Z" fill="#FBC130"/>
<path d="M323.438 40.6338L322.641 39.2305L332.253 33.675L333.079 35.0783L323.438 40.6338Z" fill="#FBC130"/>
<path d="M332.456 48.6553L331.064 47.8463L336.617 38.2228L338.023 39.0318L332.456 48.6553Z" fill="#FBC130"/>
<path d="M342.662 51.0938H344.279V39.9833H342.662V51.0938Z" fill="#FBC130"/>
<path d="M354.333 48.1074L348.766 38.4853L350.172 37.6749L355.725 47.2969L354.333 48.1074Z" fill="#FBC130"/>
<path d="M362.944 39.6842L353.318 34.1302L354.13 32.7268L363.756 38.2823L362.944 39.6842Z" fill="#FBC130"/>
<path d="M355.072 28.0832H366.188V26.4641H355.072V28.0832Z" fill="#FBC130"/>
<path d="M353.579 21.9681L352.767 20.5648L362.393 15.0093L363.205 16.4127L353.579 21.9681Z" fill="#FBC130"/>
<path d="M349.215 17.4203L347.823 16.6098L353.376 6.98921L354.782 7.79819L349.215 17.4203Z" fill="#FBC130"/>
<path d="M235.934 88.6933C234.53 82.9421 229.369 78.6697 223.182 78.6697C221.739 78.6697 220.356 78.9103 219.058 79.3394C219.126 78.7595 219.164 78.171 219.164 77.5751C219.164 69.3071 212.463 62.6034 204.194 62.6034C195.926 62.6034 189.222 69.3071 189.222 77.5751C189.222 78.0956 189.251 78.6131 189.302 79.1205C188.226 78.8364 187.103 78.6697 185.937 78.6697C178.677 78.6697 172.791 84.5542 172.791 91.8161C172.791 99.075 178.677 104.96 185.937 104.96H256.536C256.536 104.96 256.139 90.9854 235.934 88.6933Z" fill="#DBF3F7"/>
<path d="M732.865 211.237C731.459 205.487 726.283 201.213 720.107 201.213C718.657 201.213 717.28 201.454 715.975 201.883C716.048 201.303 716.091 200.716 716.091 200.117C716.091 191.849 709.393 185.147 701.115 185.147C692.837 185.147 686.154 191.849 686.154 200.117C686.154 200.641 686.183 201.155 686.226 201.664C685.139 201.379 684.023 201.213 682.863 201.213C675.599 201.213 669.713 207.099 669.713 214.358C669.713 221.619 675.599 227.503 682.863 227.503H753.466C753.466 227.503 753.06 213.531 732.865 211.237Z" fill="#DBF3F7"/>
<path d="M459.89 164.669C458.237 157.929 452.191 152.919 444.942 152.919C443.246 152.919 441.623 153.202 440.1 153.705C440.173 153.026 440.216 152.336 440.216 151.636C440.216 141.944 432.359 134.087 422.674 134.087C412.99 134.087 405.132 141.944 405.132 151.636C405.132 152.249 405.161 152.854 405.234 153.45C403.972 153.115 402.653 152.919 401.276 152.919C392.766 152.919 385.879 159.818 385.879 168.329C385.879 176.839 392.766 183.738 401.276 183.738H484.028C484.028 183.738 483.564 167.357 459.89 164.669Z" fill="#DBF3F7"/>
<path d="M612.752 108.944C611.737 108.944 610.766 109.035 609.78 109.19C609.824 108.796 609.853 108.398 609.853 107.994C609.853 101.189 604.343 95.6725 597.53 95.6725C594.268 95.6725 591.31 96.9468 589.107 99.0141C586.917 96.9468 583.96 95.6725 580.698 95.6725C575.029 95.6725 570.26 99.5027 568.839 104.712C568.578 104.697 568.317 104.689 568.07 104.689C561.257 104.689 555.748 110.205 555.748 117.01C555.748 117.01 535.915 110.699 532.305 129.333H631.309C631.367 128.755 631.396 128.169 631.396 127.577C631.396 117.285 623.045 108.944 612.752 108.944Z" fill="#DBF3F7"/>
<path d="M83.4554 149.473C82.4449 149.473 81.4562 149.566 80.4892 149.719C80.5283 149.325 80.5544 148.928 80.5544 148.525C80.5544 141.718 75.0381 136.202 68.2315 136.202C64.971 136.202 62.0149 137.478 59.8113 139.545C57.6105 137.478 54.6602 136.202 51.4011 136.202C45.734 136.202 40.9717 140.032 39.5335 145.243C39.2827 145.228 39.0319 145.218 38.7782 145.218C31.9716 145.218 26.4552 150.736 26.4552 157.541C26.4552 157.541 6.61676 151.23 3.00977 169.864H102.004C102.06 169.285 102.089 168.7 102.089 168.108C102.089 157.816 93.7472 149.473 83.4554 149.473Z" fill="#DBF3F7"/>
<path d="M509.486 83.0349H497.453C496.51 83.0349 495.728 82.2666 495.728 81.3184C495.728 80.3688 496.51 79.599 497.453 79.599H509.486C510.414 79.599 511.196 80.3688 511.196 81.3184C511.196 82.2666 510.414 83.0349 509.486 83.0349Z" fill="#9ED2D8"/>
<path d="M427.038 67.0034L422.457 50.6864H427.879L445.914 67.8617L427.038 67.0034Z" fill="#E6F7F8"/>
<path d="M520.417 65.8509H425.269C423.544 65.8509 422.152 67.2455 422.152 68.9649C422.152 70.4263 423.181 71.6919 424.602 72.0065L436.65 74.6581C438.723 75.1148 440.68 76.0093 442.362 77.2822C444.942 79.2118 448.059 80.2557 451.278 80.2557H520.75C524.795 80.2557 528.057 76.927 527.956 72.8634C527.854 68.9969 524.288 65.8509 520.417 65.8509Z" fill="#9ED2D8"/>
<path d="M515.314 76.5037L456.642 64.0938H448.378L470.936 77.2562L515.314 76.5037Z" fill="#E6F7F8"/>
<path d="M451.278 80.2557H520.751C523.795 80.2557 526.39 78.3724 527.448 75.7107H439.738C440.666 76.1441 441.536 76.669 442.362 77.2822C444.943 79.2118 448.06 80.2557 451.278 80.2557Z" fill="#E6F7F8"/>
<path d="M518.518 68.3358H516.908V72.6996H525.216C525.216 72.6996 525.186 72.6488 525.157 72.5575C523.969 69.9711 521.359 68.3358 518.518 68.3358Z" fill="#E6F7F8"/>
<path d="M363.408 71.6311H411.644V69.0521H363.408V71.6311Z" fill="#E6F7F8"/>
<path d="M333.572 83.1146H411.001V80.5356H333.572V83.1146Z" fill="#E6F7F8"/>
<path d="M73.4013 223.751C76.5313 218.38 78.1942 212.048 77.839 205.303C76.9706 188.724 63.643 175.154 47.0795 174.01C27.7006 172.675 11.5662 187.997 11.5662 207.089C11.5662 213.026 13.1276 218.595 15.8574 223.415C19.563 229.952 18.7758 238.216 13.6452 243.704C5.88169 252.007 1.40774 263.423 2.30079 275.877C3.79984 296.792 20.7287 313.697 41.6443 315.172C66.5323 316.925 87.2654 297.254 87.2654 272.74C87.2654 261.507 82.9103 251.292 75.7964 243.69C70.7454 238.292 69.6812 230.139 73.4013 223.751Z" fill="#D7EEB6"/>
<path d="M44.7265 259.972C43.2231 259.972 42.0052 261.191 42.0052 262.695V370.89C42.0052 372.393 43.2231 373.61 44.7265 373.61C46.2299 373.61 47.4476 372.393 47.4476 370.89V262.695C47.4476 261.191 46.2299 259.972 44.7265 259.972Z" fill="#9ED2D8"/>
<path d="M117.903 177.033C120.679 172.268 122.154 166.65 121.841 160.67C121.069 145.963 109.247 133.927 94.5562 132.914C77.3678 131.728 63.0572 145.32 63.0572 162.253C63.0572 167.518 64.4402 172.459 66.8642 176.734C70.1508 182.532 69.4507 189.86 64.8984 194.73C58.015 202.093 54.0469 212.219 54.837 223.266C56.1665 241.817 71.1817 256.812 89.7357 258.119C111.81 259.675 130.2 242.229 130.2 220.485C130.2 210.52 126.338 201.46 120.028 194.719C115.547 189.93 114.602 182.699 117.903 177.033Z" fill="#D7EEB6"/>
<path d="M92.4685 209.161C91.1362 209.161 90.0562 210.241 90.0562 211.573V307.539C90.0562 308.873 91.1362 309.954 92.4685 309.954C93.8023 309.954 94.8824 308.873 94.8824 307.539V211.573C94.8824 210.241 93.8023 209.161 92.4685 209.161Z" fill="#9ED2D8"/>
<path d="M529.159 144.808C532.276 139.441 533.943 133.117 533.581 126.378C532.726 109.816 519.402 96.2611 502.86 95.1187C483.506 93.7849 467.385 109.091 467.385 128.163C467.385 134.094 468.951 139.657 471.662 144.473C475.373 151.001 474.59 159.256 469.458 164.739C461.702 173.033 457.237 184.437 458.121 196.877C459.629 217.77 476.533 234.658 497.424 236.131C522.302 237.882 543.004 218.232 543.004 193.746C543.004 182.523 538.655 172.32 531.551 164.725C526.492 159.334 525.433 151.188 529.159 144.808Z" fill="#D7EEB6"/>
<path d="M500.512 180.992C499.004 180.992 497.801 182.209 497.801 183.709V291.789C497.801 293.291 499.004 294.507 500.512 294.507C502.005 294.507 503.223 293.291 503.223 291.789V183.709C503.223 182.209 502.005 180.992 500.512 180.992Z" fill="#9ED2D8"/>
<path d="M576.291 196.519C579.074 191.754 580.553 186.138 580.234 180.156C579.451 165.449 567.65 153.414 552.949 152.4C535.755 151.214 521.446 164.806 521.446 181.74C521.446 187.006 522.838 191.945 525.245 196.219C528.536 202.018 527.84 209.348 523.287 214.215C516.401 221.581 512.429 231.706 513.226 242.751C514.56 261.303 529.579 276.298 548.136 277.606C570.202 279.161 588.599 261.713 588.599 239.971C588.599 230.007 584.728 220.948 578.422 214.203C573.942 209.416 572.985 202.185 576.291 196.519Z" fill="#D7EEB6"/>
<path d="M550.862 228.646C549.528 228.646 548.441 229.727 548.441 231.06V327.026C548.441 328.359 549.528 329.439 550.862 329.439C552.196 329.439 553.283 328.359 553.283 327.026V231.06C553.283 229.727 552.196 228.646 550.862 228.646Z" fill="#9ED2D8"/>
<path d="M709.582 141.666L644.937 127.463L653.896 86.6289L718.541 100.832L709.582 141.666Z" fill="#FCDB84"/>
<path d="M679.673 342.851L587.758 322.666L632.759 117.886L724.644 138.074L679.673 342.851Z" fill="#FCDB84"/>
<path d="M674.758 365.153L582.873 344.967L592.818 299.706L684.718 319.891L674.758 365.153Z" fill="#FBC130"/>
<path d="M723.108 145.069L631.222 124.884L632.744 117.96L724.63 138.146L723.108 145.069Z" fill="#FBC130"/>
<path d="M715.424 180.07L623.524 159.885L625.046 152.961L716.946 173.148L715.424 180.07Z" fill="#FBC130"/>
<path d="M707.74 215.072L615.84 194.884L617.348 187.961L709.263 208.146L707.74 215.072Z" fill="#FBC130"/>
<path d="M700.042 250.073L608.156 229.885L609.664 222.961L701.579 243.148L700.042 250.073Z" fill="#FBC130"/>
<path d="M692.358 285.073L600.473 264.887L601.98 257.963L693.881 278.149L692.358 285.073Z" fill="#FBC130"/>
<path d="M642.342 158.744L630.033 156.04L634.122 137.401C634.861 134.003 638.224 131.853 641.631 132.599C645.024 133.346 647.169 136.706 646.43 140.105L642.342 158.744Z" fill="#FBC130"/>
<path d="M659.913 162.606L647.604 159.903L651.707 141.263C652.446 137.865 655.81 135.715 659.202 136.463C662.609 137.208 664.769 140.569 664.016 143.967L659.913 162.606Z" fill="#FBC130"/>
<path d="M664.364 126.384L652.07 123.68L656.158 105.042C656.897 101.643 660.261 99.4925 663.668 100.241C667.06 100.986 669.206 104.346 668.466 107.745L664.364 126.384Z" fill="#FBC130"/>
<path d="M684.312 130.762L672.004 128.059L676.078 109.421C676.832 106.021 680.195 103.872 683.602 104.619C686.98 105.364 689.14 108.725 688.386 112.123L684.312 130.762Z" fill="#FBC130"/>
<path d="M704.232 135.139L691.923 132.437L696.012 113.797C696.766 110.399 700.129 108.249 703.522 108.996C706.914 109.742 709.074 113.103 708.32 116.501L704.232 135.139Z" fill="#FBC130"/>
<path d="M677.498 166.469L665.19 163.765L669.293 145.127C670.047 141.728 673.396 139.577 676.788 140.325C680.195 141.07 682.355 144.431 681.601 147.83L677.498 166.469Z" fill="#FBC130"/>
<path d="M695.084 170.331L682.775 167.627L686.878 148.989C687.618 145.591 690.981 143.441 694.373 144.187C697.78 144.932 699.926 148.294 699.172 151.694L695.084 170.331Z" fill="#FBC130"/>
<path d="M712.684 174.193L700.361 171.489L704.449 152.851C705.203 149.453 708.567 147.303 711.973 148.049C715.351 148.794 717.512 152.156 716.758 155.556L712.684 174.193Z" fill="#FBC130"/>
<path d="M634.658 193.744L622.35 191.041L626.423 172.402C627.177 169.004 630.541 166.854 633.948 167.599C637.34 168.347 639.486 171.708 638.746 175.106L634.658 193.744Z" fill="#FBC130"/>
<path d="M652.229 197.608L639.921 194.904L644.023 176.265C644.763 172.866 648.126 170.716 651.519 171.463C654.926 172.21 657.071 175.57 656.332 178.968L652.229 197.608Z" fill="#FBC130"/>
<path d="M669.815 201.47L657.506 198.766L661.609 180.127C662.348 176.728 665.697 174.578 669.104 175.325C672.511 176.072 674.657 179.432 673.917 182.831L669.815 201.47Z" fill="#FBC130"/>
<path d="M687.4 205.332L675.092 202.628L679.18 183.989C679.92 180.591 683.283 178.442 686.69 179.189C690.097 179.934 692.243 183.294 691.489 186.693L687.4 205.332Z" fill="#FBC130"/>
<path d="M704.971 209.194L692.677 206.491L696.766 187.852C697.519 184.453 700.883 182.304 704.275 183.051C707.668 183.796 709.828 187.157 709.074 190.558L704.971 209.194Z" fill="#FBC130"/>
<path d="M626.96 228.746L614.651 226.042L618.74 207.404C619.493 204.006 622.857 201.854 626.264 202.601C629.642 203.349 631.802 206.71 631.048 210.108L626.96 228.746Z" fill="#FBC130"/>
<path d="M644.545 232.608L632.237 229.904L636.325 211.266C637.079 207.868 640.443 205.718 643.835 206.463C647.227 207.211 649.388 210.572 648.634 213.97L644.545 232.608Z" fill="#FBC130"/>
<path d="M662.131 236.47L649.823 233.766L653.911 215.128C654.665 211.73 658.014 209.58 661.421 210.325C664.828 211.073 666.959 214.434 666.234 217.832L662.131 236.47Z" fill="#FBC130"/>
<path d="M679.717 240.334L667.408 237.63L671.496 218.99C672.236 215.592 675.599 213.442 679.006 214.189C682.399 214.935 684.544 218.296 683.805 221.694L679.717 240.334Z" fill="#FBC130"/>
<path d="M697.288 244.196L684.979 241.492L689.082 222.853C689.821 219.454 693.185 217.304 696.577 218.051C699.984 218.798 702.13 222.158 701.39 225.556L697.288 244.196Z" fill="#FBC130"/>
<path d="M619.261 263.747L606.968 261.044L611.056 242.406C611.81 239.007 615.173 236.856 618.566 237.602C621.958 238.349 624.118 241.711 623.364 245.109L619.261 263.747Z" fill="#FBC130"/>
<path d="M636.847 267.61L624.539 264.906L628.642 246.268C629.396 242.869 632.759 240.718 636.137 241.465C639.544 242.211 641.704 245.573 640.95 248.971L636.847 267.61Z" fill="#FBC130"/>
<path d="M654.447 271.472L642.124 268.768L646.227 250.13C646.966 246.732 650.33 244.58 653.737 245.327C657.129 246.075 659.275 249.435 658.535 252.834L654.447 271.472Z" fill="#FBC130"/>
<path d="M672.033 275.334L659.724 272.63L663.798 253.992C664.552 250.594 667.916 248.444 671.322 249.19C674.7 249.937 676.861 253.298 676.107 256.696L672.033 275.334Z" fill="#FBC130"/>
<path d="M689.604 279.196L677.295 276.492L681.384 257.854C682.138 254.456 685.501 252.306 688.893 253.053C692.3 253.799 694.446 257.16 693.707 260.558L689.604 279.196Z" fill="#FBC130"/>
<path d="M610.201 305.067L597.892 302.365L601.98 283.727C602.72 280.328 606.083 278.177 609.49 278.923C612.883 279.67 615.028 283.031 614.289 286.43L610.201 305.067Z" fill="#FBC130"/>
<path d="M627.772 308.931L615.463 306.227L619.566 287.589C620.32 284.19 623.683 282.039 627.061 282.786C630.468 283.532 632.628 286.893 631.874 290.293L627.772 308.931Z" fill="#FBC130"/>
<path d="M645.357 312.793L633.049 310.089L637.152 291.451C637.905 288.053 641.254 285.901 644.647 286.648C648.054 287.394 650.2 290.756 649.46 294.155L645.357 312.793Z" fill="#FBC130"/>
<path d="M662.943 316.655L650.634 313.951L654.723 295.313C655.477 291.915 658.84 289.765 662.247 290.51C665.639 291.258 667.785 294.619 667.031 298.017L662.943 316.655Z" fill="#FBC130"/>
<path d="M680.528 320.517L668.22 317.815L672.308 299.175C673.062 295.777 676.425 293.627 679.818 294.374C683.21 295.12 685.37 298.481 684.617 301.879L680.528 320.517Z" fill="#FBC130"/>
<path d="M601.763 343.473L589.454 340.767L593.543 322.131C594.282 318.731 597.646 316.581 601.053 317.329C604.445 318.074 606.605 321.435 605.851 324.833L601.763 343.473Z" fill="#E2A21C"/>
<path d="M619.334 347.335L607.025 344.631L611.128 325.993C611.882 322.594 615.246 320.443 618.623 321.191C622.03 321.936 624.191 325.297 623.437 328.695L619.334 347.335Z" fill="#E2A21C"/>
<path d="M636.92 351.197L624.611 348.493L628.714 329.855C629.468 326.457 632.817 324.305 636.209 325.053C639.616 325.798 641.776 329.159 641.022 332.559L636.92 351.197Z" fill="#E2A21C"/>
<path d="M654.505 355.059L642.197 352.355L646.285 333.717C647.039 330.319 650.402 328.167 653.809 328.915C657.202 329.661 659.347 333.023 658.593 336.421L654.505 355.059Z" fill="#E2A21C"/>
<path d="M672.091 358.921L659.797 356.217L663.871 337.579C664.625 334.181 667.988 332.03 671.395 332.778C674.773 333.523 676.933 336.885 676.179 340.283L672.091 358.921Z" fill="#E2A21C"/>
<path d="M717.033 107.771L652.374 93.5674L653.896 86.6288L718.541 100.832L717.033 107.771Z" fill="#FBC130"/>
<path d="M688.444 372.718L690.648 362.701L568.709 335.919L560.619 372.718H688.444Z" fill="#E2A21C"/>
<path d="M410.641 234.069H463.556V204.337H410.641V234.069Z" fill="#BEEAF1"/>
<path d="M428.43 231.558H445.784V217.33H428.43V231.558Z" fill="#6EBCD0"/>
<path d="M404.045 237.788H470.145V229.573H404.045V237.788Z" fill="#6EBCD0"/>
<path d="M401.305 250.243H472.907V241.446H401.305V250.243Z" fill="#6EBCD0"/>
<path d="M402.914 230.67H471.283V226.024H402.914V230.67Z" fill="#BEEAF1"/>
<path d="M399.942 242.768H474.267V237.157H399.942V242.768Z" fill="#BEEAF1"/>
<path d="M399.014 261.071H475.182V253.016H399.014V261.071Z" fill="#6EBCD0"/>
<path d="M397.797 261.937H476.403V253.343H397.797V261.937Z" fill="#6EBCD0"/>
<path d="M396.129 254.318H478.082V249.035H396.129V254.318Z" fill="#BEEAF1"/>
<path d="M391.446 277.197H482.757V267.872H391.446V277.197Z" fill="#6EBCD0"/>
<path d="M389.228 268.374H484.963V262.02H389.228V268.374Z" fill="#BEEAF1"/>
<path d="M386.88 294.645H487.321V280.971H386.88V294.645Z" fill="#6EBCD0"/>
<path d="M384.285 282.088H489.916V276.43H384.285V282.088Z" fill="#BEEAF1"/>
<path d="M380.24 308.352H493.953V294.467H380.24V308.352Z" fill="#6EBCD0"/>
<path d="M377.094 295.902H497.101V290.133H377.094V295.902Z" fill="#BEEAF1"/>
<path d="M373.267 324.905H502.689V311.019H373.267V324.905Z" fill="#6EBCD0"/>
<path d="M369.715 312.453H506.255V306.686H369.715V312.453Z" fill="#BEEAF1"/>
<path d="M360.61 341.105H515.711V327.219H360.61V341.105Z" fill="#6EBCD0"/>
<path d="M356.319 328.655H519.983V322.887H356.319V328.655Z" fill="#BEEAF1"/>
<path d="M350.578 356.249H525.727V342.363H350.578V356.249Z" fill="#6EBCD0"/>
<path d="M345.764 343.799H530.555V338.031H345.764V343.799Z" fill="#BEEAF1"/>
<path d="M340.241 372.45H536.402V358.564H340.241V372.45Z" fill="#6EBCD0"/>
<path d="M334.848 359.999H541.827V354.231H334.848V359.999Z" fill="#BEEAF1"/>
<path d="M410.641 208.464H463.556V204.338H410.641V208.464Z" fill="#6EBCD0"/>
<path d="M410.641 215.215H463.556V211.091H410.641V215.215Z" fill="#6EBCD0"/>
<path d="M447.233 226.707L437.1 227.45L426.966 226.707L400.797 372.47H473.401L447.233 226.707Z" fill="#BEEAF1"/>
<path d="M405.147 372.658L430.662 224.186L437.099 224.656L443.536 224.186L468.443 372.658H405.147Z" fill="#6EBCD0"/>
<path d="M289.282 73.3664H292.458V57.8534H289.282V73.3664Z" fill="#FBC130"/>
<path d="M295.864 59.2212C295.864 61.9931 293.646 64.2402 290.877 64.2402C288.108 64.2402 285.89 61.9931 285.89 59.2212C285.89 56.4492 288.108 54.2021 290.877 54.2021C293.646 54.2021 295.864 56.4492 295.864 59.2212Z" fill="#FBC130"/>
<path d="M262.273 309.655H319.81V144.715H262.273V309.655Z" fill="#FCDB84"/>
<path d="M257.779 145.317H324.291V135.685H257.779V145.317Z" fill="#FCDB84"/>
<path d="M291.051 136.889V117.626L257.779 135.686L291.051 136.889Z" fill="#FCDB84"/>
<path d="M291.051 136.889V117.626L324.293 135.686L291.051 136.889Z" fill="#FCDB84"/>
<path d="M277.974 128.604H304.12V111.608H277.974V128.604Z" fill="#FCDB84"/>
<path d="M277.974 110.96H304.12V84.7608H277.974V110.96Z" fill="#FCDB84"/>
<path d="M275.161 114.015H306.922V109.801H275.161V114.015Z" fill="#FCDB84"/>
<path d="M306.534 86.4244H275.016V77.4533L290.877 69.1476L306.534 77.4533V86.4244Z" fill="#FCDB84"/>
<path d="M282.222 107.378H299.86V87.7517H282.222V107.378Z" fill="#FBC130"/>
<path d="M287.151 171.008H274.842V157.537C274.842 154.137 277.597 151.379 280.989 151.379C284.396 151.379 287.151 154.137 287.151 157.537V171.008Z" fill="#FBC130"/>
<path d="M306.085 171.008H293.776V157.537C293.776 154.137 296.531 151.379 299.937 151.379C303.344 151.379 306.085 154.137 306.085 157.537V171.008Z" fill="#FBC130"/>
<path d="M287.151 292.54H274.842V241.024C274.842 237.624 277.597 234.868 280.989 234.868C284.396 234.868 287.151 237.624 287.151 241.024V292.54Z" fill="#FBC130"/>
<path d="M306.085 292.54H293.776V241.024C293.776 237.624 296.531 234.868 299.937 234.868C303.344 234.868 306.085 237.624 306.085 241.024V292.54Z" fill="#FBC130"/>
<path d="M288.035 98.8314H294.656V90.2846H288.035V98.8314Z" fill="#FBC130"/>
<path d="M339.589 235.238H400.968V173.591H339.589V235.238Z" fill="#A28BCD"/>
<path d="M342.706 314.166H397.875V234.185H342.706V314.166Z" fill="#A28BCD"/>
<path d="M343.358 232.367H348.618V224.005H343.358V232.367Z" fill="white"/>
<path d="M346.576 266.427H351.851V240.425H346.576V266.427Z" fill="white"/>
<path d="M356.319 266.427H361.579V240.425H356.319V266.427Z" fill="white"/>
<path d="M377.587 266.427H382.847V240.425H377.587V266.427Z" fill="white"/>
<path d="M388.518 266.427H393.778V240.425H388.518V266.427Z" fill="white"/>
<path d="M346.576 303.943H351.851V277.942H346.576V303.943Z" fill="white"/>
<path d="M356.319 303.943H361.579V277.942H356.319V303.943Z" fill="white"/>
<path d="M377.587 303.943H382.847V277.942H377.587V303.943Z" fill="white"/>
<path d="M388.518 303.943H393.778V277.942H388.518V303.943Z" fill="white"/>
<path d="M355 232.367H360.274V224.005H355V232.367Z" fill="white"/>
<path d="M366.67 232.367H371.93V224.005H366.67V232.367Z" fill="white"/>
<path d="M378.326 232.367H383.586V224.005H378.326V232.367Z" fill="white"/>
<path d="M389.982 232.367H395.257V224.005H389.982V232.367Z" fill="white"/>
<path d="M391.896 198.707C391.896 210.643 382.212 220.318 370.28 220.318C358.349 220.318 348.664 210.643 348.664 198.707C348.664 186.771 358.349 177.095 370.28 177.095C382.212 177.095 391.896 186.771 391.896 198.707Z" fill="white"/>
<path d="M373.238 198.707C373.238 200.344 371.918 201.67 370.28 201.67C368.642 201.67 367.308 200.344 367.308 198.707C367.308 197.07 368.642 195.744 370.28 195.744C371.918 195.744 373.238 197.07 373.238 198.707Z" fill="#A28BCD"/>
<path d="M369.41 183.59H371.14V177.824H369.41V183.59Z" fill="#A28BCD"/>
<path d="M369.41 218.57H371.14V212.805H369.41V218.57Z" fill="#A28BCD"/>
<path d="M349.911 199.062H355.667V197.332H349.911V199.062Z" fill="#A28BCD"/>
<path d="M384.894 199.062H390.65V197.332H384.894V199.062Z" fill="#A28BCD"/>
<path d="M378.428 186.037L376.92 185.162L379.848 180.189L381.342 181.066L378.428 186.037Z" fill="#A28BCD"/>
<path d="M360.726 216.205L359.218 215.33L362.132 210.357L363.64 211.231L360.726 216.205Z" fill="#A28BCD"/>
<path d="M358.131 190.058L357.247 191.549L352.274 188.63L353.144 187.138L358.131 190.058Z" fill="#A28BCD"/>
<path d="M388.286 207.763L387.416 209.255L382.444 206.338L383.328 204.847L388.286 207.763Z" fill="#A28BCD"/>
<path d="M383.748 192.479L382.98 190.929L388.141 188.364L388.924 189.914L383.748 192.479Z" fill="#A28BCD"/>
<path d="M352.419 208.029L351.651 206.479L356.812 203.916L357.58 205.466L352.419 208.029Z" fill="#A28BCD"/>
<path d="M364.568 184.728L363.017 185.498L360.451 180.333L362.002 179.564L364.568 184.728Z" fill="#A28BCD"/>
<path d="M380.124 216.062L378.572 216.83L376.006 211.666L377.543 210.896L380.124 216.062Z" fill="#A28BCD"/>
<path d="M385.938 150.965H354.623L344.88 160.713V175.483C344.59 175.187 370.28 175.483 370.28 175.483C370.28 175.483 395.984 175.187 395.68 175.483V160.713L385.938 150.965Z" fill="#A28BCD"/>
<path d="M347.461 171.689H352.565V163.325H347.461V171.689Z" fill="white"/>
<path d="M357.768 171.689H362.873V163.325H357.768V171.689Z" fill="white"/>
<path d="M368.062 171.689H373.167V163.325H368.062V171.689Z" fill="white"/>
<path d="M378.37 171.689H383.474V163.325H378.37V171.689Z" fill="white"/>
<path d="M388.677 171.689H393.782V163.325H388.677V171.689Z" fill="white"/>
<path d="M358.029 152.442H382.545V145.989H358.029V152.442Z" fill="#A28BCD"/>
<path d="M358.029 135.899H382.545V132.696H358.029V135.899Z" fill="#A28BCD"/>
<path d="M359.639 149.783H380.907V134.128H359.639V149.783Z" fill="#A28BCD"/>
<path d="M371.759 114.631L370.28 104.291L368.801 114.631L359.363 133.242L370.28 132.944L381.211 133.242L371.759 114.631Z" fill="#A28BCD"/>
<path d="M361.944 144.512H365.843V137.33H361.944V144.512Z" fill="white"/>
<path d="M368.526 144.512H372.439V137.33H368.526V144.512Z" fill="white"/>
<path d="M375.108 144.512H379.021V137.33H375.108V144.512Z" fill="white"/>
<path d="M710.335 302.085H686.298V286.052H734.952V302.085H710.335ZM690.256 243.258H731.009V263.981H690.256V243.258ZM746.956 302.085H738.881V286.052H757.916C757.916 286.052 748.203 276.917 739.896 263.981H734.923V243.258H744.129C730.675 237.263 717.396 225.63 711.611 221.142V209.554H709.639V221.142C703.855 225.63 690.59 237.263 677.136 243.258H686.342V263.981H681.369C673.047 276.917 663.349 286.052 663.349 286.052H682.384V302.085H674.294C665.567 319.712 651.896 329.526 651.896 329.526H769.369C769.369 329.526 755.713 319.712 746.956 302.085Z" fill="#A28BCD"/>
<path d="M677.846 369.415H683.234V315.499H677.846V369.415Z" fill="#A28BCD"/>
<path d="M740.737 369.415H746.14V315.499H740.737V369.415Z" fill="#A28BCD"/>
<path d="M205.958 242.798L215.425 187.487H237.352L245.817 242.798H205.958ZM226.86 54.0978L236.6 177.916H217.111L226.86 54.0978ZM255.43 245.292L245.788 186.561L230.107 36.7847H231.935V34.2709H221.262V36.7847H222.899L207.211 186.561L195.72 245.292L167.879 305.803H183.963L204.962 254.259H246.327L268.869 305.803H283.28L255.43 245.292Z" fill="#BEEAF1"/>
<path d="M226.506 -1.0551e-05L223.604 43.5928L226.506 45.4195L229.398 43.5928L226.506 -1.0551e-05Z" fill="#BEEAF1"/>
<path d="M190.64 282.474L188.389 280.159L219.256 250.153H234.572L261.475 279.579L259.083 281.758L233.154 253.383H220.566L190.64 282.474Z" fill="#BEEAF1"/>
<path d="M223.089 71.3164H231.226L226.931 47.7927L223.089 71.3164Z" fill="#BEEAF1"/>
<path d="M202.05 188.002H249.107V177.891H202.05V188.002Z" fill="#BEEAF1"/>
<path d="M188.134 253.327H263.767V243.217H188.134V253.327Z" fill="#BEEAF1"/>
<path d="M231.68 90.7274L220.015 78.2841L222.373 76.0761L234.034 88.5194L231.68 90.7274Z" fill="#BEEAF1"/>
<path d="M231.68 111.726L220.015 99.2824L222.373 97.0729L234.034 109.516L231.68 111.726Z" fill="#BEEAF1"/>
<path d="M234.601 135.834L217.1 117.169L219.456 114.96L236.954 133.626L234.601 135.834Z" fill="#BEEAF1"/>
<path d="M237.125 159.527L214.573 135.47L216.927 133.262L239.478 157.319L237.125 159.527Z" fill="#BEEAF1"/>
<path d="M236.416 179.773L215.277 157.221L217.633 155.011L238.769 177.565L236.416 179.773Z" fill="#BEEAF1"/>
<path d="M222.373 90.7274L234.034 78.2841L231.68 76.0761L220.015 88.5194L222.373 90.7274Z" fill="#BEEAF1"/>
<path d="M222.373 111.726L234.034 99.2824L231.68 97.0729L220.015 109.516L222.373 111.726Z" fill="#BEEAF1"/>
<path d="M219.456 135.834L236.954 117.169L234.601 114.96L217.1 133.626L219.456 135.834Z" fill="#BEEAF1"/>
<path d="M216.927 159.527L239.478 135.47L237.125 133.262L214.573 157.319L216.927 159.527Z" fill="#BEEAF1"/>
<path d="M217.633 179.773L238.769 157.221L236.416 155.011L215.277 177.565L217.633 179.773Z" fill="#BEEAF1"/>
<path d="M208.343 220.633L206.047 218.363L238.713 185.311L241.011 187.58L208.343 220.633Z" fill="#BEEAF1"/>
<path d="M204.844 246.298L202.549 244.025L241.818 204.362L244.115 206.636L204.844 246.298Z" fill="#BEEAF1"/>
<path d="M220.366 252.938L218.133 250.605L244.966 224.942L247.192 227.274L220.366 252.938Z" fill="#BEEAF1"/>
<path d="M244.951 223.733L208.777 187.587L211.059 185.304L247.235 221.448L244.951 223.733Z" fill="#BEEAF1"/>
<path d="M244.938 246.298L205.66 206.636L207.955 204.362L247.235 244.025L244.938 246.298Z" fill="#BEEAF1"/>
<path d="M229.413 252.938L202.58 227.274L204.812 224.942L231.638 250.605L229.413 252.938Z" fill="#BEEAF1"/>
<path d="M267.565 361.184L250.51 241.827L235.595 221.935L220.674 241.827L203.623 361.184L199.361 361.894V368.999H271.827V361.894L267.565 361.184Z" fill="#DBD2ED"/>
<path d="M235.594 292.979H200.238L213.026 305.769H258.17L270.957 292.979H235.594Z" fill="#DBD2ED"/>
<path d="M232.389 258.166H238.784V246.089H232.389V258.166Z" fill="#A28BCD"/>
<path d="M232.389 348.151H238.784V336.074H232.389V348.151Z" fill="#A28BCD"/>
<path d="M222.148 286.019H228.547V273.941H222.148V286.019Z" fill="#A28BCD"/>
<path d="M243.01 286.019H249.404V273.941H243.01V286.019Z" fill="#A28BCD"/>
<path d="M222.148 324.755H228.547V312.678H222.148V324.755Z" fill="#A28BCD"/>
<path d="M243.01 324.755H249.404V312.678H243.01V324.755Z" fill="#A28BCD"/>
<path d="M256.919 210.319L250.991 204.9L264.259 190.361L270.203 195.78L256.919 210.319Z" fill="#A28BCD"/>
<path d="M264.259 190.361L235.168 222.226L236.77 223.695L265.868 191.828L264.259 190.361Z" fill="#A28BCD"/>
<path d="M223.311 201.614L217.891 207.549L203.353 194.273L208.774 188.338L223.311 201.614Z" fill="#A28BCD"/>
<path d="M203.353 194.274L235.225 223.369L236.685 221.761L204.822 192.666L203.353 194.274Z" fill="#A28BCD"/>
<path d="M214.605 235.225L220.54 240.644L207.265 255.182L201.329 249.764L214.605 235.225Z" fill="#A28BCD"/>
<path d="M207.265 255.182L236.358 223.318L234.757 221.849L205.657 253.715L207.265 255.182Z" fill="#A28BCD"/>
<path d="M248.213 243.931L253.643 237.995L268.174 251.271L262.766 257.206L248.213 243.931Z" fill="#A28BCD"/>
<path d="M268.173 251.271L236.316 222.176L234.842 223.783L266.695 252.879L268.173 251.271Z" fill="#A28BCD"/>
<path d="M239.309 222.9C239.309 224.692 237.847 226.145 236.061 226.145C234.261 226.145 232.815 224.692 232.815 222.9C232.815 221.107 234.261 219.654 236.061 219.654C237.847 219.654 239.309 221.107 239.309 222.9Z" fill="#A28BCD"/>
<path d="M120.038 367.679H193.476V223.507H120.038V367.679Z" fill="#F573A5"/>
<path d="M120.038 233.779H193.476V223.507H120.038V233.779Z" fill="#EFE8F6"/>
<path d="M116.958 226.339H196.707V220.118H116.958V226.339Z" fill="#EFE8F6"/>
<path d="M123.656 232.377H129.048V227.446H123.656V232.377Z" fill="#E1D3ED"/>
<path d="M133.789 232.377H139.183V227.446H133.789V232.377Z" fill="#E1D3ED"/>
<path d="M143.926 232.377H149.318V227.446H143.926V232.377Z" fill="#E1D3ED"/>
<path d="M154.061 232.377H159.455V227.446H154.061V232.377Z" fill="#E1D3ED"/>
<path d="M164.197 232.377H169.589V227.446H164.197V232.377Z" fill="#E1D3ED"/>
<path d="M174.332 232.377H179.725V227.446H174.332V232.377Z" fill="#E1D3ED"/>
<path d="M184.467 232.377H189.861V227.446H184.467V232.377Z" fill="#E1D3ED"/>
<path d="M120.038 369.008H193.476V318.386H120.038V369.008Z" fill="#FBC130"/>
<path d="M120.038 328.66H193.476V318.386H120.038V328.66Z" fill="#FCF3D1"/>
<path d="M116.958 321.22H196.707V314.999H116.958V321.22Z" fill="#FCF3D1"/>
<path d="M123.656 327.257H129.048V322.327H123.656V327.257Z" fill="#FBC130"/>
<path d="M133.789 327.257H139.183V322.327H133.789V327.257Z" fill="#FBC130"/>
<path d="M143.926 327.257H149.318V322.327H143.926V327.257Z" fill="#FBC130"/>
<path d="M154.061 327.257H159.455V322.327H154.061V327.257Z" fill="#FBC130"/>
<path d="M164.197 327.257H169.589V322.327H164.197V327.257Z" fill="#FBC130"/>
<path d="M174.332 327.257H179.725V322.327H174.332V327.257Z" fill="#FBC130"/>
<path d="M184.467 327.257H189.861V322.327H184.467V327.257Z" fill="#FBC130"/>
<path d="M149.042 239.491H127.277V242.745H128.828V267.699H147.491V242.745H149.042V239.491Z" fill="#FBC130"/>
<path d="M130.562 249.318H145.756V243.004H130.562V249.318Z" fill="#BEEAF1"/>
<path d="M130.562 265.197H145.756V252.468H130.562V265.197Z" fill="#BEEAF1"/>
<path d="M186.237 239.491H164.472V242.745H166.025V267.699H184.686V242.745H186.237V239.491Z" fill="#FBC130"/>
<path d="M167.759 249.318H182.952V243.004H167.759V249.318Z" fill="#BEEAF1"/>
<path d="M167.759 265.197H182.952V252.468H167.759V265.197Z" fill="#BEEAF1"/>
<path d="M149.042 280.428H127.277V283.682H128.828V308.636H147.491V283.682H149.042V280.428Z" fill="#FBC130"/>
<path d="M130.562 290.255H145.756V283.941H130.562V290.255Z" fill="#BEEAF1"/>
<path d="M130.562 306.134H145.756V293.403H130.562V306.134Z" fill="#BEEAF1"/>
<path d="M186.237 280.428H164.472V283.682H166.025V308.636H184.686V283.682H186.237V280.428Z" fill="#FBC130"/>
<path d="M167.759 290.255H182.952V283.941H167.759V290.255Z" fill="#BEEAF1"/>
<path d="M167.759 306.134H182.952V293.403H167.759V306.134Z" fill="#BEEAF1"/>
<path d="M149.042 333.507H127.277V336.76H128.828V361.716H147.491V336.76H149.042V333.507Z" fill="#EC4E9F"/>
<path d="M130.562 343.333H145.756V337.02H130.562V343.333Z" fill="#BEEAF1"/>
<path d="M130.562 359.212H145.756V346.482H130.562V359.212Z" fill="#BEEAF1"/>
<path d="M185.273 333.507H163.508V336.76H165.061V361.716H183.721V336.76H185.273V333.507Z" fill="#EC4E9F"/>
<path d="M166.795 343.333H181.987V337.02H166.795V343.333Z" fill="#BEEAF1"/>
<path d="M166.795 359.212H181.987V346.482H166.795V359.212Z" fill="#BEEAF1"/>
<path d="M107.02 268.556H61.8045C59.1355 268.556 56.9507 270.741 56.9507 273.41V364.114C56.9507 366.781 59.1355 368.967 61.8045 368.967H107.02C109.69 368.967 111.873 366.781 111.873 364.114V273.41C111.873 270.741 109.69 268.556 107.02 268.556Z" fill="#A28BCD"/>
<path d="M106.019 364.48H62.8065C61.2668 364.48 60.0171 363.231 60.0171 361.691V275.831C60.0171 274.291 61.2668 273.043 62.8065 273.043H106.019C107.559 273.043 108.807 274.291 108.807 275.831V361.691C108.807 363.231 107.559 364.48 106.019 364.48Z" fill="#DFF4F9"/>
<path d="M63.3341 273.043H61.6423C60.7434 273.043 60.0171 273.77 60.0171 274.667V307.295L76.6008 292.944L63.3341 273.043Z" fill="#BEEAF1"/>
<path d="M87.8437 328.547L79.225 324.8L71.3542 307.185L60.0171 317.297V356.444L87.8437 343.913V328.547Z" fill="#BEEAF1"/>
<path d="M94.9663 333.42L94.5909 346.536L60.0171 362.42V362.856C60.0171 363.752 60.7434 364.48 61.6423 364.48H107.184C108.081 364.48 108.807 363.752 108.807 362.856V336.676L94.9663 333.42Z" fill="#BEEAF1"/>
<path d="M97.215 294.819L95.3403 325.549L108.807 328.744V284.923L103.959 292.193L97.215 294.819Z" fill="#BEEAF1"/>
<path d="M108.156 273.375C107.884 273.171 107.55 273.043 107.184 273.043H73.407L83.7221 290.321L103.959 281.326L108.156 273.375Z" fill="#BEEAF1"/>
<path d="M75.5293 303.812L81.901 321.051L89.7702 325.923L91.6448 295.193L81.1515 296.692L75.5293 303.812Z" fill="#BEEAF1"/>
<path d="M81.4778 290.975L68.9402 272.972H66.1567C66.0769 272.972 65.9972 272.968 65.916 272.966L80.3599 293.708L93.0773 291.301L90.3967 344.526L60.0779 358.105V360.82L92.7946 346.168L95.7085 288.282L81.4778 290.975Z" fill="#FBC130"/>
<path d="M88.8369 276.444H79.989C77.5461 276.444 75.5658 274.463 75.5658 272.021H93.2601C93.2601 274.463 91.2797 276.444 88.8369 276.444Z" fill="#A28BCD"/>
<path d="M80.2021 274.062C80.2021 274.592 79.7715 275.022 79.2409 275.022C78.7117 275.022 78.2811 274.592 78.2811 274.062C78.2811 273.532 78.7117 273.103 79.2409 273.103C79.7715 273.103 80.2021 273.532 80.2021 274.062Z" fill="#DEE5E2"/>
<path d="M89.5762 273.378H82.3332C81.8954 273.378 81.5388 273.738 81.5388 274.174C81.5388 274.61 81.8954 274.97 82.3332 274.97H89.5762C90.014 274.97 90.3707 274.61 90.3707 274.174C90.3707 273.738 90.014 273.378 89.5762 273.378Z" fill="#DEE5E2"/>
<path d="M103.869 318.022C104.088 317.096 104.207 316.13 104.207 315.136C104.207 308.223 98.6022 302.618 91.6912 302.618C84.7773 302.618 79.1726 308.223 79.1726 315.136C79.1726 316.13 79.2915 317.096 79.5104 318.022C81.5952 330.323 91.6912 344.928 91.6912 344.928C91.6912 344.928 101.784 330.323 103.869 318.022Z" fill="#EC4E9F"/>
<path d="M98.1979 315.136C98.1979 318.731 95.2839 321.645 91.6914 321.645C88.0946 321.645 85.1805 318.731 85.1805 315.136C85.1805 311.542 88.0946 308.628 91.6914 308.628C95.2839 308.628 98.1979 311.542 98.1979 315.136Z" fill="#FDE1EF"/>
<path d="M534.451 367.726H539.995V183.383H534.451V367.726Z" fill="#E1D3ED"/>
<path d="M527.767 206.605H537.692V200.735H527.767V206.605Z" fill="#E1D3ED"/>
<path d="M538.147 195.993H548.087V190.121H538.147V195.993Z" fill="#E1D3ED"/>
<path d="M601.342 202.069H544.976V183.898H601.342L606.996 193.549L601.342 202.069Z" fill="#E1D3ED"/>
<path d="M474.866 193.652H529.884V211.823H474.866L469.342 202.17L474.866 193.652Z" fill="#E1D3ED"/>
<path d="M538.147 236.034H548.087V230.162H538.147V236.034Z" fill="#E1D3ED"/>
<path d="M601.893 242.11H544.976V223.938H601.893L607.605 233.59L601.893 242.11Z" fill="#E1D3ED"/>
<path d="M557.234 190.874H554.937V197.247H553.999V190.874H551.706V190.099H557.234V190.874ZM560.916 194.355H559.237V197.247H558.29V190.099H560.656C561.461 190.099 562.08 190.282 562.512 190.649C562.947 191.015 563.165 191.549 563.165 192.249C563.165 192.694 563.044 193.082 562.802 193.413C562.563 193.743 562.229 193.99 561.8 194.154L563.479 197.188V197.247H562.468L560.916 194.355ZM559.237 193.584H560.686C561.154 193.584 561.525 193.463 561.8 193.221C562.078 192.979 562.217 192.655 562.217 192.249C562.217 191.807 562.085 191.468 561.82 191.233C561.558 190.997 561.178 190.878 560.681 190.874H559.237V193.584ZM565.502 197.247H564.559V190.099H565.502V197.247ZM568.173 194.449V197.247H567.23V190.099H569.867C570.649 190.099 571.261 190.298 571.703 190.698C572.148 191.097 572.371 191.626 572.371 192.283C572.371 192.977 572.153 193.512 571.718 193.889C571.286 194.262 570.665 194.449 569.857 194.449H568.173ZM568.173 193.678H569.867C570.371 193.678 570.757 193.56 571.025 193.324C571.294 193.085 571.428 192.742 571.428 192.293C571.428 191.868 571.294 191.527 571.025 191.272C570.757 191.017 570.389 190.884 569.921 190.874H568.173V193.678Z" fill="#A28BCD"/>
<path d="M481.838 204.033H479.782L479.321 205.314H478.653L480.527 200.407H481.093L482.971 205.314H482.307L481.838 204.033ZM479.978 203.501H481.646L480.81 201.206L479.978 203.501ZM483.631 205.314V200.407H485.016C485.443 200.407 485.821 200.501 486.149 200.69C486.477 200.879 486.73 201.147 486.907 201.496C487.087 201.844 487.178 202.244 487.18 202.695V203.009C487.18 203.472 487.09 203.877 486.91 204.226C486.733 204.574 486.478 204.841 486.145 205.028C485.815 205.214 485.43 205.31 484.989 205.314H483.631ZM484.278 200.939V204.785H484.959C485.458 204.785 485.845 204.63 486.122 204.32C486.4 204.01 486.54 203.568 486.54 202.995V202.709C486.54 202.152 486.408 201.719 486.145 201.411C485.885 201.101 485.514 200.944 485.033 200.939H484.278ZM489.711 204.455L491.113 200.407H491.821L490.001 205.314H489.428L487.612 200.407H488.316L489.711 204.455ZM495.255 203.046H493.129V204.785H495.599V205.314H492.482V200.407H495.565V200.939H493.129V202.517H495.255V203.046ZM500.176 205.314H499.525L497.055 201.533V205.314H496.405V200.407H497.055L499.532 204.205V200.407H500.176V205.314ZM504.615 200.939H503.037V205.314H502.394V200.939H500.82V200.407H504.615V200.939ZM508.797 200.407V203.744C508.795 204.206 508.649 204.585 508.359 204.879C508.071 205.174 507.68 205.339 507.186 205.375L507.014 205.382C506.477 205.382 506.049 205.237 505.73 204.947C505.411 204.657 505.249 204.258 505.245 203.75V200.407H505.885V203.73C505.885 204.085 505.983 204.361 506.178 204.559C506.374 204.755 506.652 204.852 507.014 204.852C507.38 204.852 507.66 204.755 507.853 204.559C508.049 204.364 508.147 204.088 508.147 203.733V200.407H508.797ZM511.618 203.329H510.465V205.314H509.815V200.407H511.439C511.992 200.407 512.417 200.533 512.713 200.784C513.012 201.036 513.162 201.402 513.162 201.883C513.162 202.189 513.078 202.455 512.912 202.682C512.748 202.909 512.519 203.078 512.225 203.191L513.377 205.274V205.314H512.683L511.618 203.329ZM510.465 202.8H511.46C511.781 202.8 512.036 202.717 512.225 202.55C512.416 202.384 512.511 202.162 512.511 201.883C512.511 201.58 512.42 201.347 512.238 201.186C512.058 201.024 511.798 200.942 511.456 200.939H510.465V202.8ZM516.845 203.046H514.719V204.785H517.189V205.314H514.071V200.407H517.155V200.939H514.719V202.517H516.845V203.046ZM521.452 200.939H519.875V205.314H519.231V200.939H517.657V200.407H521.452V200.939ZM523.98 203.329H522.827V205.314H522.177V200.407H523.801C524.354 200.407 524.779 200.533 525.075 200.784C525.374 201.036 525.524 201.402 525.524 201.883C525.524 202.189 525.441 202.455 525.274 202.682C525.11 202.909 524.881 203.078 524.587 203.191L525.739 205.274V205.314H525.045L523.98 203.329ZM522.827 202.8H523.822C524.143 202.8 524.398 202.717 524.587 202.55C524.778 202.384 524.873 202.162 524.873 201.883C524.873 201.58 524.782 201.347 524.6 201.186C524.42 201.024 524.16 200.942 523.818 200.939H522.827V202.8ZM529.143 204.033H527.087L526.626 205.314H525.958L527.832 200.407H528.399L530.276 205.314H529.612L529.143 204.033ZM527.283 203.501H528.951L528.115 201.206L527.283 203.501ZM532.264 204.455L533.666 200.407H534.374L532.554 205.314H531.981L530.165 200.407H530.869L532.264 204.455ZM537.808 203.046H535.682V204.785H538.152V205.314H535.035V200.407H538.118V200.939H535.682V202.517H537.808V203.046ZM539.608 204.785H541.934V205.314H538.958V200.407H539.608V204.785ZM543.322 204.785H545.648V205.314H542.672V200.407H543.322V204.785ZM547.08 205.314H546.433V200.407H547.08V205.314ZM552.038 205.314H551.387L548.917 201.533V205.314H548.266V200.407H548.917L551.394 204.205V200.407H552.038V205.314ZM556.81 204.67C556.644 204.909 556.411 205.087 556.112 205.206C555.816 205.323 555.47 205.382 555.074 205.382C554.674 205.382 554.319 205.288 554.009 205.102C553.699 204.913 553.459 204.646 553.288 204.3C553.119 203.954 553.033 203.553 553.028 203.096V202.668C553.028 201.929 553.2 201.356 553.544 200.95C553.89 200.543 554.375 200.34 555 200.34C555.512 200.34 555.925 200.471 556.237 200.734C556.549 200.995 556.74 201.365 556.81 201.846H556.163C556.041 201.197 555.655 200.872 555.003 200.872C554.57 200.872 554.241 201.025 554.016 201.33C553.793 201.634 553.681 202.074 553.679 202.652V203.053C553.679 203.603 553.805 204.041 554.056 204.367C554.308 204.691 554.648 204.852 555.078 204.852C555.32 204.852 555.533 204.825 555.715 204.771C555.897 204.718 556.047 204.627 556.166 204.499V203.396H555.03V202.871H556.81V204.67Z" fill="#A28BCD"/>
<path d="M256.011 360.54H361.911V301.482H256.011V360.54Z" fill="white"/>
<path d="M246.766 363.385H373.126V357.213H246.766V363.385Z" fill="#F573A5"/>
<path d="M358.334 358.157H345.852V321.658C345.852 318.888 348.635 316.642 352.1 316.642C355.55 316.642 358.334 318.888 358.334 321.658V358.157ZM337.254 358.157H324.772V321.658C324.772 318.888 327.57 316.642 331.021 316.642C334.456 316.642 337.254 318.888 337.254 321.658V358.157ZM316.19 358.157H303.707V321.658C303.707 318.888 306.505 316.642 309.941 316.642C313.391 316.642 316.19 318.888 316.19 321.658V358.157ZM295.11 358.157H282.628V321.658C282.628 318.888 285.411 316.642 288.876 316.642C292.326 316.642 295.11 318.888 295.11 321.658V358.157ZM274.031 358.157H261.548V321.658C261.548 318.888 264.346 316.642 267.797 316.642C271.233 316.642 274.031 318.888 274.031 321.658V358.157ZM254.125 291.238V358.404H365.771V291.238H254.125Z" fill="#EC4E9F"/>
<path d="M242.101 368.999H377.791V362.371H242.101V368.999Z" fill="#F573A5"/>
<path d="M309.941 270.229L247.59 289.989V296.254H372.31V289.989L309.941 270.229Z" fill="#F573A5"/>
<path d="M246.766 309.202H373.126V303.029H246.766V309.202Z" fill="#F573A5"/>
<path d="M663.233 369.264L557.85 368.984L557.98 318.283L663.378 318.563L663.233 369.264Z" fill="#D8F2F5"/>
<path d="M663.349 328.621L557.951 328.338L557.98 318.283L663.378 318.563L663.349 328.621Z" fill="#6EBCD0"/>
<path d="M605.721 337.241L565.983 337.136L565.997 334.422L605.721 334.526V337.241Z" fill="#6EBCD0"/>
<path d="M605.692 349.641L565.954 349.535V346.821L605.692 346.927V349.641Z" fill="#6EBCD0"/>
<path d="M605.663 362.04L565.91 361.936L565.925 359.22L605.677 359.327L605.663 362.04Z" fill="#6EBCD0"/>
<path d="M659.043 337.384L619.305 337.278V334.564L659.057 334.67L659.043 337.384Z" fill="#6EBCD0"/>
<path d="M659.014 349.785L619.262 349.679L619.276 346.964L659.028 347.069L659.014 349.785Z" fill="#6EBCD0"/>
<path d="M658.985 362.184L619.232 362.077V359.363L658.985 359.469V362.184Z" fill="#6EBCD0"/>
<path d="M611.882 330.206L611.781 366.165L613.651 366.171L613.738 330.21L611.882 330.206Z" fill="#6EBCD0"/>
<path d="M655.795 332.76L553.689 358.934L541.105 309.821L643.197 283.647L655.795 332.76Z" fill="#F9B3D5"/>
<path d="M645.691 293.389L543.599 319.563L541.105 309.821L643.197 283.647L645.691 293.389Z" fill="#EC4E9F"/>
<path d="M592.079 316.192L553.573 326.061L552.906 323.433L591.412 313.563L592.079 316.192Z" fill="#EC4E9F"/>
<path d="M595.167 328.204L556.676 338.072L555.994 335.442L594.485 325.574L595.167 328.204Z" fill="#EC4E9F"/>
<path d="M598.24 340.215L559.749 350.083L559.068 347.454L597.559 337.585L598.24 340.215Z" fill="#EC4E9F"/>
<path d="M643.719 302.952L605.228 312.82L604.561 310.19L643.066 300.322L643.719 302.952Z" fill="#EC4E9F"/>
<path d="M646.807 314.963L608.302 324.832L607.635 322.203L646.14 312.333L646.807 314.963Z" fill="#EC4E9F"/>
<path d="M649.895 326.974L611.389 336.843L610.722 334.213L649.214 324.344L649.895 326.974Z" fill="#EC4E9F"/>
<path d="M596.268 307.837L605.199 342.669L606.997 342.207L598.066 307.375L596.268 307.837Z" fill="#EC4E9F"/>
<path d="M508.37 283.7C507.877 283.7 507.471 284.117 507.471 284.609V303.856C507.471 304.348 507.877 304.764 508.37 304.764H546.237C546.73 304.764 547.136 304.348 547.136 303.856V284.609C547.136 284.117 546.73 283.7 546.237 283.7H508.37ZM546.237 311.401H508.37C504.209 311.401 500.831 308.016 500.831 303.856V284.609C500.831 280.447 504.209 277.063 508.37 277.063H546.237C550.384 277.063 553.776 280.447 553.776 284.609V303.856C553.776 308.016 550.384 311.401 546.237 311.401Z" fill="#EC4E9F"/>
<path d="M574.652 292.593H479.954C475.619 292.593 472.111 296.174 472.111 300.592V361.733C472.111 366.151 475.619 369.731 479.954 369.731H574.652C578.987 369.731 582.496 366.151 582.496 361.733V300.592C582.496 296.174 578.987 292.593 574.652 292.593Z" fill="#FBC130"/>
<path d="M473.836 354.434C473.256 354.434 472.676 354.492 472.111 354.575V361.733C472.111 366.151 475.619 369.731 479.954 369.731H485.608C485.869 368.736 486.014 367.693 486.014 366.614C486.014 359.888 480.577 354.434 473.836 354.434Z" fill="#EC4E9F"/>
<path d="M486.014 295.058C486.014 294.214 485.927 293.389 485.782 292.593H479.954C475.619 292.593 472.111 296.174 472.111 300.592V307.1C472.676 307.182 473.256 307.237 473.836 307.237C480.577 307.237 486.014 301.785 486.014 295.058Z" fill="#EC4E9F"/>
<path d="M490.871 369.731H500.427V292.593H490.871V369.731Z" fill="#EC4E9F"/>
<path d="M582.496 361.733V354.784C581.597 354.563 580.64 354.434 579.654 354.434C572.927 354.434 567.476 359.888 567.476 366.614C567.476 367.693 567.636 368.736 567.897 369.731H574.653C578.987 369.731 582.496 366.151 582.496 361.733Z" fill="#EC4E9F"/>
<path d="M574.653 292.593H567.723C567.563 293.389 567.476 294.214 567.476 295.058C567.476 301.785 572.927 307.237 579.654 307.237C580.64 307.237 581.597 307.11 582.496 306.891V300.592C582.496 296.174 578.987 292.593 574.653 292.593Z" fill="#EC4E9F"/>
<path d="M554.805 369.731H564.362V292.593H554.805V369.731Z" fill="#EC4E9F"/>
<path d="M0 373.741H805.376V368.9H0V373.741Z" fill="#9ED2D8"/>
<path d="M151.168 396.377H296.521V393.957H151.168V396.377Z" fill="#9ED2D8"/>
<path d="M75.1598 385.927H545.412V383.507H75.1598V385.927Z" fill="#9ED2D8"/>
<path d="M609.084 385.927H765.206V383.507H609.084V385.927Z" fill="#9ED2D8"/>
<path d="M360.393 396.377H578.177V393.957H360.393V396.377Z" fill="#9ED2D8"/>
<path d="M606.779 396.377H656.433V393.957H606.779V396.377Z" fill="#9ED2D8"/>
<path d="M202.341 137.104C204.357 138.159 208.078 140.601 209.629 144.799C211.18 140.601 214.902 138.159 216.917 137.104C214.902 136.047 211.18 133.607 209.629 129.407C208.078 133.607 204.357 136.047 202.341 137.104ZM208.964 147.928C208.371 140.827 200.599 137.759 200.522 137.729L198.903 137.105L200.52 136.479C200.599 136.448 208.372 133.362 208.964 126.28H210.296C210.888 133.379 218.658 136.448 218.738 136.479L220.356 137.102L218.738 137.727C218.658 137.759 210.886 140.844 210.296 147.928H208.964Z" fill="#FBC130"/>
<path d="M414.643 217.622C415.831 218.312 417.557 219.596 418.528 221.607C419.47 219.596 421.21 218.312 422.399 217.622C421.21 216.93 419.47 215.646 418.528 213.635C417.557 215.646 415.831 216.93 414.643 217.622ZM419.195 224.202H417.861C417.513 220.062 412.961 218.263 412.917 218.247L411.294 217.623L412.917 216.996C412.961 216.98 417.513 215.162 417.861 211.04H419.195C419.528 215.18 424.081 216.98 424.139 216.996L425.748 217.619L424.139 218.247C424.081 218.263 419.528 220.081 419.195 224.202Z" fill="#FBC130"/>
<path d="M620.798 50.3733C622.378 51.233 624.944 53.0162 626.162 55.9534C627.395 53.0191 629.946 51.233 631.512 50.3733C629.946 49.5122 627.395 47.7275 626.162 44.7917C624.944 47.7275 622.378 49.5122 620.798 50.3733ZM626.829 58.8037H625.495C625.031 53.3729 619.087 51.0185 619.029 50.9967L617.406 50.3733L619.029 49.7485C619.087 49.7253 625.031 47.3535 625.495 41.9415H626.829C627.279 47.3549 633.237 49.7253 633.31 49.7485L634.904 50.3704L633.31 50.9967C633.237 51.0185 627.279 53.3903 626.829 58.8037Z" fill="#FBC130"/>
<path d="M420.384 198.439C422.558 199.564 426.734 202.25 428.401 206.94C430.068 202.251 434.243 199.564 436.404 198.439C434.243 197.314 430.068 194.626 428.401 189.937C426.734 194.627 422.558 197.314 420.384 198.439ZM427.734 210.161C427.096 202.433 418.644 199.095 418.557 199.065L416.919 198.44L418.557 197.814C418.644 197.78 427.096 194.426 427.734 186.716H429.068C429.72 194.426 438.158 197.78 438.245 197.814L439.854 198.439L438.245 199.065C438.158 199.095 429.72 202.452 429.068 210.161H427.734Z" fill="#FBC130"/>
<path d="M591.325 35.6597C594.355 37.2226 600.284 41.0093 602.604 47.6507C604.938 41.0093 610.853 37.2226 613.897 35.6597C610.853 34.0954 604.938 30.3087 602.604 23.6688C600.284 30.3087 594.355 34.0954 591.325 35.6597ZM603.517 52.0681H601.705C600.806 41.2326 588.947 36.5528 588.831 36.5064L586.642 35.6612L588.831 34.8131C588.947 34.7652 600.806 30.0622 601.705 19.2499H603.517C604.416 30.0622 616.261 34.7652 616.391 34.8131L618.58 35.6597L616.391 36.5064C616.261 36.5528 604.416 41.2558 603.517 52.0681Z" fill="#FBC130"/>
<path d="M434.069 117.96C437.215 119.517 444.841 124.043 447.233 132.248C449.64 124.043 457.265 119.517 460.411 117.96C457.265 116.403 449.64 111.876 447.233 103.671C444.841 111.876 437.215 116.403 434.069 117.96ZM447.9 135.961H446.566C445.566 123.87 432.344 118.635 432.214 118.584L430.59 117.96L432.214 117.336C432.344 117.284 445.566 112.05 446.566 99.9565H447.9C448.915 112.066 462.122 117.284 462.253 117.336L463.876 117.958L462.253 118.584C462.122 118.635 448.915 123.87 447.9 135.961Z" fill="#FBC130"/>
<path d="M144.648 88.1163H145.985V80.9378H144.648V88.1163Z" fill="#FBC130"/>
<path d="M140.856 89.6806L137.265 83.464L138.424 82.7942L142.015 89.0108L140.856 89.6806Z" fill="#FBC130"/>
<path d="M138.353 92.9309L132.137 89.3428L132.805 88.183L139.023 91.7726L138.353 92.9309Z" fill="#FBC130"/>
<path d="M130.633 96.9975H137.812V95.6588H130.633V96.9975Z" fill="#FBC130"/>
<path d="M133.16 104.38L132.49 103.22L138.707 99.6303L139.375 100.789L133.16 104.38Z" fill="#FBC130"/>
<path d="M139.039 109.509L137.879 108.841L141.469 102.623L142.627 103.292L139.039 109.509Z" fill="#FBC130"/>
<path d="M145.356 111.012H146.694V103.833H145.356V111.012Z" fill="#FBC130"/>
<path d="M152.915 109.154L149.327 102.937L150.485 102.267L154.075 108.485L152.915 109.154Z" fill="#FBC130"/>
<path d="M158.536 103.765L152.319 100.177L152.987 99.017L159.205 102.607L158.536 103.765Z" fill="#FBC130"/>
<path d="M153.528 96.2886H160.708V94.9515H153.528V96.2886Z" fill="#FBC130"/>
<path d="M152.633 92.3191L151.964 91.1593L158.181 87.5697L158.85 88.7281L152.633 92.3191Z" fill="#FBC130"/>
<path d="M149.873 89.3268L148.713 88.657L152.303 82.4405L153.461 83.1088L149.873 89.3268Z" fill="#FBC130"/>
<path d="M777.126 252.2H778.473V245.021H777.126V252.2Z" fill="#FBC130"/>
<path d="M773.328 253.764L769.747 247.548L770.892 246.878L774.487 253.095L773.328 253.764Z" fill="#FBC130"/>
<path d="M770.819 257.015L764.614 253.427L765.281 252.268L771.501 255.858L770.819 257.015Z" fill="#FBC130"/>
<path d="M763.107 261.081H770.28V259.742H763.107V261.081Z" fill="#FBC130"/>
<path d="M765.629 268.461L764.962 267.304L771.182 263.714L771.849 264.872L765.629 268.461Z" fill="#FBC130"/>
<path d="M771.516 273.593L770.356 272.923L773.937 266.706L775.111 267.373L771.516 273.593Z" fill="#FBC130"/>
<path d="M777.822 275.095H779.169V267.915H777.822V275.095Z" fill="#FBC130"/>
<path d="M785.39 273.238L781.794 267.021L782.954 266.351L786.549 272.569L785.39 273.238Z" fill="#FBC130"/>
<path d="M791.015 267.849L784.795 264.259L785.462 263.102L791.681 266.692L791.015 267.849Z" fill="#FBC130"/>
<path d="M786.013 260.374H793.187V259.036H786.013V260.374Z" fill="#FBC130"/>
<path d="M785.099 256.401L784.433 255.243L790.652 251.655L791.319 252.812L785.099 256.401Z" fill="#FBC130"/>
<path d="M782.345 253.409L781.185 252.742L784.781 246.526L785.94 247.194L782.345 253.409Z" fill="#FBC130"/>
<path d="M485.54 401.587C485.54 402.468 464.601 403.182 438.77 403.182C412.94 403.182 392 402.468 392 401.587C392 400.706 412.94 399.992 438.77 399.992C464.601 399.992 485.54 400.706 485.54 401.587Z" fill="#E9EAE9"/>
<path fill-rule="evenodd" clip-rule="evenodd" d="M403.921 383.222L397.72 388.108L398.45 393.111L401.115 396.073L417.659 396.369L458.023 396.834L471.761 394.391L473.585 393.926L469.938 384.967L458.145 381.826L403.921 383.222Z" fill="#211E1B"/>
<path fill-rule="evenodd" clip-rule="evenodd" d="M431.762 371.461C431.747 371.467 423.768 374.205 417.331 377.546C417.331 377.546 415.227 379.15 415.774 380.305L417.781 381.765L434.559 372.981L433.038 371.855L431.762 371.461Z" fill="#3A3A3C"/>
<path fill-rule="evenodd" clip-rule="evenodd" d="M461.943 372.434C461.943 372.434 471.153 375.898 473.311 377.448L475.409 378.117L475.774 379.333L473.919 380.671L461.578 373.619L461.943 372.434Z" fill="#3A3A3C"/>
<path fill-rule="evenodd" clip-rule="evenodd" d="M409.715 388.98C412.712 388.965 415.155 391.383 415.169 394.38C415.184 397.377 412.767 399.819 409.769 399.834C406.772 399.849 404.33 397.431 404.315 394.434C404.3 391.437 406.718 388.994 409.715 388.98Z" fill="#505256"/>
<path fill-rule="evenodd" clip-rule="evenodd" d="M409.704 389.009L410.902 392.72L414.801 392.712L411.642 394.998L412.854 398.704L409.704 396.406L406.554 398.704L407.766 394.998L404.607 392.712L408.506 392.72L409.704 389.009Z" fill="white"/>
<path fill-rule="evenodd" clip-rule="evenodd" d="M413.401 398.029C411.379 400.07 408.085 400.087 406.044 398.065C404.002 396.044 403.986 392.75 406.007 390.708C408.029 388.667 411.322 388.651 413.364 390.672C415.406 392.693 415.422 395.987 413.401 398.029ZM404.679 399.444C407.482 402.219 412.004 402.196 414.779 399.393C417.554 396.59 417.532 392.069 414.729 389.294C411.926 386.518 407.404 386.541 404.629 389.344C401.854 392.147 401.876 396.668 404.679 399.444Z" fill="#313032"/>
<path fill-rule="evenodd" clip-rule="evenodd" d="M409.697 392.97C408.925 392.974 408.301 393.603 408.305 394.375C408.309 395.148 408.938 395.771 409.711 395.768C410.484 395.763 411.107 395.134 411.103 394.362C411.099 393.589 410.47 392.966 409.697 392.97Z" fill="#989CA1"/>
<path fill-rule="evenodd" clip-rule="evenodd" d="M409.704 400.062C412.849 400.062 415.398 397.513 415.398 394.369C415.398 391.224 412.849 388.675 409.704 388.675C406.559 388.675 404.01 391.224 404.01 394.369C404.01 397.513 406.559 400.062 409.704 400.062ZM406.007 390.708C408.029 388.667 411.322 388.651 413.364 390.672C415.406 392.693 415.422 395.987 413.401 398.029C411.379 400.07 408.085 400.087 406.044 398.065C404.002 396.044 403.986 392.75 406.007 390.708Z" fill="white"/>
<path fill-rule="evenodd" clip-rule="evenodd" d="M409.172 388.847C409.158 388.701 408.506 392.72 408.506 392.72L411.019 392.72C411.019 392.72 410.339 388.942 410.353 388.828C410.366 388.713 409.172 388.847 409.172 388.847Z" fill="white"/>
<path fill-rule="evenodd" clip-rule="evenodd" d="M404.435 393.29C404.296 393.261 407.835 395.009 407.835 395.009L408.551 392.68C408.551 392.68 404.857 392.235 404.754 392.19C404.652 392.145 404.435 393.29 404.435 393.29Z" fill="white"/>
<path fill-rule="evenodd" clip-rule="evenodd" d="M407.146 399.098C407.078 399.222 409.776 396.342 409.776 396.342L407.754 394.983C407.754 394.983 406.258 398.389 406.185 398.474C406.113 398.559 407.146 399.098 407.146 399.098Z" fill="white"/>
<path fill-rule="evenodd" clip-rule="evenodd" d="M413.43 398.459C413.528 398.567 411.646 394.969 411.646 394.969L409.639 396.472C409.639 396.472 412.44 399.081 412.498 399.181C412.556 399.28 413.43 398.459 413.43 398.459Z" fill="white"/>
<path fill-rule="evenodd" clip-rule="evenodd" d="M414.703 392.17C414.835 392.112 410.877 392.741 410.877 392.741L411.651 395.091C411.651 395.091 414.973 393.292 415.085 393.269C415.196 393.246 414.703 392.17 414.703 392.17Z" fill="white"/>
<path fill-rule="evenodd" clip-rule="evenodd" d="M465.553 388.98C468.55 388.965 470.992 391.383 471.007 394.38C471.022 397.377 468.605 399.819 465.607 399.834C462.61 399.849 460.168 397.431 460.153 394.434C460.138 391.437 462.556 388.994 465.553 388.98Z" fill="#505256"/>
<path fill-rule="evenodd" clip-rule="evenodd" d="M465.542 389.009L466.74 392.72L470.639 392.712L467.48 394.998L468.692 398.704L465.542 396.406L462.392 398.704L463.604 394.998L460.445 392.712L464.344 392.72L465.542 389.009Z" fill="white"/>
<path fill-rule="evenodd" clip-rule="evenodd" d="M469.239 398.029C467.217 400.07 463.924 400.087 461.882 398.065C459.84 396.044 459.824 392.75 461.845 390.708C463.867 388.667 467.16 388.651 469.202 390.672C471.244 392.693 471.26 395.987 469.239 398.029ZM460.517 399.444C463.32 402.219 467.842 402.196 470.617 399.393C473.392 396.59 473.37 392.069 470.567 389.294C467.764 386.518 463.242 386.541 460.467 389.344C457.692 392.147 457.714 396.668 460.517 399.444Z" fill="#313032"/>
<path fill-rule="evenodd" clip-rule="evenodd" d="M465.535 392.97C464.763 392.974 464.139 393.603 464.143 394.375C464.147 395.148 464.777 395.771 465.549 395.768C466.322 395.763 466.945 395.134 466.941 394.362C466.937 393.589 466.308 392.966 465.535 392.97Z" fill="#989CA1"/>
<path fill-rule="evenodd" clip-rule="evenodd" d="M465.542 400.062C468.687 400.062 471.236 397.513 471.236 394.369C471.236 391.224 468.687 388.675 465.542 388.675C462.397 388.675 459.848 391.224 459.848 394.369C459.848 397.513 462.397 400.062 465.542 400.062ZM461.845 390.708C463.867 388.667 467.16 388.651 469.202 390.672C471.244 392.693 471.26 395.987 469.239 398.029C467.217 400.07 463.923 400.087 461.882 398.065C459.84 396.044 459.824 392.75 461.845 390.708Z" fill="white"/>
<path fill-rule="evenodd" clip-rule="evenodd" d="M465.009 388.847C464.995 388.701 464.344 392.72 464.344 392.72L466.858 392.72C466.858 392.72 466.177 388.942 466.191 388.828C466.204 388.713 465.009 388.847 465.009 388.847Z" fill="white"/>
<path fill-rule="evenodd" clip-rule="evenodd" d="M460.273 393.29C460.134 393.261 463.673 395.009 463.673 395.009L464.389 392.68C464.389 392.68 460.695 392.235 460.592 392.19C460.49 392.145 460.273 393.29 460.273 393.29Z" fill="white"/>
<path fill-rule="evenodd" clip-rule="evenodd" d="M462.983 399.098C462.916 399.222 465.613 396.342 465.613 396.342L463.592 394.983C463.592 394.983 462.096 398.389 462.023 398.474C461.95 398.559 462.983 399.098 462.983 399.098Z" fill="white"/>
<path fill-rule="evenodd" clip-rule="evenodd" d="M469.268 398.459C469.366 398.567 467.484 394.969 467.484 394.969L465.477 396.472C465.477 396.472 468.278 399.081 468.336 399.181C468.394 399.28 469.268 398.459 469.268 398.459Z" fill="white"/>
<path fill-rule="evenodd" clip-rule="evenodd" d="M470.541 392.17C470.673 392.112 466.715 392.741 466.715 392.741L467.489 395.091C467.489 395.091 470.811 393.292 470.923 393.269C471.034 393.246 470.541 392.17 470.541 392.17Z" fill="white"/>
<path fill-rule="evenodd" clip-rule="evenodd" d="M393.241 389.85C392.578 387.922 393.281 386.515 393.944 384.953C394.938 382.611 413.146 378.206 417.678 377.357C417.678 377.357 415.826 378.269 417.587 379.911C417.587 379.911 429.715 373.437 432.633 372.251L431.721 371.34C431.721 371.34 443.21 367.692 461.902 372.434V372.981L473.482 378.999C473.482 378.999 475.956 378.634 473.311 377.448C478.398 379.087 480.112 379.18 480.412 380.093L480.322 385.017V386.476C480.322 386.476 482.51 387.296 482.236 388.847C481.962 390.397 481.507 391.765 481.507 391.765L481.051 392.038L480.869 393.954C480.869 393.954 476.27 396.516 472.623 396.79C473.612 392.172 471.917 387.603 465.031 387.815C459.104 387.997 457.981 394.136 457.981 394.136L457.89 396.689L457.799 397.236L417.952 396.506V394.227C417.952 394.227 417.907 388.093 409.609 387.637C401.311 387.181 401.525 395.655 401.525 395.655L401.343 396.931C401.343 396.931 394.966 396.853 393.774 394.378C393.774 394.378 393.697 390.944 393.241 389.85Z" fill="#E9EAE9"/>
<path fill-rule="evenodd" clip-rule="evenodd" d="M419.97 396.543L417.952 396.506V394.227C417.952 394.227 417.907 388.093 409.609 387.637C401.311 387.181 401.525 395.655 401.525 395.655L401.343 396.931C401.343 396.931 394.966 396.853 393.774 394.378C393.774 394.378 393.753 393.425 393.666 392.364L399.096 393.148C399.096 393.148 399.943 390.602 402.534 388.202C407.468 383.631 415.484 384.864 419.146 390.869C420.099 392.431 420.518 395.289 420.518 395.289C420.518 395.289 420.335 395.789 419.97 396.543Z" fill="#D2D3D2"/>
<path fill-rule="evenodd" clip-rule="evenodd" d="M480.321 386.476C480.321 386.476 482.51 387.296 482.236 388.847C481.962 390.397 481.507 391.765 481.507 391.765L481.051 392.038L480.869 393.954C480.869 393.954 476.27 396.516 472.623 396.79C473.307 392.438 471.917 387.603 465.031 387.815C459.104 387.997 457.981 394.136 457.981 394.136L457.924 395.727C456.388 395.187 455.42 394.803 455.42 394.803C456.895 388.936 461.064 383.852 467.764 385.649C470.889 386.488 472.756 389.154 472.756 389.154C472.756 389.154 474.737 388.926 476.566 388.24C478.395 387.554 480.321 386.476 480.321 386.476Z" fill="#D2D3D2"/>
<path fill-rule="evenodd" clip-rule="evenodd" d="M417.841 394.318L418.023 396.445L457.719 397.235L457.84 396.688L457.962 394.317L456.928 394.257L455.652 394.804L420.151 394.743L419.787 394.257L417.841 394.318Z" fill="#D2D3D2"/>
<path fill-rule="evenodd" clip-rule="evenodd" d="M393.164 389.614L393.666 392.364C393.666 392.364 398.549 393.391 399.096 393.148L398.7 390.78C398.7 390.78 393.772 390.466 393.164 389.614Z" fill="#C7C8CD"/>
<path fill-rule="evenodd" clip-rule="evenodd" d="M394.711 385.078C394.711 385.078 395.258 384.166 395.896 383.756C395.896 383.756 396.717 383.71 398.131 384.075C399.544 384.44 400.501 384.576 400.501 384.576C400.501 384.576 402.006 384.941 399.818 385.625C397.629 386.309 396.17 386.263 395.349 385.853C394.529 385.443 394.711 385.078 394.711 385.078Z" fill="#FCFBF8"/>
<path fill-rule="evenodd" clip-rule="evenodd" d="M445.195 371.887L447.685 380.537C454.721 380.333 463.238 380.093 464.527 380.093C466.776 380.093 464.284 377.662 464.284 377.662C463.494 376.932 460.455 374.987 460.455 374.987C458.449 374.014 455.409 372.373 446.837 371.947C446.268 371.919 445.721 371.899 445.195 371.887ZM419.24 381.431C419.24 381.431 428.844 374.683 434.559 372.981C434.559 372.981 437.339 371.888 443.647 371.87C445.132 376.317 444.883 375.563 446.203 380.581C441.637 380.714 438.024 380.823 438.024 380.823L419.24 381.431Z" fill="#3A3A3C"/>
<path fill-rule="evenodd" clip-rule="evenodd" d="M441.351 383.489C441.351 383.703 440.321 383.877 439.049 383.877C437.778 383.877 436.747 383.703 436.747 383.489C436.747 383.275 437.778 383.102 439.049 383.102C440.321 383.102 441.351 383.275 441.351 383.489Z" fill="#505256"/>
<path fill-rule="evenodd" clip-rule="evenodd" d="M463.144 382.578C463.144 382.792 462.113 382.965 460.842 382.965C459.571 382.965 458.54 382.792 458.54 382.578C458.54 382.364 459.571 382.19 460.842 382.19C462.113 382.19 463.144 382.364 463.144 382.578Z" fill="#505256"/>
<path fill-rule="evenodd" clip-rule="evenodd" d="M423.378 382.147C422.566 382.376 419.254 382.163 419.063 381.466C418.863 380.737 421.738 378.901 423.394 379.057L423.378 382.147Z" fill="#D0D1D0"/>
<path d="M716.061 411.368L694.754 405.517L701.535 404.206L721.683 409.141L716.061 411.368Z" fill="#838687"/>
<path d="M729.414 407.83L707.893 402.823L714.616 401.247L734.943 405.383L729.414 407.83Z" fill="#838687"/>
<path d="M692.497 403.966C693.346 403.787 694.588 403.523 696.171 403.188C699.339 402.517 703.867 401.558 709.299 400.408C714.733 399.266 721.072 397.934 727.865 396.508C731.261 395.799 734.771 395.066 738.338 394.322C741.908 393.588 745.534 392.844 749.16 392.098C756.413 390.616 763.667 389.135 770.467 387.746C773.868 387.055 777.152 386.37 780.274 385.758C783.395 385.139 786.345 384.552 789.068 384.012C794.517 382.936 799.051 382.017 802.234 381.411C805.414 380.795 807.232 380.443 807.232 380.443L807.411 381.286C807.411 381.286 805.609 381.707 802.454 382.442C799.301 383.188 794.786 384.199 789.372 385.44C786.666 386.057 783.734 386.726 780.632 387.434C777.532 388.15 774.254 388.864 770.867 389.621C764.092 391.128 756.865 392.735 749.639 394.341C746.023 395.142 742.409 395.941 738.852 396.728C735.292 397.503 731.788 398.267 728.397 399.006C721.614 400.475 715.283 401.846 709.856 403.021C704.427 404.188 699.903 405.159 696.737 405.84C695.154 406.179 693.91 406.447 693.061 406.629C692.698 406.708 692.412 406.769 692.198 406.815L692.497 403.966Z" fill="#838687"/>
<path d="M713.21 410.534C714.038 410.294 715.201 409.957 716.664 409.532C719.775 408.629 724.219 407.34 729.552 405.793C734.887 404.255 741.11 402.46 747.779 400.537C751.115 399.579 754.562 398.59 758.064 397.586C761.57 396.592 765.131 395.582 768.693 394.572C775.817 392.56 782.943 390.548 789.622 388.662C792.962 387.723 796.187 386.798 799.256 385.958C802.322 385.111 805.221 384.309 807.898 383.569C813.251 382.095 817.707 380.845 820.836 380.006C823.962 379.158 824.539 379.002 824.539 379.002L825.646 379.261C825.646 379.261 713.118 413.398 712.903 413.461L713.21 410.534Z" fill="#838687"/>
<path d="M730.112 412.152C737.282 412.905 744.186 412.912 747.928 411.9C759.118 408.875 825.137 379.844 825.758 379.605C826.379 379.365 826.002 379.345 825.917 379.316C825.832 379.287 825.473 379.219 825.473 379.219C825.473 379.219 825.471 379.219 825.468 379.22L825.646 379.261C825.646 379.261 747.677 402.913 721.417 410.878C724.23 411.414 727.192 411.845 730.112 412.152ZM719.692 408.653C721.428 408.15 723.409 407.575 725.594 406.941L709.278 403.145C707.958 403.429 706.694 403.7 705.493 403.959C705.632 404.453 705.949 404.935 706.419 405.402L719.692 408.653Z" fill="#747879"/>
<path d="M716.121 409.689C716.297 409.638 716.478 409.586 716.664 409.532C717.565 409.27 718.578 408.977 719.692 408.653L706.419 405.402C708.082 407.055 711.67 408.516 716.121 409.689Z" fill="#3F4143"/>
<path d="M732.616 404.909C734.236 404.442 735.923 403.956 737.665 403.453C735.415 403.839 733.08 404.198 730.683 404.516L732.616 404.909ZM763.713 395.984C765.369 395.514 767.031 395.043 768.693 394.572C775.817 392.56 782.943 390.548 789.622 388.662C792.962 387.723 796.187 386.798 799.256 385.958C802.322 385.111 805.221 384.309 807.898 383.569C813.251 382.095 817.706 380.845 820.836 380.006C820.955 379.973 821.071 379.942 821.184 379.911C815.788 380.786 805.761 382.424 793.737 384.443C792.361 384.757 790.903 385.089 789.372 385.44C786.666 386.057 783.734 386.726 780.632 387.434C777.532 388.15 774.254 388.864 770.867 389.621C769.724 389.875 768.568 390.133 767.402 390.392C767.241 391.338 767.187 391.898 767.187 391.898C766.741 393.622 765.43 394.928 763.713 395.984Z" fill="#747879"/>
<path d="M725.595 406.941C726.849 406.577 728.17 406.194 729.552 405.793C730.543 405.507 731.566 405.212 732.616 404.909L730.683 404.516C730.412 404.552 730.141 404.587 729.868 404.623C729.352 404.72 728.755 404.799 728.093 404.858C725.296 405.125 721.576 405.07 717.914 404.686C714.924 404.371 711.972 403.837 709.591 403.078C709.486 403.1 709.382 403.123 709.278 403.145L725.595 406.941Z" fill="#3F4143"/>
<path d="M705.493 403.959C706.694 403.7 707.958 403.429 709.278 403.145C709.382 403.123 709.486 403.1 709.591 403.078C708.25 402.651 707.091 402.153 706.207 401.583C705.487 402.4 705.278 403.195 705.493 403.959ZM767.402 390.392C768.568 390.133 769.724 389.876 770.867 389.621C774.254 388.864 777.532 388.15 780.632 387.434C783.734 386.726 786.666 386.057 789.372 385.44C790.903 385.089 792.361 384.757 793.737 384.443C785.687 385.796 776.735 387.321 767.688 388.9C767.568 389.465 767.474 389.967 767.402 390.392Z" fill="#3F4143"/>
<path d="M721.418 410.878C747.677 402.913 825.646 379.261 825.646 379.261L825.468 379.22C825.376 379.234 823.843 379.48 821.184 379.911C821.071 379.942 820.955 379.973 820.836 380.006C817.706 380.845 813.251 382.095 807.898 383.569C805.221 384.309 802.322 385.111 799.256 385.958C796.187 386.798 792.962 387.723 789.622 388.662C782.943 390.548 775.817 392.56 768.693 394.572C767.031 395.043 765.369 395.514 763.713 395.984C761.14 397.566 757.656 398.588 754.815 399.62C750.159 400.945 744.271 402.32 737.665 403.453C735.923 403.956 734.236 404.442 732.616 404.909C731.565 405.212 730.543 405.507 729.552 405.793C728.17 406.194 726.848 406.577 725.594 406.941C723.409 407.575 721.428 408.15 719.692 408.653C718.578 408.977 717.565 409.27 716.664 409.532C716.478 409.586 716.297 409.638 716.121 409.689C717.784 410.128 719.569 410.526 721.418 410.878Z" fill="#3F4143"/>
<path d="M758.809 361.612L764.021 362.871L765.538 355.949C770.181 358.281 825.677 376.367 825.677 376.367C826.147 376.556 825.874 377.86 825.828 378.362L742.792 383.243L758.809 361.612Z" fill="#DFDFDD"/>
<path d="M758.809 361.612L764.021 362.871L765.272 357.164C771.709 359.991 825.812 376.484 825.819 376.485C826.082 376.867 825.868 377.922 825.828 378.362L742.792 383.243L758.809 361.612Z" fill="#C1C2AF"/>
<path d="M825.866 378.051C825.8 378.681 825.668 379.175 825.473 379.219C822.459 379.894 760.315 398.647 756.067 399.172L759.776 382.245L825.866 378.051Z" fill="#6B6042"/>
<path d="M700.295 380.271C704.581 367.079 726.868 353.037 726.868 353.037L760.371 354.025C760.371 354.025 761.293 354.279 761.575 354.422C763.924 355.607 768.578 360.609 768.578 360.609C768.578 360.609 770.509 366.643 769.535 375.917C768.593 384.882 766.703 391.854 766.703 391.854C765.306 392.341 759.891 394.232 755.153 395.951C750.479 397.856 739.184 402.862 729.868 404.623C723.734 405.782 706.11 404.279 704.487 399.695C699.809 386.469 700.139 380.754 700.295 380.271Z" fill="#FBC530"/>
<path d="M700.295 380.271C704.581 367.079 726.868 353.037 726.868 353.037L760.371 354.025C760.371 354.025 761.28 354.309 761.575 354.422C765.634 355.976 767.593 356.486 768.811 358.394C770.641 361.258 770.51 366.643 769.535 375.917C768.593 384.881 766.704 391.854 766.704 391.854C765.592 396.163 759.552 397.9 754.815 399.62C748.394 401.448 739.629 403.37 729.868 404.623C723.787 405.402 706.11 404.279 704.487 399.695C699.809 386.469 700.139 380.754 700.295 380.271Z" fill="#FBC530"/>
<path d="M700.295 380.271C700.63 379.242 701.074 378.207 701.607 377.176C703.039 378.873 704.615 380.397 706.214 381.724C709.462 383.965 712.958 386.006 715.587 388.902C732.798 391.285 750.798 391.644 767.747 388.625C767.312 390.603 767.187 391.898 767.187 391.898C766.075 396.207 759.552 397.9 754.815 399.62C748.394 401.448 739.629 403.37 729.868 404.623C723.787 405.402 706.11 404.279 704.487 399.695C699.809 386.469 700.139 380.754 700.295 380.271Z" fill="#6B6042"/>
<path d="M700.257 380.653C705.993 366.637 729.573 353.321 729.573 353.321L744.974 352.508L744.107 360.756C738.478 365.577 724.11 376.564 721.71 388.265C721.648 388.562 721.533 387.947 721.943 392.354C721.943 392.354 726.433 392.509 727.452 393.782C729.178 395.939 729.095 400.624 730.401 404.486C730.224 404.531 730.047 404.59 729.868 404.623C723.004 405.849 706.11 404.279 704.487 399.695C699.809 386.469 700.065 381.123 700.257 380.653Z" fill="#F6B82D"/>
<path d="M703.94 371.84C713.526 357.52 722.792 352.119 731.826 351.126C747.006 349.677 758.787 353.54 761.192 354.261C759.411 353.852 751.594 353.526 739.115 373.887C735.266 380.169 730.703 387.874 724.033 389.119C717.807 390.281 704.565 389.122 701.001 383.885C699.159 381.177 700.69 376.694 703.94 371.84Z" fill="#F6B82D"/>
<path d="M703.94 371.84C713.526 357.52 722.792 352.119 731.826 351.126C747.006 349.677 758.787 353.54 761.192 354.261C759.411 353.852 751.594 353.526 739.115 373.887C735.266 380.169 730.703 387.874 724.033 389.119C717.807 390.281 704.565 389.122 701.001 383.885C699.159 381.177 700.69 376.694 703.94 371.84Z" fill="#F6B82D"/>
<path d="M702.72 380.382C701.959 381.313 702.241 382.213 703.351 382.394L722.457 385.502C723.567 385.683 725.087 385.075 725.848 384.145C725.848 384.145 732.915 373.383 735.201 369.76C738.957 363.806 746.503 355.808 746.503 355.808C747.266 354.877 746.982 353.977 745.872 353.796L731.404 352.279C729.547 352.08 728.523 352.577 727.356 353.519C727.356 353.519 718.917 360.405 713.972 365.847C709.522 370.745 702.72 380.382 702.72 380.382Z" fill="#6D6E6F"/>
<path d="M727.356 353.519C728.523 352.577 729.547 352.08 731.404 352.279L745.872 353.796C746.982 353.977 747.266 354.877 746.503 355.808C746.503 355.808 744.35 358.089 741.773 361.122L721.581 358.474C724.747 355.649 727.356 353.519 727.356 353.519Z" fill="#969696"/>
<path d="M705.562 376.455L728.684 379.816C727.082 382.265 725.848 384.145 725.848 384.145C725.087 385.075 723.567 385.683 722.457 385.502L703.351 382.394C702.241 382.213 701.959 381.313 702.72 380.382C702.72 380.382 703.884 378.734 705.562 376.455Z" fill="#969696"/>
<path d="M745.712 355.322L731.244 353.805C729.387 353.606 728.362 354.103 727.195 355.045C727.195 355.045 718.757 361.931 713.812 367.373C709.362 372.271 702.559 381.907 702.559 381.907L702.514 381.974C702.178 381.584 702.221 380.991 702.72 380.382C702.72 380.382 709.522 370.745 713.972 365.847C718.917 360.405 727.356 353.519 727.356 353.519C728.523 352.577 729.547 352.08 731.404 352.279L745.872 353.796C746.956 353.973 747.244 354.836 746.549 355.741C746.372 355.537 746.095 355.384 745.712 355.322Z" fill="#4F5253"/>
<path d="M725.5 383.888C724.839 384.681 723.495 385.226 722.527 385.076L703.42 381.969C703.067 381.911 702.83 381.767 702.753 381.564C702.664 381.328 702.774 380.997 703.053 380.654C703.14 380.534 709.91 370.959 714.291 366.137C719.158 360.781 727.544 353.922 727.628 353.854C728.721 352.971 729.637 352.527 731.343 352.706L745.827 354.225C746.156 354.279 746.394 354.423 746.47 354.627C746.559 354.862 746.45 355.194 746.17 355.535C746.114 355.592 738.571 363.609 734.836 369.53C732.625 373.036 725.842 383.367 725.5 383.888ZM722.544 385.948C723.796 386.08 725.359 385.422 726.181 384.417L726.208 384.382C726.278 384.273 733.304 373.576 735.565 369.99C739.256 364.14 746.742 356.184 746.817 356.104C747.317 355.495 747.478 354.854 747.277 354.322C747.086 353.818 746.612 353.48 745.941 353.371L731.449 351.85C729.448 351.64 728.298 352.204 727.084 353.184C726.998 353.255 718.563 360.154 713.653 365.557C709.237 370.418 702.436 380.037 702.368 380.133C701.906 380.696 701.746 381.338 701.946 381.869C702.137 382.373 702.612 382.711 703.282 382.819L722.388 385.927C722.439 385.935 722.492 385.943 722.544 385.948Z" fill="#6B6042"/>
<path d="M714.441 377.746C716.764 374.617 719.809 370.654 722.185 368.039C724.705 365.265 728.134 362.116 730.889 359.695L725.865 359.036C723.207 361.389 720.041 364.323 717.674 366.928C715.194 369.658 711.982 373.86 709.626 377.046L714.441 377.746Z" fill="#65696B"/>
<path d="M730.89 359.695C733.54 357.367 735.568 355.711 735.568 355.711C736.196 355.204 736.757 354.782 737.429 354.453L732.074 353.891C731.731 354.085 731.4 354.323 731.057 354.601C731.057 354.601 728.763 356.473 725.866 359.036L730.89 359.695Z" fill="#6D7173"/>
<path d="M710.595 383.136C710.665 382.954 710.777 382.764 710.933 382.574C710.933 382.574 712.411 380.479 714.441 377.746L709.626 377.046C707.754 379.575 706.422 381.462 706.422 381.462C706.158 381.785 706.023 382.103 706.004 382.389L710.595 383.136Z" fill="#6D7173"/>
<path d="M732.074 353.891L737.429 354.453C738.006 354.171 738.665 353.958 739.517 353.821L735.106 353.36C735.101 353.359 735.096 353.359 735.091 353.358C733.788 353.221 732.895 353.428 732.074 353.891Z" fill="#7B7E7F"/>
<path d="M710.507 383.558C710.51 383.424 710.539 383.282 710.595 383.136L706.004 382.389C705.993 382.55 706.02 382.702 706.08 382.838L710.507 383.558Z" fill="#898474"/>
<path d="M725.5 383.888C724.839 384.681 723.495 385.226 722.526 385.076L703.42 381.969C703.067 381.911 702.83 381.767 702.753 381.564C702.664 381.328 702.774 380.997 703.053 380.654C703.14 380.534 709.911 370.959 714.291 366.137C719.158 360.781 727.544 353.922 727.628 353.854C728.721 352.971 729.637 352.527 731.343 352.706L745.827 354.225C746.156 354.279 746.394 354.423 746.47 354.627C746.559 354.862 746.449 355.194 746.17 355.535C746.114 355.592 738.571 363.609 734.836 369.53C732.625 373.036 725.842 383.367 725.5 383.888ZM722.544 385.948C723.796 386.08 725.359 385.422 726.181 384.417L726.208 384.382C726.278 384.273 733.304 373.576 735.565 369.99C739.256 364.14 746.742 356.184 746.817 356.104C747.317 355.495 747.478 354.854 747.277 354.322C747.086 353.818 746.612 353.48 745.941 353.371L731.449 351.85C729.448 351.64 728.298 352.204 727.084 353.184C726.998 353.255 718.563 360.154 713.653 365.557C709.237 370.418 702.435 380.036 702.368 380.133C701.906 380.696 701.746 381.338 701.946 381.869C702.137 382.373 702.612 382.711 703.282 382.819L722.388 385.927C722.439 385.935 722.492 385.943 722.544 385.948Z" fill="#6B6042"/>
<path d="M702.173 387.985L701.64 388.29C701.462 388.834 701.818 391.174 701.818 391.174C701.021 387.975 700.39 385.067 700.333 383.544C700.676 384.663 701.797 385.679 702.291 385.912L702.173 387.985Z" fill="#6B6042"/>
<path d="M768.325 364.05C768.325 364.05 768.409 370.922 767.219 378.852C759.908 379.673 746.547 380.166 746.547 380.166C746.547 380.166 756.545 362.017 768.325 364.05Z" fill="#666769"/>
<path d="M766.578 378.248C767.576 371.598 767.678 365.695 767.686 363.96C767.898 363.984 768.111 364.012 768.325 364.05C768.325 364.05 768.409 370.922 767.219 378.852C759.908 379.673 746.547 380.166 746.547 380.166C746.547 380.166 746.677 379.932 746.921 379.521C750.167 379.389 760.476 378.932 766.578 378.248Z" fill="#4F5253"/>
<path d="M747.251 383.091C752.831 383.129 764.272 381.979 769.076 381.654C768.659 384.428 768.515 386.055 768.121 387.906C765.114 388.547 752.168 390.942 745.193 387.554C737.219 383.682 743.852 375.559 743.852 375.559C743.852 375.559 740.353 383.045 747.251 383.091Z" fill="#6B6042"/>
<path d="M704.09 397.671C704.685 399.11 705.882 399.468 707.256 399.824C714.39 401.671 718.93 402.055 725.703 402.176C727.009 402.199 727.531 401.497 727.252 399.773C726.969 398.161 726.813 397.133 726.326 395.432C725.88 394.1 724.814 393.604 723.621 393.582C717.262 393.251 710.494 392.334 703.891 390.829C702.636 390.504 702.247 390.812 702.39 391.964C702.614 393.506 703.456 395.979 704.09 397.671Z" fill="#5D5E60"/>
<path d="M702.985 390.723C702.958 390.9 702.959 391.114 702.991 391.377C703.215 392.918 704.057 395.392 704.692 397.083C705.287 398.522 706.482 398.881 707.857 399.237C714.991 401.084 719.532 401.468 726.305 401.589C726.64 401.595 726.922 401.551 727.153 401.457C726.92 401.961 726.441 402.189 725.703 402.176C718.93 402.055 714.39 401.671 707.256 399.824C705.882 399.468 704.685 399.11 704.09 397.671C703.456 395.979 702.614 393.506 702.39 391.964C702.29 391.163 702.458 390.778 702.985 390.723Z" fill="#4F5253"/>
<path d="M781.297 365.391C781.297 365.391 772.349 360.997 765.579 361.304C758.81 361.612 749.04 368.128 745.471 378.373C746.57 373.069 750.89 360.734 760.327 358.638C769.764 356.543 781.297 365.391 781.297 365.391Z" fill="white"/>
<path d="M771.965 378.799C771.93 378.962 772.021 379.093 772.167 379.091C775.03 379.077 776.464 379.049 779.337 378.97C779.484 378.966 779.626 378.849 779.654 378.708C780.631 373.923 780.876 371.595 780.915 366.712C780.917 366.568 780.802 366.423 780.659 366.388C777.866 365.714 776.469 365.389 773.672 364.779C773.53 364.747 773.411 364.856 773.41 365.022C773.389 369.648 772.903 374.269 771.965 378.799Z" fill="#666769"/>
<path d="M782.354 378.582C782.327 378.714 782.4 378.821 782.519 378.819C784.843 378.807 786.008 378.785 788.341 378.721C788.461 378.718 788.576 378.623 788.599 378.508C789.392 374.623 789.59 372.733 789.623 368.767C789.624 368.65 789.532 368.531 789.415 368.503C787.146 367.956 786.013 367.692 783.741 367.197C783.625 367.171 783.529 367.259 783.529 367.394C783.511 371.151 783.116 374.904 782.354 378.582Z" fill="#666769"/>
<path d="M791.276 378.452C791.254 378.559 791.313 378.645 791.41 378.644C793.295 378.634 794.24 378.616 796.132 378.564C796.229 378.562 796.323 378.484 796.341 378.391C796.984 375.241 797.146 373.707 797.172 370.491C797.173 370.396 797.098 370.299 797.003 370.277C795.163 369.833 794.244 369.619 792.401 369.217C792.307 369.196 792.23 369.268 792.229 369.377C792.215 372.424 791.895 375.468 791.276 378.452Z" fill="#666769"/>
<path d="M798.399 378.361C798.381 378.448 798.43 378.519 798.508 378.518C800.049 378.51 800.821 378.495 802.367 378.453C802.446 378.451 802.522 378.388 802.538 378.311C803.063 375.737 803.195 374.484 803.216 371.857C803.217 371.779 803.155 371.701 803.079 371.682C801.575 371.32 800.824 371.144 799.318 370.816C799.241 370.799 799.178 370.858 799.177 370.947C799.166 373.436 798.904 375.924 798.399 378.361Z" fill="#666769"/>
<path d="M804.234 378.274C804.219 378.345 804.259 378.402 804.323 378.402C805.576 378.395 806.203 378.383 807.46 378.349C807.525 378.347 807.587 378.296 807.6 378.234C808.026 376.141 808.134 375.121 808.151 372.984C808.152 372.922 808.102 372.858 808.039 372.843C806.817 372.547 806.205 372.406 804.981 372.139C804.919 372.125 804.867 372.173 804.867 372.245C804.858 374.27 804.645 376.292 804.234 378.274Z" fill="#666769"/>
<path d="M771.221 384.615C772.517 384.49 773.83 384.363 775.152 384.236C777.797 383.979 780.485 383.735 783.169 383.426C785.854 383.131 788.539 382.837 791.182 382.546C793.823 382.235 796.423 381.928 798.938 381.632C801.452 381.326 803.884 381.03 806.188 380.749C808.492 380.461 810.671 380.189 812.682 379.938C819.567 379.041 824.483 378.401 825.753 378.236L825.744 378.323C824.444 378.525 819.56 379.283 812.738 380.341C810.733 380.641 808.562 380.967 806.265 381.311C803.966 381.648 801.543 382.004 799.036 382.371C796.527 382.729 793.934 383.099 791.3 383.475C788.662 383.83 785.982 384.191 783.303 384.551C780.625 384.926 777.938 385.238 775.294 385.559C773.972 385.72 772.661 385.879 771.364 386.035C770.412 386.153 769.468 386.241 768.53 386.331L768.689 384.818C769.526 384.759 770.37 384.699 771.221 384.615Z" fill="#FBC530"/>
<path d="M754.176 399.799C754.176 399.799 761.118 397.479 765.208 391.867C766.034 391.167 776.038 389.891 776.606 389.862C777.173 389.834 778.203 391.532 778.508 392.08C778.813 392.629 780.382 392.485 780.876 392.343C778.024 393.165 754.176 399.799 754.176 399.799Z" fill="#292A2C"/>
<path d="M802.387 385.962C802.387 385.962 805.22 384.848 806.878 382.572C807.213 382.289 811.27 381.771 811.5 381.76C811.73 381.748 812.148 382.437 812.271 382.659C812.395 382.882 813.031 382.823 813.232 382.766C812.075 383.099 802.387 385.962 802.387 385.962Z" fill="#292A2C"/>
<path d="M717.426 391.217C717.343 392.008 717.856 392.71 718.571 392.785C719.286 392.86 719.933 392.28 720.016 391.489C720.1 390.698 719.587 389.996 718.872 389.921C718.157 389.846 717.51 390.426 717.426 391.217Z" fill="#FDEAB1"/>
<path d="M718.872 389.921C718.939 389.928 719.001 389.946 719.064 389.963C718.431 390.002 717.89 390.54 717.815 391.258C717.739 391.975 718.156 392.614 718.767 392.784C718.702 392.788 718.638 392.792 718.571 392.785C717.856 392.71 717.343 392.008 717.426 391.217C717.51 390.426 718.157 389.846 718.872 389.921Z" fill="#6B6042"/>
<path d="M718.19 399.649C718.098 400.521 718.842 401.313 719.852 401.419C720.862 401.525 721.754 400.905 721.846 400.033C721.937 399.162 721.193 398.37 720.184 398.263C719.174 398.157 718.282 398.777 718.19 399.649Z" fill="#4C4E51"/>
<path d="M718.19 399.649C718.099 400.521 718.663 401.294 719.451 401.377C720.239 401.46 720.952 400.821 721.044 399.949C721.135 399.077 720.57 398.304 719.783 398.221C718.995 398.138 718.282 398.777 718.19 399.649Z" fill="white"/>
<path d="M719.77 398.339C720.492 398.415 721.01 399.132 720.925 399.937C720.841 400.742 720.185 401.335 719.464 401.259C718.742 401.183 718.223 400.467 718.308 399.662C718.393 398.857 719.049 398.264 719.77 398.339ZM719.439 401.495C720.29 401.585 721.063 400.897 721.162 399.962C721.26 399.027 720.647 398.193 719.795 398.103C718.943 398.014 718.17 398.702 718.072 399.637C717.974 400.572 718.587 401.406 719.439 401.495Z" fill="#E5E6E3"/>
<path d="M719.783 398.221C719.857 398.229 719.926 398.249 719.995 398.269C719.297 398.311 718.701 398.904 718.618 399.694C718.535 400.484 718.994 401.188 719.668 401.376C719.596 401.38 719.525 401.385 719.451 401.377C718.663 401.294 718.099 400.521 718.19 399.649C718.282 398.777 718.995 398.138 719.783 398.221Z" fill="#909292"/>
<path d="M704.676 397.206C704.593 397.997 705.269 398.716 706.185 398.812C707.101 398.908 707.911 398.346 707.995 397.555C708.078 396.763 707.402 396.044 706.486 395.948C705.57 395.851 704.759 396.415 704.676 397.206Z" fill="#4C4E51"/>
<path d="M704.676 397.206C704.593 397.997 705.105 398.699 705.821 398.774C706.536 398.849 707.183 398.269 707.266 397.479C707.35 396.687 706.837 395.985 706.122 395.909C705.406 395.834 704.759 396.415 704.676 397.206Z" fill="white"/>
<path d="M706.111 396.017C706.766 396.085 707.236 396.736 707.159 397.467C707.083 398.198 706.487 398.736 705.832 398.667C705.177 398.598 704.707 397.948 704.784 397.218C704.861 396.486 705.456 395.948 706.111 396.017ZM705.81 398.881C706.583 398.962 707.284 398.338 707.374 397.49C707.463 396.641 706.906 395.884 706.133 395.802C705.36 395.721 704.658 396.346 704.568 397.195C704.479 398.043 705.036 398.8 705.81 398.881Z" fill="#E5E6E3"/>
<path d="M706.122 395.909C706.189 395.917 706.251 395.934 706.314 395.952C705.68 395.991 705.14 396.529 705.065 397.247C704.989 397.964 705.406 398.603 706.018 398.773C705.953 398.777 705.888 398.781 705.821 398.774C705.105 398.699 704.593 397.997 704.676 397.206C704.759 396.415 705.407 395.834 706.122 395.909Z" fill="#909292"/>
<path d="M702.488 388.717C702.405 389.508 702.857 390.203 703.498 390.27C704.139 390.337 704.725 389.752 704.808 388.961C704.891 388.169 704.44 387.474 703.799 387.406C703.158 387.339 702.571 387.925 702.488 388.717Z" fill="#FDEAB1"/>
<path d="M703.799 387.406C703.858 387.413 703.915 387.43 703.971 387.446C703.402 387.492 702.912 388.036 702.836 388.753C702.761 389.47 703.127 390.104 703.675 390.267C703.616 390.271 703.557 390.276 703.498 390.27C702.857 390.203 702.405 389.508 702.488 388.717C702.571 387.925 703.158 387.339 703.799 387.406Z" fill="#6B6042"/>
<path d="M705.367 385.912C705.344 386.128 705.503 386.335 705.723 386.376L715.944 388.262C716.164 388.302 716.361 388.161 716.384 387.945C716.408 387.73 716.248 387.522 716.028 387.482L705.808 385.596C705.588 385.555 705.39 385.697 705.367 385.912Z" fill="#292A2C"/>
<path d="M705.224 387.232C705.201 387.447 705.361 387.655 705.581 387.696L715.801 389.581C716.022 389.622 716.219 389.48 716.242 389.265C716.265 389.05 716.105 388.841 715.885 388.801L705.665 386.915C705.445 386.875 705.247 387.016 705.224 387.232Z" fill="#292A2C"/>
<path d="M705.081 388.551C705.058 388.767 705.218 388.974 705.438 389.015L715.658 390.901C715.879 390.941 716.076 390.8 716.1 390.584C716.123 390.369 715.963 390.161 715.743 390.12L705.522 388.235C705.302 388.194 705.105 388.336 705.081 388.551Z" fill="#292A2C"/>
<path d="M704.94 389.872C704.916 390.087 705.076 390.294 705.296 390.335L715.516 392.221C715.736 392.261 715.934 392.12 715.957 391.904C715.98 391.689 715.82 391.481 715.6 391.44L705.38 389.554C705.16 389.514 704.963 389.656 704.94 389.872Z" fill="#292A2C"/>
<path d="M735.003 403.389C740.867 401.56 746.957 397.542 750.262 392.936L758.454 391.983C758.454 391.983 746.066 401.641 735.003 403.389Z" fill="white"/>
<path d="M453.716 83.9784L455.901 83.5931L454.42 75.193L452.235 75.5783L453.716 83.9784Z" fill="#2A2B2B"/>
<path d="M554.812 64.0796L557 63.6938L556.25 59.4386L554.062 59.8244L554.812 64.0796Z" fill="#2A2B2B"/>
<path d="M560.273 65.3688C560.661 67.5672 559.192 69.6644 556.994 70.0521C554.795 70.4397 552.697 68.9714 552.31 66.7729C551.922 64.5745 553.391 62.4768 555.589 62.0891C557.788 61.7015 559.886 63.1703 560.273 65.3688Z" fill="#252329"/>
<path d="M558.476 65.6857C558.689 66.8932 557.884 68.0422 556.677 68.2551C555.469 68.468 554.32 67.6635 554.107 66.456C553.894 65.2485 554.699 64.0995 555.906 63.8866C557.114 63.6737 558.263 64.4782 558.476 65.6857Z" fill="#BBB5B3"/>
<path d="M444.755 83.4856L446.94 83.1003L446.19 78.8452L444.005 79.2304L444.755 83.4856Z" fill="#2A2B2B"/>
<path d="M450.214 84.7752C450.602 86.9736 449.134 89.0706 446.935 89.4584C444.736 89.846 442.639 88.3776 442.252 86.1791C441.864 83.9807 443.332 81.8831 445.531 81.4954C447.73 81.1077 449.826 82.5767 450.214 84.7752Z" fill="#252329"/>
<path d="M448.418 85.0918C448.631 86.2993 447.825 87.4486 446.618 87.6614C445.411 87.8742 444.261 87.0699 444.048 85.8625C443.835 84.655 444.641 83.5057 445.848 83.2929C447.055 83.0801 448.205 83.8844 448.418 85.0918Z" fill="#BBB5B3"/>
<path d="M434.89 85.2251L437.075 84.8398L436.325 80.5846L434.14 80.9699L434.89 85.2251Z" fill="#2A2B2B"/>
<path d="M440.349 86.5147C440.736 88.7132 439.268 90.8103 437.069 91.1979C434.871 91.5856 432.774 90.1172 432.386 87.9187C431.998 85.7203 433.467 83.6227 435.665 83.235C437.864 82.8474 439.961 84.3163 440.349 86.5147Z" fill="#252329"/>
<path d="M438.552 86.8314C438.765 88.0389 437.959 89.1881 436.752 89.4009C435.546 89.6137 434.395 88.8094 434.182 87.602C433.97 86.3945 434.776 85.2452 435.982 85.0325C437.189 84.8197 438.34 85.6239 438.552 86.8314Z" fill="#BBB5B3"/>
<path d="M458.821 83.2576C459.209 85.456 457.74 87.5531 455.542 87.9408C453.343 88.3285 451.246 86.8601 450.858 84.6616C450.47 82.4632 451.939 80.3656 454.138 79.9778C456.336 79.5902 458.433 81.0591 458.821 83.2576Z" fill="#252329"/>
<path d="M457.024 83.5743C457.237 84.7818 456.431 85.931 455.225 86.1438C454.018 86.3566 452.867 85.5523 452.654 84.3449C452.442 83.1374 453.248 81.9881 454.455 81.7753C455.661 81.5626 456.811 82.3668 457.024 83.5743Z" fill="#BBB5B3"/>
<path d="M574.29 43.3008C576.391 55.2134 553.234 61.3984 553.234 61.3984L428.837 83.3329L374.375 73.8923L373.574 69.346L509.573 45.3657C515.926 39.8764 532.769 35.3135 546.342 32.9276C551.119 32.0852 559.456 34.19 560.683 37.4524C563.121 37.3887 572.996 35.9624 574.29 43.3008Z" fill="#76C1FF"/>
<path d="M404.866 63.8283L373.575 69.3457L353.191 42.8296L362.78 41.1388L404.866 63.8283Z" fill="#209EF2"/>
<path d="M417.923 73.3626C418.054 74.1051 417.557 74.8152 416.813 74.9464L415.063 75.2549C414.32 75.386 413.61 74.8886 413.479 74.1461L412.727 69.8803C412.596 69.1379 413.093 68.4277 413.836 68.2966L415.586 67.9881C416.33 67.8569 417.04 68.3543 417.17 69.0968L417.923 73.3626Z" fill="#209EF2"/>
<path d="M529.274 53.7283C529.405 54.4708 528.908 55.181 528.165 55.3119L526.414 55.6206C525.672 55.7515 524.962 55.2542 524.831 54.5118L524.079 50.246C523.948 49.5035 524.445 48.7933 525.188 48.6624L526.938 48.3537C527.681 48.2227 528.391 48.72 528.522 49.4625L529.274 53.7283Z" fill="#209EF2"/>
<path d="M560.683 37.4524L550.436 39.2592L549.808 35.7003L557.015 34.4296C559.957 35.5184 560.683 37.4524 560.683 37.4524Z" fill="#252329"/>
<path d="M553.714 38.6812L554.748 38.499L554.12 34.94L553.087 35.1222L553.714 38.6812Z" fill="#76C1FF"/>
<path d="M392.452 68.3683C392.744 70.02 391.64 71.5954 389.988 71.8867L367.509 75.8504C365.856 76.1418 364.28 75.0389 363.989 73.3872C363.697 71.732 364.801 70.1572 366.453 69.8658L388.932 65.9022C390.584 65.6109 392.161 66.7131 392.452 68.3683Z" fill="#B6E2FF"/>
<path d="M423.749 69.5775C423.912 70.5045 423.292 71.394 422.362 71.558C421.433 71.7219 420.546 71.098 420.383 70.171L420.124 68.7008C419.96 67.7703 420.58 66.8843 421.509 66.7204C422.439 66.5565 423.325 67.1768 423.489 68.1073L423.749 69.5775Z" fill="#252329"/>
<path d="M430.672 68.3567C430.836 69.2836 430.216 70.1731 429.286 70.3371C428.356 70.501 427.469 69.8772 427.306 68.9503L427.047 67.48C426.883 66.5495 427.503 65.6635 428.433 65.4996C429.363 65.3356 430.249 65.956 430.413 66.8865L430.672 68.3567Z" fill="#252329"/>
<path d="M437.596 67.1359C437.759 68.0628 437.139 68.9524 436.21 69.1163C435.28 69.2803 434.393 68.6564 434.23 67.7294L433.97 66.2592C433.806 65.3287 434.427 64.4428 435.357 64.2788C436.286 64.1149 437.173 64.7352 437.337 65.6657L437.596 67.1359Z" fill="#252329"/>
<path d="M444.519 65.9151C444.683 66.8421 444.062 67.7317 443.133 67.8956C442.203 68.0596 441.317 67.4356 441.153 66.5086L440.894 65.0384C440.73 64.1079 441.35 63.222 442.28 63.058C443.209 62.8942 444.096 63.5144 444.26 64.4449L444.519 65.9151Z" fill="#252329"/>
<path d="M451.443 64.6943C451.606 65.6213 450.985 66.5109 450.056 66.6747C449.126 66.8387 448.24 66.2148 448.076 65.2879L447.817 63.8177C447.653 62.8871 448.273 62.0012 449.203 61.8372C450.132 61.6734 451.019 62.2936 451.183 63.2241L451.443 64.6943Z" fill="#252329"/>
<path d="M458.365 63.4737C458.529 64.4006 457.909 65.2901 456.98 65.454C456.05 65.6179 455.163 64.994 455 64.067L454.741 62.5968C454.577 61.6663 455.197 60.7804 456.127 60.6165C457.056 60.4526 457.942 61.0729 458.106 62.0034L458.365 63.4737Z" fill="#252329"/>
<path d="M465.29 62.2527C465.453 63.1797 464.833 64.0693 463.903 64.2332C462.973 64.3971 462.087 63.7732 461.923 62.8463L461.664 61.3761C461.5 60.4456 462.12 59.5596 463.05 59.3957C463.98 59.2317 464.866 59.852 465.03 60.7825L465.29 62.2527Z" fill="#252329"/>
<path d="M472.212 61.0322C472.375 61.9591 471.755 62.8486 470.825 63.0127C469.898 63.1761 469.011 62.5522 468.848 61.6253L468.589 60.1551C468.425 59.2246 469.045 58.3386 469.972 58.1752C470.902 58.0111 471.788 58.6314 471.952 59.5619L472.212 61.0322Z" fill="#252329"/>
<path d="M479.138 59.8109C479.301 60.7378 478.678 61.628 477.751 61.7914C476.82 61.9556 475.934 61.3316 475.771 60.4046L475.511 58.9344C475.347 58.0039 475.967 57.1181 476.898 56.9539C477.825 56.7904 478.715 57.4102 478.879 58.3407L479.138 59.8109Z" fill="#252329"/>
<path d="M492.983 57.3697C493.146 58.2966 492.526 59.1861 491.596 59.3502C490.665 59.5143 489.782 58.8897 489.619 57.9628L489.36 56.4926C489.196 55.5621 489.812 54.6768 490.743 54.5127C491.673 54.3486 492.559 54.969 492.723 55.8995L492.983 57.3697Z" fill="#252329"/>
<path d="M499.905 56.1491C500.068 57.0761 499.449 57.9655 498.522 58.1289C497.592 58.293 496.705 57.6691 496.542 56.7422L496.282 55.2719C496.118 54.3414 496.739 53.4555 497.669 53.2914C498.596 53.128 499.482 53.7484 499.646 54.6789L499.905 56.1491Z" fill="#252329"/>
<path d="M506.831 54.9279C506.995 55.8548 506.371 56.7449 505.444 56.9084C504.514 57.0725 503.627 56.4486 503.464 55.5216L503.205 54.0514C503.04 53.1209 503.661 52.2349 504.591 52.0709C505.518 51.9074 506.408 52.5271 506.572 53.4576L506.831 54.9279Z" fill="#252329"/>
<path d="M513.754 53.7072C513.917 54.6341 513.297 55.5236 512.367 55.6877C511.436 55.8518 510.55 55.2279 510.386 54.3009L510.127 52.8307C509.963 51.9002 510.583 51.0143 511.514 50.8502C512.444 50.6861 513.33 51.3065 513.494 52.237L513.754 53.7072Z" fill="#252329"/>
<path d="M520.676 52.4866C520.839 53.4136 520.22 54.303 519.289 54.4672C518.363 54.6305 517.476 54.0066 517.313 53.0797L517.053 51.6094C516.889 50.6789 517.51 49.793 518.436 49.6296C519.367 49.4655 520.253 50.0859 520.417 51.0164L520.676 52.4866Z" fill="#252329"/>
<path d="M534.525 50.0447C534.688 50.9717 534.068 51.8612 533.138 52.0252C532.207 52.1894 531.321 51.5654 531.157 50.6385L530.898 49.1682C530.734 48.2377 531.354 47.3519 532.285 47.1877C533.215 47.0236 534.101 47.644 534.265 48.5745L534.525 50.0447Z" fill="#252329"/>
<path d="M541.447 48.8241C541.611 49.751 540.991 50.6406 540.061 50.8046C539.13 50.9688 538.244 50.3448 538.08 49.4178L537.821 47.9476C537.657 47.0171 538.277 46.1312 539.208 45.9671C540.138 45.8031 541.024 46.4233 541.188 47.3539L541.447 48.8241Z" fill="#252329"/>
<path d="M548.369 47.6035C548.533 48.5304 547.913 49.4199 546.983 49.584C546.056 49.7475 545.169 49.1235 545.006 48.1966L544.746 46.7264C544.582 45.7959 545.203 44.9099 546.13 44.7465C547.06 44.5824 547.946 45.2028 548.11 46.1333L548.369 47.6035Z" fill="#252329"/>
<path d="M555.296 46.3822C555.459 47.3092 554.836 48.1993 553.909 48.3627C552.978 48.5268 552.092 47.9029 551.928 46.976L551.669 45.5057C551.505 44.5752 552.125 43.6893 553.056 43.5252C553.983 43.3618 554.872 43.9815 555.036 44.912L555.296 46.3822Z" fill="#252329"/>
<path d="M562.218 45.1617C562.381 46.0886 561.762 46.9781 560.831 47.1422C559.901 47.3063 559.015 46.6823 558.851 45.7553L558.592 44.2851C558.428 43.3546 559.048 42.4687 559.978 42.3047C560.909 42.1406 561.795 42.7609 561.959 43.6914L562.218 45.1617Z" fill="#252329"/>
<path d="M495.926 60.6414L432.912 61.2341L412.646 64.8077L439.564 70.9348L479.463 69.1106L495.926 60.6414Z" fill="#DCF3FF"/>
<path d="M450.68 65.8469L446.191 69.3449L446.995 73.9019L452.409 75.6535L468.049 72.8959L466.319 63.0893L450.68 65.8469Z" fill="#209EF2"/>
<path d="M464.093 73.5934L468.048 72.896L466.319 63.0896L462.364 63.7869L464.093 73.5934Z" fill="#033771"/>
<path d="M480.287 63.3989L475.799 66.9004L476.602 71.4538L482.017 73.2091L497.655 70.4516L495.925 60.6414L480.287 63.3989Z" fill="#209EF2"/>
<path d="M493.698 71.1493L497.655 70.4516L495.925 60.6416L491.969 61.3393L493.698 71.1493Z" fill="#033771"/>
</svg>
