<svg width="123" height="144" viewBox="0 0 123 144" fill="none" xmlns="http://www.w3.org/2000/svg">
<path d="M38.3448 109.816C31.2452 115.466 22.8208 112.16 15.3095 113.563C7.26194 115.065 2.43955 124.987 2.43955 124.987C13.7387 125.289 27.7784 117.737 27.7784 117.737C14.544 127.21 0.746798 127.35 -4.06382 127.055C1.85973 120.863 7.77683 110.765 7.77683 110.765C56.4763 81.5631 27.3225 32.7057 27.3225 32.7057C26.9688 48.7159 11.5522 63.4317 1.43119 79.0537C-8.68946 94.6761 2.79886 108.531 2.79886 108.531C19.1298 86.6181 25.9774 56.3402 25.9774 56.3402C23.1885 89.7811 -1.04147 120.017 -5.00059 124.756C-5.60308 120.184 -7.55666 115.742 -7.55666 115.742C4.78997 77.2924 -39.3805 83.4511 -39.3805 83.4511C-30.7093 87.7422 -32.5031 102.682 -28.8543 111.722C-24.9438 121.41 -11.7095 118.339 -11.7095 118.339C-14.2905 102.367 -27.066 90.3199 -27.066 90.3199C-8.64803 101.509 -7.25361 127.962 -7.25361 127.962L-6.90695 127.945L-7.22223 128.259C-3.95436 129.149 1.94731 128.322 1.94731 128.322C19.6955 142.385 38.3448 109.816 38.3448 109.816Z" fill="url(#paint0_linear)"/>
<path d="M75.6724 22.5007C75.6724 22.5007 73.0476 20.6273 70.2245 22.4118L70.5891 22.6084C70.5891 22.6084 74.1145 21.6071 75.3695 22.7839L75.6724 22.5007Z" fill="#1A1918"/>
<path d="M80.7047 104.534H78.2068V100.954H80.7047V104.534Z" fill="#4C5154"/>
<path d="M77.4989 104.992C77.4989 106.072 78.3752 106.948 79.4556 106.948C80.536 106.948 81.4124 106.072 81.4124 104.992C81.4124 103.911 80.536 103.035 79.4556 103.035C78.3752 103.035 77.4989 103.911 77.4989 104.992Z" fill="#4C5154"/>
<path d="M70.9631 104.534H68.4653V100.954H70.9631V104.534Z" fill="#4C5154"/>
<path d="M67.7575 104.992C67.7575 106.072 68.6333 106.948 69.7142 106.948C70.7946 106.948 71.6709 106.072 71.6709 104.992C71.6709 103.911 70.7946 103.035 69.7142 103.035C68.6333 103.035 67.7575 103.911 67.7575 104.992Z" fill="#4C5154"/>
<path d="M67.3404 102.935H82.1533C83.5123 102.935 84.6938 102.001 85.0079 100.679L90.1183 79.1673C90.5564 77.3239 89.1587 75.5554 87.2637 75.5554H72.4512C71.0918 75.5554 69.9108 76.4888 69.5962 77.8112L64.4858 99.3224C64.0476 101.166 65.4459 102.935 67.3404 102.935Z" fill="#4B6F97"/>
<path d="M60.0233 94.8603L65.1342 73.3486C65.4483 72.0262 66.6293 71.0928 67.9887 71.0928H82.8017C83.7801 71.0928 84.6255 71.5651 85.1545 72.2757L89.4279 76.6063L84.9045 77.8688L80.5454 96.2165C80.2313 97.5389 79.0502 98.4723 77.6908 98.4723H66.2717C65.9314 99.8121 65.3378 102.038 65.3378 102.038L61.1767 97.9293C60.2475 97.2656 59.7335 96.0792 60.0233 94.8603Z" fill="#957D80"/>
<path d="M67.3404 102.935H82.1533C83.5123 102.935 84.6938 102.001 85.0079 100.679L90.1183 79.1673C90.5564 77.3239 89.1587 75.5554 87.2637 75.5554H72.4512C71.0918 75.5554 69.9108 76.4888 69.5962 77.8112L64.4858 99.3224C64.0476 101.166 65.4459 102.935 67.3404 102.935Z" fill="#6A5458"/>
<path d="M82.7573 80.0515H83.9364L90.6866 59.0913H89.5075L82.7573 80.0515Z" fill="#5E6669"/>
<path d="M74.7759 80.0515H75.9551L82.7053 59.0913H81.5261L74.7759 80.0515Z" fill="#5E6669"/>
<path d="M81.257 59.8684H90.8716C91.2798 59.8684 91.6107 59.5375 91.6107 59.1293V58.9771C91.6107 58.5689 91.2798 58.238 90.8716 58.238H81.257C80.8488 58.238 80.5178 58.5689 80.5178 58.9771V59.1293C80.5178 59.5375 80.8488 59.8684 81.257 59.8684Z" fill="#C77C85"/>
<path d="M74.8616 80.5562H84.4766C84.8848 80.5562 85.2158 80.2252 85.2158 79.8171V79.6654C85.2158 79.2572 84.8848 78.9262 84.4766 78.9262H74.8616C74.4534 78.9262 74.1229 79.2572 74.1229 79.6654V79.8171C74.1229 80.2252 74.4534 80.5562 74.8616 80.5562Z" fill="#C77C85"/>
<path d="M76.7996 39.5565L83.4169 38.3534L85.1423 53.1847L85.1227 53.224C85.3291 53.5123 85.5351 53.7857 85.7396 54.0432L85.954 54.5197L87.085 55.5149L87.5803 55.7626C88.1284 56.0369 88.5169 56.5495 88.6321 57.1515C88.7154 57.5863 88.8105 58.1532 88.8942 58.8245C89.0979 60.4498 88.4879 60.5855 88.4879 60.5855C88.4879 60.5855 85.3048 60.6529 84.8306 60.5855C84.3564 60.5177 84.1616 60.043 84.1616 60.043C84.1349 59.5917 83.9805 59.2037 83.9533 58.7524C83.4468 58.3522 83.107 57.7478 83.0274 57.1075C82.9759 56.6936 83.0372 56.2695 83.1917 55.8824L76.7996 39.5565Z" fill="#F7968C"/>
<path d="M89.1124 9.07804C89.1124 9.07804 85.1522 17.9488 74.8776 19.2661C64.6034 20.5829 61.8584 18.4745 61.321 17.1577C60.7836 15.8409 70.7942 7.93772 70.7942 7.93772L78.5658 5.30317C78.5658 5.30317 87.8045 6.66164 89.1124 9.07804Z" fill="#302C28"/>
<path d="M66.7814 10.8405C65.232 13.3206 64.9216 16.5342 65.9688 19.2647C66.1472 18.9463 66.325 18.6276 66.5034 18.3092C66.3555 20.081 67.5084 21.8819 69.1791 22.4895C69.482 22.6 70.2076 22.4254 70.4866 22.2643L79.1939 22.2601C80.3862 21.6745 81.4699 20.2931 81.528 18.966C81.5813 19.4566 81.6553 19.9486 81.7087 20.4392C83.4355 18.2868 84.177 15.3746 83.6897 12.6586C83.2024 9.94264 81.4947 7.46961 79.1275 6.05216C76.4223 6.26094 73.9113 6.48095 71.2543 7.03145C70.1921 7.25146 69.1145 7.50705 68.1881 8.07206C67.2617 8.63661 67.3568 9.92065 66.7814 10.8405Z" fill="#603925"/>
<path d="M72.7382 103.784C74.3747 102.315 82.5105 105.225 82.5105 105.225C83.8816 105.484 85.7761 106.162 85.9764 107.439C86.1239 108.38 85.2471 109.227 83.6134 109.291L72.1399 109.259C72.1399 109.259 70.6981 105.615 72.7382 103.784Z" fill="#AE3B20"/>
<path d="M72.697 103.592C72.4704 102.224 70.1027 87.546 71.728 80.8277C73.4334 73.7774 73.9253 72.169 73.9253 72.169L79.04 83.15L77.5027 103.591L83.0175 105.361C83.0175 105.361 81.8744 107.544 79.7988 107.606C78.5686 107.644 76.3652 107.622 74.774 107.598C74.6664 107.596 74.5554 107.588 74.4426 107.572C73.0607 107.384 72.1526 106.024 72.426 104.656L72.697 103.592Z" fill="#F7968C"/>
<path d="M50.5286 95.401C52.8968 95.6959 56.1848 103.954 56.1848 103.954C56.6337 104.828 57.21 107.008 56.3135 107.939C55.6525 108.626 54.4486 108.438 53.4103 107.175L46.5023 98.014C46.5023 98.014 47.8084 95.0621 50.5286 95.401Z" fill="#AE3B20"/>
<path d="M66.5755 81.0964L54.1265 98.622L56.1848 103.954C56.1848 103.954 53.715 104.485 52.4403 102.846C51.6848 101.874 50.4036 100.082 49.4847 98.7822C48.8639 97.9039 49.0137 96.6976 49.8311 95.9979L50.5286 95.401C50.5286 95.401 56.4118 80.4743 61.5208 75.3246C66.6293 70.1753 67.8829 69.0532 67.8829 69.0532L66.5755 81.0964Z" fill="#F7968C"/>
<path d="M70.7548 78.371C70.7548 78.371 64.6057 57.5007 75.0348 48.8153L80.3979 49.8793L79.9181 62.0849L80.1447 85.3731L69.7217 83.4103C69.8968 81.8164 70.0489 80.3432 70.7548 78.371Z" fill="#4F3625"/>
<path d="M69.887 8.71334C69.887 11.8801 72.6671 14.4473 76.0961 14.4473C79.5255 14.4473 82.3051 11.8801 82.3051 8.71334C82.3051 5.54655 79.5255 2.97941 76.0961 2.97941C72.6671 2.97941 69.887 5.54655 69.887 8.71334Z" fill="#B26F3B"/>
<path d="M66.3105 10.899C66.3105 14.0658 69.0906 16.6329 72.5196 16.6329C75.949 16.6329 78.7286 14.0658 78.7286 10.899C78.7286 7.73218 75.949 5.16504 72.5196 5.16504C69.0906 5.16504 66.3105 7.73218 66.3105 10.899Z" fill="#B26F3B"/>
<path d="M66.4595 13.5598C66.4595 14.5746 67.2824 15.3976 68.2973 15.3976C69.3126 15.3976 70.1356 14.5746 70.1356 13.5598C70.1356 12.5449 69.3126 11.7219 68.2973 11.7219C67.2824 11.7219 66.4595 12.5449 66.4595 13.5598Z" fill="#F7968C"/>
<path d="M68.5954 13.5087C68.5954 17.2939 71.2777 19.6461 75.1522 20.3619C78.7165 21.0205 81.8083 18.3167 81.8083 14.5315C81.8083 10.7463 79.722 6.75755 75.1522 6.6555C71.5319 6.57405 68.5954 9.72352 68.5954 13.5087Z" fill="#F7968C"/>
<path d="M75.0048 24.1401H70.6542V14.1061H75.0048V24.1401Z" fill="#F7968C"/>
<path d="M64.8599 27.9973C64.8599 30.9502 68.4278 33.3446 72.8295 33.3446C77.2307 33.3446 80.7991 30.9502 80.7991 27.9973C80.7991 25.044 77.2307 22.65 72.8295 22.65C68.4278 22.65 64.8599 25.044 64.8599 27.9973Z" fill="#F7968C"/>
<path d="M80.412 24.6686C80.412 24.6686 78.6196 27.3523 77.9081 31.3462C77.1961 35.3402 78.4595 41.0582 78.4595 41.0582L84.4668 40.2029C84.4668 40.2029 84.4059 25.3801 80.412 24.6686Z" fill="#D9D6CB"/>
<path d="M78.8888 16.4312C78.8888 16.4312 76.9981 17.3211 74.7043 16.4312C74.7043 16.4312 74.5321 18.6098 76.8825 18.7245C76.8825 18.7245 78.8317 18.8392 78.8888 16.4312Z" fill="white"/>
<path d="M68.7752 9.82886C69.1408 8.73441 70.064 7.87402 71.1355 7.44616L71.1743 7.43306C71.1444 7.2856 71.1528 7.13392 71.2136 6.99209C71.3325 6.71449 71.6092 6.54316 71.8727 6.39571C72.3755 6.11484 72.889 5.8541 73.4124 5.61443C73.9442 5.37148 74.5017 5.14678 75.0859 5.13508C75.6621 5.12338 76.2735 5.36072 76.5726 5.8513C77.3455 5.40144 78.2045 5.15054 79.0733 5.23386C80.9279 5.41127 82.6375 6.67564 83.3504 8.3969C84.0629 10.1177 83.6201 12.3267 82.4343 13.7634C82.7934 13.0457 82.3917 12.1273 81.7308 11.6728C81.0693 11.2177 80.2276 11.126 79.4253 11.1176C78.623 11.1087 77.8061 11.1672 77.0304 10.9612C75.8297 10.6424 74.8429 9.6477 74.4937 8.46056L74.4708 8.46244C74.3968 9.62242 73.9198 10.7562 73.1315 11.6114C72.2257 12.5935 70.9211 13.196 69.5865 13.2489C68.734 12.4714 68.4092 10.9233 68.7752 9.82886Z" fill="#603925"/>
<path d="M62.8245 66.3569C61.6477 52.7479 67.119 48.5864 67.119 48.5864L67.1551 48.7994L67.2594 48.3944L70.0031 48.306L70.3387 47.0673L77.7194 48.056L78.4928 48.0307L78.4614 48.1552L80.3278 48.4052C80.3278 48.4052 84.0488 57.8925 75.4374 60.102L72.0866 73.3393L65.3893 84.1686C62.7885 82.5583 60.3229 80.7374 57.7965 79.0119L62.8245 66.3569Z" fill="#654630"/>
<path d="M44.5751 69.5452L45.663 69.6365C45.8502 67.3966 46.8309 64.9614 48.2863 63.1218C49.7936 61.217 51.6216 60.2049 53.3012 60.3454C54.9808 60.4858 56.6154 61.7876 57.7852 63.9166C58.9148 65.9721 59.4775 68.5364 59.2902 70.7763L60.3776 70.8672C60.5822 68.4217 59.9708 65.6271 58.7416 63.3909C57.3728 60.8996 55.4727 59.4316 53.3924 59.2579C51.3117 59.0838 49.1944 60.2157 47.4306 62.4449C45.8469 64.4456 44.7796 67.1003 44.5751 69.5452Z" fill="#6D3918"/>
<path d="M37.1841 85.6909L65.1333 88.0287C66.2128 88.119 67.1247 87.011 67.0306 85.7232L66.1248 73.2952C65.9465 70.8484 64.3319 68.9526 62.2811 68.7812L43.1938 67.1845C41.143 67.0132 39.2359 68.6146 38.6536 70.9977L35.696 83.1027C35.3894 84.3568 36.1047 85.6005 37.1841 85.6909Z" fill="#AE3B20"/>
<path d="M61.6556 68.7288L60.0766 87.6055L57.6986 87.4066L59.2776 68.5299L61.6556 68.7288Z" fill="#6D3918"/>
<path d="M43.7091 67.0638L45.9696 67.253L44.3907 86.1301L42.0126 85.9312L43.5911 67.0573L43.7091 67.0638Z" fill="#6D3918"/>
<path d="M68.9128 84.3844L80.3947 86.5466L80.8268 84.25L69.3449 82.0878L68.9128 84.3844Z" fill="#654630"/>
<path d="M75.7735 50.1897C75.8845 50.1761 76.0221 50.1284 76.1255 50.1115C76.2632 50.089 76.3736 50.0553 76.5085 50.0179C76.7692 51.1451 77.2214 53.7563 76.6695 56.4601C76.6339 56.6361 76.479 56.7573 76.3062 56.7573L76.2318 56.7498C76.031 56.7086 75.9013 56.5125 75.9425 56.3117C76.4663 53.745 76.0151 51.2378 75.7735 50.1897Z" fill="#704E35"/>
<path d="M49.2942 60.2419C49.3845 59.521 49.487 58.9115 49.5764 58.4443C49.7 57.7969 50.1176 57.2459 50.7069 56.951L51.2392 56.6851L52.4549 55.6155L52.6847 55.1034C54.707 52.5615 56.8444 48.5755 58.4973 44.1776L60.6075 37.4958L65.3252 39.739L63.5426 45.0867C63.5426 45.0867 61.0612 51.4638 57.2488 55.0453L55.132 56.533C55.5079 57.0699 55.6811 57.7464 55.6001 58.397C55.5149 59.0852 55.1493 59.7344 54.6049 60.1646C54.5759 60.6496 54.4097 61.0667 54.3807 61.5517C54.3807 61.5517 54.1719 62.0619 53.6621 62.1349C53.1524 62.2075 49.7309 62.1349 49.7309 62.1349C49.7309 62.1349 49.076 61.9893 49.2942 60.2419Z" fill="#F7968C"/>
<path d="M65.2676 41.0357L59.5037 39.1394C59.5037 39.1394 59.7649 26.5855 65.055 24.6616C66.2015 23.8592 68.0355 23.3434 69.1997 23.2273C68.9881 23.4005 68.3332 24.017 68.4292 24.9607C68.6436 27.0588 70.2188 28.1467 73.0308 28.1467C75.8427 28.1467 77.7442 27.1688 77.6248 24.9569C77.5864 24.244 76.8716 23.4861 76.8585 23.3743C76.8585 23.3743 80.0071 24.0572 81.1399 25.0023C81.1399 25.0023 81.2237 29.2753 81.7541 30.2298C82.2844 31.1847 83.8756 34.4728 82.3907 37.2309C80.9054 39.989 79.2581 44.0181 80.5632 48.717C80.5632 48.717 74.5592 52.7634 67.119 48.5864C67.119 48.5864 67.859 42.4901 66.1383 38.6287C65.6725 40.0597 65.2676 41.0357 65.2676 41.0357Z" fill="#F7F6EF"/>
<path d="M66.1383 38.6287C66.1383 38.6287 67.7716 32.0081 65.5312 27.5278C65.5312 27.5278 69.8996 33.2397 69.6754 38.3923C69.4671 43.1853 78.8546 41.3868 80.1649 41.1129C80.2332 41.0984 80.2917 41.1612 80.2726 41.2286C80.185 41.5342 79.9889 42.2598 79.906 42.9077C79.8676 43.2077 79.6139 43.4324 79.311 43.4324H71.1106C69.6894 43.4324 68.4887 44.4843 68.3005 45.8928C68.1681 46.8834 68.0866 48.0471 68.1938 49.1383C67.8394 48.973 67.4813 48.7895 67.119 48.5864C67.119 48.5864 67.8591 42.4901 66.1383 38.6287Z" fill="#D9D6CB"/>
<path d="M76.7266 16.4185L76.8108 16.3792C77.2134 16.1793 77.5144 15.8348 77.6586 15.4097C77.7878 15.0296 77.7794 14.6135 77.6347 14.2376L76.8839 12.2874L76.691 12.3862L77.4414 14.3364C77.5631 14.6523 77.5701 15.0015 77.462 15.3208C77.3379 15.6855 77.0772 15.9818 76.727 16.1559L76.6512 16.191L76.7266 16.4185Z" fill="#E95D55"/>
<path d="M78.54 12.7228C78.54 13.0748 78.7595 13.3603 79.0306 13.3603C79.3011 13.3603 79.5207 13.0748 79.5207 12.7228C79.5207 12.3712 79.3011 12.0856 79.0306 12.0856C78.7595 12.0856 78.54 12.3712 78.54 12.7228Z" fill="#603925"/>
<path d="M73.6384 13.115C73.6384 13.467 73.858 13.7521 74.1285 13.7521C74.3996 13.7521 74.6187 13.467 74.6187 13.115C74.6187 12.763 74.3996 12.4779 74.1285 12.4779C73.858 12.4779 73.6384 12.763 73.6384 13.115Z" fill="#603925"/>
<path d="M61.321 17.1576C61.6117 14.4136 63.9916 11.8094 65.3627 9.90889L65.3468 9.91357L65.8654 5.08357C66.4515 3.1086 68.0206 1.57928 70.0096 1.04376L73.1287 0.203952C74.9707 -0.29178 76.9387 0.128124 78.4179 1.33352L81.4766 4.75917C87.5279 6.18879 89.1124 9.07799 89.1124 9.07799C85.5393 7.39184 81.0782 7.7654 77.8346 10.0212C76.2557 11.1199 74.9295 12.6356 73.1376 13.3341C73.1376 13.3341 68.7617 15.2679 66.43 14.6593C64.0983 14.0512 61.321 17.1576 61.321 17.1576Z" fill="#45413C"/>
<path d="M79.2146 38.8482L79.6284 38.8295C79.6275 38.7981 79.48 35.6196 78.9267 32.046C78.1791 27.2221 77.0842 24.0109 75.6724 22.5007L75.3695 22.7839C78.6145 26.2536 79.209 38.7227 79.2146 38.8482Z" fill="#282628"/>
<path d="M70.407 39.1099L70.8134 39.028C70.8073 38.9975 70.1898 35.9099 69.8589 32.3494C69.4235 27.6659 69.6758 24.2978 70.5891 22.6084L70.2245 22.4118C69.2583 24.1986 68.9966 27.5564 69.4465 32.3915C69.7798 35.9731 70.4009 39.079 70.407 39.1099Z" fill="#282628"/>
<path d="M78.8762 41.8254H70.6937V37.3747H78.8762V41.8254Z" fill="#686466"/>
<path d="M78.8762 40.6598H70.6937V38.3846H78.8762V40.6598Z" fill="#282628"/>
<path d="M78.9191 38.8388C78.9191 39.1005 79.1317 39.313 79.3933 39.313C79.655 39.313 79.8671 39.1005 79.8671 38.8388C79.8671 38.5771 79.655 38.3651 79.3933 38.3651C79.1317 38.3651 78.9191 38.5771 78.9191 38.8388Z" fill="#8F8F8F"/>
<path d="M79.0887 38.8388C79.0887 39.0074 79.2249 39.1436 79.3934 39.1436C79.5615 39.1436 79.6982 39.0074 79.6982 38.8388C79.6982 38.6708 79.5615 38.5341 79.3934 38.5341C79.2249 38.5341 79.0887 38.6708 79.0887 38.8388Z" fill="#3B3A3E"/>
<path d="M70.2923 38.8388C70.2923 39.1005 70.5044 39.313 70.7665 39.313C71.0282 39.313 71.2402 39.1005 71.2402 38.8388C71.2402 38.5771 71.0282 38.3651 70.7665 38.3651C70.5044 38.3651 70.2923 38.5771 70.2923 38.8388Z" fill="#8F8F8F"/>
<path d="M70.4617 38.8388C70.4617 39.0074 70.5979 39.1436 70.7665 39.1436C70.9345 39.1436 71.0707 39.0074 71.0707 38.8388C71.0707 38.6708 70.9345 38.5341 70.7665 38.5341C70.5979 38.5341 70.4617 38.6708 70.4617 38.8388Z" fill="#3B3A3E"/>
<path d="M78.6589 37.7332H77.3045V37.0562H78.6589V37.7332Z" fill="#B1BCB3"/>
<path d="M75.1177 37.7392H72.5655V36.6064H75.1177V37.7392Z" fill="#8F8F8F"/>
<path d="M79.4632 41.8254H71.2805V37.3747H79.4632V41.8254Z" fill="#8F8F8F"/>
<path d="M79.4632 40.6598H71.2805V38.3846H79.4632V40.6598Z" fill="#3B3A3E"/>
<path d="M73.3098 39.6C73.3098 40.7155 74.2142 41.6204 75.3302 41.6204C76.4461 41.6204 77.3505 40.7155 77.3505 39.6C77.3505 38.484 76.4461 37.5796 75.3302 37.5796C74.2142 37.5796 73.3098 38.484 73.3098 39.6Z" fill="#B1BCB3"/>
<path d="M73.6819 39.6C73.6819 40.51 74.4202 41.2482 75.3302 41.2482C76.2406 41.2482 76.9784 40.51 76.9784 39.6C76.9784 38.6895 76.2406 37.9517 75.3302 37.9517C74.4202 37.9517 73.6819 38.6895 73.6819 39.6Z" fill="#3B3A3E"/>
<path d="M74.4796 38.8023C74.4796 39.0078 74.6463 39.1744 74.8518 39.1744C75.0573 39.1744 75.2239 39.0078 75.2239 38.8023C75.2239 38.5968 75.0573 38.4301 74.8518 38.4301C74.6463 38.4301 74.4796 38.5968 74.4796 38.8023Z" fill="#8F8F8F"/>
<path d="M74.1112 37.427H72.7972V36.7698H74.1112V37.427Z" fill="#3B3A3E"/>
<path d="M74.9576 37.0389H74.3139V36.7698H74.9576V37.0389Z" fill="#3B3A3E"/>
<path d="M74.496 37.2945C74.496 37.376 74.5625 37.442 74.6439 37.442C74.7254 37.442 74.7914 37.376 74.7914 37.2945C74.7914 37.2131 74.7254 37.1471 74.6439 37.1471C74.5625 37.1471 74.496 37.2131 74.496 37.2945Z" fill="#BC272E"/>
<path d="M90.0096 61.563H101.156C103.806 61.563 105.955 59.4146 105.955 56.7641V33.0165C105.955 30.3661 103.806 28.2177 101.156 28.2177H98.4575C91.1414 28.2177 85.2105 34.1481 85.2105 41.4641V56.7641C85.2105 59.4146 87.3594 61.563 90.0096 61.563Z" fill="#FBC936"/>
<path d="M98.5529 61.3806H101.181C106.035 61.3806 109.97 57.4457 109.97 52.5915V36.3454C109.97 31.4917 106.035 27.5564 101.181 27.5564H98.5529C93.6988 27.5564 89.7639 31.4917 89.7639 36.3454V52.5915C89.7639 57.4457 93.6988 61.3806 98.5529 61.3806Z" fill="#F5B10C"/>
<path d="M93.871 53.1431H89.9029V48.449H93.871V53.1431Z" fill="#8B7465"/>
<path d="M90.9118 24.793H106.621C108.147 24.793 109.384 26.0303 109.384 27.5564C109.384 29.0826 108.147 30.3198 106.621 30.3198H90.9118C89.3855 30.3198 88.1482 29.0826 88.1482 27.5564C88.1482 26.0303 89.3855 24.793 90.9118 24.793Z" fill="#8B7465"/>
<path d="M107.293 111.981L108.466 116.121H103.478L102.377 111.152L107.293 111.981Z" fill="#F7968C"/>
<path d="M110.856 117.514L108.932 115.083L106.821 115.716L107.349 118.407C107.349 118.407 110.301 118.045 110.856 117.514Z" fill="#886142"/>
<path d="M107.571 114.471C107.571 114.471 108.965 117.405 110.856 117.514C112.748 117.622 116.033 118.487 116.033 120.67V120.992H103.191V115.123L107.571 114.471Z" fill="#543825"/>
<path d="M116.107 121.52H103.075V120.939H116.107V121.52Z" fill="#886142"/>
<path d="M99.3344 111.981L100.508 116.121H95.5196L94.4192 111.152L99.3344 111.981Z" fill="#F7968C"/>
<path d="M102.898 117.514L100.974 115.083L98.8631 115.716L99.3907 118.407C99.3907 118.407 102.343 118.045 102.898 117.514Z" fill="#886142"/>
<path d="M99.6132 114.471C99.6132 114.471 101.007 117.405 102.898 117.514C104.789 117.622 108.074 118.487 108.074 120.67V120.992H95.2332V115.123L99.6132 114.471Z" fill="#654630"/>
<path d="M108.149 121.52H95.1173V120.939H108.149V121.52Z" fill="#886142"/>
<path d="M108.548 113.234H101.937L99.6935 90.5067C99.5891 89.4504 99.4132 88.4018 99.1669 87.3691L96.7951 77.4235L96.6114 60.8953L108.7 60.9588L110.159 86.9922C110.214 87.9624 110.208 88.9347 110.142 89.9039L108.548 113.234Z" fill="#3D5657"/>
<path d="M104.585 60.7938C104.585 60.7938 104.104 71.3711 102.662 74.2561C101.219 77.1406 100.018 112.479 100.018 112.479H94.4884L91.4876 83.8824C90.7664 77.009 90.879 70.074 91.8233 63.2274L92.3249 59.5919L104.585 60.7938Z" fill="#455D5F"/>
<path d="M109.207 29.4576C109.207 29.4576 113.493 32.948 114.254 38.8285L115.557 40.7252L120.301 30.4195L122.953 33.7172C122.953 33.7172 121.835 42.4097 117.902 46.8824C117.128 47.7627 116.179 48.4725 115.124 48.9841C114.415 49.3279 113.557 49.0902 113.134 48.4245C111.444 45.764 108.373 39.0385 107.576 36.5146C106.597 33.4138 107.141 30.0993 109.207 29.4576Z" fill="#9FBD80"/>
<path d="M93.3144 18.4752C93.3144 18.4752 92.368 22.4187 97.1003 22.4187L97.5737 18.0018L93.3144 18.4752Z" fill="#664F40"/>
<path d="M92.322 31.7352C92.322 34.5104 95.6748 36.7599 99.8107 36.7599C103.947 36.7599 107.299 34.5104 107.299 31.7352C107.299 28.96 103.947 26.7105 99.8107 26.7105C95.6748 26.7105 92.322 28.96 92.322 31.7352Z" fill="#F7968C"/>
<path d="M95.1739 12.753C95.1739 16.6679 98.6111 19.8422 102.851 19.8422C107.091 19.8422 110.528 16.6679 110.528 12.753C110.528 8.83761 107.091 5.66331 102.851 5.66331C98.6111 5.66331 95.1739 8.83761 95.1739 12.753Z" fill="#664F40"/>
<path d="M91.8182 13.8442C91.8182 17.4788 95.0089 20.425 98.9449 20.425C102.881 20.425 106.071 17.4788 106.071 13.8442C106.071 10.2096 102.881 7.26295 98.9449 7.26295C95.0089 7.26295 91.8182 10.2096 91.8182 13.8442Z" fill="#664F40"/>
<path d="M94.881 17.5287C94.881 21.5507 97.7312 24.0501 101.848 24.8111C105.635 25.5109 108.921 22.6378 108.921 18.6158C108.921 14.5939 106.704 10.3556 101.848 10.2467C98.0012 10.1606 94.881 13.5072 94.881 17.5287Z" fill="#F7968C"/>
<path d="M101.651 27.761H97.3912V17.9378H101.651V27.761Z" fill="#F7968C"/>
<path d="M105.819 20.6345C105.819 20.6345 103.809 21.5797 101.372 20.6345C101.372 20.6345 101.189 22.9489 103.687 23.0709C103.687 23.0709 105.758 23.1929 105.819 20.6345Z" fill="white"/>
<path d="M98.0469 10.903C98.0469 10.903 98.2046 15.32 95.0497 15.6357L93.6299 14.2161C93.6299 14.2161 96.7848 11.3765 98.0469 10.903Z" fill="#664F40"/>
<path d="M92.5835 30.4168C93.1195 29.0916 94.4427 27.984 96.1961 27.3346C96.2 28.6716 97.8166 29.7551 99.8105 29.7551C101.805 29.7551 103.421 28.6716 103.425 27.3346C103.425 27.3346 105.985 27.2366 110.363 29.9887L108.7 60.9588H91.6051L93.7394 51.5103C93.678 47.2471 93.3643 42.7816 92.4652 38.6145L91.5197 34.2324C91.5197 34.2324 91.3044 31.3171 92.5835 30.4168Z" fill="#E2F3CA"/>
<path d="M95.8652 50.3098L94.844 60.9588H91.6051L93.7394 51.5103C93.6781 47.2471 93.3643 42.7816 92.4652 38.6145L91.5197 34.2324C91.5197 34.2324 91.4857 33.7671 91.5259 33.1512C93.0313 36.4502 95.8652 43.5571 95.8652 50.3098Z" fill="#C6E8A5"/>
<path d="M92.6114 17.5831C92.6114 18.6616 93.4859 19.536 94.5643 19.536C95.6428 19.536 96.5173 18.6616 96.5173 17.5831C96.5173 16.5046 95.6428 15.6302 94.5643 15.6302C93.4859 15.6302 92.6114 16.5046 92.6114 17.5831Z" fill="#F7968C"/>
<path d="M103.103 20.5968C103.144 20.5814 103.185 20.5651 103.224 20.5479C103.8 20.2993 104.231 19.8707 104.439 19.3419C104.623 18.8693 104.611 18.3514 104.404 17.8838L103.329 15.4587L103.052 15.5812L104.127 18.0067C104.301 18.3999 104.312 18.8344 104.156 19.2317C103.979 19.6848 103.606 20.0535 103.104 20.2698L102.996 20.3138L103.103 20.5968Z" fill="#E95D55"/>
<path d="M109.065 15.3803C109.311 12.5978 107.48 9.7637 104.842 8.84484C102.204 7.92598 99.0076 9.00901 97.4718 11.3425C99.3848 13.9693 103.258 14.9399 106.184 13.5258C106.8 14.5344 107.892 15.2374 109.065 15.3803Z" fill="#664F40"/>
<path d="M101.473 14.2668C100.472 13.85 99.2239 14.2623 98.7922 15.3C98.6076 15.7435 97.8747 15.5494 98.0623 15.0986C98.6384 13.714 100.253 12.9452 101.674 13.5366C102.118 13.7212 101.924 14.4541 101.473 14.2668Z" fill="#664F40"/>
<path d="M104.554 14.2668C105.555 13.85 106.803 14.2623 107.235 15.3C107.42 15.7435 108.152 15.5494 107.965 15.0986C107.389 13.714 105.774 12.9452 104.353 13.5366C103.909 13.7212 104.103 14.4541 104.554 14.2668Z" fill="#664F40"/>
<path d="M105.373 16.9763C105.373 17.4643 105.647 17.8603 105.985 17.8603C106.323 17.8603 106.597 17.4643 106.597 16.9763C106.597 16.4879 106.323 16.0924 105.985 16.0924C105.647 16.0924 105.373 16.4879 105.373 16.9763Z" fill="#664F40"/>
<path d="M100.681 16.9763C100.681 17.4643 100.955 17.8603 101.293 17.8603C101.631 17.8603 101.905 17.4643 101.905 16.9763C101.905 16.4879 101.631 16.0924 101.293 16.0924C100.955 16.0924 100.681 16.4879 100.681 16.9763Z" fill="#664F40"/>
<path d="M97.1762 26.2235C97.2462 26.3845 97.7837 27.639 98.3106 29.7366C98.8366 31.8333 99.3534 34.7763 99.3539 38.3034C99.3562 42.6651 98.5515 47.9392 95.9836 53.466L88.9905 50.2192C91.0248 45.833 91.6415 41.7362 91.6438 38.3034C91.6443 35.5346 91.2339 33.2102 90.8326 31.6138C90.6324 30.816 90.435 30.201 90.2963 29.8051C90.227 29.6073 90.1723 29.4644 90.1394 29.381C90.1227 29.3393 90.1117 29.3125 90.1069 29.3012L90.1046 29.2957L90.4905 29.1329L90.1057 29.298L90.1046 29.2957L90.4905 29.1329L90.1057 29.298L92.5686 28.2394L90.1126 29.3139L90.1057 29.298L92.5686 28.2394L90.1126 29.3139L97.1762 26.2235Z" fill="#8B7465"/>
<path d="M110.387 35.1618C109.959 30.9716 108.494 28.2163 108.482 28.1896L108.672 28.107L108.674 28.1075L110.389 28.6132C111.166 30.0255 112.256 32.9267 112.508 35.3228C112.933 39.3629 112.95 44.4801 109.988 51.1571C109.817 51.543 109.51 51.8542 109.126 52.0306L109.439 46.4512C110.666 41.9798 110.678 38.0014 110.387 35.1618Z" fill="#8B7465"/>
<path d="M120.63 31.9888H110.266V26.3513H120.63V31.9888Z" fill="#886D67"/>
<path d="M120.63 30.5126H110.266V27.6308H120.63V30.5126Z" fill="#281E19"/>
<path d="M109.758 28.2063C109.758 28.5378 110.027 28.8067 110.358 28.8067C110.69 28.8067 110.958 28.5378 110.958 28.2063C110.958 27.8747 110.69 27.6058 110.358 27.6058C110.027 27.6058 109.758 27.8747 109.758 28.2063Z" fill="#B9A299"/>
<path d="M109.972 28.2063C109.972 28.4194 110.145 28.5922 110.358 28.5922C110.571 28.5922 110.744 28.4194 110.744 28.2063C110.744 27.9931 110.571 27.8203 110.358 27.8203C110.145 27.8203 109.972 27.9931 109.972 28.2063Z" fill="#3B2E25"/>
<path d="M115.87 26.813H112.637V25.3783H115.87V26.813Z" fill="#B9A299"/>
<path d="M121.374 31.9888H111.009V26.3513H121.374V31.9888Z" fill="#B9A299"/>
<path d="M121.374 30.5126H110.994V27.6308H121.374V30.5126Z" fill="#3B2E25"/>
<path d="M113.58 29.1701C113.58 30.5833 114.726 31.7289 116.139 31.7289C117.552 31.7289 118.698 30.5833 118.698 29.1701C118.698 27.7569 117.552 26.6112 116.139 26.6112C114.726 26.6112 113.58 27.7569 113.58 29.1701Z" fill="#DFDEDB"/>
<path d="M114.051 29.1701C114.051 30.323 114.986 31.2577 116.139 31.2577C117.292 31.2577 118.227 30.323 118.227 29.1701C118.227 28.0172 117.292 27.0825 116.139 27.0825C114.986 27.0825 114.051 28.0172 114.051 29.1701Z" fill="#3B3A3E"/>
<path d="M115.061 28.16C115.061 28.4204 115.272 28.6313 115.533 28.6313C115.793 28.6313 116.004 28.4204 116.004 28.16C116.004 27.8997 115.793 27.6884 115.533 27.6884C115.272 27.6884 115.061 27.8997 115.061 28.16Z" fill="#B9A299"/>
<path d="M114.595 26.418H112.931V25.5854H114.595V26.418Z" fill="#3B2E25"/>
<path d="M115.667 25.9259H114.851V25.5854H115.667V25.9259Z" fill="#3B2E25"/>
<path d="M115.083 26.2502C115.083 26.3536 115.166 26.437 115.269 26.437C115.373 26.437 115.456 26.3536 115.456 26.2502C115.456 26.1472 115.373 26.0633 115.269 26.0633C115.166 26.0633 115.083 26.1472 115.083 26.2502Z" fill="#BC272E"/>
<path d="M110.144 28.8703C109.593 29.0948 109.132 29.3052 108.781 29.4753C108.295 29.7107 107.947 30.1583 107.839 30.6876L107.742 31.1652L107.153 32.3548L106.797 32.646C106.568 32.9553 106.315 33.2737 106.041 33.5979C106.144 33.6764 106.241 33.7648 106.329 33.8646C106.798 34.4021 107.226 34.9817 107.751 35.467C107.819 35.5305 107.881 35.5985 107.94 35.6683L108.448 34.2796C108.953 34.4628 109.525 34.4565 110.023 34.2542C110.55 34.0401 110.987 33.6129 111.211 33.0909C111.589 32.9648 111.884 32.7448 112.262 32.6188C112.262 32.6188 112.621 32.3448 112.571 31.9262C112.52 31.5071 111.736 28.814 111.736 28.814C111.736 28.814 111.481 28.326 110.144 28.8703Z" fill="#F7968C"/>
<path d="M93.1763 29.4576C93.1763 29.4576 97.4619 32.948 98.2232 38.8285L100.017 41.0522L105.858 32.7893L108.51 36.0869C108.51 36.0869 105.804 42.4097 101.871 46.8824C101.097 47.7627 100.148 48.4725 99.0934 48.9841C98.3838 49.3279 97.526 49.0902 97.1033 48.4245C95.4132 45.764 92.3417 39.0385 91.545 36.5146C90.5664 33.4138 91.1101 30.0993 93.1763 29.4576Z" fill="#9FBD80"/>
<defs>
<linearGradient id="paint0_linear" x1="-19.7393" y1="58.3116" x2="41.7508" y2="106.353" gradientUnits="userSpaceOnUse">
<stop stop-color="#6361A7"/>
<stop offset="1" stop-color="#F573A5"/>
</linearGradient>
</defs>
</svg>
