<svg width="150" height="97" viewBox="0 0 150 97" fill="none" xmlns="http://www.w3.org/2000/svg">
<path opacity="0.1" d="M94.5309 13.8248C86.6092 13.5469 79.0632 10.9514 71.8572 8.12032C64.6512 5.2892 57.514 2.13801 49.7816 0.633706C44.8073 -0.333765 39.1203 -0.47052 35.1114 2.23403C31.2559 4.83675 30.0095 9.33075 29.3396 13.4989C28.8348 16.6355 28.5393 19.938 29.9205 22.8739C30.8787 24.9107 32.5812 26.6259 33.7588 28.5783C37.8552 35.3739 34.9593 43.7523 30.5201 50.3864C28.4375 53.491 26.0206 56.4604 24.4156 59.7672C22.8106 63.0741 22.0648 66.877 23.4704 70.2552C24.8646 73.6013 28.185 76.1211 31.7895 77.8917C39.0973 81.4851 47.7104 82.5137 56.1026 83.0971C74.6885 84.3861 93.3734 83.8245 112.01 83.2688C118.906 83.0622 125.832 82.8527 132.616 81.7703C136.384 81.1694 140.274 80.2165 143.009 77.9149C146.482 74.9936 147.343 70.0457 145.018 66.3824C141.115 60.2371 130.323 58.711 127.596 52.1162C126.095 48.4864 127.636 44.4419 129.818 41.0754C134.5 33.8536 142.345 27.5177 142.758 19.263C143.045 13.5891 139.27 7.91519 133.435 5.23246C127.322 2.42025 118.847 2.77378 114.336 7.42927C109.687 12.2273 101.526 14.0721 94.5309 13.8248Z" fill="#6C63FF"/>
<path opacity="0.1" d="M86.7528 97C108.047 97 125.309 95.7409 125.309 94.1878C125.309 92.6346 108.047 91.3755 86.7528 91.3755C65.459 91.3755 48.1969 92.6346 48.1969 94.1878C48.1969 95.7409 65.459 97 86.7528 97Z" fill="#6C63FF"/>
<path d="M143.347 87.0518C147.022 87.0518 150.001 86.5411 150.001 85.9112C150.001 85.2812 147.022 84.7706 143.347 84.7706C139.672 84.7706 136.693 85.2812 136.693 85.9112C136.693 86.5411 139.672 87.0518 143.347 87.0518Z" fill="#6C63FF"/>
<path d="M146.098 84.0461C146.385 83.7769 146.65 83.4641 146.733 83.0742C146.816 82.6843 146.653 82.2261 146.29 82.0849C145.883 81.9278 145.448 82.2144 145.118 82.5025C144.788 82.7905 144.41 83.1222 143.978 83.0611C144.2 82.8571 144.366 82.5981 144.46 82.3094C144.554 82.0208 144.573 81.7124 144.514 81.4142C144.498 81.2915 144.448 81.1758 144.371 81.0796C144.146 80.8338 143.735 80.9341 143.464 81.132C142.604 81.7459 142.364 82.9317 142.36 83.9995C142.272 83.614 142.346 83.2124 142.344 82.8182C142.343 82.4239 142.235 81.986 141.914 81.7736C141.709 81.6624 141.479 81.6077 141.247 81.615C140.86 81.6005 140.429 81.6397 140.165 81.9264C139.837 82.2828 139.922 82.8807 140.208 83.2735C140.495 83.6664 140.926 83.9122 141.327 84.1828C141.648 84.3765 141.922 84.6411 142.128 84.9568C142.152 85.0031 142.172 85.0519 142.186 85.1023H144.612C145.151 84.819 145.651 84.4638 146.098 84.0461Z" fill="#6C63FF"/>
<path d="M9.31818 95.4593C12.2024 95.4593 14.5405 95.0581 14.5405 94.5631C14.5405 94.0682 12.2024 93.6669 9.31818 93.6669C6.43395 93.6669 4.09583 94.0682 4.09583 94.5631C4.09583 95.0581 6.43395 95.4593 9.31818 95.4593Z" fill="#6C63FF"/>
<path d="M11.4768 93.0981C11.7154 92.9011 11.8894 92.6352 11.9759 92.3357C12.039 92.0331 11.9128 91.6694 11.6274 91.5589C11.3075 91.4352 10.9662 91.6592 10.708 91.8862C10.4498 92.1132 10.1515 92.3721 9.81296 92.3227C9.98727 92.1626 10.1177 91.9595 10.1916 91.7331C10.2655 91.5067 10.2804 91.2647 10.2347 91.0308C10.2198 90.9338 10.1791 90.8427 10.117 90.7674C9.93918 90.5754 9.6179 90.6583 9.39988 90.8096C8.72432 91.2912 8.53929 92.2223 8.53212 93.0603C8.46471 92.7577 8.52208 92.4434 8.51921 92.1335C8.51634 91.8236 8.43458 91.4788 8.17641 91.313C8.01578 91.2253 7.8352 91.1822 7.65288 91.1879C7.35024 91.1762 7.01174 91.2082 6.80376 91.4323C6.54702 91.7131 6.613 92.183 6.83675 92.49C7.06051 92.7969 7.40188 92.9919 7.71599 93.2043C7.96788 93.3564 8.18263 93.5643 8.34422 93.8124C8.36284 93.8469 8.37867 93.8829 8.39155 93.9201H10.2949C10.7238 93.7017 11.1214 93.4252 11.4768 93.0981Z" fill="#6C63FF"/>
<path d="M22.4838 88.7336C25.3681 88.7336 27.7062 88.3323 27.7062 87.8374C27.7062 87.3425 25.3681 86.9412 22.4838 86.9412C19.5996 86.9412 17.2615 87.3425 17.2615 87.8374C17.2615 88.3323 19.5996 88.7336 22.4838 88.7336Z" fill="#6C63FF"/>
<path d="M24.6439 86.3724C24.8821 86.1753 25.0556 85.9094 25.1416 85.6101C25.2061 85.3074 25.0785 84.9452 24.793 84.8346C24.4746 84.7095 24.1332 84.935 23.8736 85.162C23.614 85.3889 23.3186 85.6479 22.9801 85.5984C23.1542 85.438 23.2845 85.2345 23.3581 85.0079C23.4318 84.7812 23.4463 84.5391 23.4003 84.3051C23.3855 84.2085 23.3448 84.1179 23.2827 84.0432C23.1063 83.8497 22.785 83.9326 22.5727 84.0839C21.8971 84.5669 21.7121 85.4966 21.7049 86.3346C21.6361 86.032 21.6935 85.7177 21.692 85.4078C21.6906 85.098 21.606 84.7546 21.3492 84.5873C21.1887 84.4996 21.008 84.4569 20.8257 84.4636C20.5216 84.452 20.1831 84.4826 19.9766 84.7081C19.7184 84.9874 19.7858 85.4573 20.0096 85.7657C20.2333 86.0742 20.5747 86.2662 20.8888 86.4801C21.1403 86.6321 21.355 86.8394 21.517 87.0867C21.536 87.1214 21.5514 87.158 21.5629 87.1958H23.4663C23.8938 86.9767 24.2899 86.6997 24.6439 86.3724Z" fill="#6C63FF"/>
<path opacity="0.1" d="M13.9149 1.82085C13.9149 1.82085 27.8479 0.968317 26.2056 10.8714C26.2056 10.8714 26.5312 12.6172 24.9678 13.4159C24.9678 13.4159 24.9434 12.6885 23.5334 12.9315C23.0331 13.0157 22.5247 13.0401 22.0188 13.0042C21.3353 12.958 20.6855 12.6861 20.1685 12.2302C20.1685 12.2302 16.2586 10.5935 14.7339 4.09623C14.7339 4.09623 13.6079 2.67921 13.6524 2.3155L16.0033 3.33389C16.0033 3.33389 15.2 5.05497 15.8326 6.48507C15.8326 6.48507 15.9086 3.39645 16.3604 3.46919C16.4522 3.48519 17.5824 4.06567 17.5824 4.06567C17.5824 4.06567 16.1998 7.06265 17.2425 9.24054C17.2425 9.24054 16.8466 5.54816 18.0142 4.28245L19.6694 5.26301C19.6694 5.26301 18.0529 8.35746 19.1487 10.8845C19.1487 10.8845 18.8619 7.01027 20.0093 5.5016L21.5096 6.6873C21.5096 6.6873 19.9921 9.74247 20.9172 11.8331C20.9172 11.8331 21.0377 7.32306 21.8338 6.98263C21.8338 6.98263 23.1462 8.15669 23.347 8.63824C23.347 8.63824 22.3071 10.8525 22.9525 12.0222C22.9525 12.0222 23.347 9.01795 23.6697 9.0034C23.6697 9.0034 24.9778 10.9951 25.1141 12.3583C25.1141 12.3583 25.0567 10.3288 23.9867 8.81282C23.9867 8.81282 25.2503 9.0325 25.9947 9.86467C25.9947 9.86467 25.7911 8.45638 23.6697 8.33418C23.6697 8.33418 22.5897 6.82405 22.2999 6.73385C22.2999 6.73385 24.4098 6.55491 25.6892 7.12957C25.6892 7.12957 24.5633 5.8013 21.9141 6.40215L20.4339 5.17717C20.4339 5.17717 23.2107 4.79018 24.3883 5.21645C24.3883 5.21645 23.0329 4.0424 20.0337 4.89784L18.4186 3.92164C18.4186 3.92164 20.7867 3.40372 22.1981 3.5914C22.1981 3.5914 20.7093 2.77668 17.9468 3.65977L16.7993 3.13458C16.7993 3.13458 18.5348 2.78832 19.0426 2.73449C19.5503 2.68067 19.5776 2.53664 19.5776 2.53664C18.4787 2.35135 17.3506 2.47876 16.3188 2.90471C16.3188 2.90471 13.8733 1.97652 13.9149 1.82085Z" fill="#6C63FF"/>
<path opacity="0.1" d="M21.7176 28.3135C21.7176 28.3135 28.0129 27.928 27.2713 32.4031C27.2713 32.4031 27.4148 33.1931 26.7119 33.5524C26.7119 33.5524 26.7005 33.2207 26.0665 33.3327C25.8406 33.3718 25.6109 33.3831 25.3823 33.3662C25.0736 33.3453 24.78 33.2227 24.5461 33.017C24.5461 33.017 22.7762 32.2751 22.0877 29.3407C22.0877 29.3407 21.5785 28.702 21.5986 28.5376L22.6614 28.9973C22.6614 28.9973 22.2985 29.7742 22.584 30.4202C22.584 30.4202 22.6184 29.025 22.8221 29.0584C22.8637 29.0657 23.3743 29.3276 23.3743 29.3276C23.3743 29.3276 22.7504 30.682 23.2208 31.6655C23.2208 31.6655 23.043 29.9982 23.5694 29.425L24.3181 29.8688C24.3181 29.8688 23.5823 31.2669 24.0785 32.4162C24.0785 32.4162 23.9509 30.6704 24.4701 29.9837L25.1485 30.5191C25.1485 30.5191 24.4629 31.8983 24.8803 32.8468C24.8803 32.8468 24.9348 30.8101 25.2948 30.6544C25.2948 30.6544 25.8872 31.1839 25.979 31.4022C25.979 31.4022 25.5086 32.4031 25.7997 32.9312C25.7997 32.9312 25.979 31.5738 26.1253 31.568C26.1253 31.568 26.7163 32.4671 26.7779 33.084C26.7779 33.084 26.7521 32.166 26.2687 31.4836C26.6092 31.5497 26.9232 31.715 27.1724 31.9594C27.1724 31.9594 27.0806 31.3236 26.1224 31.2683C26.1224 31.2683 25.6348 30.586 25.5043 30.5409C25.5043 30.5409 26.4566 30.4594 27.0347 30.7198C27.0347 30.7198 26.5269 30.1205 25.3293 30.3925L24.6594 29.8382C24.6594 29.8382 25.9145 29.6651 26.4466 29.8571C26.4466 29.8571 25.8341 29.3261 24.4801 29.7116L23.7515 29.2752C23.7515 29.2752 24.8215 29.0424 25.4584 29.1297C25.4584 29.1297 24.7857 28.7616 23.5378 29.1603L23.0171 28.9231C23.0171 28.9231 23.8003 28.766 24.0312 28.7413C24.2621 28.7165 24.2722 28.6525 24.2722 28.6525C23.776 28.5684 23.2665 28.6259 22.8006 28.8184C22.8006 28.8184 21.6947 28.3834 21.7176 28.3135Z" fill="#6C63FF"/>
<path opacity="0.1" d="M0.119627 4.39594C0.119627 4.39594 6.41486 4.01187 5.67331 8.4855C5.67331 8.4855 5.81675 9.27694 5.11393 9.63628C5.11393 9.63628 5.10245 9.30458 4.46848 9.4166C4.24251 9.45496 4.01288 9.46619 3.78431 9.45006C3.47539 9.4286 3.1818 9.3055 2.94811 9.09945C2.94811 9.09945 1.17816 8.35893 0.489682 5.42452C0.489682 5.42452 -0.0195018 4.78439 0.00057869 4.61999L1.06341 5.07972C1.06341 5.07972 0.700527 5.85806 0.985957 6.50401C0.985957 6.50401 1.02038 5.10882 1.22405 5.14228C1.26565 5.14228 1.77627 5.41142 1.77627 5.41142C1.77627 5.41142 1.15234 6.76588 1.62279 7.74935C1.62279 7.74935 1.44494 6.08065 1.97133 5.5089L2.72005 5.94535C2.72005 5.94535 1.98998 7.34491 2.48482 8.4855C2.48482 8.4855 2.35717 6.73969 2.87639 6.05446L3.55482 6.58985C3.55482 6.58985 2.86922 7.96904 3.28661 8.91759C3.28661 8.91759 3.34111 6.88081 3.70112 6.7266C3.70112 6.7266 4.2935 7.25616 4.38529 7.47439C4.38529 7.47439 3.91484 8.47532 4.206 9.00343C4.206 9.00343 4.38529 7.64606 4.53159 7.63879C4.53159 7.63879 5.12254 8.53933 5.18421 9.15473C5.18421 9.15473 5.15839 8.23818 4.67503 7.55441C5.0157 7.61971 5.32993 7.78515 5.57865 8.03014C5.57865 8.03014 5.48685 7.39292 4.52873 7.33763C4.52873 7.33763 4.04106 6.65531 3.91053 6.61021C3.91053 6.61021 4.86292 6.52874 5.44095 6.78916C5.44095 6.78916 4.9332 6.18831 3.73555 6.46182L3.07146 5.91334C3.07146 5.91334 4.32649 5.73876 4.85862 5.93226C4.85862 5.93226 4.24617 5.40124 2.89217 5.78677L2.16353 5.35032C2.16353 5.35032 3.23354 5.11609 3.87037 5.20484C3.87037 5.20484 3.19768 4.83676 1.94982 5.23539L1.42916 4.99825C1.42916 4.99825 2.21373 4.84258 2.44323 4.81785C2.67272 4.79312 2.68419 4.7291 2.68419 4.7291C2.18692 4.64117 1.67532 4.69558 1.20684 4.88622C1.20684 4.88622 0.100981 4.46723 0.119627 4.39594Z" fill="#6C63FF"/>
<path d="M78.5231 32.1323V44.3134C78.5234 44.474 78.4925 44.6331 78.432 44.7815C78.3715 44.9299 78.2828 45.0648 78.1709 45.1783C78.0589 45.2919 77.926 45.3819 77.7797 45.4432C77.6333 45.5045 77.4765 45.5359 77.3182 45.5356H76.0242V30.9112H77.3182C77.4764 30.9109 77.6332 30.9423 77.7794 31.0035C77.9256 31.0648 78.0585 31.1547 78.1705 31.2681C78.2824 31.3816 78.3712 31.5163 78.4317 31.6646C78.4922 31.8129 78.5233 31.9718 78.5231 32.1323Z" fill="#C7CCE1"/>
<path opacity="0.2" d="M77.5539 30.9343V45.5124C77.4762 45.5279 77.3973 45.5357 77.3181 45.5356H77.1204V30.9112H77.3181C77.3973 30.9111 77.4762 30.9188 77.5539 30.9343Z" fill="black"/>
<path d="M72.8102 49.8811H68.1447V87.8253H72.8102V49.8811Z" fill="#DCDFED"/>
<path d="M73.9195 91.8765H66.4996V92.9333H73.9195V91.8765Z" fill="#C7CCE1"/>
<path opacity="0.1" d="M73.9195 91.8765H66.4996V92.4694H73.9195V91.8765Z" fill="black"/>
<path opacity="0.1" d="M72.8102 87.0747H68.1447V87.8241H72.8102V87.0747Z" fill="black"/>
<path d="M64.8677 87.2301H75.5504C76.1311 87.2301 76.7061 87.3461 77.2427 87.5715C77.7792 87.797 78.2667 88.1273 78.6773 88.5439C79.0879 88.9604 79.4137 89.4548 79.6359 89.999C79.8581 90.5432 79.9725 91.1265 79.9725 91.7155V92.4054H60.4456V91.7155C60.4456 91.1265 60.5599 90.5432 60.7822 89.999C61.0044 89.4548 61.3301 88.9604 61.7408 88.5439C62.1514 88.1273 62.6389 87.797 63.1754 87.5715C63.7119 87.3461 64.287 87.2301 64.8677 87.2301Z" fill="#DCDFED"/>
<path opacity="0.1" d="M72.8102 55.1049H68.1447V59.6564H72.8102V55.1049Z" fill="black"/>
<path opacity="0.1" d="M72.8102 54.7952H68.1447V59.3468H72.8102V54.7952Z" fill="black"/>
<path d="M73.2958 54.9495H67.7122V59.501H73.2958V54.9495Z" fill="#DCDFED"/>
<path d="M75.3233 47.0223V48.9112C75.3233 49.3812 75.1392 49.832 74.8116 50.1643C74.4839 50.4967 74.0395 50.6834 73.5762 50.6834H67.383C66.9196 50.6834 66.4752 50.4967 66.1476 50.1643C65.8199 49.832 65.6359 49.3812 65.6359 48.9112V47.0223C65.636 46.7897 65.6813 46.5595 65.7692 46.3446C65.8571 46.1298 65.9858 45.9347 66.148 45.7703C66.3103 45.606 66.5028 45.4756 66.7147 45.3868C66.9266 45.2979 67.1537 45.2522 67.383 45.2524H73.5762C73.8055 45.2522 74.0325 45.2979 74.2444 45.3868C74.4563 45.4756 74.6489 45.606 74.8111 45.7703C74.9734 45.9347 75.1021 46.1298 75.19 46.3446C75.2779 46.5595 75.3232 46.7897 75.3233 47.0223Z" fill="#C7CCE1"/>
<path opacity="0.1" d="M75.3233 47.0223V47.2151C74.7545 47.9713 74.0214 48.5842 73.181 49.006C72.3406 49.4279 71.4156 49.6474 70.4779 49.6474C69.5402 49.6474 68.6152 49.4279 67.7748 49.006C66.9344 48.5842 66.2013 47.9713 65.6326 47.2151V47.0223C65.6327 46.7897 65.678 46.5594 65.7659 46.3446C65.8538 46.1298 65.9825 45.9346 66.1447 45.7703C66.307 45.6059 66.4995 45.4756 66.7114 45.3867C66.9233 45.2979 67.1504 45.2522 67.3797 45.2524H73.5729C73.8025 45.2518 74.0299 45.2971 74.2422 45.3858C74.4544 45.4745 74.6474 45.6047 74.81 45.7691C74.9725 45.9335 75.1016 46.1288 75.1896 46.3439C75.2777 46.5589 75.3231 46.7894 75.3233 47.0223Z" fill="black"/>
<path d="M64.8765 29.4223H76.0796C76.2101 29.4223 76.3353 29.4749 76.4276 29.5685C76.5199 29.6622 76.5718 29.7891 76.5718 29.9215V44.1382C76.5718 45.559 76.0153 46.9216 75.0248 47.9263C74.0344 48.9309 72.691 49.4954 71.2902 49.4954H69.6659C68.2651 49.4954 66.9217 48.9309 65.9312 47.9263C64.9407 46.9216 64.3843 45.559 64.3843 44.1382V29.9215C64.3843 29.7891 64.4361 29.6622 64.5284 29.5685C64.6207 29.4749 64.7459 29.4223 64.8765 29.4223Z" fill="#C7CCE1"/>
<path d="M66.9474 22.0792H74.0097C74.5071 22.0792 74.9841 22.2796 75.3358 22.6364C75.6875 22.9931 75.8851 23.4769 75.8851 23.9814V29.4311C75.8851 29.6129 75.8139 29.7873 75.6871 29.9158C75.5604 30.0444 75.3885 30.1166 75.2093 30.1166H65.7478C65.6591 30.1166 65.5712 30.0989 65.4892 30.0644C65.4072 30.03 65.3327 29.9795 65.27 29.9158C65.2072 29.8522 65.1574 29.7766 65.1235 29.6934C65.0895 29.6103 65.072 29.5211 65.072 29.4311V23.9803C65.072 23.4758 65.2696 22.992 65.6213 22.6353C65.973 22.2785 66.45 22.0781 66.9474 22.0781V22.0792Z" fill="#C7CCE1"/>
<path opacity="0.2" d="M74.8126 27.7174H66.3475V28.2861H74.8126V27.7174Z" fill="black"/>
<path opacity="0.1" d="M75.3222 31.2473H65.6337V38.3788H75.3222V31.2473Z" fill="black"/>
<path d="M75.3222 31.0919H65.6337V38.2234H75.3222V31.0919Z" fill="#6C63FF"/>
<g opacity="0.1">
<path opacity="0.1" d="M67.7817 39.4456H65.7738C65.7264 39.4456 65.688 39.4846 65.688 39.5326V40.1476C65.688 40.1957 65.7264 40.2347 65.7738 40.2347H67.7817C67.8291 40.2347 67.8676 40.1957 67.8676 40.1476V39.5326C67.8676 39.4846 67.8291 39.4456 67.7817 39.4456Z" fill="black"/>
<path opacity="0.1" d="M70.2481 39.4456H68.2403C68.1928 39.4456 68.1544 39.4846 68.1544 39.5326V40.1476C68.1544 40.1957 68.1928 40.2347 68.2403 40.2347H70.2481C70.2955 40.2347 70.334 40.1957 70.334 40.1476V39.5326C70.334 39.4846 70.2955 39.4456 70.2481 39.4456Z" fill="black"/>
<path opacity="0.1" d="M72.7146 39.4456H70.7067C70.6593 39.4456 70.6208 39.4846 70.6208 39.5326V40.1476C70.6208 40.1957 70.6593 40.2347 70.7067 40.2347H72.7146C72.762 40.2347 72.8004 40.1957 72.8004 40.1476V39.5326C72.8004 39.4846 72.762 39.4456 72.7146 39.4456Z" fill="black"/>
<path opacity="0.1" d="M75.182 39.4456H73.1741C73.1267 39.4456 73.0883 39.4846 73.0883 39.5326V40.1476C73.0883 40.1957 73.1267 40.2347 73.1741 40.2347H75.182C75.2294 40.2347 75.2678 40.1957 75.2678 40.1476V39.5326C75.2678 39.4846 75.2294 39.4456 75.182 39.4456Z" fill="black"/>
<path opacity="0.1" d="M67.7817 40.9907H65.7738C65.7264 40.9907 65.688 41.0297 65.688 41.0778V41.6927C65.688 41.7408 65.7264 41.7798 65.7738 41.7798H67.7817C67.8291 41.7798 67.8676 41.7408 67.8676 41.6927V41.0778C67.8676 41.0297 67.8291 40.9907 67.7817 40.9907Z" fill="black"/>
<path opacity="0.1" d="M70.2481 40.9907H68.2403C68.1928 40.9907 68.1544 41.0297 68.1544 41.0778V41.6927C68.1544 41.7408 68.1928 41.7798 68.2403 41.7798H70.2481C70.2955 41.7798 70.334 41.7408 70.334 41.6927V41.0778C70.334 41.0297 70.2955 40.9907 70.2481 40.9907Z" fill="black"/>
<path opacity="0.1" d="M72.7146 40.9907H70.7067C70.6593 40.9907 70.6208 41.0297 70.6208 41.0778V41.6927C70.6208 41.7408 70.6593 41.7798 70.7067 41.7798H72.7146C72.762 41.7798 72.8004 41.7408 72.8004 41.6927V41.0778C72.8004 41.0297 72.762 40.9907 72.7146 40.9907Z" fill="black"/>
<path opacity="0.1" d="M67.7817 42.4973H65.7738C65.7264 42.4973 65.688 42.5362 65.688 42.5843V43.1993C65.688 43.2474 65.7264 43.2863 65.7738 43.2863H67.7817C67.8291 43.2863 67.8676 43.2474 67.8676 43.1993V42.5843C67.8676 42.5362 67.8291 42.4973 67.7817 42.4973Z" fill="black"/>
<path opacity="0.1" d="M70.2481 42.4973H68.2403C68.1928 42.4973 68.1544 42.5362 68.1544 42.5843V43.1993C68.1544 43.2474 68.1928 43.2863 68.2403 43.2863H70.2481C70.2955 43.2863 70.334 43.2474 70.334 43.1993V42.5843C70.334 42.5362 70.2955 42.4973 70.2481 42.4973Z" fill="black"/>
<path opacity="0.1" d="M72.7146 42.4973H70.7067C70.6593 42.4973 70.6208 42.5362 70.6208 42.5843V43.1993C70.6208 43.2474 70.6593 43.2863 70.7067 43.2863H72.7146C72.762 43.2863 72.8004 43.2474 72.8004 43.1993V42.5843C72.8004 42.5362 72.762 42.4973 72.7146 42.4973Z" fill="black"/>
<path opacity="0.1" d="M67.7817 44.1591H65.7738C65.7264 44.1591 65.688 44.1981 65.688 44.2462V44.8612C65.688 44.9092 65.7264 44.9482 65.7738 44.9482H67.7817C67.8291 44.9482 67.8676 44.9092 67.8676 44.8612V44.2462C67.8676 44.1981 67.8291 44.1591 67.7817 44.1591Z" fill="black"/>
<path opacity="0.1" d="M70.2481 44.1591H68.2403C68.1928 44.1591 68.1544 44.1981 68.1544 44.2462V44.8612C68.1544 44.9092 68.1928 44.9482 68.2403 44.9482H70.2481C70.2955 44.9482 70.334 44.9092 70.334 44.8612V44.2462C70.334 44.1981 70.2955 44.1591 70.2481 44.1591Z" fill="black"/>
<path opacity="0.1" d="M72.7146 44.1591H70.7067C70.6593 44.1591 70.6208 44.1981 70.6208 44.2462V44.8612C70.6208 44.9092 70.6593 44.9482 70.7067 44.9482H72.7146C72.762 44.9482 72.8004 44.9092 72.8004 44.8612V44.2462C72.8004 44.1981 72.762 44.1591 72.7146 44.1591Z" fill="black"/>
<path opacity="0.1" d="M75.182 40.9907H73.1741C73.1267 40.9907 73.0883 41.0297 73.0883 41.0778V41.6927C73.0883 41.7408 73.1267 41.7798 73.1741 41.7798H75.182C75.2294 41.7798 75.2678 41.7408 75.2678 41.6927V41.0778C75.2678 41.0297 75.2294 40.9907 75.182 40.9907Z" fill="black"/>
<path opacity="0.1" d="M74.9397 42.4123H73.436C73.3178 42.4123 73.2219 42.5095 73.2219 42.6294V45.0077C73.2219 45.1276 73.3178 45.2248 73.436 45.2248H74.9397C75.0579 45.2248 75.1537 45.1276 75.1537 45.0077V42.6294C75.1537 42.5095 75.0579 42.4123 74.9397 42.4123Z" fill="black"/>
</g>
<path d="M67.7817 39.2902H65.7738C65.7264 39.2902 65.688 39.3292 65.688 39.3773V39.9922C65.688 40.0403 65.7264 40.0793 65.7738 40.0793H67.7817C67.8291 40.0793 67.8676 40.0403 67.8676 39.9922V39.3773C67.8676 39.3292 67.8291 39.2902 67.7817 39.2902Z" fill="#F2F3F3"/>
<path d="M70.2481 39.2902H68.2403C68.1928 39.2902 68.1544 39.3292 68.1544 39.3773V39.9922C68.1544 40.0403 68.1928 40.0793 68.2403 40.0793H70.2481C70.2955 40.0793 70.334 40.0403 70.334 39.9922V39.3773C70.334 39.3292 70.2955 39.2902 70.2481 39.2902Z" fill="#F2F3F3"/>
<path d="M72.7146 39.2902H70.7067C70.6593 39.2902 70.6208 39.3292 70.6208 39.3773V39.9922C70.6208 40.0403 70.6593 40.0793 70.7067 40.0793H72.7146C72.762 40.0793 72.8004 40.0403 72.8004 39.9922V39.3773C72.8004 39.3292 72.762 39.2902 72.7146 39.2902Z" fill="#F2F3F3"/>
<path d="M75.1821 39.2902H73.1742C73.1268 39.2902 73.0884 39.3292 73.0884 39.3773V39.9922C73.0884 40.0403 73.1268 40.0793 73.1742 40.0793H75.1821C75.2295 40.0793 75.2679 40.0403 75.2679 39.9922V39.3773C75.2679 39.3292 75.2295 39.2902 75.1821 39.2902Z" fill="#D44F6A"/>
<path d="M67.7817 40.8353H65.7738C65.7264 40.8353 65.688 40.8743 65.688 40.9224V41.5373C65.688 41.5854 65.7264 41.6244 65.7738 41.6244H67.7817C67.8291 41.6244 67.8676 41.5854 67.8676 41.5373V40.9224C67.8676 40.8743 67.8291 40.8353 67.7817 40.8353Z" fill="#F2F3F3"/>
<path d="M70.2481 40.8353H68.2403C68.1928 40.8353 68.1544 40.8743 68.1544 40.9224V41.5373C68.1544 41.5854 68.1928 41.6244 68.2403 41.6244H70.2481C70.2955 41.6244 70.334 41.5854 70.334 41.5373V40.9224C70.334 40.8743 70.2955 40.8353 70.2481 40.8353Z" fill="#F2F3F3"/>
<path d="M72.7146 40.8353H70.7067C70.6593 40.8353 70.6208 40.8743 70.6208 40.9224V41.5373C70.6208 41.5854 70.6593 41.6244 70.7067 41.6244H72.7146C72.762 41.6244 72.8004 41.5854 72.8004 41.5373V40.9224C72.8004 40.8743 72.762 40.8353 72.7146 40.8353Z" fill="#F2F3F3"/>
<path d="M67.7817 42.3418H65.7738C65.7264 42.3418 65.688 42.3808 65.688 42.4289V43.0438C65.688 43.0919 65.7264 43.1309 65.7738 43.1309H67.7817C67.8291 43.1309 67.8676 43.0919 67.8676 43.0438V42.4289C67.8676 42.3808 67.8291 42.3418 67.7817 42.3418Z" fill="#F2F3F3"/>
<path d="M70.2481 42.3418H68.2403C68.1928 42.3418 68.1544 42.3808 68.1544 42.4289V43.0438C68.1544 43.0919 68.1928 43.1309 68.2403 43.1309H70.2481C70.2955 43.1309 70.334 43.0919 70.334 43.0438V42.4289C70.334 42.3808 70.2955 42.3418 70.2481 42.3418Z" fill="#F2F3F3"/>
<path d="M72.7146 42.3418H70.7067C70.6593 42.3418 70.6208 42.3808 70.6208 42.4289V43.0438C70.6208 43.0919 70.6593 43.1309 70.7067 43.1309H72.7146C72.762 43.1309 72.8004 43.0919 72.8004 43.0438V42.4289C72.8004 42.3808 72.762 42.3418 72.7146 42.3418Z" fill="#F2F3F3"/>
<path d="M67.7817 44.0038H65.7738C65.7264 44.0038 65.688 44.0427 65.688 44.0908V44.7058C65.688 44.7539 65.7264 44.7928 65.7738 44.7928H67.7817C67.8291 44.7928 67.8676 44.7539 67.8676 44.7058V44.0908C67.8676 44.0427 67.8291 44.0038 67.7817 44.0038Z" fill="#F2F3F3"/>
<path d="M70.2481 44.0038H68.2403C68.1928 44.0038 68.1544 44.0427 68.1544 44.0908V44.7058C68.1544 44.7539 68.1928 44.7928 68.2403 44.7928H70.2481C70.2955 44.7928 70.334 44.7539 70.334 44.7058V44.0908C70.334 44.0427 70.2955 44.0038 70.2481 44.0038Z" fill="#F2F3F3"/>
<path d="M72.7146 44.0038H70.7067C70.6593 44.0038 70.6208 44.0427 70.6208 44.0908V44.7058C70.6208 44.7539 70.6593 44.7928 70.7067 44.7928H72.7146C72.762 44.7928 72.8004 44.7539 72.8004 44.7058V44.0908C72.8004 44.0427 72.762 44.0038 72.7146 44.0038Z" fill="#F2F3F3"/>
<path d="M75.1821 40.8353H73.1742C73.1268 40.8353 73.0884 40.8743 73.0884 40.9224V41.5373C73.0884 41.5854 73.1268 41.6244 73.1742 41.6244H75.1821C75.2295 41.6244 75.2679 41.5854 75.2679 41.5373V40.9224C75.2679 40.8743 75.2295 40.8353 75.1821 40.8353Z" fill="#FECB42"/>
<path d="M74.9397 42.2581H73.436C73.3178 42.2581 73.2219 42.3553 73.2219 42.4752V44.8534C73.2219 44.9733 73.3178 45.0705 73.436 45.0705H74.9397C75.0579 45.0705 75.1537 44.9733 75.1537 44.8534V42.4752C75.1537 42.3553 75.0579 42.2581 74.9397 42.2581Z" fill="#97D25E"/>
<path d="M71.5085 37.3572H70.4644V37.4839H71.5085V37.3572Z" fill="#C7CCE1"/>
<path d="M72.971 37.3572H71.9269V37.4839H72.971V37.3572Z" fill="#C7CCE1"/>
<path d="M74.4334 37.3572H73.3893V37.4839H74.4334V37.3572Z" fill="#C7CCE1"/>
<path d="M71.9975 89.788C71.9975 89.788 66.9995 80.8051 59.4678 78.2163C56.3071 77.1297 53.5484 75.0864 51.6622 72.2938C50.7696 70.9676 49.9986 69.5614 49.3588 68.0927" stroke="#535461" stroke-width="2" stroke-miterlimit="10"/>
<path d="M44.6237 66.4308C45.481 67.275 49.4772 68.1489 49.4772 68.1489C49.4772 68.1489 48.4993 64.1242 47.6388 63.2789C47.2239 62.8885 46.6749 62.6784 46.1091 62.6934C45.5434 62.7085 45.006 62.9476 44.6119 63.3596C44.2179 63.7716 43.9984 64.3236 44.0006 64.8976C44.0028 65.4716 44.2265 66.022 44.6237 66.4308Z" fill="#6C63FF"/>
<path d="M46.8836 73.7144C48.0571 73.9502 51.8816 72.4812 51.8816 72.4812C51.8816 72.4812 48.9013 69.6422 47.7289 69.4064C47.4477 69.3441 47.1571 69.3393 46.874 69.3923C46.591 69.4453 46.3212 69.555 46.0804 69.7149C45.8396 69.8749 45.6327 70.082 45.4718 70.324C45.3108 70.5661 45.1991 70.8382 45.143 71.1246C45.087 71.4109 45.0878 71.7058 45.1454 71.9918C45.203 72.2779 45.3162 72.5494 45.4785 72.7905C45.6408 73.0317 45.8488 73.2376 46.0904 73.3962C46.3321 73.5548 46.6025 73.663 46.8858 73.7144H46.8836Z" fill="#6C63FF"/>
<path d="M55.1152 81.593C56.2451 81.1963 58.8093 77.9705 58.8093 77.9705C58.8093 77.9705 54.8251 77.0459 53.6951 77.4426C53.1692 77.6456 52.7419 78.0481 52.5036 78.5651C52.2652 79.082 52.2346 79.6727 52.4182 80.2122C52.6018 80.7516 52.9852 81.1974 53.4871 81.4551C53.9891 81.7129 54.5703 81.7623 55.1076 81.593H55.1152Z" fill="#6C63FF"/>
<path d="M62.6664 86.1368C63.8464 85.9396 66.9147 83.2009 66.9147 83.2009C66.9147 83.2009 63.1412 81.6063 61.9612 81.8035C61.404 81.9085 60.9095 82.2309 60.584 82.7015C60.2584 83.1721 60.1278 83.7535 60.2201 84.3207C60.3124 84.888 60.6203 85.3959 61.0777 85.7354C61.535 86.075 62.1054 86.2191 62.6664 86.1368Z" fill="#6C63FF"/>
<path d="M55.2119 69.3359C55.2119 70.5482 53.0486 74.0671 53.0486 74.0671C53.0486 74.0671 50.8821 70.5504 50.881 69.3381C50.881 68.7556 51.1091 68.1969 51.5152 67.785C51.9213 67.3731 52.4721 67.1417 53.0464 67.1417C53.6207 67.1417 54.1715 67.3731 54.5776 67.785C54.9837 68.1969 55.2119 68.7556 55.2119 69.3381V69.3359Z" fill="#6C63FF"/>
<path d="M63.9768 74.7602C63.6194 75.9174 60.5173 78.6174 60.5173 78.6174C60.5173 78.6174 59.4873 74.6048 59.8448 73.4477C59.9201 73.1612 60.0517 72.8932 60.2318 72.6598C60.4119 72.4263 60.6367 72.2322 60.8927 72.0893C61.1488 71.9463 61.4307 71.8574 61.7215 71.8278C62.0123 71.7983 62.3059 71.8288 62.5848 71.9174C62.8637 72.0061 63.122 72.1511 63.3441 72.3437C63.5663 72.5363 63.7477 72.7725 63.8775 73.0381C64.0072 73.3037 64.0827 73.5932 64.0992 73.8892C64.1157 74.1852 64.073 74.4815 63.9736 74.7602H63.9768Z" fill="#6C63FF"/>
<path d="M71.7824 81.2184C71.6238 82.4196 69.0161 85.6134 69.0161 85.6134C69.0161 85.6134 67.332 81.8355 67.495 80.6332C67.5329 80.3474 67.6259 80.072 67.7687 79.8227C67.9115 79.5734 68.1013 79.3551 68.3273 79.1802C68.5533 79.0053 68.8111 78.8773 69.0859 78.8034C69.3607 78.7296 69.6471 78.7113 69.9288 78.7497C70.2105 78.7882 70.4821 78.8825 70.7278 79.0274C70.9736 79.1722 71.1889 79.3648 71.3613 79.594C71.5337 79.8232 71.66 80.0847 71.7328 80.3634C71.8056 80.6421 71.8236 80.9326 71.7857 81.2184H71.7824Z" fill="#6C63FF"/>
<path opacity="0.25" d="M44.6237 66.4308C45.481 67.275 49.4772 68.1489 49.4772 68.1489C49.4772 68.1489 48.4993 64.1242 47.6388 63.2789C47.2239 62.8885 46.6749 62.6784 46.1091 62.6934C45.5434 62.7085 45.006 62.9476 44.6119 63.3596C44.2179 63.7716 43.9984 64.3236 44.0006 64.8976C44.0028 65.4716 44.2265 66.022 44.6237 66.4308Z" fill="black"/>
<path opacity="0.25" d="M46.8836 73.7144C48.0571 73.9502 51.8816 72.4812 51.8816 72.4812C51.8816 72.4812 48.9013 69.6422 47.7289 69.4064C47.4477 69.3441 47.1571 69.3393 46.874 69.3923C46.591 69.4453 46.3212 69.555 46.0804 69.7149C45.8396 69.8749 45.6327 70.082 45.4718 70.324C45.3108 70.5661 45.1991 70.8382 45.143 71.1246C45.087 71.4109 45.0878 71.7058 45.1454 71.9918C45.203 72.2779 45.3162 72.5494 45.4785 72.7905C45.6408 73.0317 45.8488 73.2376 46.0904 73.3962C46.3321 73.5548 46.6025 73.663 46.8858 73.7144H46.8836Z" fill="black"/>
<path opacity="0.25" d="M55.1152 81.593C56.2451 81.1963 58.8093 77.9705 58.8093 77.9705C58.8093 77.9705 54.8251 77.0459 53.6951 77.4426C53.1692 77.6456 52.7419 78.0481 52.5036 78.5651C52.2652 79.082 52.2346 79.6727 52.4182 80.2122C52.6018 80.7516 52.9852 81.1974 53.4871 81.4551C53.9891 81.7129 54.5703 81.7623 55.1076 81.593H55.1152Z" fill="black"/>
<path opacity="0.25" d="M62.6664 86.1368C63.8464 85.9396 66.9147 83.2009 66.9147 83.2009C66.9147 83.2009 63.1412 81.6063 61.9612 81.8035C61.404 81.9085 60.9095 82.2309 60.584 82.7015C60.2584 83.1721 60.1278 83.7535 60.2201 84.3207C60.3124 84.888 60.6203 85.3959 61.0777 85.7354C61.535 86.075 62.1054 86.2191 62.6664 86.1368Z" fill="black"/>
<path opacity="0.25" d="M55.2119 69.3359C55.2119 70.5482 53.0486 74.0671 53.0486 74.0671C53.0486 74.0671 50.8821 70.5504 50.881 69.3381C50.881 68.7556 51.1091 68.1969 51.5152 67.785C51.9213 67.3731 52.4721 67.1417 53.0464 67.1417C53.6207 67.1417 54.1715 67.3731 54.5776 67.785C54.9837 68.1969 55.2119 68.7556 55.2119 69.3381V69.3359Z" fill="black"/>
<path opacity="0.25" d="M63.9768 74.7602C63.6194 75.9174 60.5173 78.6174 60.5173 78.6174C60.5173 78.6174 59.4873 74.6048 59.8448 73.4477C59.9201 73.1612 60.0517 72.8932 60.2318 72.6598C60.4119 72.4263 60.6367 72.2322 60.8927 72.0893C61.1488 71.9463 61.4307 71.8574 61.7215 71.8278C62.0123 71.7983 62.3059 71.8288 62.5848 71.9174C62.8637 72.0061 63.122 72.1511 63.3441 72.3437C63.5663 72.5363 63.7477 72.7725 63.8775 73.0381C64.0072 73.3037 64.0827 73.5932 64.0992 73.8892C64.1157 74.1852 64.073 74.4815 63.9736 74.7602H63.9768Z" fill="black"/>
<path opacity="0.25" d="M71.7824 81.2184C71.6238 82.4196 69.0161 85.6134 69.0161 85.6134C69.0161 85.6134 67.332 81.8355 67.495 80.6332C67.5329 80.3474 67.6259 80.072 67.7687 79.8227C67.9115 79.5734 68.1013 79.3551 68.3273 79.1802C68.5533 79.0053 68.8111 78.8773 69.0859 78.8034C69.3607 78.7296 69.6471 78.7113 69.9288 78.7497C70.2105 78.7882 70.4821 78.8825 70.7278 79.0274C70.9736 79.1722 71.1889 79.3648 71.3613 79.594C71.5337 79.8232 71.66 80.0847 71.7328 80.3634C71.8056 80.6421 71.8236 80.9326 71.7857 81.2184H71.7824Z" fill="black"/>
<path d="M71.7096 89.6095C71.7096 89.6095 70.7317 79.3415 64.8786 73.8797C62.4231 71.5874 60.7172 68.5898 60.1088 65.2571C59.8223 63.6776 59.6793 62.0747 59.6818 60.4686" stroke="#535461" stroke-width="2" stroke-miterlimit="10"/>
<path d="M56.0158 57.0048C56.4624 58.1301 59.7665 60.5711 59.7665 60.5711C59.7665 60.5711 60.4782 56.488 60.0316 55.3627C59.9253 55.095 59.768 54.8511 59.5688 54.645C59.3696 54.4389 59.1323 54.2746 58.8705 54.1615C58.6087 54.0485 58.3275 53.9888 58.0429 53.9859C57.7584 53.9831 57.476 54.0371 57.2121 54.145C56.9481 54.2528 56.7077 54.4123 56.5045 54.6143C56.3013 54.8164 56.1393 55.0571 56.0278 55.3227C55.9164 55.5882 55.8575 55.8735 55.8547 56.1621C55.8519 56.4507 55.9052 56.7371 56.0115 57.0048H56.0158Z" fill="#6C63FF"/>
<path d="M55.1716 64.5926C56.1495 65.2902 60.2316 65.5183 60.2316 65.5183C60.2316 65.5183 58.642 61.6985 57.6641 60.9998C57.4319 60.8279 57.1682 60.7046 56.8886 60.6371C56.6089 60.5696 56.3187 60.5593 56.0351 60.6068C55.7514 60.6543 55.4799 60.7585 55.2364 60.9136C54.9929 61.0686 54.7822 61.2712 54.6167 61.5097C54.4513 61.7481 54.3342 62.0176 54.2725 62.3025C54.2108 62.5873 54.2056 62.8817 54.2573 63.1686C54.3089 63.4554 54.4164 63.729 54.5734 63.9733C54.7304 64.2176 54.9337 64.4277 55.1716 64.5915V64.5926Z" fill="#6C63FF"/>
<path d="M59.5482 75.1812C60.7433 75.2826 64.3766 73.3893 64.3766 73.3893C64.3766 73.3893 61.103 70.903 59.9111 70.8049C59.6243 70.774 59.3343 70.8014 59.0581 70.8857C58.7819 70.9699 58.5251 71.1093 58.3027 71.2956C58.0804 71.4819 57.8969 71.7114 57.7632 71.9706C57.6295 72.2298 57.5481 72.5134 57.524 72.8049C57.4998 73.0964 57.5333 73.3899 57.6225 73.6681C57.7116 73.9463 57.8547 74.2036 58.0432 74.425C58.2318 74.6463 58.462 74.8273 58.7205 74.9571C58.9789 75.087 59.2603 75.1632 59.5482 75.1812Z" fill="#6C63FF"/>
<path d="M64.6374 82.4372C65.7956 82.7414 69.6951 81.4983 69.6951 81.4983C69.6951 81.4983 66.8821 78.4896 65.725 78.1855C65.1726 78.0497 64.5898 78.1397 64.1023 78.436C63.6147 78.7322 63.2616 79.211 63.119 79.769C62.9764 80.3271 63.0558 80.9196 63.34 81.4188C63.6243 81.9179 64.0907 82.2837 64.6385 82.4372H64.6374Z" fill="#6C63FF"/>
<path d="M64.5353 64.0118C64.0507 65.1216 60.6673 67.448 60.6673 67.448C60.6673 67.448 60.0914 63.3428 60.5749 62.2341C60.8092 61.7044 61.2407 61.2903 61.7752 61.0823C62.3096 60.8744 62.9035 60.8896 63.427 61.1245C63.9504 61.3595 64.3609 61.7951 64.5686 62.3362C64.7762 62.8772 64.7643 63.4796 64.5353 64.0118Z" fill="#6C63FF"/>
<path d="M70.3808 72.5737C69.592 73.4852 65.6772 74.6787 65.6772 74.6787C65.6772 74.6787 66.3389 70.5867 67.1277 69.6764C67.3153 69.4597 67.5431 69.2827 67.7981 69.1553C68.0531 69.028 68.3304 68.9528 68.6141 68.9341C68.8977 68.9154 69.1822 68.9536 69.4513 69.0465C69.7205 69.1393 69.9689 69.285 70.1825 69.4753C70.3961 69.6655 70.5707 69.8966 70.6962 70.1552C70.8218 70.4139 70.8959 70.6951 70.9143 70.9829C70.9327 71.2706 70.8951 71.5591 70.8035 71.8321C70.712 72.1051 70.5684 72.3571 70.3808 72.5737Z" fill="#6C63FF"/>
<path d="M74.9376 81.6868C74.3074 82.7205 70.6523 84.5687 70.6523 84.5687C70.6523 84.5687 70.6219 80.4227 71.2478 79.389C71.5483 78.8921 72.0312 78.5366 72.5901 78.4009C73.149 78.2651 73.7382 78.3601 74.2281 78.6649C74.718 78.9698 75.0684 79.4595 75.2023 80.0264C75.3361 80.5933 75.2425 81.191 74.9419 81.6879L74.9376 81.6868Z" fill="#6C63FF"/>
<path d="M123.602 35.1365C123.687 34.9018 123.051 33.5991 123.051 33.5352C123.051 33.4713 122.394 32.745 122.394 32.3395C122.394 31.9339 121.525 31.0589 121.525 31.0589C121.525 31.0589 120.359 30.5673 120.232 29.4994C120.104 28.4315 118.835 28.4106 118.832 28.4106C118.832 28.4106 118.838 28.3125 118.84 28.1659C118.84 27.8353 118.83 27.2402 118.683 26.9162C118.466 26.4467 117.962 26.2968 117.962 26.2968C117.962 26.2968 117.835 25.4637 117.58 25.2069C117.438 25.0563 117.336 24.8714 117.284 24.6696C117.233 24.4679 117.232 24.256 117.284 24.0541C117.411 23.6497 117.114 22.6214 116.499 22.4749C115.884 22.3283 115.185 22.0902 115.185 22.0902C115.185 22.0902 115.116 22.1035 115.015 22.1178L114.93 22.0902C114.783 22.118 114.634 22.1368 114.485 22.1464C114.355 22.1501 114.228 22.1076 114.125 22.0263C113.908 21.7916 112.197 21.343 111.878 21.343C111.56 21.343 110.648 20.9154 110.648 20.9154C110.648 20.9154 110.013 20.425 109.738 20.2112C109.482 20.0139 109.009 19.2127 108.94 19.0948L108.932 19.0794H108.926C108.861 18.9277 108.806 18.772 108.76 18.6132C108.75 18.5802 108.743 18.5471 108.734 18.514C109.044 18.1838 109.309 17.8132 109.523 17.412C109.545 17.3701 109.564 17.3271 109.585 17.2852C109.632 17.2851 109.678 17.2777 109.723 17.2632C109.742 17.2568 109.76 17.2494 109.778 17.2411C109.993 17.1263 110.155 16.9304 110.228 16.6956C110.243 16.6493 110.256 16.6019 110.268 16.5546L110.278 16.5072C110.286 16.4752 110.292 16.4421 110.299 16.4091C110.305 16.376 110.304 16.3727 110.307 16.354C110.311 16.3352 110.317 16.2901 110.321 16.2581C110.326 16.2261 110.321 16.2217 110.329 16.2041C110.334 16.1633 110.339 16.1236 110.344 16.0829C110.362 15.9319 110.379 15.7809 110.411 15.6332C110.41 15.631 110.41 15.6288 110.411 15.6266C110.537 15.0469 110.881 14.5576 111.124 14.022C111.159 13.9449 111.192 13.8666 111.222 13.7884C111.253 13.7101 111.281 13.6164 111.306 13.5283C111.313 13.5018 111.319 13.4754 111.326 13.4489C111.342 13.3843 111.357 13.3193 111.369 13.2539C111.374 13.2263 111.38 13.1988 111.384 13.1701C111.399 13.0819 111.411 12.9927 111.418 12.9034C111.461 12.3931 111.387 11.8795 111.2 11.4035C111.042 11.0023 110.805 10.6409 110.644 10.2408C110.401 9.63247 110.337 8.94478 110.039 8.36729C109.54 7.39637 108.365 6.91036 107.399 7.27514C106.938 7.44927 106.538 7.78761 106.07 7.93638C105.444 8.13917 104.774 7.98708 104.125 7.89561C103.476 7.80414 102.76 7.79642 102.239 8.22623C101.638 8.72106 101.478 9.6512 100.911 10.1934C100.674 10.4215 100.38 10.567 100.13 10.7775C99.9543 10.9205 99.819 11.1079 99.7376 11.3208C99.7376 11.3363 99.7278 11.3517 99.7235 11.3671C99.7192 11.3826 99.7137 11.4035 99.7094 11.4222C99.705 11.441 99.7018 11.4652 99.6985 11.4861C99.6952 11.5071 99.6985 11.5159 99.6985 11.5302C99.6955 11.5669 99.6955 11.6038 99.6985 11.6404C99.7021 11.6775 99.7079 11.7143 99.7159 11.7506C99.7178 11.7604 99.7203 11.7699 99.7235 11.7793C99.7305 11.8099 99.7392 11.8401 99.7496 11.8697C99.7496 11.8697 99.7496 11.8807 99.7496 11.8862C99.7615 11.9193 99.7746 11.9512 99.7876 11.9843L99.8082 12.0317C99.8082 12.0449 99.8202 12.0581 99.8256 12.0724C99.9082 12.2303 99.9742 12.3965 100.022 12.5684C100.049 12.678 100.043 12.7934 100.003 12.899C99.9459 13.0182 99.8661 13.1246 99.768 13.212C99.346 13.6569 99.02 14.1861 98.8108 14.7659C98.7869 14.832 98.7641 14.8981 98.7424 14.9654C98.7424 14.9654 98.7424 14.9654 98.7424 14.9709L98.7706 14.9786C98.8316 14.9964 98.8937 15.01 98.9564 15.0194C98.9923 15.0194 99.0281 15.0282 99.0651 15.0304C99.2107 15.0389 99.3569 15.0278 99.4997 14.9973C99.5366 14.9896 99.5725 14.9808 99.6083 14.9709C99.7557 14.9305 99.8994 14.8771 100.038 14.8111C100.038 14.8552 100.038 14.8981 100.038 14.9422C100.038 14.9665 100.038 14.9907 100.038 15.015C100.039 15.9595 100.3 16.885 100.791 17.6873C101.282 18.4897 101.985 19.137 102.819 19.5566C102.826 19.604 102.831 19.6492 102.837 19.6954C102.844 19.7417 102.847 19.7737 102.852 19.8123L102.794 19.7561C102.794 19.7561 102.413 19.5643 102.052 20.1197C101.691 20.6752 101.013 20.9309 101.013 20.9309C101.013 20.9309 97.155 21.5502 97.0072 22.0627L95.2047 22.1729C95.2047 22.1729 94.569 22.2578 94.506 23.6056C94.443 24.9534 94.1029 25.0791 94.1029 25.0791C94.1029 25.0791 93.3608 26.4015 93.4249 27.0859C93.489 27.7703 92.8523 28.1108 92.8523 28.1108L92.7676 29.3231C92.7676 29.3231 92.0679 29.2129 91.8766 30.0494C91.6854 30.8858 91.3475 31.2617 91.3475 31.2617C91.3475 31.2617 90.1806 32.2447 90.1176 33.0768L89.3972 33.5253C89.3972 33.5253 87.7218 33.1407 87.3404 32.4574L87.2231 32.3472C87.2192 32.3421 87.2159 32.3365 87.2133 32.3307C87.213 32.3332 87.213 32.3358 87.2133 32.3384C86.9634 32.0992 86.431 31.5967 86.5125 31.7124C86.5615 31.8199 86.5738 31.9409 86.5473 32.0562L86.4223 31.9163L86.0887 31.5405C86.0887 31.5405 83.5973 28.6376 82.0078 28.4337L81.8872 28.1924C81.8544 28.1271 81.7974 28.0777 81.7288 28.055C81.6601 28.0323 81.5854 28.0381 81.521 28.0712L79.1231 29.2834C79.0911 29.2995 79.0626 29.3218 79.0391 29.3491C79.0157 29.3763 78.9978 29.408 78.9865 29.4424C78.9752 29.4767 78.9707 29.5129 78.9732 29.549C78.9758 29.5851 78.9853 29.6203 79.0014 29.6526L79.2697 30.1871H79.2643C79.2612 30.1886 79.2585 30.1908 79.2563 30.1934C79.254 30.196 79.2524 30.1991 79.2513 30.2024C79.2503 30.2057 79.25 30.2092 79.2503 30.2126C79.2507 30.2161 79.2518 30.2194 79.2534 30.2224L79.348 30.4109C79.351 30.4171 79.3564 30.4219 79.3629 30.4242C79.3694 30.4265 79.3765 30.426 79.3827 30.423L79.4816 30.6202C79.4747 30.6238 79.4695 30.6299 79.4671 30.6374C79.4646 30.6448 79.4652 30.6529 79.4686 30.6599L79.6478 31.017C79.6495 31.0206 79.6518 31.0237 79.6547 31.0264C79.6575 31.029 79.6609 31.031 79.6646 31.0322C79.6682 31.0334 79.6721 31.0339 79.676 31.0336C79.6798 31.0332 79.6836 31.0321 79.687 31.0302L79.7598 31.1746C79.7534 31.1781 79.7486 31.1839 79.7464 31.1909C79.7442 31.1979 79.7447 31.2054 79.7478 31.2121L79.9303 31.5757C79.9318 31.5791 79.934 31.5822 79.9367 31.5847C79.9394 31.5871 79.9427 31.589 79.9461 31.5902C79.9496 31.5913 79.9533 31.5917 79.957 31.5913C79.9606 31.5909 79.9641 31.5897 79.9673 31.5879L81.7057 35.0715C81.7385 35.1367 81.7954 35.1862 81.864 35.2091C81.9325 35.232 82.0073 35.2265 82.0719 35.1938L83.9124 34.2604L83.9776 34.3089L84.5209 35.0175C84.4285 35.2379 84.3514 35.4583 84.2862 35.6556C84.2847 35.6619 84.2829 35.6682 84.2808 35.6743C84.2666 35.7162 84.2536 35.7581 84.2417 35.7978L84.2286 35.8396C84.2156 35.8804 84.2036 35.9201 84.1928 35.9576L84.1732 36.0281C84.1732 36.0413 84.1645 36.0556 84.1613 36.0689C84.1015 36.2827 84.0635 36.448 84.0428 36.5395L83.9027 36.4954L84.0396 36.5549C84.0396 36.5626 84.0396 36.5714 84.0396 36.5769C84.033 36.6056 84.0309 36.6221 84.0309 36.6221C84.0722 36.6419 84.1156 36.6607 84.1613 36.6794C84.9033 37.01 88.6095 38.6565 88.7996 38.9067C89.0115 39.1844 90.4109 39.9955 91.6832 39.3123C92.9556 38.629 93.2304 37.5831 93.2304 37.5831C93.2304 37.5831 94.4604 35.8529 94.5028 35.5994C94.5451 35.3459 95.4991 35.0484 95.4991 35.0484C95.4991 35.0484 95.5839 37.9137 95.096 38.9563C94.6082 39.9988 93.6966 44.6352 93.6966 44.6352C93.7559 44.6233 93.8166 44.6196 93.8769 44.6242L93.8237 44.892C93.8976 44.8778 93.9736 44.8778 94.0475 44.892C93.9801 45.4177 93.5912 47.8676 93.5912 47.8676C93.5912 47.8676 93.464 48.9785 93.2511 49.362C93.0381 49.7455 93.0186 51.7535 93.0186 51.7535L92.6796 53.206C92.6796 53.206 92.7241 53.3063 92.8078 53.4562V53.4617C92.8078 53.4617 93.1718 54.2816 93.7857 54.7412C93.7575 54.9682 93.7001 55.1905 93.6151 55.4025C93.3978 55.8289 93.4456 56.4274 93.4456 56.4274C93.4456 56.4274 93.0859 58.0706 93.1272 58.5411C93.1685 59.0117 92.886 60.1634 92.886 60.1634L92.5046 63.8785C92.5046 63.8785 92.2504 67.102 92.3775 67.9781C92.5047 68.8543 92.2928 70.0489 92.2928 70.0489C92.2928 70.0489 92.547 72.5903 92.4829 72.8669C92.4188 73.1435 92.1015 74.3404 92.2928 75.0027C92.484 75.6651 92.3775 77.4791 92.3775 77.4791C92.3775 77.4791 92.5046 79.8717 92.6524 80.6398C92.8002 81.4079 92.61 82.391 92.61 82.391C92.61 82.391 92.4612 84.0353 92.3927 84.0353C92.3243 84.0353 91.7778 85.166 92.9012 86.2769C94.0247 87.3878 93.3315 87.2136 93.3315 87.2136C93.3315 87.2136 92.4405 86.7651 92.547 87.6831C92.647 88.5571 92.7871 88.3289 92.8002 88.3047L92.5829 89.0067C92.5829 89.0067 92.6383 89.0133 92.7317 89.0276L92.609 89.1775C92.4802 89.3404 92.3369 89.491 92.1809 89.6272C91.9266 89.8189 91.9049 90.2454 91.9049 90.2454C91.9049 90.2454 90.337 91.9757 88.8746 92.8507C88.1053 93.3114 87.4404 93.7015 87.1514 94.0233C86.8906 94.3132 86.9341 94.5479 87.4773 94.7297C88.6225 95.1144 90.6358 95.3061 92.0766 94.8157C92.9362 94.5249 93.7092 94.018 94.3235 93.3422C94.3235 93.3422 95.2362 92.8717 96.126 93.0425C97.0159 93.2133 98.7967 92.0396 98.7967 92.0396L98.7641 91.7365L98.6696 90.8648C98.6696 90.8648 98.4523 90.608 98.5207 90.3314C98.5501 90.2057 98.5055 89.8817 98.4479 89.5599C98.4327 89.4751 98.4164 89.3913 98.4001 89.312L98.5631 89.2811C98.5631 89.2811 98.3523 88.1923 98.7337 87.9785C99.115 87.7647 99.0086 84.9676 99.0086 84.9676C99.0086 84.9676 98.5207 84.3273 98.2665 84.2204C98.0122 84.1135 98.2447 82.7877 98.2882 82.6191C98.3317 82.4505 98.6696 79.1388 98.6696 79.1388C98.6696 79.1388 98.5424 78.0929 98.7119 77.6444C98.8814 77.1958 98.5001 75.4667 98.5001 75.4667C98.5001 75.4667 98.3729 75.2529 98.6087 74.9961C98.8445 74.7393 98.7532 72.4625 98.7532 72.4625C98.7532 72.4625 98.7326 71.3097 98.7326 71.0099C98.7326 70.7102 98.9868 69.6224 99.2194 69.2599C99.4519 68.8973 99.3052 67.7643 99.3052 67.7643L99.3182 67.6795C99.3182 67.6475 99.3291 67.6056 99.3367 67.5583L99.3563 67.4481C99.458 66.8225 99.5958 66.2035 99.7691 65.5944C100.045 64.6973 100.363 63.118 100.363 63.118L102.339 57.8986L102.362 57.8369C102.362 57.8369 103.272 59.5451 103.272 61.1266C103.272 61.1266 103.507 63.0266 103.443 63.539C103.379 64.0515 103.634 66.4639 103.634 66.4639C103.634 66.4639 103.909 69.9222 103.909 70.0721C103.909 70.222 104.248 72.8912 104.461 73.2978C104.674 73.7045 104.243 74.941 104.121 75.0688C103.998 75.1967 104.163 78.3365 104.163 78.3365C104.163 78.3365 103.845 80.8128 103.782 81.3253C103.719 81.8378 103.463 83.8027 103.673 84.572C103.883 85.3412 103.8 85.447 103.8 85.447C103.8 85.447 104.561 86.2372 104.118 86.3011C103.676 86.365 102.996 86.9414 103.27 87.8595C103.544 88.7775 104.204 90.1451 104.204 90.1451C104.204 90.1451 104.336 90.1154 104.555 90.0702V90.3237L104.581 91.5966C104.581 91.5966 104.729 92.8088 104.644 93.0921C104.582 93.2937 104.498 94.2514 104.456 94.7452C104.441 94.9281 104.432 95.0504 104.432 95.0504C104.432 95.0504 104.432 96.1812 106.785 95.8406C109.137 95.5001 109.562 94.5589 109.562 94.5589L109.579 94.441C109.614 94.2206 109.688 93.7676 109.752 93.5131C109.838 93.1703 109.075 91.6329 109.075 91.6329C109.075 91.6329 108.947 90.5882 108.735 90.3523C108.647 90.2169 108.589 90.0639 108.565 89.9038C108.545 89.8178 108.529 89.7286 108.515 89.6404C108.57 89.6481 108.623 89.658 108.671 89.6691C108.671 89.6691 108.544 88.9218 109.033 88.686C109.522 88.4502 109.392 87.9608 109.329 87.747C109.266 87.5332 109.52 86.3386 109.52 86.3386C109.486 86.2197 109.483 86.0937 109.513 85.9737C109.543 85.8536 109.604 85.7437 109.689 85.6553C109.987 85.3556 110.219 83.2627 110.219 83.2627L110.27 75.2011C110.27 75.2011 110.419 73.7684 110.25 73.1931C110.08 72.6179 109.91 71.507 110.141 71.2094C110.372 70.9119 110.163 69.5232 110.163 69.5232C110.163 69.5232 110.163 66.5973 110.48 65.8721C110.797 65.1469 110.697 60.5546 110.697 60.5546L110.781 57.5449C110.781 57.5449 111.473 56.8836 111.309 53.4143C112.048 53.368 112.881 53.3405 113.007 53.4441C113.24 53.6358 114.746 54.6189 115.636 53.9951C115.827 53.9091 116.695 53.1619 116.695 53.1619L116.321 46.76C116.555 47.1171 116.696 47.354 116.696 47.354C116.696 46.457 119.195 43.553 119.195 43.553C119.195 43.553 121.527 40.5003 122.035 40.1366C122.544 39.7729 123.54 37.852 123.54 37.852C123.688 37.4856 123.858 37.1289 124.05 36.7841C124.28 36.3973 123.517 35.3724 123.602 35.1365ZM118.132 37.3792C117.497 37.4431 116.161 38.9166 116.14 39.2362C116.129 39.4048 115.989 39.6319 115.858 39.8104C115.849 39.6814 115.838 39.5503 115.827 39.417C115.677 37.5302 115.516 35.2291 115.59 35.0087C115.717 34.6241 115.674 32.8949 115.674 32.8949L115.698 32.8619C116.126 34.202 117.452 35.7823 117.452 35.7823C117.452 35.7823 117.686 36.4656 117.961 36.4866C118.236 36.5075 118.132 37.3792 118.132 37.3792Z" fill="url(#paint0_linear)"/>
<path d="M84.146 36.891C84.146 36.891 84.9185 32.7803 87.4055 32.7593L89.2222 36.5526L88.0107 37.4001C88.0107 37.4001 85.3781 37.485 84.146 36.891Z" fill="#65617D"/>
<path opacity="0.1" d="M89.2222 36.5516L88.0107 37.4002C88.0107 37.4002 86.1637 37.4597 84.8338 37.1291C84.5973 37.073 84.3669 36.9933 84.146 36.891C84.146 36.891 84.146 36.869 84.1601 36.8249C84.1598 36.8197 84.1598 36.8146 84.1601 36.8095C84.2744 36.2935 84.4317 35.7884 84.6306 35.2996C84.7066 35.1156 84.7936 34.9249 84.887 34.7354C85.251 34.0245 85.7627 33.328 86.4624 32.9831C86.7214 32.854 87.0033 32.779 87.2914 32.7627H87.3653H87.4023L87.4414 32.8464L88.0564 34.1281L89.2222 36.5516Z" fill="black"/>
<path d="M109.864 53.6325C109.864 53.6325 112.471 53.3779 112.705 53.5686C112.939 53.7592 114.418 54.7346 115.295 54.1196C116.172 53.5046 115.588 51.3644 115.588 51.2796C115.588 51.1947 115.505 48.1651 115.505 48.1651L113.937 46.0249L111.974 42.2779L107.962 41.8756L108.071 47.8268L108.05 50.8784L109.864 53.6325Z" fill="#65617D"/>
<path opacity="0.1" d="M109.864 53.6325C109.864 53.6325 112.471 53.3779 112.705 53.5686C112.939 53.7592 114.418 54.7346 115.295 54.1196C116.172 53.5046 115.588 51.3644 115.588 51.2796C115.588 51.1947 115.505 48.1651 115.505 48.1651L113.937 46.0249L111.974 42.2779L107.962 41.8756L108.071 47.8268L108.05 50.8784L109.864 53.6325Z" fill="black"/>
<path d="M86.8818 32.6536C86.8818 32.6536 86.6743 35.239 85.0858 35.2809C85.0858 35.2809 84.636 35.0054 84.0308 34.5469C82.6357 33.4878 80.4214 31.4523 81.0331 29.559C81.911 26.8468 86.1723 31.8479 86.1723 31.8479L86.4983 32.2204L86.8818 32.6536Z" fill="#FBBEBE"/>
<path opacity="0.1" d="M86.8817 32.6535C86.8817 32.6535 86.6742 35.239 85.0857 35.2809C85.0857 35.2809 84.6359 35.0053 84.0307 34.5469L83.8949 34.3706C84.164 34.5131 84.4608 34.594 84.7641 34.6075C85.1629 34.6163 85.6116 34.4664 85.8995 33.8823C86.0647 33.5495 86.2098 33.2069 86.3341 32.8563C86.4103 32.6509 86.4642 32.4377 86.4949 32.2204L86.8817 32.6535Z" fill="black"/>
<path d="M86.1929 37.3362L85.8354 36.87L84.6294 35.2996L84.0166 34.4973C84.2855 34.6405 84.5823 34.7218 84.8858 34.7353C85.2846 34.7442 85.7333 34.5943 86.0223 34.0091C86.1875 33.6763 86.3327 33.3337 86.4569 32.9831C86.6557 32.4111 86.6514 32.1168 86.5819 32.0176C86.5123 31.9185 87.0252 32.4023 87.2718 32.6392L87.2805 32.648C87.3511 32.7142 87.3967 32.7582 87.3967 32.7582L87.4391 32.8442L88.0443 34.0719L88.0508 34.1237C88.1062 34.5138 88.3105 36.9858 86.1929 37.3362Z" fill="#E7EFFD"/>
<path d="M98.7074 91.882C98.7074 91.882 96.9527 93.048 96.0759 92.8738C95.1991 92.6997 94.2994 93.1714 94.2994 93.1714C93.6949 93.8413 92.9326 94.3445 92.084 94.6339C90.6639 95.121 88.6799 94.9303 87.5521 94.5479C87.0176 94.3683 86.9752 94.1346 87.2316 93.8481C87.5174 93.5274 88.1725 93.1405 88.9309 92.6832C90.3717 91.8148 91.9178 90.0977 91.9178 90.0977C91.9178 90.0977 91.9384 89.6745 92.1894 89.4839C92.3432 89.3506 92.4843 89.203 92.611 89.043C92.8348 88.7741 93.0456 88.492 93.0456 88.492L98.2066 88.6617C98.2066 88.6617 98.2946 89.0397 98.363 89.4255C98.4206 89.7418 98.4651 90.0636 98.4358 90.1881C98.3728 90.4625 98.5825 90.7171 98.5825 90.7171L98.6748 91.5822L98.7074 91.882Z" fill="#65617D"/>
<path d="M109.511 93.3433C109.449 93.5968 109.374 94.052 109.34 94.2658C109.328 94.3385 109.323 94.3826 109.323 94.3826C109.323 94.3826 108.904 95.315 106.586 95.6544C104.267 95.9938 104.267 94.8697 104.267 94.8697C104.267 94.8697 104.276 94.7485 104.291 94.5666C104.331 94.0707 104.415 93.1218 104.476 92.9202C104.559 92.6446 104.414 91.4368 104.414 91.4368L104.389 90.1738L104.372 89.2921L108.216 88.8888C108.24 89.1805 108.281 89.4705 108.339 89.7572C108.364 89.9148 108.421 90.0652 108.508 90.1981C108.717 90.4328 108.843 91.4698 108.843 91.4698C108.843 91.4698 109.592 93.0039 109.511 93.3433Z" fill="#65617D"/>
<path opacity="0.1" d="M98.2109 88.6607C98.2109 88.6607 98.2989 89.0387 98.3673 89.4244C97.8099 89.528 95.3729 89.9567 94.7634 89.657C94.0745 89.3175 92.5903 89.1269 92.5903 89.1269L92.6153 89.0409C92.8391 88.772 93.0499 88.4899 93.0499 88.4899L98.2109 88.6607Z" fill="black"/>
<path opacity="0.1" d="M108.337 89.7616C107.359 89.5941 105.228 89.9997 104.387 90.1738L104.369 89.2921L108.213 88.8888C108.238 89.182 108.279 89.4734 108.337 89.7616Z" fill="black"/>
<path d="M110.512 57.6374L110.428 60.6251C110.428 60.6251 110.536 65.1811 110.219 65.9018C109.902 66.6226 109.905 69.5254 109.905 69.5254C109.905 69.5254 110.115 70.903 109.885 71.1984C109.654 71.4937 109.822 72.598 109.993 73.17C110.165 73.7419 110.013 75.1625 110.013 75.1625L109.972 83.1723C109.972 83.1723 109.742 85.2486 109.449 85.5462C109.365 85.6342 109.305 85.7433 109.276 85.8623C109.246 85.9814 109.249 86.1062 109.283 86.224C109.283 86.224 109.032 87.4098 109.095 87.6225C109.158 87.8352 109.283 88.3212 108.802 88.5537C108.322 88.7863 108.446 89.5291 108.446 89.5291C107.298 89.2535 104.039 89.9963 104.039 89.9963C104.039 89.9963 103.387 88.6397 103.119 87.7283C102.85 86.8169 103.516 86.2449 103.954 86.1854C104.392 86.1259 103.641 85.3368 103.641 85.3368C103.641 85.3368 103.725 85.2266 103.516 84.4684C103.308 83.7101 103.558 81.7551 103.625 81.247C103.692 80.739 104.001 78.2802 104.001 78.2802C104.001 78.2802 103.835 75.1658 103.96 75.038C104.085 74.9101 104.503 73.6813 104.294 73.2747C104.086 72.868 103.751 70.223 103.751 70.0787C103.751 69.9343 103.48 66.4969 103.48 66.4969C103.48 66.4969 103.23 64.1021 103.292 63.5941C103.353 63.086 103.124 61.2004 103.124 61.2004C103.124 59.6311 102.227 57.9361 102.227 57.9361L102.204 57.9967L100.262 63.1764C100.262 63.1764 99.9494 64.7436 99.6767 65.634C99.5056 66.2385 99.3695 66.8527 99.2693 67.4734L99.2508 67.5836C99.2432 67.631 99.2367 67.6717 99.2323 67.7026L99.2193 67.7886C99.2193 67.7886 99.3649 68.9116 99.1356 69.2719C98.9064 69.6323 98.6456 70.7123 98.6456 71.0132C98.6456 71.3141 98.6651 72.4558 98.6651 72.4558C98.6651 72.4558 98.7499 74.7228 98.5196 74.9773C98.2892 75.2319 98.4109 75.4435 98.4109 75.4435C98.4109 75.4435 98.7879 77.1594 98.6206 77.6047C98.4533 78.0499 98.5793 79.087 98.5793 79.087C98.5793 79.087 98.2479 82.3645 98.211 82.5364C98.174 82.7084 97.9394 84.0198 98.1893 84.1256C98.4392 84.2314 98.9205 84.8673 98.9205 84.8673C98.9205 84.8673 99.0291 87.6434 98.6499 87.855C98.2707 88.0666 98.4815 89.1477 98.4815 89.1477C98.4815 89.1477 95.4534 89.7417 94.7634 89.4023C94.0735 89.0629 92.5904 88.8722 92.5904 88.8722L92.7979 88.1757C92.786 88.2 92.648 88.4259 92.5491 87.5586C92.4405 86.6471 93.3227 87.0924 93.3227 87.0924C93.3227 87.0924 94.0116 87.2621 92.9033 86.16C91.7951 85.058 92.3394 83.935 92.4024 83.935C92.4654 83.935 92.611 82.3039 92.611 82.3039C92.611 82.3039 92.799 81.3286 92.6523 80.5659C92.5057 79.8033 92.3818 77.4294 92.3818 77.4294C92.3818 77.4294 92.4904 75.6287 92.2981 74.9718C92.1058 74.315 92.4231 73.1281 92.4861 72.8515C92.5491 72.5748 92.2981 70.0544 92.2981 70.0544C92.2981 70.0544 92.5078 68.8686 92.3818 68.0002C92.2558 67.1317 92.5078 63.9313 92.5078 63.9313L92.8838 60.2438C92.8838 60.2438 93.1543 59.0999 93.113 58.6337C93.0717 58.1675 93.4259 56.5398 93.4259 56.5398C93.4259 56.5398 93.3847 55.9457 93.5933 55.5226C93.8019 55.0994 93.8866 53.7008 93.8866 53.7008L95.8923 49.038L96.8702 44.9273L110.137 44.8005C110.137 44.8005 110.186 45.1565 110.265 45.8045C110.344 46.4525 110.459 47.4124 110.591 48.5961C110.706 49.6717 110.832 50.9368 110.956 52.3431C111.347 56.8318 110.512 57.6374 110.512 57.6374Z" fill="#3F3D56"/>
<path d="M109.279 20.5319L106.186 23.8811C106.186 23.8811 102.218 22.2699 102.635 21.7188C102.797 21.505 102.771 20.8372 102.678 20.09C102.531 18.9174 102.218 17.5651 102.218 17.5651C102.218 17.5651 109.153 16.4212 108.568 17.607C108.35 18.0412 108.392 18.5471 108.524 19.0144C108.694 19.5582 108.949 20.0707 109.279 20.5319Z" fill="#FBBEBE"/>
<path opacity="0.1" d="M108.568 17.607C108.35 18.0412 108.253 18.0831 108.386 18.5504C107.479 19.5423 106.322 20.6168 104.892 20.6168C104.124 20.618 103.365 20.4376 102.678 20.09C102.531 18.9174 102.218 17.5651 102.218 17.5651C102.218 17.5651 109.153 16.4212 108.568 17.607Z" fill="black"/>
<path d="M109.864 15.4459C109.874 16.1145 109.752 16.7784 109.507 17.399C109.261 18.0196 108.897 18.5844 108.434 19.0608C107.971 19.5371 107.42 19.9153 106.812 20.1735C106.203 20.4317 105.551 20.5646 104.891 20.5646C104.232 20.5646 103.58 20.4317 102.971 20.1735C102.363 19.9153 101.812 19.5371 101.349 19.0608C100.886 18.5844 100.522 18.0196 100.276 17.399C100.031 16.7784 99.9093 16.1145 99.919 15.4459C99.919 15.4217 99.919 15.3974 99.919 15.3732C99.9285 14.0357 100.461 12.7568 101.401 11.8178C102.34 10.8789 103.608 10.3568 104.927 10.3665C106.245 10.3761 107.506 10.9167 108.432 11.8693C109.358 12.8218 109.872 14.1084 109.863 15.4459H109.864Z" fill="#FBBEBE"/>
<path opacity="0.1" d="M110.584 48.7184C109.926 48.7239 107.732 48.7426 105.281 48.7823H105.252L104.441 48.7955H104.416C101.51 48.8429 98.6456 48.2666 97.496 48.3768C95.0514 48.6093 98.3728 46.0878 98.3728 46.0878C98.3728 46.0878 101.019 46.8041 103.941 46.6586L104.644 46.6223C106.866 46.4944 109.099 46.2828 110.264 45.928C110.345 46.5826 110.458 47.5392 110.584 48.7184Z" fill="black"/>
<path d="M110.584 48.5916C109.926 48.5916 107.732 48.6159 105.281 48.6544H105.252L104.441 48.6688H104.416C101.51 48.7162 98.6456 48.1398 97.496 48.2489C95.0514 48.4814 98.3728 45.961 98.3728 45.961C98.3728 45.961 101.019 46.6762 103.941 46.5319L104.644 46.4944C106.866 46.3677 109.099 46.155 110.264 45.8001C110.345 46.4547 110.458 47.408 110.584 48.5916Z" fill="#E3A79F"/>
<path opacity="0.1" d="M103.554 21.9304L99.7103 23.7532L96.7441 47.0201C96.7441 47.0201 98.4989 46.2156 99.5017 46.7236C100.505 47.2317 103.596 46.7666 103.596 46.7666C103.596 46.7666 105.852 46.6388 106.187 46.8933C106.522 47.1479 110.448 45.8342 110.448 45.8342C110.448 45.8342 111.159 44.223 110.616 43.9695C110.073 43.7161 110.783 41.2144 110.783 41.2144L110.448 24.431L109.78 22.2699L107.983 21.1678L106.143 22.6512L105.273 22.7779L103.554 21.9304Z" fill="black"/>
<path d="M103.554 21.6758L99.7103 23.4987L96.7441 46.7677C96.7441 46.7677 98.4989 45.9621 99.5017 46.4713C100.505 46.9804 103.596 46.5132 103.596 46.5132C103.596 46.5132 105.852 46.3864 106.187 46.6399C106.522 46.8934 110.448 45.5808 110.448 45.5808C110.448 45.5808 111.159 43.9707 110.616 43.7161C110.073 43.4615 110.783 40.9609 110.783 40.9609L110.448 24.1753L109.78 22.0142L107.983 20.9121L106.143 22.3966L105.273 22.5222L103.554 21.6758Z" fill="#E7EFFD"/>
<path opacity="0.1" d="M103.491 22.757C103.491 22.757 104.599 24.0916 104.578 24.3671C104.557 24.6426 104.516 25.2995 104.516 25.2995L103.679 27.0165C103.679 27.0165 103.22 29.1567 103.22 29.6019C103.22 30.0472 102.489 33.9 102.489 33.9L101.612 39.8335L100.505 47.6108L101.632 49.5813L102.97 48.4374L104.745 34.5778L105.121 31.8446C105.121 31.8446 105.518 26.9283 105.518 26.4203C105.518 25.9122 105.289 24.5765 105.289 24.5765C105.289 24.5765 105.56 23.3047 106.688 23.0083C107.816 22.7118 106.604 22.9443 106.604 22.9443L105.952 22.4142L105.389 22.6479C105.389 22.6479 103.826 22.1641 103.491 22.757Z" fill="black"/>
<path d="M103.367 22.6324C103.367 22.6324 104.474 23.967 104.453 24.2426C104.432 24.5181 104.39 25.1749 104.39 25.1749L103.555 26.8919C103.555 26.8919 103.1 29.0299 103.1 29.4741C103.1 29.9182 102.369 33.7721 102.369 33.7721L101.486 39.7145L100.384 47.4863L101.513 49.4579L102.844 48.3106L104.621 34.4543L104.997 31.7212C104.997 31.7212 105.394 26.8049 105.394 26.2957C105.394 25.7866 105.165 24.452 105.165 24.452C105.165 24.452 105.436 23.1813 106.564 22.8837C107.692 22.5862 106.481 22.8209 106.481 22.8209L105.829 22.2908L105.273 22.5222C105.273 22.5222 103.701 22.0362 103.367 22.6324Z" fill="#3F3D56"/>
<path opacity="0.1" d="M102.635 20.4052C102.635 20.4052 102.468 20.5319 102.427 21.3794C102.385 22.2269 101.8 24.1346 101.8 24.1346C101.8 24.1346 103.973 22.6082 105.059 22.7779L102.635 20.4052Z" fill="black"/>
<path d="M102.635 20.1506C102.635 20.1506 102.468 20.2773 102.427 21.1259C102.385 21.9745 101.8 23.8811 101.8 23.8811C101.8 23.8811 103.973 22.3558 105.059 22.5255L102.635 20.1506Z" fill="#E7EFFD"/>
<path opacity="0.1" d="M108.569 19.7263L105.142 22.7779C105.142 22.7779 108.025 24.5159 108.401 24.9402C108.777 25.3645 109.153 20.7865 109.153 20.7865L108.569 19.7263Z" fill="black"/>
<path d="M108.694 19.4728L105.273 22.5223C105.273 22.5223 108.156 24.2591 108.533 24.6834C108.91 25.1077 109.286 20.5297 109.286 20.5297L108.694 19.4728Z" fill="#E7EFFD"/>
<path opacity="0.1" d="M102.76 20.4052C102.76 20.4052 102.384 20.2145 102.029 20.7656C101.674 21.3166 101.005 21.5701 101.005 21.5701C101.005 21.5701 97.2026 22.185 97.057 22.6931L95.2816 22.8033C95.2816 22.8033 94.6547 22.887 94.5917 24.2227C94.5287 25.5584 94.1908 25.6819 94.1908 25.6819C94.1908 25.6819 93.4595 26.9955 93.5215 27.6733C93.5834 28.3511 92.9576 28.6905 92.9576 28.6905L95.5652 35.5773C95.5652 35.5773 95.6489 38.4174 95.1675 39.4555C94.6862 40.4937 93.7887 45.0926 93.7887 45.0926C93.7887 45.0926 94.1658 45.0077 94.144 45.2612C94.1223 45.5147 93.6844 48.2919 93.6844 48.2919C93.6844 48.2919 93.5595 49.394 93.3509 49.7753C93.1423 50.1566 93.1205 52.1491 93.1205 52.1491L92.7859 53.5895C92.7859 53.5895 93.5801 55.3914 94.7916 55.1324C96.0031 54.8734 98.2109 50.0739 98.2109 50.0739L99.6103 44.8821L100.697 39.7542L101.01 36.2794L101.512 28.5869L102.243 23.5009C102.243 23.5009 103.053 20.7656 102.76 20.4052Z" fill="black"/>
<path d="M102.635 20.1506C102.635 20.1506 102.259 19.9599 101.904 20.511C101.549 21.062 100.881 21.3166 100.881 21.3166C100.881 21.3166 97.0777 21.9304 96.9321 22.4396L95.1556 22.5498C95.1556 22.5498 94.5287 22.6347 94.4668 23.9693C94.4048 25.3039 94.0691 25.4317 94.0691 25.4317C94.0691 25.4317 93.3379 26.7454 93.4009 27.4231C93.4639 28.1009 92.837 28.4404 92.837 28.4404L95.4446 35.3272C95.4446 35.3272 95.5283 38.1672 95.0481 39.2054C94.5678 40.2435 93.6693 44.8424 93.6693 44.8424C93.6693 44.8424 94.0452 44.7576 94.0246 45.0121C94.0039 45.2667 93.565 48.0417 93.565 48.0417C93.565 48.0417 93.44 49.1438 93.2303 49.5251C93.0206 49.9064 93.0011 51.899 93.0011 51.899L92.6697 53.335C92.6697 53.335 93.4639 55.1368 94.6754 54.8779C95.8869 54.6189 98.0805 49.8139 98.0805 49.8139L99.4811 44.622L100.568 39.493L100.882 36.0182L101.382 28.3257L102.114 23.2397C102.114 23.2397 102.928 20.511 102.635 20.1506Z" fill="#65617D"/>
<path opacity="0.1" d="M89.2221 36.5515L88.0106 37.4001C88.0106 37.4001 86.1635 37.4597 84.8336 37.129L84.16 36.8249L84.0242 36.7654L84.1632 36.8094C84.8619 37.0199 85.4084 37.0155 85.8354 36.87C87.5499 36.2849 87.3565 33.4129 87.2946 32.7626C87.2881 32.6976 87.2837 32.6524 87.2805 32.6392C87.2802 32.6366 87.2802 32.6341 87.2805 32.6315L87.2903 32.648C87.3135 32.6871 87.34 32.7239 87.3696 32.7582C87.3935 32.7858 87.4185 32.8144 87.4456 32.8409L88.0508 34.0686L88.0573 34.1204L89.2221 36.5515Z" fill="black"/>
<path d="M93.4216 28.2662L92.8371 28.4359L92.7534 29.6482C92.7534 29.6482 92.0635 29.538 91.8755 30.3689C91.6875 31.1999 91.354 31.5812 91.354 31.5812C91.354 31.5812 90.2044 32.5566 90.1414 33.382L89.4319 33.8228C89.4319 33.8228 87.7804 33.4327 87.4055 32.7593C87.4055 32.7593 88.1574 38.2267 84.146 36.891C84.146 36.891 88.6377 38.8835 88.8463 39.159C89.0549 39.4345 90.4348 40.2391 91.6875 39.5613C92.9403 38.8835 93.213 37.841 93.213 37.841C93.213 37.841 94.4245 36.1239 94.4668 35.8694C94.5092 35.6148 95.4447 35.3183 95.4447 35.3183L97.2418 30.9101L93.4216 28.2662Z" fill="#65617D"/>
<path opacity="0.1" d="M108.089 22.2699L108.694 19.4728C108.694 19.4728 108.965 20.3842 109.237 20.5958L110.136 21.2946C110.136 21.2946 111.034 21.7189 111.347 21.7189C111.66 21.7189 113.353 22.1597 113.561 22.3966C113.77 22.6336 114.607 22.4605 114.607 22.4605C114.607 22.4605 115.295 22.6931 115.902 22.8419C116.508 22.9906 116.8 24.0079 116.674 24.4101C116.624 24.6104 116.624 24.8204 116.676 25.0204C116.727 25.2205 116.827 25.4041 116.968 25.5541C117.218 25.8086 117.344 26.6352 117.344 26.6352C117.651 26.7367 117.906 26.9574 118.053 27.249C118.263 27.7152 118.2 28.7324 118.2 28.7324L115.087 33.1826C115.087 33.1826 115.128 34.8996 115.003 35.2765C114.878 35.6534 115.438 42.1424 115.438 42.1424L116.09 53.2887C116.09 53.2887 115.234 54.0304 115.046 54.1153C114.858 54.2001 114.669 50.1731 114.669 50.0255C114.669 49.8778 109.843 42.6934 109.843 42.6934C109.843 42.6934 109.191 41.6332 109.191 41.4007C109.191 41.1682 108.585 39.0268 108.585 39.0268L107.666 34.8952L108.089 22.2699Z" fill="black"/>
<path d="M118.458 28.4899C118.458 28.6354 118.451 28.7324 118.451 28.7324L115.34 33.1792C115.34 33.1792 115.384 34.8951 115.257 35.2731C115.185 35.4936 115.344 37.7748 115.492 39.6473C115.601 40.9995 115.696 42.139 115.696 42.139L115.971 46.8669L116.343 53.2853C116.343 53.2853 115.487 54.027 115.299 54.1119C115.111 54.1968 114.923 50.1698 114.923 50.021C114.923 49.8722 110.096 42.6901 110.096 42.6901C110.096 42.6901 109.445 41.6299 109.445 41.3973C109.445 41.1648 108.839 39.0235 108.839 39.0235L107.92 34.8907L108.337 22.2621L108.693 19.4651C108.693 19.4651 109.215 20.3765 109.487 20.587C109.759 20.7975 110.384 21.2868 110.384 21.2868C110.384 21.2868 111.283 21.7111 111.597 21.7111C111.911 21.7111 113.603 22.1519 113.811 22.3889C114.02 22.6258 114.857 22.4528 114.857 22.4528C114.857 22.4528 115.545 22.6853 116.151 22.8341C116.756 22.9829 117.049 24.0001 116.924 24.4012C116.873 24.6016 116.874 24.8118 116.925 25.012C116.976 25.2123 117.076 25.3961 117.216 25.5463C117.467 25.8009 117.592 26.6263 117.592 26.6263C117.9 26.7285 118.156 26.9499 118.303 27.2424C118.45 27.5719 118.464 28.1593 118.458 28.4899Z" fill="#65617D"/>
<path opacity="0.1" d="M92.9207 84.9521C93.0293 84.9521 97.4124 85.1219 97.3287 85.8426C97.245 86.5633 92.9207 84.9521 92.9207 84.9521Z" fill="black"/>
<path opacity="0.1" d="M93.9028 86.16C93.9028 86.16 96.8484 86.6472 96.0759 87.0924C95.3033 87.5376 93.9028 86.16 93.9028 86.16Z" fill="black"/>
<path opacity="0.1" d="M104.85 84.486C104.85 84.486 109.739 84.9103 109.008 85.4602C108.277 86.0101 106.542 86.0961 106.459 86.1214C106.375 86.1468 104.85 84.486 104.85 84.486Z" fill="black"/>
<path opacity="0.1" d="M104.265 86.6692C104.265 86.6692 106.981 87.1354 107.064 87.661C107.146 88.1867 104.265 86.6692 104.265 86.6692Z" fill="black"/>
<path opacity="0.1" d="M105.769 73.9116C105.769 73.9116 108.255 74.5045 108.401 74.9035L105.769 73.9116Z" fill="black"/>
<path opacity="0.1" d="M96.1791 75.7345C96.1791 75.7345 94.884 76.1158 96.1378 76.8785C97.3917 77.6411 96.1791 75.7345 96.1791 75.7345Z" fill="black"/>
<path opacity="0.1" d="M101.925 55.3694C102.071 55.3694 104.349 54.6068 105.142 54.9462C105.935 55.2856 106.918 55.2845 106.918 55.2845L101.925 55.3694Z" fill="black"/>
<path opacity="0.1" d="M102.218 57.7884L102.195 57.9978L100.254 63.1775C100.254 63.1775 99.9407 64.7447 99.6679 65.6351C99.4968 66.2397 99.3608 66.8538 99.2605 67.4745L100.985 56.629L102.218 57.7884Z" fill="black"/>
<path d="M105.252 48.6545L104.441 48.6688H104.416L103.941 46.533C104.175 46.5209 104.408 46.5087 104.644 46.4944L105.252 48.6545Z" fill="#3F3D56"/>
<path d="M115.107 46.0679L114.587 46.5021L112.849 47.9525C112.849 47.9525 108.147 50.496 106.852 48.0803C105.71 45.9522 111.041 44.4325 112.324 44.1007C112.499 44.0555 112.598 44.0335 112.598 44.0335L115.107 46.0679Z" fill="#FBBEBE"/>
<path opacity="0.1" d="M95.0308 25.2366C95.0308 25.2366 95.95 25.6598 96.1586 26.2538C96.3672 26.8478 95.0308 25.2366 95.0308 25.2366Z" fill="black"/>
<path opacity="0.1" d="M92.1894 31.5934C92.1894 31.5934 90.8519 33.2465 91.3952 33.8824C91.9384 34.5182 92.1894 31.5934 92.1894 31.5934Z" fill="black"/>
<path opacity="0.1" d="M116.09 26.169C116.09 26.169 114.836 26.2957 114.795 27.3978L116.09 26.169Z" fill="black"/>
<path opacity="0.1" d="M104.474 43.5453C104.599 43.4185 107.482 39.0951 108.15 39.4764L104.474 43.5453Z" fill="black"/>
<path opacity="0.1" d="M109.864 15.4459C109.865 16.2764 109.663 17.0943 109.276 17.8263L109.239 17.8197C108.924 17.7525 108.76 17.3789 108.519 17.1475C108.371 17.0045 108.183 16.9122 107.98 16.8833C107.778 16.8544 107.572 16.8905 107.391 16.9866C107.208 17.0977 107.059 17.2584 106.961 17.4506C106.864 17.6427 106.82 17.8587 106.837 18.0743C106.678 17.3954 106.728 16.6736 106.573 15.9936C106.417 15.3136 105.949 14.6259 105.309 14.6138C105.033 14.6138 104.711 14.7174 104.512 14.5036C104.391 14.3769 104.366 14.173 104.276 14.0242C103.818 13.2726 102.429 13.6528 101.857 14.0374C101.308 14.4077 100.627 15.0381 99.92 15.3687C99.9296 14.0312 100.463 12.7523 101.402 11.8134C102.341 10.8745 103.609 10.3524 104.928 10.362C106.246 10.3717 107.507 10.9123 108.433 11.8648C109.359 12.8174 109.873 14.104 109.864 15.4415V15.4459Z" fill="black"/>
<path d="M104.276 13.9008C104.367 14.054 104.391 14.2545 104.512 14.3802C104.71 14.5896 105.033 14.4827 105.309 14.4904C105.949 14.5014 106.417 15.1902 106.573 15.8702C106.728 16.5501 106.681 17.2709 106.837 17.9498C106.82 17.7342 106.864 17.5182 106.962 17.3263C107.06 17.1343 107.209 16.9739 107.392 16.8631C107.573 16.7672 107.779 16.7311 107.981 16.7597C108.183 16.7884 108.371 16.8804 108.519 17.0229C108.76 17.2555 108.924 17.628 109.239 17.6952C109.554 17.7624 109.858 17.456 109.971 17.1188C110.084 16.7816 110.08 16.4124 110.152 16.063C110.294 15.4018 110.719 14.8607 110.955 14.2325C111.235 13.4675 111.227 12.6248 110.933 11.8653C110.777 11.4674 110.543 11.1092 110.39 10.7114C110.149 10.1075 110.086 9.42638 109.793 8.8511C109.301 7.88789 108.143 7.40519 107.191 7.76777C106.737 7.94079 106.342 8.27582 105.882 8.42901C105.264 8.62958 104.604 8.4786 103.964 8.38823C103.324 8.29786 102.619 8.28904 102.105 8.71885C101.514 9.20927 101.352 10.1317 100.801 10.6706C100.568 10.8965 100.277 11.0409 100.031 11.2503C99.7842 11.4597 99.5723 11.7705 99.5962 12.111C99.6332 12.5518 100.057 12.9486 99.9005 13.3552C99.8439 13.4727 99.7653 13.5779 99.669 13.6649C99.2031 14.1595 98.8568 14.7571 98.6575 15.4106C99.7755 15.7644 100.986 14.5146 101.861 13.9239C102.427 13.5305 103.818 13.1547 104.276 13.9008Z" fill="#7C5C5C"/>
<path opacity="0.1" d="M115.108 46.0679L114.587 46.5021C114.129 45.7307 112.246 44.1801 112.246 44.1801L112.327 44.1007C112.502 44.0555 112.601 44.0335 112.601 44.0335L115.108 46.0679Z" fill="black"/>
<path d="M115.609 45.2832C115.609 45.2832 115.423 45.7549 115.229 46.1649C115.036 46.5749 114.826 46.9429 114.815 46.6421C114.795 46.0481 112.372 44.0555 112.372 44.0555L112.698 43.7315L113.079 43.3568L115.609 45.2832Z" fill="#E7EFFD"/>
<path opacity="0.1" d="M115.693 42.1468L115.968 46.8746C115.316 45.8508 113.537 43.2268 112.391 43.3117L115.17 40.0705C115.286 39.9396 115.392 39.8008 115.489 39.655C115.595 41.0072 115.693 42.1468 115.693 42.1468Z" fill="black"/>
<path opacity="0.1" d="M115.609 45.2832C115.609 45.2832 115.423 45.7549 115.229 46.1649C114.501 45.1521 113.499 43.9552 112.7 43.7315L113.081 43.3568L115.609 45.2832Z" fill="black"/>
<path d="M117.699 28.1428L118.451 28.7357C118.451 28.7357 119.703 28.7577 119.829 29.8168C119.955 30.8759 121.104 31.3597 121.104 31.3597C121.104 31.3597 121.96 32.2282 121.96 32.6304C121.96 33.0327 122.612 33.7545 122.612 33.8173C122.612 33.8802 123.239 35.174 123.155 35.4065C123.072 35.6391 123.823 36.6574 123.59 37.0387C123.401 37.3807 123.233 37.7344 123.088 38.0978C123.088 38.0978 122.11 40.0054 121.605 40.3658C121.1 40.7262 118.806 43.7558 118.806 43.7558C118.806 43.7558 116.341 46.6377 116.341 47.5282C116.341 47.5282 113.937 43.4593 112.517 43.5607L115.295 40.3184C115.295 40.3184 115.777 39.7894 115.797 39.4709C115.818 39.1524 117.134 37.6911 117.761 37.6272C117.761 37.6272 117.869 36.7588 117.593 36.7378C117.317 36.7169 117.092 36.038 117.092 36.038C117.092 36.038 115.254 33.8339 115.233 32.4353C115.213 31.0368 117.699 28.1428 117.699 28.1428Z" fill="#65617D"/>
<path opacity="0.1" d="M118.806 30.153C118.806 30.153 117.05 31.4666 117.427 31.8898C117.804 32.313 118.806 30.153 118.806 30.153Z" fill="black"/>
<path opacity="0.1" d="M118.89 35.5773C118.89 35.5773 122.149 34.5183 122.483 35.5773H118.89Z" fill="black"/>
<path opacity="0.1" d="M98.7074 91.8819C98.7074 91.8819 96.9527 93.0479 96.0759 92.8738C95.1991 92.6997 94.2994 93.1713 94.2994 93.1713C93.6949 93.8412 92.9326 94.3444 92.084 94.6338C90.6639 95.1209 88.6799 94.9302 87.5521 94.5478C87.0176 94.3682 86.9752 94.1345 87.2316 93.848C88.4583 94.096 91.1996 94.5886 91.9384 94.2304C92.8989 93.7643 94.2777 92.7471 94.2777 92.7471C94.2777 92.7471 96.0759 92.4925 96.3258 92.4925C96.504 92.4925 97.8915 91.9117 98.6748 91.5778L98.7074 91.8819Z" fill="black"/>
<path opacity="0.1" d="M109.338 94.2668C109.326 94.3396 109.321 94.3837 109.321 94.3837C109.321 94.3837 108.902 95.316 106.584 95.6554C104.265 95.9949 104.265 94.8708 104.265 94.8708C104.265 94.8708 104.274 94.7495 104.289 94.5677C105.022 94.8487 106.624 95.165 109.338 94.2668Z" fill="black"/>
<path opacity="0.1" d="M95.8978 29.8984C95.8978 29.8984 95.8978 34.7298 95.4903 35.207C95.0828 35.6842 95.8978 29.8984 95.8978 29.8984Z" fill="black"/>
<path opacity="0.1" d="M114.731 31.4556L115.337 33.1825C115.337 33.1825 115.578 31.4875 114.731 31.4556Z" fill="black"/>
<g opacity="0.1">
<path opacity="0.1" d="M99.959 12.9342C100.112 12.5364 99.7113 12.1474 99.6592 11.722C99.6058 11.8422 99.5827 11.974 99.5918 12.1055C99.619 12.4262 99.8526 12.727 99.9178 13.0235C99.9344 12.9952 99.9482 12.9653 99.959 12.9342Z" fill="black"/>
<path opacity="0.1" d="M106.893 17.4979C106.743 16.829 106.785 16.1215 106.635 15.4536C106.485 14.7858 106.012 14.0848 105.372 14.0738C105.096 14.0738 104.773 14.1763 104.574 13.9636C104.454 13.838 104.429 13.633 104.339 13.4842C103.881 12.7326 102.492 13.1139 101.919 13.4985C101.064 14.0749 99.8906 15.2795 98.7954 15.0062C98.7422 15.1351 98.6933 15.2652 98.6531 15.3985C99.7711 15.7523 100.981 14.5025 101.856 13.9118C102.427 13.5272 103.818 13.1404 104.276 13.8975C104.367 14.0507 104.391 14.2513 104.512 14.3769C104.71 14.5863 105.033 14.4794 105.309 14.4871C105.949 14.4981 106.417 15.1869 106.573 15.8669C106.728 16.5469 106.681 17.2676 106.837 17.9465C106.826 17.7946 106.845 17.6422 106.893 17.4979Z" fill="black"/>
<path opacity="0.1" d="M110.034 16.7022C109.926 17.0395 109.623 17.348 109.301 17.2786C108.979 17.2092 108.822 16.8378 108.582 16.6064C108.434 16.4636 108.245 16.3714 108.043 16.3428C107.841 16.3141 107.635 16.3504 107.454 16.4466C107.28 16.5521 107.136 16.703 107.039 16.8836C106.942 17.0642 106.893 17.2679 106.9 17.4737C106.983 17.2143 107.159 16.9956 107.392 16.8598C107.573 16.7639 107.778 16.7278 107.981 16.7564C108.183 16.7851 108.371 16.8771 108.519 17.0196C108.76 17.2522 108.924 17.6247 109.239 17.6919C109.554 17.7591 109.858 17.4527 109.971 17.1155C110.031 16.9175 110.07 16.7136 110.086 16.5072C110.073 16.5732 110.056 16.6383 110.034 16.7022Z" fill="black"/>
<path opacity="0.1" d="M111.017 13.8159C110.782 14.4441 110.356 14.9863 110.215 15.6475C110.187 15.7809 110.17 15.9176 110.154 16.0542C110.297 15.393 110.72 14.8552 110.955 14.2292C111.059 13.9458 111.124 13.6491 111.148 13.3475C111.116 13.5068 111.072 13.6634 111.017 13.8159Z" fill="black"/>
</g>
<path d="M82.5739 29.6157L82.5623 29.6217C82.5419 29.6321 82.5337 29.6572 82.544 29.6779L82.8597 30.3138C82.8699 30.3344 82.8948 30.3427 82.9151 30.3323L82.9268 30.3264C82.9471 30.316 82.9553 30.2908 82.9451 30.2701L82.6294 29.6343C82.6191 29.6136 82.5943 29.6053 82.5739 29.6157Z" fill="#3A3768"/>
<path d="M79.4502 30.5016L79.4434 30.5051C79.4321 30.5108 79.4276 30.5248 79.4332 30.5362L79.5291 30.7291C79.5348 30.7405 79.5485 30.7451 79.5598 30.7393L79.5665 30.7359C79.5778 30.7301 79.5823 30.7162 79.5767 30.7048L79.4808 30.5119C79.4751 30.5005 79.4614 30.4959 79.4502 30.5016Z" fill="#3A3768"/>
<path d="M79.6653 30.9409L79.6585 30.9444C79.6457 30.951 79.6405 30.9669 79.647 30.9799L79.8258 31.3402C79.8323 31.3532 79.848 31.3585 79.8609 31.3519L79.8677 31.3484C79.8805 31.3419 79.8857 31.326 79.8792 31.3129L79.7004 30.9527C79.6939 30.9396 79.6782 30.9344 79.6653 30.9409Z" fill="#3A3768"/>
<path d="M79.9374 31.4912L79.9306 31.4947C79.9183 31.501 79.9134 31.5162 79.9196 31.5287L80.1009 31.8939C80.1071 31.9064 80.1221 31.9115 80.1344 31.9052L80.1412 31.9017C80.1535 31.8954 80.1585 31.8802 80.1523 31.8677L79.971 31.5025C79.9648 31.49 79.9498 31.4849 79.9374 31.4912Z" fill="#3A3768"/>
<path d="M81.6927 28.3986L79.2841 29.6289C79.1641 29.6902 79.1158 29.8386 79.1762 29.9604L81.868 35.3819C81.9285 35.5037 82.0748 35.5527 82.1949 35.4914L84.6035 34.2611C84.7235 34.1997 84.7718 34.0513 84.7114 33.9295L82.0196 28.508C81.9591 28.3863 81.8128 28.3373 81.6927 28.3986Z" fill="#3A3768"/>
<path d="M81.3611 28.7545C81.3473 28.7607 81.3348 28.7699 81.3247 28.7813C81.3145 28.7928 81.3068 28.8063 81.3021 28.8209C81.2974 28.8355 81.2958 28.851 81.2973 28.8663C81.2989 28.8817 81.3036 28.8965 81.3111 28.9099L81.322 28.9308C81.3295 28.9442 81.3342 28.9591 81.3356 28.9745C81.3371 28.9899 81.3354 29.0054 81.3306 29.02C81.3258 29.0347 81.318 29.0481 81.3077 29.0595C81.2974 29.0709 81.2849 29.08 81.2709 29.0862L80.066 29.7022C80.0528 29.7099 80.0382 29.7147 80.0231 29.7162C80.008 29.7178 79.9927 29.7162 79.9783 29.7114C79.9639 29.7066 79.9506 29.6988 79.9393 29.6885C79.928 29.6782 79.919 29.6656 79.9128 29.6515L79.9019 29.6295C79.8957 29.6154 79.8867 29.6029 79.8754 29.5925C79.8641 29.5822 79.8508 29.5744 79.8364 29.5697C79.822 29.5649 79.8067 29.5632 79.7916 29.5648C79.7765 29.5664 79.7619 29.5712 79.7487 29.5788L79.514 29.6978C79.4883 29.7108 79.4654 29.7288 79.4466 29.7509C79.4278 29.7729 79.4135 29.7985 79.4045 29.8261C79.3955 29.8538 79.392 29.883 79.3942 29.9121C79.3964 29.9411 79.4043 29.9694 79.4173 29.9954L81.9804 35.1564C81.9932 35.1825 82.011 35.2057 82.0327 35.2248C82.0544 35.2439 82.0797 35.2584 82.107 35.2675C82.1342 35.2766 82.163 35.2802 82.1917 35.2779C82.2203 35.2757 82.2482 35.2677 82.2738 35.2545L84.3762 34.1799C84.4018 34.167 84.4246 34.149 84.4433 34.127C84.462 34.1051 84.4763 34.0796 84.4853 34.0521C84.4943 34.0245 84.4978 33.9955 84.4957 33.9665C84.4936 33.9376 84.4858 33.9094 84.4729 33.8835L81.9131 28.7214C81.9002 28.6955 81.8824 28.6725 81.8607 28.6537C81.839 28.6348 81.8139 28.6205 81.7868 28.6115C81.7596 28.6024 81.731 28.599 81.7025 28.6012C81.674 28.6034 81.6463 28.6113 81.6208 28.6244L81.3611 28.7545Z" fill="#6C63FF"/>
<path d="M80.664 29.1442L80.3369 29.3112C80.3176 29.3211 80.3099 29.3449 80.3196 29.3645L80.325 29.3753C80.3347 29.3949 80.3582 29.4028 80.3775 29.3929L80.7045 29.2259C80.7238 29.216 80.7316 29.1922 80.7219 29.1726L80.7165 29.1618C80.7068 29.1422 80.6833 29.1343 80.664 29.1442Z" fill="#E6E8EC"/>
<path d="M80.8244 29.1589C80.8526 29.1589 80.8754 29.1357 80.8754 29.1071C80.8754 29.0785 80.8526 29.0553 80.8244 29.0553C80.7962 29.0553 80.7733 29.0785 80.7733 29.1071C80.7733 29.1357 80.7962 29.1589 80.8244 29.1589Z" fill="#E6E8EC"/>
<defs>
<linearGradient id="paint0_linear" x1="101.528" y1="95.9079" x2="101.528" y2="7.16053" gradientUnits="userSpaceOnUse">
<stop stop-color="#808080" stop-opacity="0.25"/>
<stop offset="0.54" stop-color="#808080" stop-opacity="0.12"/>
<stop offset="1" stop-color="#808080" stop-opacity="0.1"/>
</linearGradient>
</defs>
</svg>
