<svg width="150" height="97" viewBox="0 0 150 97" fill="none" xmlns="http://www.w3.org/2000/svg">
<path opacity="0.1" d="M32.528 0.0899873C27.7047 -0.0870589 22.6664 -0.211544 18.3051 1.84938C13.9439 3.91031 10.5721 8.90357 12.0346 13.4943C12.5119 14.9909 13.4416 16.2952 14.2256 17.6577C18.1456 24.4712 18.3273 33.2779 14.6932 40.2477C11.8958 45.613 7.1544 49.6961 3.74091 54.6949C0.327414 59.6937 -1.61245 66.622 1.74554 71.6582C4.04479 75.1064 8.31165 76.7842 12.4453 77.1909C16.579 77.5975 20.7362 76.9571 24.8879 76.7925C32.9668 76.4831 41.0112 77.9995 48.4188 81.2283C58.6162 85.6849 67.4011 93.309 78.1384 96.251C79.4274 96.6037 80.7748 96.8886 82.093 96.6493C84.4311 96.2247 86.1309 94.2979 87.9612 92.7765C93.8043 87.9533 101.894 87.0529 109.479 86.8288C117.063 86.6047 124.963 86.7776 131.819 83.5313C137.805 80.6972 142.413 75.4245 145.279 69.4686C148.144 63.5126 149.389 56.8942 149.858 50.3033C150.135 46.3807 150.126 42.3307 148.717 38.6584C147.134 34.5296 143.923 31.2418 140.555 28.3676C137.036 25.3633 133.201 22.6413 128.856 21.0202C123.667 19.0837 118.033 18.8071 112.508 18.3479C101.177 17.4046 89.935 15.605 78.8779 12.9646C68.3835 10.4638 56.8609 7.73202 47.3032 2.63779C42.5062 0.0803053 37.9355 0.283632 32.528 0.0899873Z" fill="#6C63FF"/>
<path opacity="0.1" d="M99.4532 92.798C103.437 94.5255 108.298 93.4743 112.819 93.5961C113.436 93.6127 114.092 93.6638 114.588 93.9626C115.083 94.2614 115.329 94.7441 115.669 95.159C116.936 96.6999 119.532 97.1951 121.801 96.9337C124.069 96.6722 126.149 95.8064 128.29 95.148C131.991 94.0082 136.22 93.4882 139.871 94.733C140.206 94.8464 140.565 94.9778 140.917 94.9322C141.718 94.8312 141.957 94.0041 142.516 93.5324C143.526 92.679 145.721 92.9114 146.165 91.7869C146.425 91.1285 145.827 90.4535 145.175 90.004C142.677 88.2833 139.111 87.9997 135.846 88.2653C132.581 88.5309 129.371 89.2626 126.09 89.2653C122 89.2653 118.05 88.1422 114.001 87.6816C111.196 87.3635 108.135 87.405 105.506 88.3414C102.656 89.3539 102.029 91.6347 99.4532 92.798Z" fill="#6C63FF"/>
<path opacity="0.1" d="M24.0623 87.4991C30.8615 89.4507 39.1593 88.2626 46.8744 88.4009C47.9303 88.4203 49.0487 88.477 49.8966 88.8158C50.7444 89.1547 51.1607 89.7011 51.7421 90.1686C53.9039 91.91 58.3345 92.4702 62.2059 92.1742C66.0773 91.8782 69.6296 90.9003 73.2845 90.1561C79.6009 88.8684 86.8219 88.2819 93.0522 89.6859C93.6239 89.8145 94.2262 89.9625 94.8395 89.9113C96.2049 89.7965 96.6114 88.8629 97.5675 88.329C99.2923 87.3607 103.037 87.6277 103.795 86.3579C104.239 85.6138 103.218 84.8503 102.105 84.3427C97.8478 82.3993 91.7562 82.0784 86.1822 82.3785C80.6083 82.6787 75.13 83.5045 69.5311 83.5086C62.5514 83.5086 55.8077 82.2402 48.8961 81.7188C44.1089 81.3592 38.8846 81.4034 34.3957 82.4657C29.5294 83.6123 28.4568 86.1892 24.0623 87.4991Z" fill="#6C63FF"/>
<path opacity="0.1" d="M5.86255 92.282C7.80519 93.4467 10.1641 92.7385 12.3648 92.8201C12.6659 92.8311 12.9851 92.8657 13.2265 93.0663C13.468 93.2668 13.5873 93.5947 13.7524 93.8741C14.3685 94.9128 15.6312 95.2475 16.7344 95.0705C17.8375 94.8935 18.8505 94.3111 19.8926 93.8658C21.6964 93.0981 23.7515 92.7482 25.5262 93.5891C25.6783 93.686 25.8565 93.7343 26.0368 93.7274C26.4254 93.6583 26.5419 93.1009 26.8139 92.7827C27.3051 92.2073 28.3736 92.3678 28.5886 91.6057C28.7149 91.1617 28.4235 90.7066 28.1071 90.4037C26.8944 89.2432 25.1571 89.0523 23.5683 89.2308C21.9795 89.4092 20.4185 89.8933 18.8213 89.8933C16.8329 89.8933 14.9111 89.1367 12.9407 88.8255C11.5753 88.6097 10.0864 88.6374 8.80703 89.2709C7.42082 89.9624 7.11555 91.5005 5.86255 92.282Z" fill="#6C63FF"/>
<path d="M18.9768 83.1655C18.9768 83.1655 19.7385 84.1586 18.6243 85.6552C17.5101 87.1518 16.5915 88.4216 16.9592 89.3566C16.9592 89.3566 18.6396 86.5709 20.0119 86.5322C21.3842 86.4935 20.4823 84.8406 18.9768 83.1655Z" fill="#6C63FF"/>
<path opacity="0.1" d="M18.9767 83.1655C19.0435 83.2611 19.0959 83.366 19.1322 83.4767C20.467 85.0397 21.1789 86.499 19.8953 86.5363C18.7006 86.5695 17.2589 88.701 16.9231 89.2391C16.9344 89.2803 16.9478 89.3209 16.9633 89.3608C16.9633 89.3608 18.6437 86.5751 20.0161 86.5363C21.3884 86.4976 20.4823 84.8406 18.9767 83.1655Z" fill="black"/>
<path d="M20.3935 84.4312C20.3935 84.7811 20.3547 85.0647 20.3061 85.0647C20.2575 85.0647 20.2173 84.7811 20.2173 84.4312C20.2173 84.0812 20.2672 84.2472 20.3158 84.2472C20.3644 84.2472 20.3935 84.084 20.3935 84.4312Z" fill="#FFD037"/>
<path d="M20.8806 84.8489C20.5725 85.0163 20.3033 85.1172 20.2797 85.0757C20.2561 85.0342 20.4879 84.8627 20.7959 84.6953C21.104 84.528 20.9819 84.6497 21.0054 84.6953C21.029 84.741 21.1886 84.6815 20.8806 84.8489Z" fill="#FFD037"/>
<path d="M14.9499 83.1655C14.9499 83.1655 14.1881 84.1586 15.3023 85.6552C16.4166 87.1518 17.3352 88.4216 16.9674 89.3566C16.9674 89.3566 15.2871 86.5709 13.9147 86.5322C12.5424 86.4935 13.4457 84.8406 14.9499 83.1655Z" fill="#6C63FF"/>
<path opacity="0.1" d="M14.95 83.1655C14.8838 83.2615 14.8315 83.3663 14.7945 83.4767C13.4597 85.0397 12.7478 86.499 14.0314 86.5363C15.2275 86.5695 16.6678 88.701 17.0036 89.2391C16.9929 89.2805 16.9795 89.3211 16.9634 89.3608C16.9634 89.3608 15.283 86.5751 13.9106 86.5363C12.5383 86.4976 13.4458 84.8406 14.95 83.1655Z" fill="black"/>
<path d="M13.5332 84.4312C13.5332 84.7811 13.5721 85.0647 13.6206 85.0647C13.6692 85.0647 13.7094 84.7811 13.7094 84.4312C13.7094 84.0812 13.6595 84.2472 13.6109 84.2472C13.5623 84.2472 13.5332 84.084 13.5332 84.4312Z" fill="#FFD037"/>
<path d="M13.0475 84.8489C13.3556 85.0163 13.6234 85.1172 13.647 85.0757C13.6706 85.0342 13.4388 84.8627 13.1308 84.6953C12.8227 84.528 12.9448 84.6497 12.9212 84.6953C12.8977 84.741 12.7395 84.6815 13.0475 84.8489Z" fill="#FFD037"/>
<path d="M13.776 89.2307C13.776 89.2307 15.9074 89.1657 16.5512 88.7093C17.195 88.2528 19.8287 87.7092 19.9883 88.4409C20.1479 89.1726 23.1909 92.0773 20.7848 92.0967C18.3787 92.116 15.1941 91.7232 14.5531 91.3332C13.912 90.9431 13.776 89.2307 13.776 89.2307Z" fill="#A8A8A8"/>
<path opacity="0.2" d="M20.8264 91.8422C18.4203 91.8616 15.2358 91.4688 14.5947 91.0787C14.1062 90.7827 13.912 89.7191 13.8468 89.228H13.776C13.776 89.228 13.9148 90.9418 14.5517 91.3305C15.1886 91.7191 18.3773 92.1133 20.7834 92.094C21.4772 92.094 21.7186 91.8422 21.7047 91.4771C21.609 91.6998 21.344 91.8381 20.8264 91.8422Z" fill="black"/>
<g opacity="0.1">
<path opacity="0.1" d="M99.0577 87.0973C99.0577 87.0973 99.5489 80.2354 103.423 76.4939C105.059 74.935 106.143 72.8892 106.512 70.6638C106.679 69.6059 106.748 68.5351 106.72 67.4645" fill="#6C63FF"/>
<path opacity="0.1" d="M109.147 65.0924C108.863 65.8504 106.663 67.5351 106.663 67.5351C106.663 67.5351 106.108 64.8255 106.395 64.0675C106.532 63.7038 106.807 63.4089 107.162 63.2478C107.516 63.0868 107.92 63.0726 108.285 63.2085C108.65 63.3444 108.946 63.6193 109.108 63.9726C109.269 64.3259 109.283 64.7287 109.147 65.0924Z" fill="#6C63FF"/>
<path opacity="0.1" d="M109.849 70.1368C109.197 70.6182 106.433 70.8408 106.433 70.8408C106.433 70.8408 107.446 68.2668 108.098 67.784C108.411 67.5649 108.798 67.4764 109.176 67.5373C109.554 67.5983 109.893 67.8038 110.122 68.1102C110.35 68.4167 110.449 68.7998 110.398 69.178C110.347 69.5562 110.15 69.8998 109.849 70.1354V70.1368Z" fill="#6C63FF"/>
<path opacity="0.1" d="M107.061 77.2698C106.254 77.3584 103.755 76.1633 103.755 76.1633C103.755 76.1633 105.933 74.4509 106.739 74.3652C107.114 74.3447 107.483 74.468 107.769 74.7099C108.055 74.9518 108.238 75.2938 108.279 75.6657C108.32 76.0376 108.217 76.411 107.991 76.7094C107.764 77.0077 107.432 77.2083 107.061 77.2698Z" fill="#6C63FF"/>
<path opacity="0.1" d="M103.733 82.194C102.953 82.4167 100.286 81.6559 100.286 81.6559C100.286 81.6559 102.142 79.6019 102.922 79.3792C103.109 79.3198 103.307 79.2985 103.502 79.3165C103.698 79.3344 103.888 79.3913 104.061 79.4838C104.235 79.5763 104.387 79.7025 104.511 79.8548C104.634 80.0072 104.726 80.1828 104.78 80.371C104.834 80.5593 104.85 80.7565 104.826 80.951C104.803 81.1454 104.74 81.3332 104.643 81.5031C104.545 81.6731 104.414 81.8218 104.258 81.9405C104.102 82.0591 103.923 82.1453 103.733 82.194Z" fill="#6C63FF"/>
<path opacity="0.1" d="M103.488 69.9114C103.835 70.6417 106.169 72.1341 106.169 72.1341C106.169 72.1341 106.491 69.3885 106.143 68.6568C105.969 68.3172 105.67 68.0585 105.308 67.9356C104.946 67.8127 104.55 67.8353 104.204 67.9986C103.859 68.1619 103.591 68.453 103.457 68.8102C103.323 69.1674 103.335 69.5624 103.488 69.9114Z" fill="#6C63FF"/>
<path opacity="0.1" d="M99.6684 75.7193C100.223 76.3127 102.895 77.0416 102.895 77.0416C102.895 77.0416 102.377 74.3251 101.826 73.7303C101.561 73.4467 101.194 73.2793 100.806 73.2648C100.417 73.2504 100.039 73.39 99.753 73.6532C99.4676 73.9163 99.2983 74.2815 99.2825 74.6688C99.2666 75.0561 99.4054 75.4338 99.6684 75.7193Z" fill="#6C63FF"/>
<path opacity="0.1" d="M96.7335 81.8717C97.1748 82.5494 99.6891 83.7182 99.6891 83.7182C99.6891 83.7182 99.6392 80.9519 99.1965 80.2755C98.979 79.9618 98.6474 79.745 98.2721 79.6712C97.8968 79.5974 97.5074 79.6724 97.1867 79.8802C96.866 80.0881 96.6392 80.4124 96.5546 80.7843C96.47 81.1561 96.5342 81.5462 96.7335 81.8717Z" fill="#6C63FF"/>
<path opacity="0.1" d="M109.147 65.0924C108.863 65.8504 106.663 67.5351 106.663 67.5351C106.663 67.5351 106.108 64.8255 106.395 64.0675C106.532 63.7038 106.807 63.4089 107.162 63.2478C107.516 63.0868 107.92 63.0726 108.285 63.2085C108.65 63.3444 108.946 63.6193 109.108 63.9726C109.269 64.3259 109.283 64.7287 109.147 65.0924Z" fill="#6C63FF"/>
<path opacity="0.1" d="M109.849 70.1368C109.197 70.6182 106.433 70.8408 106.433 70.8408C106.433 70.8408 107.446 68.2668 108.098 67.784C108.411 67.5649 108.798 67.4764 109.176 67.5373C109.554 67.5983 109.893 67.8038 110.122 68.1102C110.35 68.4167 110.449 68.7998 110.398 69.178C110.347 69.5562 110.15 69.8998 109.849 70.1354V70.1368Z" fill="#6C63FF"/>
<path opacity="0.1" d="M107.061 77.2698C106.254 77.3584 103.755 76.1633 103.755 76.1633C103.755 76.1633 105.933 74.4509 106.739 74.3652C107.114 74.3447 107.483 74.468 107.769 74.7099C108.055 74.9518 108.238 75.2938 108.279 75.6657C108.32 76.0376 108.217 76.411 107.991 76.7094C107.764 77.0077 107.432 77.2083 107.061 77.2698Z" fill="#6C63FF"/>
<path opacity="0.1" d="M103.733 82.194C102.953 82.4167 100.286 81.6559 100.286 81.6559C100.286 81.6559 102.142 79.6019 102.922 79.3792C103.109 79.3198 103.307 79.2985 103.502 79.3165C103.698 79.3344 103.888 79.3913 104.061 79.4838C104.235 79.5763 104.387 79.7025 104.511 79.8548C104.634 80.0072 104.726 80.1828 104.78 80.371C104.834 80.5593 104.85 80.7565 104.826 80.951C104.803 81.1454 104.74 81.3332 104.643 81.5031C104.545 81.6731 104.414 81.8218 104.258 81.9405C104.102 82.0591 103.923 82.1453 103.733 82.194Z" fill="#6C63FF"/>
<path opacity="0.1" d="M103.488 69.9114C103.835 70.6417 106.169 72.1341 106.169 72.1341C106.169 72.1341 106.491 69.3885 106.143 68.6568C105.969 68.3172 105.67 68.0585 105.308 67.9356C104.946 67.8127 104.55 67.8353 104.204 67.9986C103.859 68.1619 103.591 68.453 103.457 68.8102C103.323 69.1674 103.335 69.5624 103.488 69.9114Z" fill="#6C63FF"/>
<path opacity="0.1" d="M99.6684 75.7193C100.223 76.3127 102.895 77.0416 102.895 77.0416C102.895 77.0416 102.377 74.3251 101.826 73.7303C101.561 73.4467 101.194 73.2793 100.806 73.2648C100.417 73.2504 100.039 73.39 99.753 73.6532C99.4676 73.9163 99.2983 74.2815 99.2825 74.6688C99.2666 75.0561 99.4054 75.4338 99.6684 75.7193Z" fill="#6C63FF"/>
<path opacity="0.1" d="M96.7335 81.8717C97.1748 82.5494 99.6891 83.7182 99.6891 83.7182C99.6891 83.7182 99.6392 80.9519 99.1965 80.2755C98.979 79.9618 98.6474 79.745 98.2721 79.6712C97.8968 79.5974 97.5074 79.6724 97.1867 79.8802C96.866 80.0881 96.6392 80.4124 96.5546 80.7843C96.47 81.1561 96.5342 81.5462 96.7335 81.8717Z" fill="#6C63FF"/>
</g>
<g opacity="0.1">
<path opacity="0.1" d="M100.418 61.1241C100.418 61.1241 100.909 54.2622 104.783 50.5207C106.418 48.9614 107.502 46.9158 107.872 44.6906C108.04 43.6329 108.11 42.5619 108.08 41.4914" fill="#6C63FF"/>
<path opacity="0.1" d="M110.507 39.1192C110.229 39.8758 108.024 41.5605 108.024 41.5605C108.024 41.5605 107.469 38.8509 107.755 38.0943C107.891 37.7306 108.167 37.4357 108.522 37.2746C108.876 37.1135 109.28 37.0994 109.645 37.2353C110.01 37.3712 110.306 37.6461 110.467 37.9994C110.629 38.3527 110.643 38.7555 110.507 39.1192Z" fill="#6C63FF"/>
<path opacity="0.1" d="M111.213 44.1623C110.562 44.645 107.797 44.8663 107.797 44.8663C107.797 44.8663 108.81 42.2936 109.462 41.8109C109.616 41.69 109.794 41.6012 109.983 41.5498C110.172 41.4983 110.37 41.4852 110.565 41.5112C110.759 41.5372 110.947 41.6018 111.116 41.7012C111.285 41.8006 111.432 41.9327 111.549 42.0898C111.666 42.247 111.751 42.4259 111.797 42.616C111.844 42.8061 111.851 43.0036 111.82 43.1968C111.789 43.39 111.719 43.5749 111.615 43.7408C111.51 43.9066 111.374 44.0499 111.213 44.1623Z" fill="#6C63FF"/>
<path opacity="0.1" d="M108.421 51.2967C107.615 51.3852 105.116 50.1901 105.116 50.1901C105.116 50.1901 107.295 48.4792 108.101 48.392C108.294 48.3672 108.491 48.3811 108.679 48.4329C108.867 48.4848 109.043 48.5735 109.197 48.6939C109.35 48.8142 109.478 48.9639 109.573 49.1341C109.668 49.3043 109.727 49.4916 109.749 49.6851C109.77 49.8785 109.752 50.0743 109.697 50.2609C109.641 50.4476 109.549 50.6213 109.426 50.772C109.302 50.9227 109.15 51.0473 108.977 51.1386C108.805 51.2299 108.616 51.286 108.421 51.3036V51.2967Z" fill="#6C63FF"/>
<path opacity="0.1" d="M105.092 56.2208C104.313 56.4435 101.646 55.6827 101.646 55.6827C101.646 55.6827 103.504 53.6287 104.282 53.4046C104.655 53.3033 105.053 53.3525 105.39 53.5416C105.726 53.7306 105.975 54.0443 106.081 54.4146C106.188 54.785 106.143 55.1822 105.958 55.5202C105.773 55.8583 105.461 56.11 105.091 56.2208H105.092Z" fill="#6C63FF"/>
<path opacity="0.1" d="M104.848 43.9368C105.195 44.6685 107.53 46.1609 107.53 46.1609C107.53 46.1609 107.851 43.414 107.504 42.6836C107.424 42.506 107.309 42.3461 107.166 42.2133C107.023 42.0805 106.855 41.9774 106.672 41.9101C106.489 41.8427 106.294 41.8125 106.098 41.8212C105.903 41.8299 105.712 41.8772 105.535 41.9606C105.359 42.0439 105.2 42.1615 105.07 42.3065C104.94 42.4514 104.839 42.6209 104.775 42.8049C104.711 42.9889 104.685 43.1838 104.697 43.3782C104.71 43.5725 104.761 43.7624 104.848 43.9368Z" fill="#6C63FF"/>
<path opacity="0.1" d="M101.028 49.7447C101.583 50.3395 104.256 51.067 104.256 51.067C104.256 51.067 103.737 48.3505 103.186 47.7571C102.919 47.4833 102.555 47.3243 102.172 47.3141C101.789 47.304 101.417 47.4434 101.135 47.7026C100.854 47.9619 100.685 48.3205 100.665 48.702C100.645 49.0835 100.775 49.4576 101.028 49.7447Z" fill="#6C63FF"/>
<path opacity="0.1" d="M98.0934 55.8985C98.536 56.5762 101.049 57.745 101.049 57.745C101.049 57.745 100.999 54.9787 100.556 54.3023C100.454 54.1351 100.319 53.9902 100.159 53.8759C99.9998 53.7617 99.8189 53.6805 99.6273 53.6372C99.4357 53.5939 99.2373 53.5893 99.0439 53.6237C98.8505 53.6581 98.666 53.7309 98.5013 53.8376C98.3366 53.9444 98.195 54.083 98.0849 54.2452C97.9749 54.4074 97.8986 54.59 97.8606 54.7821C97.8225 54.9743 97.8235 55.1721 97.8635 55.3638C97.9035 55.5556 97.9817 55.7374 98.0934 55.8985Z" fill="#6C63FF"/>
<path opacity="0.1" d="M110.507 39.1192C110.229 39.8758 108.024 41.5605 108.024 41.5605C108.024 41.5605 107.469 38.8509 107.755 38.0943C107.891 37.7306 108.167 37.4357 108.522 37.2746C108.876 37.1135 109.28 37.0994 109.645 37.2353C110.01 37.3712 110.306 37.6461 110.467 37.9994C110.629 38.3527 110.643 38.7555 110.507 39.1192Z" fill="#6C63FF"/>
<path opacity="0.1" d="M111.213 44.1623C110.562 44.645 107.797 44.8663 107.797 44.8663C107.797 44.8663 108.81 42.2936 109.462 41.8109C109.616 41.69 109.794 41.6012 109.983 41.5498C110.172 41.4983 110.37 41.4852 110.565 41.5112C110.759 41.5372 110.947 41.6018 111.116 41.7012C111.285 41.8006 111.432 41.9327 111.549 42.0898C111.666 42.247 111.751 42.4259 111.797 42.616C111.844 42.8061 111.851 43.0036 111.82 43.1968C111.789 43.39 111.719 43.5749 111.615 43.7408C111.51 43.9066 111.374 44.0499 111.213 44.1623Z" fill="#6C63FF"/>
<path opacity="0.1" d="M108.421 51.2967C107.615 51.3852 105.116 50.1901 105.116 50.1901C105.116 50.1901 107.295 48.4792 108.101 48.392C108.294 48.3672 108.491 48.3811 108.679 48.4329C108.867 48.4848 109.043 48.5735 109.197 48.6939C109.35 48.8142 109.478 48.9639 109.573 49.1341C109.668 49.3043 109.727 49.4916 109.749 49.6851C109.77 49.8785 109.752 50.0743 109.697 50.2609C109.641 50.4476 109.549 50.6213 109.426 50.772C109.302 50.9227 109.15 51.0473 108.977 51.1386C108.805 51.2299 108.616 51.286 108.421 51.3036V51.2967Z" fill="#6C63FF"/>
<path opacity="0.1" d="M105.092 56.2208C104.313 56.4435 101.646 55.6827 101.646 55.6827C101.646 55.6827 103.504 53.6287 104.282 53.4046C104.655 53.3033 105.053 53.3525 105.39 53.5416C105.726 53.7306 105.975 54.0443 106.081 54.4146C106.188 54.785 106.143 55.1822 105.958 55.5202C105.773 55.8583 105.461 56.11 105.091 56.2208H105.092Z" fill="#6C63FF"/>
<path opacity="0.1" d="M104.848 43.9368C105.195 44.6685 107.53 46.1609 107.53 46.1609C107.53 46.1609 107.851 43.414 107.504 42.6836C107.424 42.506 107.309 42.3461 107.166 42.2133C107.023 42.0805 106.855 41.9774 106.672 41.9101C106.489 41.8427 106.294 41.8125 106.098 41.8212C105.903 41.8299 105.712 41.8772 105.535 41.9606C105.359 42.0439 105.2 42.1615 105.07 42.3065C104.94 42.4514 104.839 42.6209 104.775 42.8049C104.711 42.9889 104.685 43.1838 104.697 43.3782C104.71 43.5725 104.761 43.7624 104.848 43.9368Z" fill="#6C63FF"/>
<path opacity="0.1" d="M101.028 49.7447C101.583 50.3395 104.256 51.067 104.256 51.067C104.256 51.067 103.737 48.3505 103.186 47.7571C102.919 47.4833 102.555 47.3243 102.172 47.3141C101.789 47.304 101.417 47.4434 101.135 47.7026C100.854 47.9619 100.685 48.3205 100.665 48.702C100.645 49.0835 100.775 49.4576 101.028 49.7447Z" fill="#6C63FF"/>
<path opacity="0.1" d="M98.0934 55.8985C98.536 56.5762 101.049 57.745 101.049 57.745C101.049 57.745 100.999 54.9787 100.556 54.3023C100.454 54.1351 100.319 53.9902 100.159 53.8759C99.9998 53.7617 99.8189 53.6805 99.6273 53.6372C99.4357 53.5939 99.2373 53.5893 99.0439 53.6237C98.8505 53.6581 98.666 53.7309 98.5013 53.8376C98.3366 53.9444 98.195 54.083 98.0849 54.2452C97.9749 54.4074 97.8986 54.59 97.8606 54.7821C97.8225 54.9743 97.8235 55.1721 97.8635 55.3638C97.9035 55.5556 97.9817 55.7374 98.0934 55.8985Z" fill="#6C63FF"/>
</g>
<g opacity="0.1">
<path opacity="0.1" d="M26.807 70.1147C26.807 70.1147 20.8805 66.5932 19.2668 61.4644C18.6058 59.3072 17.2599 57.4223 15.4314 56.0935C14.5584 55.4684 13.6294 54.9248 12.6562 54.4697" fill="#6C63FF"/>
<path opacity="0.1" d="M11.6225 51.2386C12.1775 51.8319 12.6951 54.5485 12.6951 54.5485C12.6951 54.5485 10.0184 53.8223 9.46755 53.2289C9.21525 52.9421 9.08517 52.5684 9.105 52.1874C9.12483 51.8064 9.293 51.4482 9.57374 51.1889C9.85448 50.9296 10.2256 50.7897 10.6082 50.799C10.9909 50.8082 11.3547 50.966 11.6225 51.2386Z" fill="#6C63FF"/>
<path opacity="0.1" d="M16.4583 52.8887C16.597 53.6854 15.5535 56.247 15.5535 56.247C15.5535 56.247 13.7025 54.1875 13.5637 53.3908C13.5253 53.1991 13.5258 53.0018 13.5651 52.8103C13.6044 52.6189 13.6817 52.4372 13.7925 52.276C13.9033 52.1148 14.0454 51.9773 14.2103 51.8717C14.3752 51.766 14.5597 51.6943 14.7528 51.6608C14.946 51.6273 15.1439 51.6327 15.3349 51.6766C15.5259 51.7205 15.7062 51.8021 15.8651 51.9165C16.0241 52.0309 16.1584 52.1759 16.2603 52.3428C16.3621 52.5098 16.4294 52.6954 16.4583 52.8887Z" fill="#6C63FF"/>
<path opacity="0.1" d="M21.5979 58.5708C21.3204 59.3288 19.1155 61.0149 19.1155 61.0149C19.1155 61.0149 18.5605 58.3052 18.8449 57.5486C18.9083 57.3633 19.0083 57.1925 19.139 57.0463C19.2698 56.9001 19.4286 56.7816 19.6061 56.6977C19.7836 56.6137 19.9761 56.5662 20.1724 56.5577C20.3687 56.5492 20.5647 56.5801 20.7488 56.6485C20.9328 56.7168 21.1013 56.8213 21.2442 56.9557C21.3871 57.09 21.5015 57.2516 21.5807 57.4308C21.6599 57.61 21.7022 57.8033 21.7051 57.9991C21.7081 58.1949 21.6716 58.3893 21.5979 58.5708Z" fill="#6C63FF"/>
<path opacity="0.1" d="M24.5133 63.748C24.3634 64.5433 22.4818 66.5821 22.4818 66.5821C22.4818 66.5821 21.4758 64.0053 21.6271 63.2113C21.6629 63.0224 21.7357 62.8424 21.8413 62.6815C21.9469 62.5207 22.0832 62.3821 22.2425 62.2738C22.4019 62.1654 22.581 62.0894 22.7698 62.0501C22.9586 62.0108 23.1533 62.0089 23.3428 62.0446C23.5323 62.0803 23.7129 62.1529 23.8743 62.2581C24.0357 62.3634 24.1747 62.4993 24.2834 62.6581C24.3921 62.8169 24.4683 62.9955 24.5078 63.1837C24.5472 63.3719 24.5491 63.566 24.5133 63.7549V63.748Z" fill="#6C63FF"/>
<path opacity="0.1" d="M13.3972 58.4435C14.2076 58.4629 16.5956 57.0603 16.5956 57.0603C16.5956 57.0603 14.2783 55.5388 13.4666 55.5195C13.0819 55.518 12.7119 55.6669 12.4361 55.9343C12.1604 56.2017 12.0008 56.5663 11.9917 56.9497C11.9827 57.3331 12.1248 57.7047 12.3876 57.9848C12.6504 58.2649 13.0129 58.4311 13.3972 58.4477V58.4435Z" fill="#6C63FF"/>
<path opacity="0.1" d="M16.8842 64.4562C17.6641 64.2321 19.5207 62.1767 19.5207 62.1767C19.5207 62.1767 16.8537 61.4173 16.0739 61.6414C15.7077 61.7557 15.4008 62.0083 15.219 62.3451C15.0371 62.6819 14.9946 63.0763 15.1007 63.444C15.2067 63.8116 15.4528 64.1233 15.7863 64.3125C16.1199 64.5016 16.5144 64.5532 16.8856 64.4562H16.8842Z" fill="#6C63FF"/>
<path opacity="0.1" d="M21.0776 69.8353C21.8852 69.7468 24.0623 68.0372 24.0623 68.0372C24.0623 68.0372 21.5646 66.8394 20.7557 66.9307C20.5564 66.9416 20.3614 66.9929 20.1826 67.0815C20.0039 67.17 19.8451 67.294 19.7161 67.4458C19.587 67.5976 19.4904 67.7741 19.4321 67.9644C19.3738 68.1546 19.355 68.3548 19.3769 68.5526C19.3988 68.7503 19.461 68.9416 19.5596 69.1146C19.6582 69.2876 19.7911 69.4388 19.9503 69.5588C20.1095 69.6789 20.2915 69.7654 20.4854 69.8129C20.6792 69.8604 20.8807 69.8681 21.0776 69.8353Z" fill="#6C63FF"/>
<path opacity="0.1" d="M11.6225 51.2386C12.1775 51.8319 12.6951 54.5485 12.6951 54.5485C12.6951 54.5485 10.0184 53.8223 9.46755 53.2289C9.21525 52.9421 9.08517 52.5684 9.105 52.1874C9.12483 51.8064 9.293 51.4482 9.57374 51.1889C9.85448 50.9296 10.2256 50.7897 10.6082 50.799C10.9909 50.8082 11.3547 50.966 11.6225 51.2386Z" fill="#6C63FF"/>
<path opacity="0.1" d="M16.4583 52.8887C16.597 53.6854 15.5535 56.247 15.5535 56.247C15.5535 56.247 13.7025 54.1875 13.5637 53.3908C13.5253 53.1991 13.5258 53.0018 13.5651 52.8103C13.6044 52.6189 13.6817 52.4372 13.7925 52.276C13.9033 52.1148 14.0454 51.9773 14.2103 51.8717C14.3752 51.766 14.5597 51.6943 14.7528 51.6608C14.946 51.6273 15.1439 51.6327 15.3349 51.6766C15.5259 51.7205 15.7062 51.8021 15.8651 51.9165C16.0241 52.0309 16.1584 52.1759 16.2603 52.3428C16.3621 52.5098 16.4294 52.6954 16.4583 52.8887Z" fill="#6C63FF"/>
<path opacity="0.1" d="M21.5979 58.5708C21.3204 59.3288 19.1155 61.0149 19.1155 61.0149C19.1155 61.0149 18.5605 58.3052 18.8449 57.5486C18.9083 57.3633 19.0083 57.1925 19.139 57.0463C19.2698 56.9001 19.4286 56.7816 19.6061 56.6977C19.7836 56.6137 19.9761 56.5662 20.1724 56.5577C20.3687 56.5492 20.5647 56.5801 20.7488 56.6485C20.9328 56.7168 21.1013 56.8213 21.2442 56.9557C21.3871 57.09 21.5015 57.2516 21.5807 57.4308C21.6599 57.61 21.7022 57.8033 21.7051 57.9991C21.7081 58.1949 21.6716 58.3893 21.5979 58.5708Z" fill="#6C63FF"/>
<path opacity="0.1" d="M24.5133 63.748C24.3634 64.5433 22.4818 66.5821 22.4818 66.5821C22.4818 66.5821 21.4758 64.0053 21.6271 63.2113C21.6629 63.0224 21.7357 62.8424 21.8413 62.6815C21.9469 62.5207 22.0832 62.3821 22.2425 62.2738C22.4019 62.1654 22.581 62.0894 22.7698 62.0501C22.9586 62.0108 23.1533 62.0089 23.3428 62.0446C23.5323 62.0803 23.7129 62.1529 23.8743 62.2581C24.0357 62.3634 24.1747 62.4993 24.2834 62.6581C24.3921 62.8169 24.4683 62.9955 24.5078 63.1837C24.5472 63.3719 24.5491 63.566 24.5133 63.7549V63.748Z" fill="#6C63FF"/>
<path opacity="0.1" d="M13.3972 58.4435C14.2076 58.4629 16.5956 57.0603 16.5956 57.0603C16.5956 57.0603 14.2783 55.5388 13.4666 55.5195C13.0819 55.518 12.7119 55.6669 12.4361 55.9343C12.1604 56.2017 12.0008 56.5663 11.9917 56.9497C11.9827 57.3331 12.1248 57.7047 12.3876 57.9848C12.6504 58.2649 13.0129 58.4311 13.3972 58.4477V58.4435Z" fill="#6C63FF"/>
<path opacity="0.1" d="M16.8842 64.4562C17.6641 64.2321 19.5207 62.1767 19.5207 62.1767C19.5207 62.1767 16.8537 61.4173 16.0739 61.6414C15.7077 61.7557 15.4008 62.0083 15.219 62.3451C15.0371 62.6819 14.9946 63.0763 15.1007 63.444C15.2067 63.8116 15.4528 64.1233 15.7863 64.3125C16.1199 64.5016 16.5144 64.5532 16.8856 64.4562H16.8842Z" fill="#6C63FF"/>
<path opacity="0.1" d="M21.0776 69.8353C21.8852 69.7468 24.0623 68.0372 24.0623 68.0372C24.0623 68.0372 21.5646 66.8394 20.7557 66.9307C20.5564 66.9416 20.3614 66.9929 20.1826 67.0815C20.0039 67.17 19.8451 67.294 19.7161 67.4458C19.587 67.5976 19.4904 67.7741 19.4321 67.9644C19.3738 68.1546 19.355 68.3548 19.3769 68.5526C19.3988 68.7503 19.461 68.9416 19.5596 69.1146C19.6582 69.2876 19.7911 69.4388 19.9503 69.5588C20.1095 69.6789 20.2915 69.7654 20.4854 69.8129C20.6792 69.8604 20.8807 69.8681 21.0776 69.8353Z" fill="#6C63FF"/>
</g>
<path d="M84.4596 18.4648H40.0105C39.4758 18.4639 38.9462 18.568 38.452 18.7712C37.9577 18.9743 37.5084 19.2726 37.1298 19.6488C36.7511 20.0251 36.4506 20.472 36.2453 20.9641C36.0399 21.4562 35.9339 21.9838 35.9331 22.5167V83.9046C35.9354 84.9804 36.3662 86.0113 37.1308 86.7706C37.8954 87.5299 38.9312 87.9554 40.0105 87.9537H84.4596C84.9943 87.9545 85.5239 87.8504 86.0181 87.6473C86.5124 87.4441 86.9617 87.1459 87.3403 86.7696C87.7189 86.3933 88.0195 85.9464 88.2248 85.4543C88.4302 84.9622 88.5362 84.4346 88.537 83.9017V22.5167C88.5362 21.9838 88.4302 21.4562 88.2248 20.9641C88.0195 20.472 87.7189 20.0251 87.3403 19.6488C86.9617 19.2726 86.5124 18.9743 86.0181 18.7712C85.5239 18.568 84.9943 18.4639 84.4596 18.4648Z" fill="url(#paint0_linear)"/>
<path d="M85.9933 19.2972H38.4732C37.4165 19.2972 36.5598 20.1511 36.5598 21.2045V85.4256C36.5598 86.4789 37.4165 87.3328 38.4732 87.3328H85.9933C87.05 87.3328 87.9066 86.4789 87.9066 85.4256V21.2045C87.9066 20.1511 87.05 19.2972 85.9933 19.2972Z" fill="#535461"/>
<path d="M85.2977 25.7323H39.1686V80.8968H85.2977V25.7323Z" fill="#F6F7F9"/>
<path d="M62.0246 23.0422C62.3706 23.0422 62.6512 22.7625 62.6512 22.4175C62.6512 22.0726 62.3706 21.7929 62.0246 21.7929C61.6785 21.7929 61.3979 22.0726 61.3979 22.4175C61.3979 22.7625 61.6785 23.0422 62.0246 23.0422Z" fill="#F6F7F9"/>
<path d="M62.0245 85.8766C63.0622 85.8766 63.9035 85.0381 63.9035 84.0037C63.9035 82.9693 63.0622 82.1308 62.0245 82.1308C60.9868 82.1308 60.1456 82.9693 60.1456 84.0037C60.1456 85.0381 60.9868 85.8766 62.0245 85.8766Z" fill="#F6F7F9"/>
<g opacity="0.2">
<path opacity="0.2" d="M85.2977 25.7323H39.1686V28.4816H85.2977V25.7323Z" fill="#6C63FF"/>
</g>
<path d="M40.6113 27.694C40.9362 27.694 41.1997 27.4314 41.1997 27.1075C41.1997 26.7836 40.9362 26.521 40.6113 26.521C40.2864 26.521 40.0229 26.7836 40.0229 27.1075C40.0229 27.4314 40.2864 27.694 40.6113 27.694Z" fill="#F6F7F9"/>
<path d="M42.1103 27.694C42.4353 27.694 42.6987 27.4314 42.6987 27.1075C42.6987 26.7836 42.4353 26.521 42.1103 26.521C41.7854 26.521 41.522 26.7836 41.522 27.1075C41.522 27.4314 41.7854 27.694 42.1103 27.694Z" fill="#F6F7F9"/>
<path d="M43.6086 27.694C43.9336 27.694 44.197 27.4314 44.197 27.1075C44.197 26.7836 43.9336 26.521 43.6086 26.521C43.2837 26.521 43.0203 26.7836 43.0203 27.1075C43.0203 27.4314 43.2837 27.694 43.6086 27.694Z" fill="#F6F7F9"/>
<path d="M83.5019 41.9488H40.5461V42.0922H83.5019V41.9488Z" fill="#DCE0ED"/>
<path d="M83.5019 45.2703H40.5461V45.4137H83.5019V45.2703Z" fill="#DCE0ED"/>
<path d="M83.5019 48.5927H40.5461V48.7361H83.5019V48.5927Z" fill="#DCE0ED"/>
<path d="M83.5019 51.9142H40.5461V52.0576H83.5019V51.9142Z" fill="#DCE0ED"/>
<path d="M83.5019 55.2357H40.5461V55.3791H83.5019V55.2357Z" fill="#DCE0ED"/>
<g opacity="0.2">
<path opacity="0.2" d="M83.502 55.3787H40.4937V48.8464L44.438 50.7841L48.5202 51.3363L52.102 50.2596L56.4233 46.9191L58.5969 45.6679L60.1859 45.3627L61.7061 45.4438L64.2059 46.6749L67.6049 48.833L70.2722 49.1744L72.3864 48.4477L76.8694 44.7887L79.1578 43.9752L81.5523 44.3443L83.502 45.4667V55.3787Z" fill="#6C63FF"/>
</g>
<path d="M47.9902 51.3344C44.1166 51.3344 40.5376 48.9732 40.4927 48.9427L40.5998 48.7844C40.6553 48.8216 46.1639 52.4539 50.8449 50.6344C52.5516 49.9669 53.7666 48.9389 54.9423 47.9404C56.1697 46.8981 57.3283 45.914 58.9087 45.4867C60.7207 44.9975 62.701 45.44 64.2058 46.6731C65.4926 47.7268 68.0546 49.4185 70.761 48.9131C72.1405 48.6547 73.3029 47.6505 74.5341 46.5872C76.8942 44.5484 79.3357 42.4399 83.5585 45.4648L83.4465 45.6193C79.3462 42.6821 76.9641 44.741 74.6595 46.7312C73.4081 47.8117 72.2266 48.8292 70.7964 49.1C68.0125 49.6207 65.3969 47.8947 64.0843 46.8199C62.6273 45.6269 60.7121 45.1987 58.9585 45.6708C57.4201 46.0866 56.2798 47.0574 55.0657 48.0854C53.8785 49.0943 52.6511 50.1366 50.9147 50.8118C49.9811 51.1663 48.9892 51.3435 47.9902 51.3344Z" fill="#6C63FF"/>
<path d="M61.2161 46.4146C61.8042 46.4146 62.2809 45.9394 62.2809 45.3532C62.2809 44.767 61.8042 44.2918 61.2161 44.2918C60.6281 44.2918 60.1514 44.767 60.1514 45.3532C60.1514 45.9394 60.6281 46.4146 61.2161 46.4146Z" fill="#6C63FF"/>
<g opacity="0.2">
<path opacity="0.2" d="M75.1052 31.3082H61.6734C61.6156 31.3082 61.5601 31.3311 61.5192 31.3719C61.4783 31.4127 61.4553 31.468 61.4553 31.5256V40.5803C61.4554 40.6238 61.4685 40.6664 61.4931 40.7024C61.5177 40.7384 61.5525 40.7662 61.5931 40.7822C61.6338 40.7982 61.6783 40.8017 61.7209 40.7923C61.7635 40.7828 61.8023 40.7608 61.8323 40.7291L64.1599 38.2544C64.1802 38.2327 64.2048 38.2154 64.2321 38.2036C64.2594 38.1918 64.2889 38.1857 64.3187 38.1858H75.1052C75.163 38.1858 75.2185 38.1628 75.2594 38.1221C75.3003 38.0813 75.3233 38.026 75.3233 37.9683V31.5237C75.3228 31.4664 75.2996 31.4116 75.2588 31.3712C75.2179 31.3308 75.1627 31.3082 75.1052 31.3082Z" fill="#6C63FF"/>
</g>
<path d="M72.2131 32.9846H64.5645V33.9383H72.2131V32.9846Z" fill="#F6F7F9"/>
<path d="M66.6644 35.0979H64.5645V36.0515H66.6644V35.0979Z" fill="#F6F7F9"/>
<g opacity="0.2">
<path opacity="0.2" d="M46.2739 62.2029H44.174V63.1565H46.2739V62.2029Z" fill="#6C63FF"/>
</g>
<g opacity="0.2">
<path opacity="0.2" d="M46.2739 64.0462H44.174V64.9998H46.2739V64.0462Z" fill="#6C63FF"/>
</g>
<g opacity="0.2">
<path opacity="0.2" d="M46.2739 65.8896H44.174V66.8432H46.2739V65.8896Z" fill="#6C63FF"/>
</g>
<g opacity="0.2">
<path opacity="0.2" d="M46.2739 67.7339H44.174V68.6875H46.2739V67.7339Z" fill="#6C63FF"/>
</g>
<g opacity="0.2">
<path opacity="0.2" d="M46.2739 69.5773H44.174V70.5309H46.2739V69.5773Z" fill="#6C63FF"/>
</g>
<g opacity="0.2">
<path opacity="0.2" d="M46.2739 71.4206H44.174V72.3742H46.2739V71.4206Z" fill="#6C63FF"/>
</g>
<g opacity="0.2">
<path opacity="0.2" d="M46.2739 73.265H44.174V74.2186H46.2739V73.265Z" fill="#6C63FF"/>
</g>
<g opacity="0.2">
<path opacity="0.2" d="M46.2739 75.1083H44.174V76.0619H46.2739V75.1083Z" fill="#6C63FF"/>
</g>
<g opacity="0.2">
<path opacity="0.2" d="M50.2278 76.062H48.1279V77.0156H50.2278V76.062Z" fill="#6C63FF"/>
</g>
<g opacity="0.2">
<path opacity="0.2" d="M53.9273 76.062H51.8274V77.0156H53.9273V76.062Z" fill="#6C63FF"/>
</g>
<g opacity="0.2">
<path opacity="0.2" d="M57.6268 76.062H55.5269V77.0156H57.6268V76.062Z" fill="#6C63FF"/>
</g>
<g opacity="0.2">
<path opacity="0.2" d="M61.3253 76.062H59.2253V77.0156H61.3253V76.062Z" fill="#6C63FF"/>
</g>
<g opacity="0.2">
<path opacity="0.2" d="M65.0247 76.062H62.9248V77.0156H65.0247V76.062Z" fill="#6C63FF"/>
</g>
<g opacity="0.2">
<path opacity="0.2" d="M68.7242 76.062H66.6243V77.0156H68.7242V76.062Z" fill="#6C63FF"/>
</g>
<g opacity="0.2">
<path opacity="0.2" d="M72.4227 76.062H70.3228V77.0156H72.4227V76.062Z" fill="#6C63FF"/>
</g>
<g opacity="0.2">
<path opacity="0.2" d="M76.1221 76.062H74.0222V77.0156H76.1221V76.062Z" fill="#6C63FF"/>
</g>
<g opacity="0.2">
<path opacity="0.2" d="M79.8216 76.062H77.7217V77.0156H79.8216V76.062Z" fill="#6C63FF"/>
</g>
<path d="M72.2133 35.0979H69.0247V36.0515H72.2133V35.0979Z" fill="#F6F7F9"/>
<path d="M50.2278 69.1319H48.1279V75.1083H50.2278V69.1319Z" fill="#6C63FF"/>
<path d="M53.9273 66.3664H51.8274V75.1083H53.9273V66.3664Z" fill="#6C63FF"/>
<path d="M57.6268 64.0462H55.5269V75.1083H57.6268V64.0462Z" fill="#6C63FF"/>
<path d="M61.3253 65.2488H59.2253V75.1074H61.3253V65.2488Z" fill="#6C63FF"/>
<path d="M65.0247 63.1565H62.9248V75.1083H65.0247V63.1565Z" fill="#6C63FF"/>
<g opacity="0.2">
<path opacity="0.2" d="M68.7242 67.7339H66.6243V75.1083H68.7242V67.7339Z" fill="#6C63FF"/>
</g>
<g opacity="0.2">
<path opacity="0.2" d="M72.4227 67.7339H70.3228V75.1083H72.4227V67.7339Z" fill="#6C63FF"/>
</g>
<g opacity="0.2">
<path opacity="0.2" d="M76.1221 67.7339H74.0222V75.1083H76.1221V67.7339Z" fill="#6C63FF"/>
</g>
<g opacity="0.2">
<path opacity="0.2" d="M79.8217 67.7339H77.7218V75.1083H79.8217V67.7339Z" fill="#6C63FF"/>
</g>
<path d="M112.586 41.0495C110.312 39.7459 109.453 39.4226 109.448 39.4207L109.402 39.3873C109.154 39.1975 108.957 38.9495 108.828 38.6654C108.828 38.613 108.828 38.5615 108.828 38.51V38.5253C108.865 37.8348 109.357 37.2064 109.825 36.6581L111.02 35.2562C111.156 35.1178 111.261 34.952 111.328 34.7699C111.353 34.6724 111.364 34.5719 111.36 34.4714C111.36 34.4304 111.36 34.3894 111.36 34.3493C111.355 34.0013 111.344 33.6522 111.332 33.3003C111.32 32.9961 111.242 32.6128 110.937 32.5498C110.778 32.5174 110.568 32.5746 110.484 32.4383C110.456 32.3825 110.449 32.3186 110.464 32.258C110.464 32.2628 110.464 32.2676 110.464 32.2723V32.2552C110.523 32.0203 110.562 31.7806 110.578 31.539C110.584 31.4162 110.567 31.2933 110.528 31.1766C110.351 30.6712 109.743 30.4642 109.204 30.3689C108.666 30.2735 108.063 30.1915 107.725 29.7719C107.621 29.6422 107.55 29.4858 107.431 29.3685C107.276 29.2309 107.086 29.1374 106.881 29.0977C106.213 28.9331 105.509 28.9942 104.88 29.2713C104.62 29.3867 104.359 29.543 104.073 29.5259C103.788 29.5087 103.523 29.3037 103.231 29.2541C102.758 29.174 102.306 29.5202 102.073 29.9293C101.935 30.1726 101.861 30.4469 101.859 30.7265C101.859 30.7418 101.859 30.758 101.859 30.7732C101.852 31.0738 101.962 31.3653 102.166 31.5867C102.37 31.7974 102.674 31.9424 102.758 32.2199C102.792 32.3324 102.784 32.4545 102.814 32.5689C102.814 32.5832 102.823 32.5975 102.828 32.6109L102.813 32.6309C102.325 33.2541 102.061 34.0223 102.063 34.8128C102.068 35.5796 102.317 36.3249 102.775 36.9411C103.233 37.5572 103.876 38.0121 104.61 38.2401C104.61 38.2754 104.61 38.3116 104.61 38.3469C104.61 38.7799 104.487 39.2214 104.116 39.5466L100.895 40.8378C100.895 40.8378 98.9543 40.608 98.254 43.4364C98.1413 43.906 98.1007 44.3899 98.1335 44.8717C98.1593 45.2979 98.1 46.0494 97.6025 47.0211C96.8056 48.5755 96.9874 52.144 98.6156 52.4978C100.153 52.8316 100.755 52.6885 100.816 52.6761V52.7381C100.791 53.4057 100.547 59.1837 99.6603 59.8827C99.4154 60.0734 99.4613 60.2069 99.6603 60.2947C99.6603 60.2947 99.6603 60.3319 99.6546 60.3986C99.6278 60.8211 99.491 62.4298 98.8978 63.3453C98.21 64.4048 98.2817 70.5185 98.2817 70.5185L97.8197 74.1261C97.8197 74.1261 98.1067 76.3518 97.8197 76.7409C97.5614 77.0871 97.217 85.3236 97.15 87.1078H97.1194C96.9777 87.1163 96.8402 87.1592 96.719 87.2329C96.5977 87.3065 96.4964 87.4086 96.4239 87.5303C96.0412 88.1463 94.7114 89.284 94.7114 89.284C94.4244 89.6931 93.3539 90.0841 92.7885 90.2691C92.7127 90.2934 92.6396 90.3253 92.5704 90.3644C92.3592 90.4793 92.1895 90.6575 92.0854 90.8737C92.0485 90.9375 92.0249 91.008 92.0159 91.081C92.0068 91.1541 92.0126 91.2282 92.0327 91.299C92.1781 91.6518 95.1821 91.8988 95.9417 91.546C96.5396 91.2675 98.9074 90.9023 99.8899 90.7592C100.068 90.7366 100.234 90.6556 100.361 90.529C100.489 90.4023 100.57 90.2371 100.593 90.0593C100.602 89.9974 100.598 89.9344 100.581 89.874C100.565 89.8137 100.536 89.7574 100.497 89.7084C100.306 89.4757 100.21 88.8415 100.169 88.4276C100.249 88.3955 100.324 88.3515 100.39 88.297C100.31 87.0132 100.494 85.7266 100.933 84.5168C101.657 82.6096 101.874 79.0744 101.698 76.7781C101.698 76.7781 103.906 67.3086 105.643 66.4246C105.67 66.458 106.513 67.5375 106.62 70.8761C106.729 74.2682 107.96 76.4939 107.96 76.4939C107.96 76.4939 107.416 82.2538 107.96 84.409L107.249 87.8097C107.197 87.7649 107.164 87.7305 107.164 87.7305C107.164 87.7305 107.185 87.8259 107.214 87.9766L107.199 88.0481L107.23 88.0557C107.31 88.481 107.43 89.222 107.381 89.6569C107.352 89.9038 107.285 90.2433 107.235 90.5761C107.161 91.0997 107.14 91.607 107.416 91.7205C107.869 91.9017 110.529 92.1496 110.982 91.567C111.083 91.4481 111.149 91.3033 111.173 91.149C111.196 90.9946 111.176 90.8368 111.114 90.6934C111.081 90.6134 111.036 90.5385 110.982 90.4713C110.982 90.4713 110.276 89.3202 110.475 88.5087C110.493 88.4294 110.496 88.347 110.481 88.2668C110.467 88.1865 110.436 88.1101 110.39 88.0424C110.421 87.6437 110.582 85.8004 111 84.2345C111.452 82.5342 112.408 78.8065 111.705 76.3547C111.678 76.2593 111.647 76.164 111.615 76.0686C111.209 74.7304 111.074 73.3253 111.217 71.9346C110.956 70.7472 110.956 69.5174 111.217 68.3299C111.651 66.3512 111.955 64.4077 111.955 64.4077C111.955 64.4077 112.195 61.7938 111.985 60.1907L111.971 60.0877L112.086 60.062C112.086 60.062 111.471 57.3413 111.253 55.6104C111.202 55.2013 111.135 54.6835 111.062 54.1304C111.263 54.0985 111.46 54.0497 111.652 53.9845C113.6 53.3103 114.212 47.2338 114.212 47.2338V45.3075C114.212 45.3075 114.867 42.3569 112.586 41.0495ZM98.0254 87.9747C97.9651 87.9441 97.9297 87.9241 97.9297 87.9241L98.0254 87.9747Z" fill="url(#paint1_linear)"/>
<path d="M111.406 76.1201C112.254 78.55 111.265 82.4932 110.806 84.2536C110.346 86.014 110.205 88.1282 110.205 88.1282C108.403 88.4095 107.096 88.0567 107.096 88.0567L107.838 84.4329C107.308 82.2853 107.838 76.5454 107.838 76.5454C107.838 76.5454 106.637 74.3273 106.531 70.9467C106.427 67.6185 105.604 66.5438 105.574 66.5104C103.879 67.3906 101.724 76.8287 101.724 76.8287C101.901 79.1174 101.688 82.6382 100.982 84.5397C100.554 85.7475 100.374 87.0289 100.452 88.3075C100.206 88.5154 99.8621 88.5507 99.4909 88.4915C98.4854 88.3247 97.2791 87.4588 97.2791 87.4588C97.2791 87.4588 97.6617 77.1777 97.9487 76.7896C98.2357 76.4014 97.9487 74.1833 97.9487 74.1833L98.407 70.5919C98.407 70.5919 98.3371 64.4992 99.0078 63.4397C99.5875 62.5271 99.7205 60.9241 99.7463 60.5035C99.7463 60.4368 99.7521 60.3996 99.7521 60.3996L100.774 59.1789C100.774 59.1789 110.666 58.4399 111.407 59.1789C111.59 59.3611 111.702 59.773 111.769 60.2928C111.973 61.8901 111.739 64.4954 111.739 64.4954C111.739 64.4954 111.443 66.4322 111.019 68.4053C110.764 69.5889 110.764 70.813 111.019 71.9966C110.878 73.3832 111.01 74.7837 111.406 76.1201Z" fill="#65617D"/>
<path d="M110.788 91.5612C110.346 92.142 107.75 91.895 107.308 91.7147C107.038 91.6032 107.059 91.0978 107.132 90.5761C107.178 90.2443 107.246 89.9086 107.274 89.6597C107.344 89.0255 107.061 87.74 107.061 87.74C107.061 87.74 107.645 88.3561 107.785 87.74C107.848 87.4711 108.065 87.3328 108.29 87.2632C108.592 87.1725 108.918 87.1928 109.207 87.3204C109.665 87.5188 110.432 87.9422 110.294 88.5144C110.102 89.3231 110.788 90.4703 110.788 90.4703C110.842 90.5375 110.885 90.612 110.917 90.6915C110.977 90.8343 110.997 90.9909 110.975 91.1442C110.952 91.2976 110.888 91.4418 110.788 91.5612Z" fill="#A27772"/>
<path opacity="0.1" d="M110.788 91.5612C110.346 92.142 107.75 91.895 107.308 91.7147C107.038 91.6032 107.059 91.0977 107.132 90.5761C107.41 90.7058 107.885 90.8145 108.675 90.7411C108.86 90.7239 109.045 90.7182 109.231 90.7239C109.793 90.7497 110.356 90.7385 110.917 90.6905C110.977 90.8334 110.997 90.9902 110.975 91.1438C110.952 91.2973 110.888 91.4417 110.788 91.5612Z" fill="black"/>
<path opacity="0.1" d="M101.727 76.8249C101.904 79.1136 101.691 82.6343 100.985 84.5359C100.557 85.7437 100.377 87.025 100.455 88.3037C100.209 88.5116 99.8651 88.5468 99.4939 88.4877C99.7072 87.0001 100.615 80.6031 101.202 75.5479C101.86 69.7909 104.959 65.8295 104.959 65.8295L105.577 66.5076C103.88 67.3868 101.727 76.8249 101.727 76.8249Z" fill="black"/>
<path d="M109.728 39.8155L109.297 41.9278L107.185 45.4667L104.58 44.3576C104.58 44.3576 101.04 40.6604 103.264 40.1321C103.531 40.0754 103.782 39.9636 104.003 39.8041C104.44 39.476 104.577 38.9982 104.577 38.531C104.577 37.7595 104.215 37.0156 104.215 37.0156L108.772 35.5852C108.583 36.1821 108.474 36.8007 108.445 37.4257C108.41 38.6654 108.871 39.2719 109.249 39.5628C109.391 39.6778 109.553 39.7636 109.728 39.8155Z" fill="#FBBEBE"/>
<path opacity="0.1" d="M108.775 35.59C108.586 36.1869 108.476 36.8055 108.447 37.4305C108.365 37.529 108.276 37.6226 108.182 37.7109C107.712 38.159 107.129 38.4719 106.495 38.6163C105.86 38.7607 105.199 38.7312 104.58 38.531C104.58 37.7595 104.218 37.0157 104.218 37.0157L108.775 35.59Z" fill="black"/>
<path d="M109.297 35.0092C109.297 35.7197 109.085 36.4141 108.689 37.0046C108.293 37.5952 107.73 38.0553 107.071 38.3269C106.413 38.5985 105.688 38.6692 104.989 38.5302C104.29 38.3912 103.648 38.0487 103.145 37.5461C102.641 37.0434 102.299 36.4031 102.16 35.7062C102.021 35.0093 102.093 34.2872 102.367 33.6311C102.64 32.9749 103.102 32.4144 103.695 32.0203C104.288 31.6261 104.985 31.4162 105.698 31.4169C106.171 31.4154 106.641 31.5073 107.078 31.6874C107.516 31.8674 107.913 32.1321 108.248 32.466C108.583 32.7999 108.847 33.1966 109.028 33.6331C109.208 34.0696 109.299 34.5373 109.297 35.0092Z" fill="#FBBEBE"/>
<path opacity="0.1" d="M109.728 39.8155L109.297 41.9278L107.185 45.4667L104.58 44.3576C104.58 44.3576 101.04 40.6604 103.264 40.1321C103.531 40.0754 103.782 39.9636 104.003 39.8041C103.601 40.9055 105.26 43.1961 105.26 43.1961C105.451 43.4822 105.896 43.301 105.896 43.301C106.964 43.1408 108.931 40.0768 109.252 39.5676C109.393 39.6805 109.555 39.7647 109.728 39.8155Z" fill="black"/>
<path opacity="0.1" d="M111.768 60.2985C111.141 60.4406 107.671 61.2073 106.354 61.0156C104.907 60.8039 102.09 60.6637 102.09 60.6637C102.09 60.6637 100.297 60.7591 99.7455 60.5093C99.7455 60.4425 99.7512 60.4053 99.7512 60.4053L100.773 59.1847C100.773 59.1847 110.665 58.4456 111.406 59.1847C111.589 59.3649 111.701 59.7769 111.768 60.2985Z" fill="black"/>
<path d="M105.26 43.301C105.26 43.301 103.396 40.7262 104.098 39.7259L100.95 41.0123C100.95 41.0123 99.0548 40.7835 98.367 43.6024C98.2572 44.0708 98.2175 44.5528 98.2493 45.0328C98.2742 45.4581 98.2168 46.2067 97.7308 47.1747C96.953 48.7243 97.13 52.2804 98.72 52.6332C100.31 52.9861 100.874 52.8087 100.874 52.8087C100.874 52.8087 100.663 59.2533 99.7446 59.9924C98.8262 60.7314 102.086 60.556 102.086 60.556C102.086 60.556 104.902 60.6971 106.35 60.9079C107.799 61.1186 111.861 60.1688 111.861 60.1688C111.861 60.1688 111.26 57.4567 111.049 55.7316C110.837 54.0064 110.342 50.3321 110.342 50.3321L113.945 45.4686C113.945 45.4686 114.581 42.5286 112.355 41.2259C110.13 39.9233 109.294 39.6048 109.294 39.6048C109.294 39.6048 107.061 43.2286 105.896 43.4069C105.896 43.4069 105.453 43.5843 105.26 43.301Z" fill="#7C7CDD"/>
<path opacity="0.1" d="M101.127 44.3224C101.127 44.3224 101.092 45.4849 101.303 45.9436C101.514 46.4022 102.292 48.937 102.292 48.937H100.526C100.526 48.937 101.483 47.9157 101.409 47.4226C101.335 46.9296 101.127 44.3224 101.127 44.3224Z" fill="black"/>
<path d="M106.355 53.0909C106.355 53.0909 102.454 52.1373 102.09 51.3296C101.727 50.5219 100.723 48.7081 100.723 48.7081L101.135 48.155L103.033 49.6398C103.033 49.6398 105.293 51.4354 106.353 51.6119C107.413 51.7883 106.355 53.0909 106.355 53.0909Z" fill="#FBBEBE"/>
<path opacity="0.05" d="M106.355 53.0909C106.355 53.0909 102.454 52.1373 102.09 51.3296C101.727 50.5219 100.723 48.7081 100.723 48.7081L101.135 48.155L103.033 49.6398C103.033 49.6398 105.293 51.4354 106.353 51.6119C107.413 51.7883 106.355 53.0909 106.355 53.0909Z" fill="black"/>
<path d="M109.728 48.5135V50.623H109.388C107.707 50.6233 106.054 51.0499 104.584 51.8627L103.947 52.2155L103.776 52.3109L102.681 49.8524L103.705 48.9369H103.758C104.008 48.9608 105.092 49.0514 105.552 48.8969C105.988 48.7491 106.529 48.2808 107.814 48.6108C108.447 48.772 108.988 49.4796 109.602 49.2583L109.728 48.5135Z" fill="#FBBEBE"/>
<path opacity="0.1" d="M113.137 44.6752L113.844 45.4667V47.3864C113.844 47.3864 113.243 53.4428 111.336 54.1123C109.428 54.7817 106.023 53.7242 106.023 53.7242C106.023 53.7242 105.143 51.4002 105.554 51.26C105.966 51.1198 109.19 50.2701 109.19 50.2701C109.19 50.2701 109.145 46.7169 109.851 45.6603C109.851 45.6603 109.392 42.3512 110.982 42.2806C112.572 42.2101 113.137 44.6752 113.137 44.6752Z" fill="black"/>
<path d="M113.243 44.6752L113.95 45.4667V47.3864C113.95 47.3864 113.351 53.4428 111.438 54.1123C109.525 54.7817 106.125 53.7242 106.125 53.7242C106.125 53.7242 105.245 51.4002 105.657 51.26C106.068 51.1198 109.292 50.2701 109.292 50.2701C109.292 50.2701 109.246 46.7169 109.953 45.6603C109.953 45.6603 109.494 42.3512 111.084 42.2806C112.674 42.2101 113.243 44.6752 113.243 44.6752Z" fill="#7C7CDD"/>
<path opacity="0.1" d="M108.309 36.535C108.323 36.3033 108.328 36.0582 108.228 35.8494C108.129 35.6405 107.895 35.4736 107.668 35.527C107.365 35.5976 107.235 35.9896 106.939 36.084C106.689 36.1631 106.416 35.9886 106.298 35.754C106.179 35.5194 106.175 35.2486 106.174 34.9911C106.174 34.6974 106.174 34.4027 106.174 34.109C106.174 33.7886 106.164 33.4415 105.966 33.1916C105.72 32.8779 105.141 32.7415 104.755 32.7539C104.497 32.7569 104.25 32.8563 104.063 33.0324C103.856 33.2069 103.617 33.3366 103.335 33.2898C103.218 33.2721 103.108 33.2217 103.018 33.1444C102.928 33.0671 102.862 32.9661 102.828 32.8531V32.8416C103.128 32.4461 103.508 32.1168 103.942 31.8746C104.376 31.6325 104.856 31.4826 105.352 31.4346C105.847 31.3865 106.347 31.4413 106.82 31.5954C107.293 31.7496 107.729 31.9997 108.1 32.3301C108.471 32.6605 108.77 33.064 108.977 33.5152C109.184 33.9663 109.295 34.4553 109.303 34.9514C109.311 35.4474 109.216 35.9397 109.023 36.3973C108.831 36.8548 108.546 37.2676 108.185 37.6098C108.247 37.2541 108.288 36.8953 108.309 36.535Z" fill="black"/>
<path d="M103.333 33.1817C103.216 33.1638 103.106 33.1132 103.016 33.0357C102.926 32.9583 102.86 32.8571 102.826 32.7439C102.796 32.6305 102.804 32.5094 102.77 32.3959C102.688 32.1193 102.388 31.9753 102.196 31.7655C101.799 31.344 101.824 30.6517 102.107 30.1444C102.334 29.7362 102.776 29.3919 103.236 29.4711C103.523 29.5207 103.769 29.7238 104.059 29.7419C104.349 29.76 104.592 29.6037 104.846 29.4883C105.459 29.2118 106.147 29.1509 106.799 29.3157C106.999 29.3558 107.185 29.449 107.337 29.5855C107.439 29.7143 107.535 29.8483 107.624 29.987C107.954 30.4057 108.543 30.4877 109.068 30.5821C109.594 30.6765 110.187 30.8834 110.36 31.3869C110.474 31.7207 110.36 32.0831 110.298 32.4302C110.275 32.5009 110.28 32.5773 110.311 32.6448C110.393 32.7802 110.598 32.7239 110.753 32.7563C111.051 32.8183 111.128 33.2007 111.136 33.504C111.148 33.8511 111.158 34.1982 111.164 34.5454C111.182 34.7063 111.161 34.8692 111.104 35.0205C111.046 35.1719 110.953 35.3074 110.832 35.416L109.666 36.8131C109.149 37.4329 108.6 38.1548 108.704 38.954C108.459 39.0636 108.168 38.8519 108.088 38.5964C108.007 38.3408 108.072 38.0661 108.126 37.8039C108.22 37.3505 108.282 36.8909 108.311 36.4288C108.325 36.1961 108.33 35.952 108.23 35.7431C108.131 35.5343 107.897 35.3617 107.67 35.4198C107.367 35.4904 107.237 35.8823 106.941 35.9767C106.692 36.0559 106.418 35.8814 106.3 35.6468C106.181 35.4122 106.177 35.1414 106.176 34.8839V34.0008C106.176 33.6814 106.166 33.3333 105.968 33.0834C105.722 32.7697 105.143 32.6333 104.757 32.6457C104.499 32.6489 104.252 32.7483 104.065 32.9242C103.854 33.0987 103.615 33.2274 103.333 33.1817Z" fill="#7C5C5C"/>
<path opacity="0.1" d="M104.147 44.2346L105.253 48.7643C105.253 48.7643 106.125 48.7596 104.147 44.2346Z" fill="black"/>
<path opacity="0.1" d="M107.927 43.4774C107.927 43.4774 106.479 45.8424 107.044 48.2866L107.314 48.3066C107.314 48.3066 106.832 47.1746 107.927 43.4774Z" fill="black"/>
<path opacity="0.1" d="M108.845 56.8587C108.845 56.8587 110.624 56.2722 110.753 57.6331C110.753 57.6331 110.417 56.7004 108.845 56.8587Z" fill="black"/>
<path opacity="0.1" d="M103.705 49.0457C103.705 49.0457 103.352 51.5108 103.992 52.4969C103.992 52.4969 102.699 53.0252 100.883 52.9193L100.668 49.0457H103.705Z" fill="black"/>
<path opacity="0.1" d="M103.947 52.2146L103.776 52.3099L102.681 49.8515L103.705 48.936H103.758C103.741 49.0543 103.456 51.1713 103.947 52.2146Z" fill="black"/>
<path d="M103.705 48.936C103.705 48.936 103.352 51.4002 103.992 52.3862C103.992 52.3862 102.699 52.9145 100.883 52.8087L99.647 48.936H103.705Z" fill="#7C7CDD"/>
<path d="M100.65 90.0622C100.629 90.2378 100.551 90.4016 100.426 90.5278C100.302 90.654 100.139 90.7355 99.9636 90.7593C99.0069 90.9023 96.6937 91.2666 96.1101 91.5432C95.3687 91.895 92.4365 91.649 92.2949 91.2971C92.255 91.1549 92.2732 91.0026 92.3456 90.8737C92.4477 90.6585 92.615 90.4807 92.8239 90.3654C92.8914 90.3267 92.9625 90.2948 93.0363 90.2701C93.5883 90.086 94.6311 89.6979 94.9133 89.2878C94.9133 89.2878 96.2134 88.154 96.5837 87.5408C96.6535 87.4204 96.752 87.319 96.8705 87.2454C96.9889 87.1719 97.1237 87.1286 97.2629 87.1193C97.5729 87.105 97.9173 87.2604 98.0579 87.9365C98.0579 87.9365 99.7531 88.9007 100.211 88.0548C100.211 88.0548 100.282 89.3536 100.563 89.7084C100.601 89.7587 100.627 89.8159 100.642 89.8767C100.657 89.9374 100.659 90.0005 100.65 90.0622Z" fill="#A27772"/>
<path opacity="0.1" d="M100.65 90.0621C100.629 90.2377 100.551 90.4015 100.426 90.5277C100.302 90.654 100.139 90.7354 99.9636 90.7592C99.0069 90.9022 96.6937 91.2665 96.1101 91.5431C95.3687 91.895 92.4365 91.6489 92.2949 91.297C92.255 91.1548 92.2732 91.0025 92.3456 90.8736C92.4477 90.6584 92.615 90.4806 92.8239 90.3653C93.3023 90.6819 94.3632 90.9909 96.6975 90.6276C98.9237 90.2814 100.026 89.9419 100.563 89.7102C100.6 89.7603 100.627 89.8172 100.642 89.8776C100.657 89.938 100.659 90.0007 100.65 90.0621Z" fill="black"/>
<g opacity="0.1">
<path opacity="0.1" d="M110.29 32.4812V32.464C110.341 32.1999 110.416 31.9271 110.399 31.6639C110.376 31.88 110.34 32.0943 110.29 32.3057C110.277 32.3635 110.277 32.4235 110.29 32.4812Z" fill="black"/>
<path opacity="0.1" d="M108.227 35.7769C108.283 35.9039 108.313 36.0407 108.314 36.1793C108.331 35.9882 108.301 35.7959 108.227 35.6186C108.132 35.4078 107.895 35.2419 107.668 35.2953C107.365 35.3659 107.235 35.7578 106.939 35.8522C106.689 35.9314 106.416 35.7569 106.297 35.5223C106.177 35.2877 106.175 35.0169 106.174 34.7594C106.174 34.4647 106.174 34.171 106.174 33.8763C106.174 33.5569 106.164 33.2088 105.966 32.9589C105.72 32.6452 105.14 32.5088 104.755 32.5212C104.497 32.5242 104.25 32.6236 104.063 32.7997C103.855 32.9751 103.617 33.1039 103.335 33.0581C103.218 33.0402 103.108 32.9896 103.018 32.9122C102.928 32.8347 102.862 32.7336 102.828 32.6204C102.798 32.5069 102.806 32.3858 102.772 32.2723C102.689 31.9958 102.39 31.8518 102.198 31.642C102.012 31.4376 101.907 31.1731 101.901 30.8972C101.886 31.06 101.905 31.2241 101.956 31.3794C102.007 31.5347 102.09 31.6779 102.198 31.8003C102.397 32.0101 102.693 32.155 102.772 32.4316C102.806 32.5441 102.798 32.6652 102.828 32.7787C102.862 32.8919 102.928 32.993 103.018 33.0705C103.108 33.1479 103.218 33.1985 103.335 33.2164C103.622 33.2622 103.855 33.1334 104.063 32.958C104.25 32.7819 104.497 32.6825 104.755 32.6795C105.137 32.6671 105.72 32.8044 105.966 33.1172C106.164 33.369 106.173 33.7152 106.174 34.0346C106.174 34.3293 106.174 34.623 106.174 34.9177C106.174 35.179 106.174 35.4508 106.297 35.6806C106.419 35.9104 106.689 36.0897 106.939 36.0105C107.235 35.9152 107.365 35.5242 107.668 35.4536C107.898 35.4012 108.129 35.5661 108.227 35.7769Z" fill="black"/>
<path opacity="0.1" d="M111.131 34.8071C111.066 34.988 110.964 35.1531 110.83 35.2915C110.442 35.7575 110.053 36.2232 109.664 36.6886C109.173 37.277 108.653 37.9579 108.691 38.7084C108.727 38.0198 109.208 37.3933 109.664 36.8469L110.83 35.4508C110.964 35.3119 111.066 35.1465 111.131 34.9654C111.16 34.8404 111.17 34.7119 111.161 34.5839C111.16 34.6593 111.15 34.7342 111.131 34.8071Z" fill="black"/>
<path opacity="0.1" d="M108.09 38.4719C108.071 38.4099 108.059 38.3458 108.055 38.2812C108.045 38.398 108.057 38.5157 108.09 38.6283C108.17 38.8839 108.462 39.0946 108.707 38.9849C108.7 38.9334 108.696 38.8819 108.694 38.8304C108.447 38.9315 108.164 38.7236 108.09 38.4719Z" fill="black"/>
</g>
<path opacity="0.1" d="M96.3474 87.8583C96.3474 87.8583 96.7167 88.5075 98.0541 87.9358L96.3474 87.8583Z" fill="black"/>
<path opacity="0.1" d="M107.659 88.0175C107.659 88.0175 108.813 89.3717 110.267 88.461L107.659 88.0175Z" fill="black"/>
<path opacity="0.1" d="M111.018 71.9995C111.018 71.9995 110.202 72.5077 110.176 72.7986C110.15 73.0894 110.597 72.5869 110.597 72.5869L111.018 71.9995Z" fill="black"/>
<path opacity="0.1" d="M111.342 75.8931C111.059 76.1284 110.706 76.2656 110.338 76.2841C109.728 76.3108 109.779 77.1033 110.177 76.8649C110.575 76.6265 111.342 75.8931 111.342 75.8931Z" fill="black"/>
<path opacity="0.1" d="M111.494 76.4014C111.494 76.4014 111.103 78.3182 110.786 77.9482L111.494 76.4014Z" fill="black"/>
<defs>
<linearGradient id="paint0_linear" x1="62.2331" y1="87.9565" x2="62.2331" y2="18.4648" gradientUnits="userSpaceOnUse">
<stop stop-color="#808080" stop-opacity="0.25"/>
<stop offset="0.54" stop-color="#808080" stop-opacity="0.12"/>
<stop offset="1" stop-color="#808080" stop-opacity="0.1"/>
</linearGradient>
<linearGradient id="paint1_linear" x1="21273.9" y1="52736.7" x2="21273.9" y2="11223.8" gradientUnits="userSpaceOnUse">
<stop stop-color="#808080" stop-opacity="0.25"/>
<stop offset="0.54" stop-color="#808080" stop-opacity="0.12"/>
<stop offset="1" stop-color="#808080" stop-opacity="0.1"/>
</linearGradient>
</defs>
</svg>
