<svg width="149" height="97" viewBox="0 0 149 97" fill="none" xmlns="http://www.w3.org/2000/svg">
<path opacity="0.1" d="M86.5877 15.9932C77.0389 15.6707 67.9443 12.6706 59.2592 9.3891C50.574 6.1076 41.972 2.47148 32.6503 0.733074C26.6564 -0.38603 19.8001 -0.544066 14.9696 2.58326C10.3213 5.59238 8.81984 10.787 8.01167 15.6078C7.40422 19.2349 7.04768 23.0509 8.71156 26.4468C9.86703 28.8032 11.9191 30.7844 13.3334 33.0419C18.2709 40.8988 14.786 50.5852 9.42993 58.2571C6.9209 61.8546 4.00779 65.2878 2.07188 69.1179C0.135973 72.948 -0.756711 77.3371 0.945464 81.2507C2.62519 85.1233 6.62378 88.0322 10.9644 90.0789C19.7645 94.2277 30.1426 95.4175 40.2619 96.0908C62.6635 97.5812 85.1853 96.9362 107.646 96.2899C115.958 96.0496 124.308 95.8081 132.484 94.5566C137.026 93.8628 141.714 92.7579 145.011 90.0995C149.196 86.7216 150.234 81.0015 147.429 76.7653C142.725 69.6601 129.719 67.8999 126.432 60.2704C124.622 56.0741 126.481 51.3985 129.112 47.5067C134.753 39.1552 144.209 31.8316 144.707 22.2864C145.051 15.7337 140.504 9.16554 133.475 6.06391C126.106 2.81325 115.89 3.22183 110.454 8.60406C104.856 14.1456 95.0194 16.2772 86.5877 15.9932Z" fill="#6C63FF"/>
<path opacity="0.1" d="M136.425 55.9187C137.539 55.9187 138.441 55.0403 138.441 53.9567C138.441 52.8732 137.539 51.9948 136.425 51.9948C135.311 51.9948 134.408 52.8732 134.408 53.9567C134.408 55.0403 135.311 55.9187 136.425 55.9187Z" fill="#6C63FF"/>
<path opacity="0.1" d="M143.639 48.4961C145.506 48.4961 147.02 47.0234 147.02 45.2068C147.02 43.3903 145.506 41.9176 143.639 41.9176C141.772 41.9176 140.258 43.3903 140.258 45.2068C140.258 47.0234 141.772 48.4961 143.639 48.4961Z" fill="#6C63FF"/>
<path opacity="0.1" d="M139.164 64.4565C141.031 64.4565 142.544 62.9839 142.544 61.1673C142.544 59.3507 141.031 57.8781 139.164 57.8781C137.297 57.8781 135.783 59.3507 135.783 61.1673C135.783 62.9839 137.297 64.4565 139.164 64.4565Z" fill="#6C63FF"/>
<path opacity="0.1" d="M4.78695 49.0576C7.43072 49.0576 9.57391 46.9723 9.57391 44.4C9.57391 41.8277 7.43072 39.7424 4.78695 39.7424C2.14319 39.7424 0 41.8277 0 44.4C0 46.9723 2.14319 49.0576 4.78695 49.0576Z" fill="#6C63FF"/>
<path d="M111.472 77.4155C111.032 77.277 110.567 77.2288 110.106 77.2741C109.546 77.3332 109.625 78.1636 110.188 78.1245C110.469 78.1034 110.748 78.0535 111.018 77.9758L111.472 77.4155Z" fill="#6C63FF"/>
<path d="M111.642 77.4229C111.844 77.8278 111.958 78.2694 111.976 78.7195C111.994 79.2681 111.138 79.3072 111.099 78.7596C111.082 78.4855 111.094 78.2104 111.136 77.9388L111.642 77.4229Z" fill="#6C63FF"/>
<path d="M112.917 75.6462C112.917 75.6462 112.643 74.8085 110.965 75.1334C110.206 75.2801 110.227 76.3393 110.987 76.4512H111.019C112.127 76.601 112.511 76.1737 112.917 75.6462Z" fill="#6C63FF"/>
<path d="M113.092 75.5966C113.092 75.5966 113.993 75.6652 114.049 77.3269C114.075 78.0749 113.011 78.3018 112.726 77.6075C112.726 77.597 112.719 77.5875 112.714 77.5769C112.316 76.563 112.656 76.1009 113.092 75.5966Z" fill="#6C63FF"/>
<path d="M114.295 73.4548C114.232 73.1508 114.086 72.8687 113.874 72.6376C113.661 72.4065 113.389 72.2348 113.085 72.1402C111.95 71.7921 111.35 73.4443 112.46 73.8642C112.919 74.0273 113.407 74.0963 113.895 74.0668L114.295 73.4548Z" fill="#6C63FF"/>
<path d="M115.68 70.6959C115.68 70.6959 115.221 69.6408 114.032 69.4298C112.771 69.2051 112.389 71.0483 113.635 71.3426C114.194 71.4608 114.772 71.4655 115.333 71.3563L115.68 70.6959Z" fill="#6C63FF"/>
<path d="M116.516 67.9791C116.322 67.6822 116.068 67.4263 115.77 67.2269C115.472 67.0275 115.136 66.8886 114.781 66.8186C113.697 66.6202 113.331 68.1996 114.396 68.4697C115.065 68.6288 115.764 68.6194 116.428 68.4423L116.516 67.9791Z" fill="#6C63FF"/>
<path d="M117.304 65.3309C116.958 64.776 116.42 64.3596 115.786 64.1567C114.702 63.8328 114.166 65.4322 115.244 65.7804C115.883 65.9867 116.574 65.9841 117.211 65.773L117.304 65.3309Z" fill="#6C63FF"/>
<path d="M117.636 62.9181C117.636 62.9181 117.202 61.9284 116.319 61.4051C115.334 60.8217 114.396 62.2492 115.343 62.8917C115.926 63.2894 116.673 63.5638 117.546 63.3802L117.636 62.9181Z" fill="#6C63FF"/>
<path d="M117.8 60.0557C117.8 60.0557 117.322 59.0566 116.404 58.5786C115.379 58.0511 114.486 59.5092 115.452 60.138C116.084 60.5484 116.874 60.8143 117.712 60.4935L117.8 60.0557Z" fill="#6C63FF"/>
<path d="M117.698 57.4456C117.34 56.9053 116.902 56.42 116.397 56.0054C115.679 55.4347 114.77 56.4623 115.45 57.0721C116.078 57.6323 116.86 58.1029 117.668 58.0649L117.698 57.4456Z" fill="#6C63FF"/>
<path d="M117.426 54.9409C117.016 54.2681 116.522 53.6472 115.955 53.0924C115.394 52.5649 114.563 53.3689 115.088 53.9249C115.694 54.5579 116.512 55.2141 117.494 55.5011L117.426 54.9409Z" fill="#6C63FF"/>
<path d="M116.9 51.9952C116.562 51.4839 116.168 51.0096 115.726 50.5804C115.16 50.0413 114.306 50.8526 114.849 51.4128C115.426 52.0089 116.172 52.5671 117.047 52.757L116.9 51.9952Z" fill="#6C63FF"/>
<path d="M116.44 49.2468C116.093 48.7891 115.715 48.3531 115.311 47.9417C114.858 47.487 114.134 48.1264 114.561 48.6054C115.063 49.1687 115.707 49.6678 116.448 49.748L116.44 49.2468Z" fill="#6C63FF"/>
<path d="M115.963 46.6979C115.646 46.0941 115.284 45.514 114.879 44.9623C114.539 44.5108 113.832 44.994 114.152 45.4582C114.571 46.067 115.152 46.6694 115.915 46.9595L115.963 46.6979Z" fill="#6C63FF"/>
<path d="M115.569 43.3101C115.569 43.3101 115.302 42.868 114.919 42.3542C114.565 41.8805 113.819 42.37 114.147 42.8606C114.515 43.4103 114.977 43.8787 115.515 43.9716L115.569 43.3101Z" fill="#6C63FF"/>
<path d="M115.382 41.0649L115.042 39.4138C114.952 38.977 114.283 39.0815 114.338 39.5193C114.459 40.4013 114.771 41.2886 115.451 41.871L115.382 41.0649Z" fill="#6C63FF"/>
<path d="M115.584 36.3721C115.552 36.2991 115.494 36.24 115.42 36.2058C115.347 36.1716 115.263 36.1648 115.185 36.1866C115.107 36.2084 115.039 36.2574 114.996 36.3242C114.952 36.3911 114.935 36.4712 114.948 36.5494C115.024 37.008 115.138 37.4597 115.291 37.8998L115.584 36.3721Z" fill="#6C63FF"/>
<path d="M114.371 73.4221C114.674 73.3248 114.998 73.3079 115.31 73.3732C115.622 73.4385 115.91 73.5835 116.145 73.7934C117.013 74.5816 115.839 75.9035 114.914 75.1766C114.542 74.869 114.238 74.4902 114.022 74.0635L114.371 73.4221Z" fill="#6C63FF"/>
<path d="M115.757 70.5957C115.757 70.5957 116.898 70.3277 117.78 71.1316C118.716 71.9841 117.423 73.3799 116.437 72.5813C116.006 72.2146 115.658 71.7652 115.414 71.2614L115.757 70.5957Z" fill="#6C63FF"/>
<path d="M116.591 68.1649C116.886 67.9595 117.22 67.8142 117.574 67.7377C117.928 67.6612 118.295 67.655 118.651 67.7197C119.735 67.9307 119.465 69.5269 118.374 69.3908C117.692 69.2947 117.048 69.0314 116.5 68.6259L116.591 68.1649Z" fill="#6C63FF"/>
<path d="M117.359 65.3457C117.892 64.9565 118.55 64.7653 119.215 64.8066C120.349 64.9026 120.228 66.5791 119.092 66.5095C118.42 66.4688 117.78 66.2149 117.271 65.7868L117.359 65.3457Z" fill="#6C63FF"/>
<path d="M117.622 62.9867C117.622 62.9867 118.224 62.0835 119.185 61.7143C120.251 61.3039 120.935 62.8579 119.899 63.3359C119.249 63.6345 118.465 63.7853 117.632 63.4572L117.622 62.9867Z" fill="#6C63FF"/>
<path d="M117.66 60.0125C117.66 60.0125 118.268 59.084 119.241 58.7296C120.325 58.3339 121.018 59.8954 119.976 60.3965C119.294 60.7236 118.475 60.8861 117.688 60.4619L117.66 60.0125Z" fill="#6C63FF"/>
<path d="M117.456 57.4182C117.687 56.816 118.008 56.2506 118.41 55.7406C118.985 55.0327 120.103 55.8461 119.57 56.5847C119.079 57.2631 118.425 57.8845 117.618 58.0164L117.456 57.4182Z" fill="#6C63FF"/>
<path d="M117.373 54.9367C117.572 54.1774 117.868 53.4452 118.253 52.757C118.642 52.1007 119.669 52.6441 119.32 53.3214C118.921 54.0969 118.323 54.9462 117.462 55.4895L117.373 54.9367Z" fill="#6C63FF"/>
<path d="M116.744 51.8581C116.978 51.2729 117.278 50.7148 117.639 50.1943C118.086 49.5612 119.076 50.1816 118.667 50.8357C118.223 51.5489 117.596 52.2664 116.756 52.6293L116.744 51.8581Z" fill="#6C63FF"/>
<path d="M116.243 49.2321C116.364 48.6755 116.521 48.1268 116.712 47.5894C116.929 46.9912 117.863 47.2803 117.678 47.889C117.462 48.6043 117.09 49.3186 116.451 49.691L116.243 49.2321Z" fill="#6C63FF"/>
<path d="M115.895 46.6482C116.062 45.9895 116.28 45.3438 116.545 44.7164C116.771 44.2016 117.573 44.5149 117.369 45.0382C117.105 45.724 116.68 46.4393 116.005 46.8909L115.895 46.6482Z" fill="#6C63FF"/>
<path d="M115.373 43.5422C115.373 43.5422 115.475 43.0389 115.661 42.4302C115.832 41.8689 116.704 42.0894 116.562 42.6581C116.403 43.2911 116.128 43.8872 115.651 44.1488L115.373 43.5422Z" fill="#6C63FF"/>
<path d="M115.495 40.9531L116.084 39.3706C116.241 38.9486 116.891 39.1532 116.764 39.5816C116.51 40.4362 116.067 41.2697 115.303 41.7444L115.495 40.9531Z" fill="#6C63FF"/>
<path d="M116.23 36.5377C116.23 36.5377 116.322 36.466 116.463 36.3531C116.75 36.121 117.125 36.5261 116.854 36.7751C116.382 37.1925 115.84 37.5273 115.251 37.7648L116.23 36.5377Z" fill="#6C63FF"/>
<path d="M116.191 35.6209C116.543 34.9205 116.936 34.24 117.367 33.5825C117.392 33.5372 117.399 33.4847 117.387 33.4347C117.374 33.3848 117.344 33.3409 117.301 33.3113C117.258 33.2817 117.205 33.2684 117.153 33.2738C117.1 33.2793 117.052 33.3031 117.016 33.3409C116.669 33.803 116.328 34.4793 116.07 35.4732L116.191 35.6209Z" fill="#6C63FF"/>
<path d="M115.518 43.998L115.644 43.9853C115.102 39.0677 115.331 36.0355 116.279 35.4479L116.21 35.3424C115.206 35.968 114.968 38.9601 115.518 43.998Z" fill="#444053"/>
<path d="M117.384 55.6246L117.571 55.5972C117.501 55.1424 117.419 54.6803 117.328 54.2256C116.539 50.2344 115.925 46.5449 115.618 43.7427L115.481 43.6372C115.788 46.4447 116.348 50.2618 117.143 54.2583C117.232 54.7099 117.313 55.1709 117.384 55.6246Z" fill="#444053"/>
<path d="M108.6 80.4793C108.628 80.4571 111.517 78.3069 114.053 74.1828C115.54 71.7693 116.623 69.1415 117.263 66.3976C118.064 62.9676 118.087 58.9732 117.509 55.2321L117.34 55.3639C118.641 63.76 116.159 70.2791 113.843 74.0477C111.332 78.1339 108.477 80.2619 108.447 80.283L108.6 80.4793Z" fill="#444053"/>
<path d="M34.6324 80.4603C38.6179 80.4603 41.8487 79.8557 41.8487 79.1099C41.8487 78.364 38.6179 77.7594 34.6324 77.7594C30.6469 77.7594 27.416 78.364 27.416 79.1099C27.416 79.8557 30.6469 80.4603 34.6324 80.4603Z" fill="#6C63FF"/>
<path d="M34.5109 79.6057C34.975 79.6057 35.3513 79.1267 35.3513 78.5359C35.3513 77.945 34.975 77.4661 34.5109 77.4661C34.0468 77.4661 33.6705 77.945 33.6705 78.5359C33.6705 79.1267 34.0468 79.6057 34.5109 79.6057Z" fill="#3F3D56"/>
<path d="M34.5109 78.2974C34.975 78.2974 35.3513 77.8184 35.3513 77.2276C35.3513 76.6367 34.975 76.1578 34.5109 76.1578C34.0468 76.1578 33.6705 76.6367 33.6705 77.2276C33.6705 77.8184 34.0468 78.2974 34.5109 78.2974Z" fill="#3F3D56"/>
<path d="M34.5109 76.9902C34.975 76.9902 35.3513 76.5112 35.3513 75.9204C35.3513 75.3296 34.975 74.8506 34.5109 74.8506C34.0468 74.8506 33.6705 75.3296 33.6705 75.9204C33.6705 76.5112 34.0468 76.9902 34.5109 76.9902Z" fill="#3F3D56"/>
<path d="M34.5109 75.682C34.975 75.682 35.3513 75.203 35.3513 74.6122C35.3513 74.0213 34.975 73.5424 34.5109 73.5424C34.0468 73.5424 33.6705 74.0213 33.6705 74.6122C33.6705 75.203 34.0468 75.682 34.5109 75.682Z" fill="#3F3D56"/>
<path d="M34.5109 74.3737C34.975 74.3737 35.3513 73.8947 35.3513 73.3039C35.3513 72.713 34.975 72.2341 34.5109 72.2341C34.0468 72.2341 33.6705 72.713 33.6705 73.3039C33.6705 73.8947 34.0468 74.3737 34.5109 74.3737Z" fill="#3F3D56"/>
<path d="M34.5109 73.0665C34.975 73.0665 35.3513 72.5875 35.3513 71.9967C35.3513 71.4059 34.975 70.9269 34.5109 70.9269C34.0468 70.9269 33.6705 71.4059 33.6705 71.9967C33.6705 72.5875 34.0468 73.0665 34.5109 73.0665Z" fill="#3F3D56"/>
<path d="M34.5109 71.7583C34.975 71.7583 35.3513 71.2793 35.3513 70.6885C35.3513 70.0976 34.975 69.6187 34.5109 69.6187C34.0468 69.6187 33.6705 70.0976 33.6705 70.6885C33.6705 71.2793 34.0468 71.7583 34.5109 71.7583Z" fill="#3F3D56"/>
<path d="M37.6555 61.7375C37.7707 61.5954 37.8754 61.4456 37.9689 61.2891L35.7612 60.9367L38.1467 60.9536C38.3759 60.4689 38.501 59.9438 38.5142 59.4104C38.5274 58.8771 38.4286 58.3467 38.2237 57.8518L35.0205 59.4681L37.9743 57.358C37.6981 56.8916 37.3261 56.4856 36.8814 56.1653C36.4367 55.845 35.929 55.6174 35.3899 55.4966C34.8507 55.3758 34.2918 55.3645 33.7479 55.4632C33.2041 55.562 32.687 55.7688 32.229 56.0708C31.7709 56.3727 31.3818 56.7632 31.0858 57.218C30.7899 57.6728 30.5935 58.1821 30.5088 58.7141C30.4242 59.246 30.4532 59.7892 30.594 60.3098C30.7348 60.8304 30.9844 61.3171 31.3272 61.7396C31.1487 61.9612 30.9949 62.2006 30.8686 62.4539L33.7345 63.9025L30.681 62.9044C30.4666 63.5216 30.4139 64.181 30.5275 64.823C30.6411 65.465 30.9175 66.0693 31.3316 66.5812C30.8644 67.1589 30.5737 67.8528 30.4927 68.5836C30.4117 69.3144 30.5438 70.0526 30.8738 70.7138C31.2037 71.3751 31.7183 71.9326 32.3586 72.3227C32.9989 72.7127 33.7392 72.9196 34.4946 72.9196C35.2501 72.9196 35.9903 72.7127 36.6306 72.3227C37.2709 71.9326 37.7855 71.3751 38.1155 70.7138C38.4455 70.0526 38.5775 69.3144 38.4966 68.5836C38.4156 67.8528 38.1249 67.1589 37.6577 66.5812C38.216 65.8913 38.5196 65.0386 38.5196 64.1604C38.5196 63.2823 38.216 62.4296 37.6577 61.7396L37.6555 61.7375Z" fill="#6C63FF"/>
<path opacity="0.1" d="M30.4685 64.1589C30.4676 65.0369 30.7709 65.8896 31.3295 66.5792C30.8623 67.1568 30.5715 67.8507 30.4906 68.5815C30.4096 69.3123 30.5417 70.0505 30.8717 70.7118C31.2016 71.373 31.7162 71.9305 32.3565 72.3206C32.9968 72.7106 33.7371 72.9175 34.4925 72.9175C35.248 72.9175 35.9882 72.7106 36.6285 72.3206C37.2688 71.9305 37.7834 71.373 38.1134 70.7118C38.4434 70.0505 38.5754 69.3123 38.4945 68.5815C38.4135 67.8507 38.1228 67.1568 37.6556 66.5792C38.1956 65.9134 30.4685 63.7189 30.4685 64.1589Z" fill="black"/>
<path d="M38.7474 33.0329V79.6352C38.7474 79.8489 38.7907 80.0604 38.8747 80.2578C38.9587 80.4552 39.0819 80.6345 39.2372 80.7856C39.3924 80.9367 39.5768 81.0565 39.7796 81.1383C39.9825 81.22 40.1999 81.2621 40.4195 81.2621H109.153C109.597 81.2621 110.022 81.0907 110.336 80.7856C110.649 80.4805 110.825 80.0667 110.825 79.6352V33.0329H38.7474Z" fill="white"/>
<path opacity="0.1" d="M60.7435 37.2046H45.3891C44.8711 37.2046 44.4511 37.6131 44.4511 38.1172V46.1323C44.4511 46.6364 44.8711 47.045 45.3891 47.045H60.7435C61.2615 47.045 61.6814 46.6364 61.6814 46.1323V38.1172C61.6814 37.6131 61.2615 37.2046 60.7435 37.2046Z" fill="black"/>
<path opacity="0.1" d="M82.4641 37.2046H67.1097C66.5917 37.2046 66.1718 37.6131 66.1718 38.1172V46.1323C66.1718 46.6364 66.5917 47.045 67.1097 47.045H82.4641C82.9821 47.045 83.4021 46.6364 83.4021 46.1323V38.1172C83.4021 37.6131 82.9821 37.2046 82.4641 37.2046Z" fill="black"/>
<path d="M38.7499 24.8236V33.2903H110.828V24.8236C110.828 24.6098 110.785 24.3982 110.701 24.2007C110.617 24.0032 110.494 23.8237 110.338 23.6725C110.183 23.5213 109.999 23.4014 109.796 23.3196C109.593 23.2378 109.375 23.1956 109.156 23.1956H40.422C40.2023 23.1956 39.9848 23.2378 39.7819 23.3196C39.579 23.4014 39.3946 23.5213 39.2393 23.6725C39.084 23.8237 38.9609 24.0032 38.8769 24.2007C38.7929 24.3982 38.7498 24.6098 38.7499 24.8236ZM56.5875 27.3283C56.3235 27.3283 56.0654 27.2521 55.8459 27.1094C55.6264 26.9667 55.4553 26.7638 55.3543 26.5265C55.2533 26.2892 55.2268 26.0281 55.2783 25.7761C55.3298 25.5242 55.457 25.2928 55.6436 25.1111C55.8303 24.9295 56.0682 24.8058 56.3271 24.7557C56.586 24.7056 56.8544 24.7313 57.0983 24.8296C57.3422 24.9279 57.5507 25.0944 57.6974 25.3079C57.8441 25.5215 57.9223 25.7726 57.9223 26.0295C57.9223 26.374 57.7817 26.7043 57.5314 26.9479C57.2811 27.1914 56.9415 27.3283 56.5875 27.3283ZM92.9903 27.3283C92.7263 27.3283 92.4682 27.2521 92.2487 27.1094C92.0291 26.9667 91.8581 26.7638 91.757 26.5265C91.656 26.2892 91.6296 26.0281 91.6811 25.7761C91.7326 25.5242 91.8597 25.2928 92.0464 25.1111C92.2331 24.9295 92.4709 24.8058 92.7298 24.7557C92.9888 24.7056 93.2572 24.7313 93.5011 24.8296C93.745 24.9279 93.9535 25.0944 94.1001 25.3079C94.2468 25.5215 94.3251 25.7726 94.3251 26.0295C94.3251 26.2002 94.2905 26.3693 94.2233 26.527C94.1561 26.6847 94.0575 26.828 93.9334 26.9486C93.8092 27.0692 93.6618 27.1649 93.4996 27.23C93.3374 27.2951 93.1636 27.3285 92.9881 27.3283H92.9903Z" fill="#6C63FF"/>
<path opacity="0.1" d="M56.585 24.4733C56.2729 24.4731 55.9677 24.5629 55.7081 24.7315C55.4485 24.9 55.2462 25.1397 55.1266 25.4202C55.007 25.7007 54.9756 26.0093 55.0363 26.3072C55.0971 26.605 55.2473 26.8787 55.4679 27.0935C55.6885 27.3082 55.9696 27.4546 56.2757 27.5139C56.5818 27.5732 56.8991 27.5429 57.1874 27.4267C57.4758 27.3105 57.7222 27.1138 57.8957 26.8613C58.0691 26.6088 58.1616 26.312 58.1616 26.0084C58.1618 25.8068 58.1211 25.6072 58.0419 25.421C57.9628 25.2347 57.8466 25.0655 57.7002 24.9229C57.5538 24.7804 57.3799 24.6673 57.1886 24.5901C56.9972 24.513 56.7921 24.4733 56.585 24.4733ZM56.585 27.3071C56.321 27.3071 56.0629 27.2309 55.8434 27.0882C55.6239 26.9455 55.4528 26.7427 55.3518 26.5054C55.2507 26.2681 55.2243 26.0069 55.2758 25.755C55.3273 25.503 55.4544 25.2716 55.6411 25.09C55.8278 24.9084 56.0656 24.7847 56.3246 24.7346C56.5835 24.6844 56.8519 24.7102 57.0958 24.8085C57.3397 24.9068 57.5482 25.0732 57.6949 25.2868C57.8415 25.5004 57.9198 25.7515 57.9198 26.0084C57.9198 26.3528 57.7792 26.6832 57.5289 26.9267C57.2785 27.1703 56.939 27.3071 56.585 27.3071Z" fill="black"/>
<path opacity="0.1" d="M92.9856 24.4733C92.6735 24.4733 92.3685 24.5633 92.109 24.732C91.8496 24.9007 91.6474 25.1404 91.5279 25.4209C91.4085 25.7014 91.3773 26.0101 91.4382 26.3078C91.499 26.6056 91.6493 26.8791 91.8699 27.0938C92.0906 27.3085 92.3717 27.4547 92.6778 27.5139C92.9838 27.5732 93.301 27.5428 93.5893 27.4266C93.8776 27.3104 94.124 27.1136 94.2974 26.8612C94.4708 26.6088 94.5633 26.312 94.5633 26.0084C94.5633 25.6012 94.3971 25.2108 94.1012 24.9229C93.8053 24.635 93.404 24.4733 92.9856 24.4733ZM92.9856 27.3071C92.7216 27.3071 92.4635 27.2309 92.244 27.0882C92.0245 26.9455 91.8534 26.7427 91.7523 26.5054C91.6513 26.2681 91.6249 26.0069 91.6764 25.755C91.7279 25.503 91.855 25.2716 92.0417 25.09C92.2284 24.9084 92.4662 24.7847 92.7252 24.7346C92.9841 24.6844 93.2525 24.7102 93.4964 24.8085C93.7403 24.9068 93.9488 25.0732 94.0954 25.2868C94.2421 25.5004 94.3204 25.7515 94.3204 26.0084C94.3204 26.3528 94.1798 26.6832 93.9294 26.9267C93.6791 27.1703 93.3396 27.3071 92.9856 27.3071Z" fill="black"/>
<path d="M113.967 83.5832C113.72 83.4023 113.449 83.2544 113.162 83.1433C113.14 83.1323 113.116 83.1261 113.092 83.1253C112.497 82.7104 111.942 82.2451 111.433 81.7348C111.541 81.6504 111.641 81.5681 111.747 81.4868C111.096 81.1851 110.735 80.494 110.384 79.8705C109.455 78.2129 108.231 76.729 106.769 75.4879C106.733 75.3539 106.524 75.3823 106.412 75.2958C106.376 75.2618 106.349 75.2189 106.335 75.1717C106.321 75.1244 106.32 75.0744 106.333 75.0268C106.35 74.9297 106.396 74.84 106.421 74.7451C106.48 74.5225 106.428 74.2883 106.402 74.0593C106.376 73.8304 106.387 73.5751 106.543 73.4041C106.593 73.3482 106.657 73.305 106.706 73.248C106.757 73.1809 106.793 73.104 106.812 73.0224C106.831 72.9408 106.831 72.8562 106.814 72.7743C106.803 72.61 106.766 72.4482 106.706 72.2942C107.237 70.8875 107.768 69.4783 108.299 68.0667C108.671 67.0813 109.046 66.0747 109.084 65.0239C109.114 64.1799 108.891 63.3031 108.366 62.6585C108.461 62.6363 108.557 62.6131 108.651 62.5868C108.031 61.787 107.964 60.7278 107.947 59.7202C107.939 59.218 107.921 58.7155 107.894 58.2126C108.074 58.2896 108.257 58.3581 108.443 58.4172L108.617 58.4689C108.898 58.5492 109.186 58.6091 109.476 58.6483C109.604 58.6662 109.734 58.6799 109.864 58.6884C109.677 58.234 109.491 57.7789 109.305 57.3231C109.208 57.1214 109.15 56.9046 109.132 56.6827V56.6405C109.132 56.6152 109.132 56.5899 109.137 56.5646C109.144 56.5042 109.159 56.4447 109.179 56.3873C109.189 56.3589 109.2 56.3311 109.213 56.304C109.252 56.2208 109.298 56.1414 109.352 56.0666C109.391 56.0086 109.434 55.9526 109.477 55.8957C109.639 55.7122 109.77 55.5054 109.867 55.2827C109.905 55.1699 109.925 55.0522 109.926 54.9335C109.929 54.8131 109.918 54.6929 109.894 54.5748C109.879 54.4967 109.859 54.4176 109.837 54.3416C109.823 54.2941 109.808 54.2466 109.793 54.2002L109.78 54.1622C109.768 54.1264 109.756 54.0915 109.743 54.0567L109.73 54.0209C109.716 53.9829 109.702 53.9459 109.687 53.908L109.678 53.8858C109.471 53.3678 109.196 52.874 109.027 52.3412C108.983 52.1994 108.947 52.0554 108.919 51.9097C108.911 51.8728 108.906 51.8348 108.9 51.7979C108.893 51.761 108.89 51.7346 108.885 51.7029C108.881 51.6713 108.876 51.6291 108.871 51.5921L108.862 51.4866C108.862 51.4529 108.856 51.4191 108.854 51.3811C108.854 51.3168 108.847 51.2524 108.846 51.1881C108.846 51.1649 108.846 51.1427 108.846 51.1195C108.846 51.0709 108.846 51.0214 108.846 50.9728C108.846 50.9465 108.846 50.9201 108.846 50.8948C108.846 50.8462 108.854 50.7977 108.858 50.7502C108.858 50.727 108.858 50.7038 108.866 50.6816C108.873 50.6113 108.883 50.541 108.895 50.4706C108.906 50.4084 108.918 50.3451 108.931 50.2818C108.97 50.1085 108.991 49.9317 108.992 49.7543C108.992 49.7205 108.992 49.6857 108.984 49.6487C108.977 49.6118 108.975 49.5918 108.97 49.5643C108.969 49.5559 108.969 49.5475 108.97 49.539C108.97 49.52 108.96 49.501 108.956 49.4821C108.952 49.4631 108.95 49.4641 108.947 49.4557C108.944 49.4472 108.935 49.4188 108.929 49.4008C108.922 49.3829 108.923 49.385 108.92 49.3765C108.917 49.3681 108.905 49.3386 108.896 49.3206L108.889 49.3016C108.878 49.2784 108.866 49.2563 108.854 49.2341C108.812 49.1571 108.763 49.0837 108.709 49.0147C108.352 48.5589 107.759 48.2118 107.432 47.7096C107.242 47.3841 107.118 47.0258 107.067 46.6545C107.051 46.5701 107.037 46.4857 107.021 46.4024C107.006 46.319 106.993 46.2367 106.978 46.1544C106.968 46.1038 106.959 46.0489 106.948 46.0025L106.941 45.9698C106.933 45.9297 106.924 45.8886 106.914 45.8485L106.908 45.82C106.898 45.7778 106.888 45.7356 106.877 45.6934L106.871 45.6712C106.86 45.6269 106.848 45.5826 106.836 45.5383C106.836 45.533 106.836 45.5277 106.836 45.5225C106.823 45.476 106.809 45.4296 106.795 45.3832V45.3737C106.78 45.3252 106.764 45.2777 106.748 45.2302C106.732 45.1817 106.715 45.1321 106.696 45.0836C106.677 45.034 106.658 44.9844 106.638 44.9359C106.501 44.596 106.316 44.2763 106.089 43.9863C105.592 43.366 104.825 42.9207 104.029 42.9503C103.601 42.9661 103.191 43.1117 102.789 43.2562L101.745 43.6308L102.037 43.4999C101.733 43.5263 101.423 43.5538 101.149 43.6846C100.874 43.8154 100.642 44.0718 100.634 44.3714C100.628 44.5455 100.699 44.7185 100.676 44.8916C100.638 45.1775 100.368 45.3716 100.228 45.6248C100.146 45.7774 100.108 45.9489 100.12 46.1207V46.1291C100.12 46.1492 100.12 46.1682 100.12 46.1882C100.119 46.1938 100.119 46.1995 100.12 46.2051V46.2388C99.6858 46.0553 99.2521 45.8643 98.8183 45.6596C98.1016 45.3167 97.3761 44.9137 96.9294 44.2638C96.7862 44.0528 96.6756 43.8249 96.5336 43.616C96.3706 43.3912 96.1893 43.1795 95.9914 42.983L94.6609 41.5819C94.559 41.7686 94.6902 41.9891 94.7932 42.1748C94.9026 42.3696 94.9854 42.5774 95.0394 42.7931C95.0656 42.8633 95.0633 42.9407 95.0328 43.0094C94.9844 43.066 94.9216 43.1092 94.8507 43.1349C94.7291 43.2093 94.6363 43.3208 94.5867 43.4519C94.5371 43.583 94.5334 43.7264 94.5763 43.8597C94.6235 43.991 94.7051 44.1081 94.8129 44.1995C94.9206 44.2909 95.051 44.3534 95.1912 44.3809C95.2851 44.3913 95.3773 44.4133 95.4655 44.4463C95.626 44.5233 95.7019 44.7027 95.8168 44.8367C96.0261 45.0815 96.359 45.1733 96.6767 45.2534C97.169 45.8063 97.6808 46.3359 98.1731 46.8888C98.9181 47.7254 99.6804 48.5768 100.652 49.1423C100.753 49.2014 100.856 49.2563 100.96 49.3069C100.96 49.3238 100.96 49.3407 100.954 49.3576C100.927 49.4823 100.944 49.6122 101.001 49.7268C101.088 49.8608 101.267 49.9009 101.426 49.9283L102.161 50.056C102.155 50.1487 102.143 50.241 102.126 50.3324C102.116 50.3883 102.104 50.4432 102.093 50.4991L102.08 50.5709C102.08 50.5709 102.08 50.5782 102.08 50.5814C102.08 50.5846 102.08 50.6194 102.072 50.6394C102.065 50.6595 102.072 50.6532 102.072 50.6595V50.7101V50.7312C102.072 50.7534 102.072 50.7766 102.072 50.7998C102.097 51.0804 102.289 51.3126 102.481 51.5267L102.584 51.6481C102.421 51.8483 102.306 52.0821 102.249 52.3317C102.217 52.4883 102.201 52.6478 102.201 52.8076C102.103 52.8988 102.029 53.0117 101.985 53.1367C101.933 53.3096 101.914 53.4901 101.928 53.6695V53.6822C101.928 53.7487 101.928 53.8141 101.928 53.8805C101.916 54.1326 101.959 54.3844 102.054 54.6191C102.064 54.6381 102.075 54.6549 102.084 54.6729C101.922 54.9831 101.651 55.2247 101.457 55.5169C101.26 55.8414 101.171 56.2168 101.202 56.5921C101.233 56.9674 101.382 57.3244 101.629 57.6143C101.778 57.781 101.968 57.9414 101.986 58.163C101.983 58.2634 101.973 58.3636 101.955 58.4626C101.938 58.701 102.051 58.9268 102.111 59.1579C102.162 59.3499 102.165 59.5799 102.052 59.7339C101.938 59.8958 101.885 60.0913 101.903 60.2868C101.959 60.5853 101.832 60.8839 101.81 61.1867C101.8 61.3165 101.81 61.4484 101.798 61.5781C101.782 61.7025 101.756 61.8253 101.719 61.9453C101.719 61.958 101.712 61.9717 101.708 61.9854C101.44 62.1004 101.175 62.2196 100.919 62.3578C100.78 62.4177 100.666 62.52 100.593 62.649C100.55 62.7786 100.544 62.9172 100.576 63.0499L100.807 64.6135L100.767 64.5966C100.785 64.8526 100.804 65.1097 100.823 65.3679C100.837 65.563 100.856 65.7698 100.975 65.926C101.036 65.989 101.091 66.0571 101.139 66.1296C101.23 66.309 101.121 66.5179 101.041 66.7014C100.961 66.885 100.933 67.1456 101.11 67.2448C101.202 67.3072 101.301 67.3589 101.406 67.3988C101.189 68.2787 101.388 69.2008 101.59 70.0839C101.744 70.7591 101.898 71.4337 102.053 72.1075C102.113 72.3937 102.148 72.6847 102.155 72.9768C102.155 73.019 102.155 73.0612 102.155 73.1034C102.177 73.5052 102.249 73.9029 102.372 74.2872C102.612 75.0764 102.381 76.0238 102.457 76.8837C102.508 77.2973 102.593 77.7062 102.711 78.1065C103.235 80.1279 103.702 82.1093 103.882 84.1877C104.075 84.4263 104.336 84.6037 104.633 84.6973C104.611 84.9527 104.64 85.2449 104.633 85.3937C104.632 85.5168 104.613 85.6392 104.574 85.7566C104.482 85.9908 104.249 86.1438 104.007 86.2261C103.931 86.2514 103.854 86.2715 103.776 86.2894L103.863 86.2176C103.367 86.1128 102.849 86.2015 102.419 86.4645C102.352 86.498 102.292 86.5441 102.243 86.6002C102.194 86.6564 102.157 86.7214 102.134 86.7916C102.116 86.9256 102.152 87.0612 102.234 87.1704C102.473 87.5104 102.828 87.7562 103.237 87.8635C103.641 87.967 104.056 88.0233 104.473 88.0313L105.239 88.0745C105.213 88.1171 105.203 88.1673 105.213 88.216C105.222 88.2647 105.249 88.3085 105.289 88.3393C105.371 88.3977 105.468 88.432 105.569 88.4385C105.882 88.4837 106.2 88.4883 106.514 88.4522C106.593 88.45 106.669 88.4234 106.731 88.3763C106.745 88.3635 106.757 88.348 106.765 88.3306C106.773 88.3133 106.777 88.2945 106.777 88.2755C106.777 88.2565 106.773 88.2378 106.765 88.2204C106.757 88.2031 106.745 88.1875 106.731 88.1748C106.777 88.1733 106.821 88.1585 106.858 88.1321C106.895 88.1058 106.924 88.0692 106.939 88.0271C106.969 87.9413 106.979 87.85 106.967 87.7601C106.947 87.413 106.915 86.9087 106.73 86.5996C106.698 86.5433 106.648 86.4988 106.587 86.4729C106.527 86.447 106.459 86.4411 106.395 86.4561C106.275 85.8383 106.202 85.2127 106.178 84.5844C106.369 84.5147 106.555 84.4329 106.735 84.3397C106.203 83.503 106.193 82.4406 106.356 81.4678C106.42 81.1607 106.468 80.8504 106.498 80.5383C106.533 79.9159 106.437 79.2111 106.082 78.6962C106.729 79.0962 107.301 79.5999 107.774 80.186C108.523 81.1355 108.98 82.2855 109.898 83.0768C110.019 82.9621 110.141 82.8482 110.265 82.735C110.458 83.0543 110.642 83.3803 110.814 83.713C110.95 83.9577 111.057 84.2164 111.133 84.4842C111.218 84.894 111.228 85.315 111.163 85.7281C111.137 85.9476 111.107 86.166 111.07 86.3833C111.056 86.4763 111.034 86.568 111.004 86.6576C111.004 86.629 110.997 86.6009 110.984 86.5753C110.926 86.4772 110.767 86.5215 110.68 86.589C110.526 86.7018 110.398 86.8458 110.306 87.011C110.255 87.0917 110.232 87.1858 110.239 87.2801C110.253 87.3368 110.279 87.3899 110.317 87.4355C110.354 87.4811 110.402 87.5181 110.456 87.5438C110.858 87.7728 111.363 87.6071 111.795 87.4383C111.914 87.3966 112.028 87.341 112.133 87.2727C112.35 87.1208 112.468 86.8707 112.684 86.723C112.799 86.6615 112.91 86.5932 113.017 86.5183C113.217 86.34 113.234 86.0393 113.38 85.8136C113.623 85.4243 114.166 85.324 114.379 84.9115C114.625 84.4557 114.338 83.8807 113.967 83.5832Z" fill="url(#paint0_linear)"/>
<path d="M104.618 85.4401C104.618 85.562 104.598 85.683 104.559 85.7988C104.468 86.0299 104.234 86.1808 103.993 86.262C103.752 86.3432 103.496 86.3675 103.251 86.4382C103.143 86.462 103.044 86.5121 102.962 86.5838C102.745 86.7948 102.875 87.1746 103.129 87.3318C103.382 87.489 103.705 87.4837 104.007 87.4637C104.647 87.4275 105.282 87.3396 105.907 87.201C106.132 87.1493 106.396 87.048 106.432 86.8254C106.438 86.7546 106.432 86.6832 106.414 86.6144C106.26 85.8591 106.179 85.0917 106.17 84.3218C106.17 84.2711 104.912 84.2384 104.795 84.3123C104.533 84.48 104.633 85.1806 104.618 85.4401Z" fill="#A1616A"/>
<path d="M110.227 82.7529C110.435 83.0884 110.63 83.4306 110.813 83.7795C110.949 84.0205 111.056 84.2757 111.132 84.5402C111.216 84.9443 111.226 85.3597 111.161 85.7672C111.136 85.9831 111.105 86.1987 111.068 86.4139C111.032 86.6249 110.975 86.8644 110.79 86.9858C110.872 87.0334 110.965 87.0625 111.06 87.0707C111.156 87.0789 111.253 87.0661 111.343 87.0332C111.521 86.9658 111.686 86.8676 111.829 86.7431C112.759 85.9972 113.456 84.9137 113.491 83.7415C113.5 83.6499 113.483 83.5576 113.44 83.4756C113.396 83.4183 113.341 83.3702 113.277 83.3343C112.584 82.8747 111.94 82.3484 111.354 81.7633C111.32 81.7183 111.27 81.6871 111.214 81.6757C111.169 81.676 111.126 81.688 111.088 81.7105C110.731 81.8846 110.135 82.1326 109.986 82.5282C110.088 82.578 110.171 82.6563 110.227 82.7529Z" fill="#A1616A"/>
<path d="M105.889 86.665C105.109 86.9815 104.263 87.0954 103.418 87.2041C103.31 87.2168 103.194 87.2252 103.122 87.1514C103.094 87.1169 103.077 87.0749 103.073 87.0309C103.07 86.9868 103.08 86.9428 103.103 86.9045C103.149 86.8284 103.21 86.7623 103.284 86.7104L103.844 86.2535C103.356 86.1526 102.846 86.238 102.419 86.492C102.286 86.5569 102.183 86.6706 102.135 86.8085C102.117 86.9412 102.153 87.0755 102.235 87.183C102.475 87.5194 102.83 87.7618 103.237 87.8667C103.641 87.9685 104.055 88.0241 104.472 88.0323L105.231 88.0745C105.205 88.1166 105.196 88.1666 105.205 88.2148C105.215 88.2631 105.242 88.3063 105.282 88.3362C105.365 88.3947 105.462 88.4295 105.564 88.4364C105.877 88.4807 106.194 88.485 106.507 88.4491C106.586 88.4478 106.662 88.4215 106.724 88.3742C106.739 88.3617 106.75 88.3464 106.758 88.3293C106.766 88.3122 106.77 88.2937 106.77 88.275C106.77 88.2563 106.766 88.2377 106.758 88.2206C106.75 88.2036 106.739 88.1883 106.724 88.1758C106.77 88.1745 106.814 88.1598 106.852 88.1336C106.889 88.1075 106.917 88.0711 106.933 88.0292C106.962 87.9446 106.971 87.855 106.961 87.7665C106.94 87.4246 106.909 86.9224 106.723 86.6238C106.538 86.3253 106.152 86.5595 105.889 86.665Z" fill="#3F3D56"/>
<path d="M113.947 83.6486C113.7 83.4702 113.429 83.3244 113.143 83.215C113.131 83.2065 113.118 83.2005 113.104 83.1977C113.09 83.1949 113.075 83.1952 113.061 83.1987C113.047 83.2021 113.034 83.2086 113.023 83.2176C113.012 83.2267 113.003 83.2381 112.997 83.2509C112.485 83.927 112.085 84.6771 111.812 85.4739C111.657 85.9275 111.534 86.4107 111.22 86.7779C111.179 86.8264 111.112 86.876 111.055 86.8475C110.974 86.8074 111.024 86.6798 110.978 86.6028C110.922 86.5057 110.768 86.55 110.676 86.6165C110.521 86.7285 110.393 86.8726 110.303 87.0385C110.251 87.1171 110.227 87.2102 110.235 87.3033C110.249 87.359 110.275 87.4111 110.311 87.456C110.348 87.5008 110.394 87.5373 110.447 87.5628C110.849 87.7897 111.354 87.6262 111.785 87.4573C111.904 87.4166 112.017 87.3616 112.122 87.2938C112.339 87.1451 112.457 86.8971 112.673 86.7526C112.788 86.6918 112.899 86.6242 113.006 86.55C113.205 86.3738 113.223 86.0774 113.368 85.8537C113.611 85.4707 114.154 85.3715 114.367 84.9643C114.604 84.5096 114.318 83.9419 113.947 83.6486Z" fill="#3F3D56"/>
<path d="M107.895 62.5741C108.748 63.1966 109.106 64.3034 109.068 65.3394C109.03 66.3755 108.656 67.3693 108.285 68.341C107.753 69.7316 107.223 71.1218 106.693 72.5116C106.752 72.6641 106.788 72.8239 106.801 72.9864C106.818 73.0671 106.817 73.1505 106.798 73.2308C106.78 73.3112 106.744 73.3868 106.693 73.4527C106.643 73.5086 106.584 73.5519 106.53 73.6067C106.374 73.7755 106.364 74.0288 106.389 74.2535C106.414 74.4782 106.467 74.7103 106.408 74.9298C106.383 75.0237 106.337 75.1123 106.32 75.2072C106.308 75.2544 106.309 75.3039 106.323 75.3506C106.337 75.3973 106.363 75.4395 106.399 75.4731C106.507 75.5575 106.724 75.5301 106.756 75.663C108.214 76.8849 109.436 78.3497 110.367 79.9887C110.718 80.6038 111.073 81.2853 111.729 81.5829C111.089 82.0755 110.477 82.5999 109.893 83.1538C108.977 82.3731 108.52 81.2368 107.772 80.3052C107.298 79.7258 106.727 79.2289 106.082 78.8355C106.437 79.343 106.533 80.0393 106.498 80.6523C106.468 80.9602 106.42 81.2663 106.356 81.5692C106.188 82.5292 106.203 83.5737 106.735 84.403C106.167 84.69 105.514 84.9031 104.88 84.8176C104.482 84.7626 104.12 84.5618 103.869 84.2564C103.689 82.2053 103.219 80.2472 102.699 78.2563C102.58 77.8591 102.496 77.4529 102.447 77.042C102.371 76.1979 102.602 75.2589 102.36 74.4803C102.238 74.1016 102.165 73.7096 102.143 73.3134C102.143 73.2712 102.143 73.2301 102.143 73.1879C102.136 72.8999 102.101 72.6132 102.041 72.3312L101.579 70.335C101.377 69.4625 101.176 68.5531 101.394 67.6848C101.29 67.6457 101.191 67.5951 101.099 67.5339C100.922 67.4358 100.95 67.1794 101.03 66.9979C101.111 66.8165 101.218 66.6107 101.128 66.4335C101.08 66.3615 101.025 66.294 100.964 66.232C100.845 66.0779 100.827 65.8743 100.812 65.6823L100.756 64.9205C101.083 65.0468 101.356 65.2789 101.528 65.5778C101.101 64.9343 101.311 64.0164 101.627 63.3137C101.685 63.0985 101.814 62.9075 101.993 62.7692C102.173 62.631 102.393 62.5529 102.622 62.5467C104.36 62.2576 106.484 61.5412 107.895 62.5741Z" fill="#3F3D56"/>
<path opacity="0.1" d="M107.103 66.9061C107.103 66.9061 106.248 67.4611 106.248 67.8768C106.248 68.2925 106.031 72.0336 106.031 72.0336V74.6713C106.031 74.6713 106.173 76.0576 106.031 76.4036C105.889 76.7497 106.031 78.3439 106.031 78.5517C106.031 78.7596 106.248 76.4036 106.248 76.4036V73.9053L106.465 68.2228L107.103 66.9061Z" fill="black"/>
<path d="M102.337 47.6895L101.839 47.5007C100.822 47.104 99.804 46.7062 98.8194 46.241C98.1037 45.9023 97.3783 45.5024 96.9326 44.8641C96.7895 44.6531 96.6789 44.4316 96.5369 44.2237C96.3736 44.0014 96.1923 43.7922 95.9947 43.5981L94.6653 42.216C94.5633 42.4006 94.6935 42.6179 94.7976 42.8005C94.9065 42.9928 94.9892 43.1982 95.0437 43.4113C95.0693 43.48 95.0665 43.5556 95.0361 43.6223C94.9882 43.6788 94.9257 43.7218 94.855 43.7468C94.734 43.8191 94.6412 43.9286 94.5915 44.058C94.5418 44.1875 94.538 44.3293 94.5807 44.4611C94.6283 44.5914 94.7099 44.7073 94.8175 44.7976C94.9251 44.8879 95.055 44.9493 95.1944 44.976C95.2882 44.9865 95.3803 45.0081 95.4688 45.0403C95.6293 45.1173 95.7052 45.2935 95.8201 45.4254C96.0294 45.667 96.3623 45.7588 96.6789 45.8369C97.1712 46.3823 97.6819 46.9046 98.1742 47.45C98.9181 48.2751 99.6793 49.1149 100.651 49.6741C100.996 49.8793 101.374 50.0269 101.769 50.1109C101.9 49.2918 102.089 48.4827 102.337 47.6895Z" fill="#A1616A"/>
<path opacity="0.15" d="M102.337 47.6895L101.839 47.5007C100.822 47.104 99.804 46.7062 98.8194 46.241C98.1037 45.9023 97.3783 45.5024 96.9326 44.8641C96.7895 44.6531 96.6789 44.4316 96.5369 44.2237C96.3736 44.0014 96.1923 43.7922 95.9947 43.5981L94.6653 42.216C94.5633 42.4006 94.6935 42.6179 94.7976 42.8005C94.9065 42.9928 94.9892 43.1982 95.0437 43.4113C95.0693 43.48 95.0665 43.5556 95.0361 43.6223C94.9882 43.6788 94.9257 43.7218 94.855 43.7468C94.734 43.8191 94.6412 43.9286 94.5915 44.058C94.5418 44.1875 94.538 44.3293 94.5807 44.4611C94.6283 44.5914 94.7099 44.7073 94.8175 44.7976C94.9251 44.8879 95.055 44.9493 95.1944 44.976C95.2882 44.9865 95.3803 45.0081 95.4688 45.0403C95.6293 45.1173 95.7052 45.2935 95.8201 45.4254C96.0294 45.667 96.3623 45.7588 96.6789 45.8369C97.1712 46.3823 97.6819 46.9046 98.1742 47.45C98.9181 48.2751 99.6793 49.1149 100.651 49.6741C100.996 49.8793 101.374 50.0269 101.769 50.1109C101.9 49.2918 102.089 48.4827 102.337 47.6895Z" fill="black"/>
<path d="M101.426 50.4443C101.267 50.4169 101.088 50.3789 101.001 50.246C100.944 50.1333 100.927 50.0049 100.954 49.882C101.041 49.0868 101.223 48.3042 101.497 47.5503C101.738 47.9861 102.214 48.2403 102.666 48.4693C103.068 48.6871 103.488 48.8734 103.921 49.0263C103.813 48.9926 103.547 50.6152 103.398 50.7144C103.209 50.8431 102.753 50.669 102.544 50.6342L101.426 50.4443Z" fill="#6C63FF"/>
<path d="M102.581 49.9653C103.84 49.9653 104.86 48.9724 104.86 47.7476C104.86 46.5228 103.84 45.5299 102.581 45.5299C101.322 45.5299 100.302 46.5228 100.302 47.7476C100.302 48.9724 101.322 49.9653 102.581 49.9653Z" fill="#A1616A"/>
<path d="M102.118 49.5834C102.118 49.5834 103.613 50.8305 102.972 51.6618C102.332 52.4932 101.975 53.0482 102.829 53.1178C103.684 53.1874 106.532 51.7315 106.532 51.7315C106.532 51.7315 103.897 49.653 104.325 48.406C104.752 47.1589 102.118 49.5834 102.118 49.5834Z" fill="#FBBEBE"/>
<path d="M103.553 51.5352C103.234 51.6097 102.943 51.769 102.712 51.9951C102.48 52.2213 102.318 52.5055 102.244 52.8161C102.076 53.563 102.432 54.3986 102.096 55.0865C101.938 55.4136 101.644 55.6583 101.446 55.9654C101.25 56.2849 101.162 56.6557 101.192 57.0264C101.223 57.3971 101.372 57.7493 101.617 58.0343C101.766 58.1989 101.956 58.3582 101.974 58.5755C101.971 58.6746 101.961 58.7734 101.943 58.871C101.926 59.1062 102.039 59.3299 102.1 59.5578C102.15 59.7466 102.153 59.9735 102.04 60.1254C101.926 60.2846 101.874 60.4778 101.892 60.6709C101.947 60.9663 101.82 61.2606 101.798 61.5592C101.788 61.6879 101.798 61.8166 101.786 61.9453C101.77 62.0679 101.744 62.1889 101.708 62.3072L101.517 62.992C102.552 63.4224 103.651 63.5775 104.77 63.5575C105.772 63.5385 106.76 63.337 107.74 63.1354C108.039 63.0742 108.337 63.0131 108.631 62.9339C108.01 62.1448 107.944 61.0992 107.927 60.1064C107.9 58.4512 107.773 56.7989 107.546 55.1583C107.847 54.6065 107.98 53.9914 108.104 53.3784C108.159 53.1315 108.182 52.8787 108.173 52.6261C108.143 52.0986 107.893 51.5975 107.649 51.1195C107.426 50.6827 107.184 50.2228 106.686 50.0339C106.566 49.9846 106.435 49.966 106.305 49.9799C106.176 49.9937 106.052 50.0396 105.946 50.113C105.569 50.3894 105.681 50.8663 105.585 51.2736C105.458 51.8011 104.958 52.1799 104.425 52.3286C104.028 52.4299 103.616 52.4674 103.207 52.4394C103.167 52.4372 103.128 52.4241 103.095 52.4017C103.062 52.3793 103.036 52.3485 103.02 52.3126C103.004 52.2767 102.999 52.2372 103.004 52.1984C103.01 52.1597 103.027 52.1233 103.053 52.0933C103.227 51.9055 103.403 51.7146 103.553 51.5352Z" fill="#6C63FF"/>
<path d="M105.318 60.1074C104.474 60.7784 103.621 61.4558 102.647 61.9305C102.076 62.2091 101.468 62.4148 100.912 62.7144C100.775 62.7733 100.66 62.874 100.587 63.0014C100.543 63.129 100.537 63.2662 100.57 63.3971L100.817 65.0556C100.885 65.505 101.329 65.7941 101.684 66.0811C101.665 65.9302 101.633 65.8131 101.707 65.6791C101.733 65.6372 101.76 65.5967 101.791 65.5578C101.942 65.3341 101.948 65.044 101.911 64.7781C101.874 64.5122 101.802 64.2506 101.817 63.9784C101.813 63.9333 101.822 63.8883 101.843 63.8476C101.863 63.8069 101.893 63.772 101.931 63.7463C103.143 63.1797 104.447 62.745 105.671 62.207C105.995 62.0796 106.301 61.9111 106.579 61.7058C106.859 61.4969 107.047 61.1928 107.106 60.8544C107.112 60.8325 107.113 60.8096 107.109 60.7873C107.105 60.765 107.097 60.7437 107.084 60.7246C107.06 60.6984 107.028 60.68 106.992 60.6719C106.443 60.4777 105.864 60.2994 105.318 60.1074Z" fill="#A1616A"/>
<path opacity="0.1" d="M102.975 53.1484C102.556 53.2169 102.116 53.428 101.974 53.8183C101.923 53.9895 101.904 54.1681 101.917 54.3458C101.904 54.5956 101.948 54.8452 102.044 55.077C102.116 55.2049 102.201 55.3252 102.298 55.4357C103.3 56.6849 103.803 58.2537 104.779 59.5229C104.866 59.6348 105.024 59.7804 104.975 59.9123C104.958 59.9465 104.942 59.9817 104.929 60.0178C104.924 60.0519 104.928 60.0865 104.941 60.1187C104.953 60.1509 104.974 60.1796 105 60.2024C105.052 60.2488 105.093 60.3062 105.118 60.3701C105.137 60.4366 105.091 60.5231 105.021 60.5179C105.138 60.8702 105.497 61.076 105.837 61.2427C106.403 61.5201 107.03 61.7385 107.66 61.6784C107.778 61.2173 107.943 60.6962 107.877 60.2267C107.808 59.8681 107.685 59.5213 107.514 59.1969L107.09 58.2959C106.729 57.5268 106.364 56.7524 105.861 56.0635C105.68 55.8454 105.527 55.6061 105.407 55.3513C105.278 55.0253 104.923 54.7963 104.708 54.5168C104.39 54.0947 104.058 53.6727 103.631 53.3678C103.459 53.2391 103.184 53.1146 102.975 53.1484Z" fill="black"/>
<path d="M102.975 52.9405C102.556 53.0091 102.116 53.2201 101.974 53.6094C101.923 53.7806 101.904 53.9593 101.917 54.137C101.904 54.3868 101.948 54.6363 102.044 54.8681C102.116 54.9961 102.201 55.1163 102.298 55.2268C103.3 56.476 103.803 58.0448 104.779 59.3141C104.866 59.4259 105.024 59.5715 104.975 59.7034C104.957 59.7376 104.942 59.7728 104.929 59.8089C104.924 59.843 104.928 59.8777 104.941 59.9098C104.953 59.942 104.974 59.9707 105 59.9935C105.052 60.0399 105.093 60.0973 105.118 60.1613C105.137 60.2277 105.091 60.3143 105.021 60.309C105.138 60.6614 105.497 60.8671 105.837 61.0338C106.403 61.3113 107.03 61.5297 107.66 61.4695C107.778 61.0085 107.943 60.4873 107.877 60.0178C107.808 59.6592 107.685 59.3124 107.514 58.9881L107.09 58.0871C106.729 57.3179 106.364 56.5435 105.861 55.8546C105.68 55.6362 105.527 55.3966 105.407 55.1414C105.278 54.8164 104.923 54.5875 104.708 54.3079C104.39 53.8859 104.058 53.4638 103.631 53.1589C103.459 53.0313 103.184 52.9068 102.975 52.9405Z" fill="#6C63FF"/>
<path d="M102.019 44.1045C101.717 44.1299 101.406 44.1573 101.132 44.286C100.859 44.4147 100.626 44.6679 100.617 44.9634C100.617 45.1353 100.682 45.3062 100.66 45.4761C100.622 45.7589 100.352 45.9498 100.213 46.1999C99.9699 46.6345 100.159 47.1874 100.473 47.5714C100.788 47.9555 101.214 48.2509 101.537 48.6328C101.792 48.9382 101.976 49.2933 102.078 49.6741C102.179 50.055 102.195 50.4526 102.125 50.84C102.084 50.9905 102.065 51.1455 102.067 51.301C102.092 51.5774 102.284 51.8064 102.475 52.0174C103.403 53.0736 104.262 54.1857 105.047 55.3471C105.282 55.6844 105.494 56.0369 105.68 56.4021C105.864 56.7799 106.005 57.1829 106.261 57.5173C106.498 57.8045 106.787 58.046 107.115 58.2295C107.941 58.7254 108.879 59.0197 109.847 59.0872L109.289 57.7399C109.19 57.5004 109.088 57.2483 109.121 56.9919C109.183 56.5066 109.686 56.188 109.849 55.7259C109.958 55.4283 109.909 55.1002 109.82 54.7974C109.623 54.1148 109.228 53.5008 109.016 52.8224C108.829 52.2276 108.788 51.5987 108.894 50.9855C108.941 50.7155 109.017 50.4443 108.982 50.1732C108.879 49.3481 107.885 48.9535 107.425 48.254C107.128 47.8046 107.07 47.2507 106.97 46.7253C106.826 45.9583 106.569 45.1923 106.073 44.5804C105.576 43.9684 104.81 43.5253 104.012 43.558C103.585 43.5739 103.176 43.7184 102.774 43.8598L101.729 44.2301" fill="#3F3D56"/>
<g opacity="0.1">
<path opacity="0.1" d="M106.685 45.8274C106.775 46.3011 106.832 46.798 107.059 47.2211C107.028 47.0565 107.002 46.8909 106.97 46.7284C106.897 46.3148 106.78 45.9097 106.621 45.5193C106.648 45.6217 106.667 45.724 106.685 45.8274Z" fill="black"/>
<path opacity="0.1" d="M108.609 50.0877C108.503 50.7012 108.545 51.3303 108.73 51.9256C108.781 52.087 108.839 52.2421 108.908 52.4004C108.818 51.9343 108.813 51.4564 108.894 50.9887C108.941 50.7186 109.017 50.4475 108.982 50.1763C108.95 49.944 108.852 49.7249 108.7 49.5433C108.684 49.7269 108.64 49.9073 108.609 50.0877Z" fill="black"/>
<path opacity="0.1" d="M109.82 54.8006C109.76 54.6024 109.688 54.4079 109.603 54.2182C109.64 54.4218 109.626 54.6309 109.562 54.828C109.398 55.2891 108.894 55.6088 108.833 56.0941C108.801 56.3504 108.902 56.6026 109.001 56.8421C109.038 56.9318 109.075 57.0225 109.11 57.1122C109.107 57.0732 109.107 57.0341 109.11 56.9951C109.172 56.5098 109.675 56.1911 109.839 55.729C109.956 55.4315 109.909 55.1034 109.82 54.8006Z" fill="black"/>
<path opacity="0.1" d="M106.831 57.3316C106.503 57.1477 106.214 56.9058 105.977 56.6184C105.72 56.284 105.579 55.8799 105.395 55.5032C105.209 55.1378 104.997 54.7853 104.762 54.4482C103.977 53.2866 103.119 52.1741 102.191 51.1174C102.157 51.0805 102.125 51.0425 102.092 51.0045C102.07 51.1021 102.061 51.2022 102.067 51.302C102.092 51.5785 102.284 51.8074 102.475 52.0184C103.403 53.0747 104.262 54.1868 105.047 55.3481C105.282 55.6854 105.494 56.0379 105.68 56.4032C105.864 56.7809 106.005 57.1839 106.261 57.5184C106.498 57.8055 106.787 58.0471 107.115 58.2305C107.941 58.7265 108.879 59.0207 109.847 59.0883L109.468 58.1809C108.533 58.1013 107.63 57.8104 106.831 57.3316Z" fill="black"/>
<path opacity="0.1" d="M101.252 47.736C100.926 47.3541 100.502 47.0639 100.188 46.6757C100.16 46.6398 100.133 46.6029 100.105 46.5638C100.099 46.9331 100.229 47.2923 100.473 47.5756C100.788 47.9649 101.214 48.2551 101.537 48.637C101.663 48.7853 101.772 48.9467 101.862 49.1181C101.795 48.6111 101.584 48.1323 101.252 47.736Z" fill="black"/>
</g>
<path opacity="0.1" d="M89.0722 46.9056H103.942C104.46 46.9056 104.88 46.497 104.88 45.993V38.2553C104.88 37.7513 104.46 37.3427 103.942 37.3427H89.0722C88.5541 37.3427 88.1342 37.7513 88.1342 38.2553V45.993C88.1342 46.497 88.5541 46.9056 89.0722 46.9056Z" fill="#444053"/>
<path opacity="0.1" d="M60.5006 51.1564H45.6309C45.1129 51.1564 44.6929 51.565 44.6929 52.069V59.8067C44.6929 60.3108 45.1129 60.7194 45.6309 60.7194H60.5006C61.0186 60.7194 61.4386 60.3108 61.4386 59.8067V52.069C61.4386 51.565 61.0186 51.1564 60.5006 51.1564Z" fill="#444053"/>
<path opacity="0.1" d="M89.0722 60.7194H103.942C104.46 60.7194 104.88 60.3108 104.88 59.8067V52.069C104.88 51.565 104.46 51.1564 103.942 51.1564H89.0722C88.5541 51.1564 88.1342 51.565 88.1342 52.069V59.8067C88.1342 60.3108 88.5541 60.7194 89.0722 60.7194Z" fill="#444053"/>
<path opacity="0.1" d="M67.3515 60.7194H82.2212C82.7392 60.7194 83.1592 60.3108 83.1592 59.8067V52.069C83.1592 51.565 82.7392 51.1564 82.2212 51.1564H67.3515C66.8335 51.1564 66.4135 51.565 66.4135 52.069V59.8067C66.4135 60.3108 66.8335 60.7194 67.3515 60.7194Z" fill="#444053"/>
<path opacity="0.1" d="M60.5006 64.9702H45.6309C45.1129 64.9702 44.6929 65.3787 44.6929 65.8828V73.6205C44.6929 74.1245 45.1129 74.5331 45.6309 74.5331H60.5006C61.0186 74.5331 61.4386 74.1245 61.4386 73.6205V65.8828C61.4386 65.3787 61.0186 64.9702 60.5006 64.9702Z" fill="#444053"/>
<path opacity="0.1" d="M89.0722 74.5341H103.942C104.46 74.5341 104.88 74.1255 104.88 73.6215V65.8838C104.88 65.3798 104.46 64.9712 103.942 64.9712H89.0722C88.5541 64.9712 88.1342 65.3798 88.1342 65.8838V73.6215C88.1342 74.1255 88.5541 74.5341 89.0722 74.5341Z" fill="#444053"/>
<path opacity="0.1" d="M67.3515 74.5341H82.2212C82.7392 74.5341 83.1592 74.1255 83.1592 73.6215V65.8838C83.1592 65.3798 82.7392 64.9712 82.2212 64.9712H67.3515C66.8335 64.9712 66.4135 65.3798 66.4135 65.8838V73.6215C66.4135 74.1255 66.8335 74.5341 67.3515 74.5341Z" fill="#444053"/>
<path d="M60.5006 37.3428H45.6309C45.1129 37.3428 44.6929 37.7514 44.6929 38.2554V45.9931C44.6929 46.4971 45.1129 46.9057 45.6309 46.9057H60.5006C61.0186 46.9057 61.4386 46.4971 61.4386 45.9931V38.2554C61.4386 37.7514 61.0186 37.3428 60.5006 37.3428Z" fill="#6C63FF"/>
<path d="M58.924 36.906L58.1378 36.1369C58.099 36.0987 58.0528 36.0685 58.0019 36.0478C57.951 36.0272 57.8964 36.0165 57.8412 36.0165C57.7861 36.0165 57.7315 36.0272 57.6806 36.0478C57.6297 36.0685 57.5835 36.0987 57.5447 36.1369L52.6076 40.8962L50.5192 38.8494C50.4411 38.7734 50.3352 38.7307 50.2248 38.7307C50.1143 38.7307 50.0084 38.7734 49.9304 38.8494L49.1355 39.6143C49.0575 39.6911 49.0137 39.7948 49.0137 39.9028C49.0137 40.0109 49.0575 40.1146 49.1355 40.1914L52.3073 43.3006C52.386 43.3765 52.4924 43.4191 52.6033 43.4191C52.7141 43.4191 52.8205 43.3765 52.8993 43.3006L58.924 37.4831C58.9631 37.4453 58.9942 37.4004 59.0155 37.3508C59.0367 37.3013 59.0476 37.2482 59.0476 37.1945C59.0476 37.1409 59.0367 37.0877 59.0155 37.0382C58.9942 36.9887 58.9631 36.9437 58.924 36.906Z" fill="#3ACC6C"/>
<path d="M67.3397 46.8962H82.2094C82.7274 46.8962 83.1473 46.4876 83.1473 45.9836V38.2459C83.1473 37.7419 82.7274 37.3333 82.2094 37.3333H67.3397C66.8216 37.3333 66.4017 37.7419 66.4017 38.2459V45.9836C66.4017 46.4876 66.8216 46.8962 67.3397 46.8962Z" fill="#6C63FF"/>
<path d="M80.7194 36.906L79.9333 36.1369C79.8945 36.0987 79.8483 36.0685 79.7974 36.0478C79.7465 36.0272 79.6919 36.0165 79.6367 36.0165C79.5816 36.0165 79.527 36.0272 79.4761 36.0478C79.4252 36.0685 79.379 36.0987 79.3401 36.1369L74.4031 40.8962L72.3146 38.8494C72.2365 38.7734 72.1307 38.7307 72.0202 38.7307C71.9098 38.7307 71.8039 38.7734 71.7258 38.8494L70.931 39.6143C70.8529 39.6911 70.8091 39.7948 70.8091 39.9028C70.8091 40.0109 70.8529 40.1146 70.931 40.1914L74.1027 43.3006C74.1815 43.3765 74.2879 43.4191 74.3988 43.4191C74.5096 43.4191 74.616 43.3765 74.6948 43.3006L80.7194 37.4831C80.7586 37.4453 80.7897 37.4004 80.8109 37.3508C80.8322 37.3013 80.8431 37.2482 80.8431 37.1945C80.8431 37.1409 80.8322 37.0877 80.8109 37.0382C80.7897 36.9887 80.7586 36.9437 80.7194 36.906Z" fill="#3ACC6C"/>
<defs>
<linearGradient id="paint0_linear" x1="104.514" y1="88.4754" x2="104.514" y2="41.5798" gradientUnits="userSpaceOnUse">
<stop stop-color="#808080" stop-opacity="0.25"/>
<stop offset="0.54" stop-color="#808080" stop-opacity="0.12"/>
<stop offset="1" stop-color="#808080" stop-opacity="0.1"/>
</linearGradient>
</defs>
</svg>
